ISO-10303-21;
HEADER;
/* Generated by software containing ST-Developer
 * from STEP Tools, Inc. (www.steptools.com) 
 */

FILE_DESCRIPTION(
/* description */ ('STEP AP203'),
/* implementation_level */ '2;1');

FILE_NAME(
/* name */ 'kikkersetcolor.step',
/* time_stamp */ '2026-05-18T13:18:05+09:00',
/* author */ (''),
/* organization */ (''),
/* preprocessor_version */ 'ST-DEVELOPER v20.1',
/* originating_system */ 'Autodesk Translation Framework v15.8.0.0',
/* authorisation */ '');

FILE_SCHEMA (('AUTOMOTIVE_DESIGN { 1 0 10303 214 3 1 1 }'));
ENDSEC;

DATA;
#10=MECHANICAL_DESIGN_GEOMETRIC_PRESENTATION_REPRESENTATION('',(#17),#1554);
#11=ITEM_DEFINED_TRANSFORMATION($,$,#844,#935);
#12=(
REPRESENTATION_RELATIONSHIP($,$,#1565,#1564)
REPRESENTATION_RELATIONSHIP_WITH_TRANSFORMATION(#11)
SHAPE_REPRESENTATION_RELATIONSHIP()
);
#13=CONTEXT_DEPENDENT_SHAPE_REPRESENTATION(#12,#1563);
#14=NEXT_ASSEMBLY_USAGE_OCCURRENCE('PSCS3-8_b:1','PSCS3-8_b:1',
'PSCS3-8_b:1',#1567,#1568,'PSCS3-8_b:1');
#15=SHAPE_REPRESENTATION_RELATIONSHIP('SRR','None',#1565,#16);
#16=ADVANCED_BREP_SHAPE_REPRESENTATION('',(#18),#1553);
#17=STYLED_ITEM('',(#1579),#18);
#18=MANIFOLD_SOLID_BREP('\X2\30DC30C730A3\X0\1',#830);
#19=CONICAL_SURFACE('',#926,8.,0.785398163397448);
#20=CONICAL_SURFACE('',#927,7.5,0.785398163397449);
#21=TOROIDAL_SURFACE('',#903,1.33856217223385,1.);
#22=TOROIDAL_SURFACE('',#906,1.33856217223385,1.);
#23=TOROIDAL_SURFACE('',#909,1.33856217223385,1.);
#24=TOROIDAL_SURFACE('',#912,1.33856217223385,1.);
#25=B_SPLINE_CURVE_WITH_KNOTS('',3,(#1213,#1214,#1215,#1216,#1217,#1218,
#1219,#1220,#1221,#1222,#1223,#1224,#1225,#1226,#1227,#1228,#1229,#1230,
#1231,#1232,#1233,#1234,#1235,#1236,#1237,#1238),.UNSPECIFIED.,.F.,.F.,
(4,2,2,2,2,2,2,2,2,2,2,2,4),(0.16503382938656,0.20040672327181,0.274257964404072,
0.359665753643356,0.445073542882639,0.510656904770006,0.543448585713689,
0.576240266657373,0.609031947601056,0.64182362854474,0.707406990432107,
0.79281477967139,0.878222568910674),.UNSPECIFIED.);
#26=B_SPLINE_CURVE_WITH_KNOTS('',3,(#1240,#1241,#1242,#1243),
 .UNSPECIFIED.,.F.,.F.,(4,4),(0.434154066860096,0.452294780726996),
 .UNSPECIFIED.);
#27=B_SPLINE_CURVE_WITH_KNOTS('',3,(#1247,#1248,#1249,#1250),
 .UNSPECIFIED.,.F.,.F.,(4,4),(0.200947095815218,0.219087809682118),
 .UNSPECIFIED.);
#28=B_SPLINE_CURVE_WITH_KNOTS('',3,(#1251,#1252,#1253,#1254,#1255,#1256),
 .UNSPECIFIED.,.F.,.F.,(4,2,4),(0.878222568910674,0.952073810042935,0.987446703928185),
 .UNSPECIFIED.);
#29=B_SPLINE_CURVE_WITH_KNOTS('',3,(#1366,#1367,#1368,#1369,#1370,#1371,
#1372,#1373,#1374,#1375,#1376,#1377,#1378,#1379,#1380,#1381,#1382,#1383,
#1384,#1385,#1386,#1387,#1388),.UNSPECIFIED.,.F.,.F.,(4,2,2,2,2,3,2,2,2,
2,4),(-0.601817263366043,-0.433299546982159,-0.264781830598276,-0.132390915299138,
-0.0661954576495689,0.,0.0661954576495689,0.132390915299138,0.264781830598276,
0.433299546982159,0.601817263366043),.UNSPECIFIED.);
#30=B_SPLINE_CURVE_WITH_KNOTS('',3,(#1389,#1390,#1391,#1392,#1393,#1394,
#1395,#1396,#1397,#1398,#1399,#1400,#1401,#1402,#1403,#1404,#1405,#1406),
 .UNSPECIFIED.,.F.,.F.,(4,2,2,2,2,2,2,2,4),(0.601817263366043,0.727763642132967,
0.85371002089989,0.96586150999606,1.07801299909223,1.1901644881884,1.30231597728457,
1.42826235605149,1.55420873481842),.UNSPECIFIED.);
#31=B_SPLINE_CURVE_WITH_KNOTS('',3,(#1410,#1411,#1412,#1413,#1414,#1415),
 .UNSPECIFIED.,.F.,.F.,(4,2,4),(-0.237712418881172,-0.204256662218725,-0.16865356971901),
 .UNSPECIFIED.);
#32=B_SPLINE_CURVE_WITH_KNOTS('',3,(#1419,#1420,#1421,#1422,#1423,#1424),
 .UNSPECIFIED.,.F.,.F.,(4,2,4),(0.168653569719057,0.204256662218725,0.237712418881319),
 .UNSPECIFIED.);
#33=B_SPLINE_CURVE_WITH_KNOTS('',3,(#1429,#1430,#1431,#1432,#1433,#1434),
 .UNSPECIFIED.,.F.,.F.,(4,2,4),(-0.237712418881172,-0.204256662218725,-0.16865356971901),
 .UNSPECIFIED.);
#34=B_SPLINE_CURVE_WITH_KNOTS('',3,(#1438,#1439,#1440,#1441,#1442,#1443),
 .UNSPECIFIED.,.F.,.F.,(4,2,4),(0.168653569719057,0.204256662218725,0.237712418881319),
 .UNSPECIFIED.);
#35=B_SPLINE_CURVE_WITH_KNOTS('',3,(#1448,#1449,#1450,#1451,#1452,#1453),
 .UNSPECIFIED.,.F.,.F.,(4,2,4),(0.724459836373059,0.760062928872728,0.793518685535321),
 .UNSPECIFIED.);
#36=B_SPLINE_CURVE_WITH_KNOTS('',3,(#1457,#1458,#1459,#1460,#1461,#1462),
 .UNSPECIFIED.,.F.,.F.,(4,2,4),(0.31809384777283,0.351549604435277,0.387152696934993),
 .UNSPECIFIED.);
#37=B_SPLINE_CURVE_WITH_KNOTS('',3,(#1467,#1468,#1469,#1470,#1471,#1472),
 .UNSPECIFIED.,.F.,.F.,(4,2,4),(0.724459836373059,0.760062928872728,0.793518685535321),
 .UNSPECIFIED.);
#38=B_SPLINE_CURVE_WITH_KNOTS('',3,(#1476,#1477,#1478,#1479,#1480,#1481),
 .UNSPECIFIED.,.F.,.F.,(4,2,4),(0.31809384777283,0.351549604435277,0.387152696934993),
 .UNSPECIFIED.);
#39=B_SPLINE_CURVE_WITH_KNOTS('',3,(#1493,#1494,#1495,#1496),
 .UNSPECIFIED.,.F.,.F.,(4,4),(9.90908291088817E-7,0.000708829189465574),
 .UNSPECIFIED.);
#40=B_SPLINE_CURVE_WITH_KNOTS('',3,(#1498,#1499,#1500,#1501),
 .UNSPECIFIED.,.F.,.F.,(4,4),(0.0156704056496592,0.0163783974364911),
 .UNSPECIFIED.);
#41=B_SPLINE_CURVE_WITH_KNOTS('',3,(#1515,#1516,#1517,#1518),
 .UNSPECIFIED.,.F.,.F.,(4,4),(9.90908291088817E-7,0.000708829189465574),
 .UNSPECIFIED.);
#42=B_SPLINE_CURVE_WITH_KNOTS('',3,(#1520,#1521,#1522,#1523),
 .UNSPECIFIED.,.F.,.F.,(4,4),(0.0156704056496592,0.0163783974364911),
 .UNSPECIFIED.);
#43=CYLINDRICAL_SURFACE('',#854,1.7);
#44=CYLINDRICAL_SURFACE('',#856,1.7);
#45=CYLINDRICAL_SURFACE('',#858,3.5);
#46=CYLINDRICAL_SURFACE('',#864,3.5);
#47=CYLINDRICAL_SURFACE('',#871,3.5);
#48=CYLINDRICAL_SURFACE('',#877,3.5);
#49=CYLINDRICAL_SURFACE('',#884,1.);
#50=CYLINDRICAL_SURFACE('',#886,8.);
#51=CYLINDRICAL_SURFACE('',#889,1.);
#52=CYLINDRICAL_SURFACE('',#891,1.25);
#53=CYLINDRICAL_SURFACE('',#892,1.6);
#54=CYLINDRICAL_SURFACE('',#895,8.);
#55=CYLINDRICAL_SURFACE('',#900,8.);
#56=CYLINDRICAL_SURFACE('',#924,1.75);
#57=CYLINDRICAL_SURFACE('',#925,1.75);
#58=CYLINDRICAL_SURFACE('',#929,1.7);
#59=CYLINDRICAL_SURFACE('',#933,3.);
#60=FACE_BOUND('',#118,.T.);
#61=FACE_BOUND('',#121,.T.);
#62=FACE_BOUND('',#127,.T.);
#63=FACE_BOUND('',#131,.T.);
#64=FACE_BOUND('',#134,.T.);
#65=FACE_BOUND('',#138,.T.);
#66=FACE_BOUND('',#141,.T.);
#67=FACE_BOUND('',#149,.T.);
#68=FACE_BOUND('',#156,.T.);
#69=FACE_BOUND('',#159,.T.);
#70=FACE_BOUND('',#169,.T.);
#71=FACE_OUTER_BOUND('',#116,.T.);
#72=FACE_OUTER_BOUND('',#117,.T.);
#73=FACE_OUTER_BOUND('',#119,.T.);
#74=FACE_OUTER_BOUND('',#120,.T.);
#75=FACE_OUTER_BOUND('',#122,.T.);
#76=FACE_OUTER_BOUND('',#123,.T.);
#77=FACE_OUTER_BOUND('',#124,.T.);
#78=FACE_OUTER_BOUND('',#125,.T.);
#79=FACE_OUTER_BOUND('',#126,.T.);
#80=FACE_OUTER_BOUND('',#128,.T.);
#81=FACE_OUTER_BOUND('',#129,.T.);
#82=FACE_OUTER_BOUND('',#130,.T.);
#83=FACE_OUTER_BOUND('',#132,.T.);
#84=FACE_OUTER_BOUND('',#133,.T.);
#85=FACE_OUTER_BOUND('',#135,.T.);
#86=FACE_OUTER_BOUND('',#136,.T.);
#87=FACE_OUTER_BOUND('',#137,.T.);
#88=FACE_OUTER_BOUND('',#139,.T.);
#89=FACE_OUTER_BOUND('',#140,.T.);
#90=FACE_OUTER_BOUND('',#142,.T.);
#91=FACE_OUTER_BOUND('',#143,.T.);
#92=FACE_OUTER_BOUND('',#144,.T.);
#93=FACE_OUTER_BOUND('',#145,.T.);
#94=FACE_OUTER_BOUND('',#146,.T.);
#95=FACE_OUTER_BOUND('',#147,.T.);
#96=FACE_OUTER_BOUND('',#148,.T.);
#97=FACE_OUTER_BOUND('',#150,.T.);
#98=FACE_OUTER_BOUND('',#151,.T.);
#99=FACE_OUTER_BOUND('',#152,.T.);
#100=FACE_OUTER_BOUND('',#153,.T.);
#101=FACE_OUTER_BOUND('',#154,.T.);
#102=FACE_OUTER_BOUND('',#155,.T.);
#103=FACE_OUTER_BOUND('',#157,.T.);
#104=FACE_OUTER_BOUND('',#158,.T.);
#105=FACE_OUTER_BOUND('',#160,.T.);
#106=FACE_OUTER_BOUND('',#161,.T.);
#107=FACE_OUTER_BOUND('',#162,.T.);
#108=FACE_OUTER_BOUND('',#163,.T.);
#109=FACE_OUTER_BOUND('',#164,.T.);
#110=FACE_OUTER_BOUND('',#165,.T.);
#111=FACE_OUTER_BOUND('',#166,.T.);
#112=FACE_OUTER_BOUND('',#167,.T.);
#113=FACE_OUTER_BOUND('',#168,.T.);
#114=FACE_OUTER_BOUND('',#170,.T.);
#115=FACE_OUTER_BOUND('',#171,.T.);
#116=EDGE_LOOP('',(#525,#526,#527,#528));
#117=EDGE_LOOP('',(#529,#530,#531,#532));
#118=EDGE_LOOP('',(#533));
#119=EDGE_LOOP('',(#534,#535,#536,#537));
#120=EDGE_LOOP('',(#538,#539,#540,#541));
#121=EDGE_LOOP('',(#542));
#122=EDGE_LOOP('',(#543,#544,#545,#546));
#123=EDGE_LOOP('',(#547,#548,#549,#550,#551,#552,#553,#554));
#124=EDGE_LOOP('',(#555,#556,#557,#558));
#125=EDGE_LOOP('',(#559,#560,#561,#562));
#126=EDGE_LOOP('',(#563,#564,#565,#566,#567));
#127=EDGE_LOOP('',(#568));
#128=EDGE_LOOP('',(#569,#570,#571,#572));
#129=EDGE_LOOP('',(#573,#574,#575,#576,#577));
#130=EDGE_LOOP('',(#578,#579,#580,#581,#582));
#131=EDGE_LOOP('',(#583));
#132=EDGE_LOOP('',(#584,#585,#586,#587));
#133=EDGE_LOOP('',(#588,#589,#590,#591,#592));
#134=EDGE_LOOP('',(#593));
#135=EDGE_LOOP('',(#594,#595,#596,#597));
#136=EDGE_LOOP('',(#598,#599,#600,#601,#602));
#137=EDGE_LOOP('',(#603,#604,#605,#606,#607));
#138=EDGE_LOOP('',(#608));
#139=EDGE_LOOP('',(#609,#610,#611,#612,#613,#614,#615,#616));
#140=EDGE_LOOP('',(#617,#618,#619,#620,#621,#622,#623));
#141=EDGE_LOOP('',(#624,#625,#626,#627));
#142=EDGE_LOOP('',(#628,#629,#630,#631));
#143=EDGE_LOOP('',(#632,#633,#634,#635));
#144=EDGE_LOOP('',(#636,#637,#638,#639));
#145=EDGE_LOOP('',(#640,#641,#642,#643,#644));
#146=EDGE_LOOP('',(#645,#646,#647,#648));
#147=EDGE_LOOP('',(#649,#650,#651,#652,#653));
#148=EDGE_LOOP('',(#654,#655,#656,#657));
#149=EDGE_LOOP('',(#658,#659));
#150=EDGE_LOOP('',(#660,#661,#662,#663));
#151=EDGE_LOOP('',(#664,#665,#666,#667));
#152=EDGE_LOOP('',(#668,#669,#670,#671));
#153=EDGE_LOOP('',(#672,#673,#674,#675));
#154=EDGE_LOOP('',(#676,#677,#678,#679,#680,#681));
#155=EDGE_LOOP('',(#682,#683,#684,#685,#686,#687,#688,#689));
#156=EDGE_LOOP('',(#690));
#157=EDGE_LOOP('',(#691,#692,#693,#694,#695,#696,#697,#698));
#158=EDGE_LOOP('',(#699,#700,#701,#702,#703,#704,#705,#706));
#159=EDGE_LOOP('',(#707));
#160=EDGE_LOOP('',(#708,#709,#710,#711,#712,#713));
#161=EDGE_LOOP('',(#714,#715,#716,#717,#718,#719,#720,#721));
#162=EDGE_LOOP('',(#722,#723,#724,#725));
#163=EDGE_LOOP('',(#726,#727,#728,#729));
#164=EDGE_LOOP('',(#730,#731,#732,#733,#734,#735,#736,#737));
#165=EDGE_LOOP('',(#738,#739,#740,#741,#742,#743,#744,#745));
#166=EDGE_LOOP('',(#746,#747,#748,#749));
#167=EDGE_LOOP('',(#750,#751,#752,#753));
#168=EDGE_LOOP('',(#754));
#169=EDGE_LOOP('',(#755));
#170=EDGE_LOOP('',(#756,#757,#758,#759,#760));
#171=EDGE_LOOP('',(#761,#762));
#172=LINE('',#1185,#228);
#173=LINE('',#1187,#229);
#174=LINE('',#1188,#230);
#175=LINE('',#1191,#231);
#176=LINE('',#1193,#232);
#177=LINE('',#1194,#233);
#178=LINE('',#1199,#234);
#179=LINE('',#1200,#235);
#180=LINE('',#1203,#236);
#181=LINE('',#1204,#237);
#182=LINE('',#1211,#238);
#183=LINE('',#1260,#239);
#184=LINE('',#1266,#240);
#185=LINE('',#1269,#241);
#186=LINE('',#1274,#242);
#187=LINE('',#1276,#243);
#188=LINE('',#1277,#244);
#189=LINE('',#1283,#245);
#190=LINE('',#1286,#246);
#191=LINE('',#1292,#247);
#192=LINE('',#1293,#248);
#193=LINE('',#1301,#249);
#194=LINE('',#1304,#250);
#195=LINE('',#1309,#251);
#196=LINE('',#1311,#252);
#197=LINE('',#1312,#253);
#198=LINE('',#1318,#254);
#199=LINE('',#1321,#255);
#200=LINE('',#1327,#256);
#201=LINE('',#1328,#257);
#202=LINE('',#1332,#258);
#203=LINE('',#1333,#259);
#204=LINE('',#1336,#260);
#205=LINE('',#1341,#261);
#206=LINE('',#1346,#262);
#207=LINE('',#1348,#263);
#208=LINE('',#1350,#264);
#209=LINE('',#1362,#265);
#210=LINE('',#1485,#266);
#211=LINE('',#1487,#267);
#212=LINE('',#1488,#268);
#213=LINE('',#1489,#269);
#214=LINE('',#1492,#270);
#215=LINE('',#1502,#271);
#216=LINE('',#1503,#272);
#217=LINE('',#1508,#273);
#218=LINE('',#1509,#274);
#219=LINE('',#1512,#275);
#220=LINE('',#1514,#276);
#221=LINE('',#1524,#277);
#222=LINE('',#1526,#278);
#223=LINE('',#1528,#279);
#224=LINE('',#1529,#280);
#225=LINE('',#1532,#281);
#226=LINE('',#1540,#282);
#227=LINE('',#1546,#283);
#228=VECTOR('',#944,10.);
#229=VECTOR('',#945,10.);
#230=VECTOR('',#946,10.);
#231=VECTOR('',#949,10.);
#232=VECTOR('',#950,10.);
#233=VECTOR('',#951,10.);
#234=VECTOR('',#956,10.);
#235=VECTOR('',#957,10.);
#236=VECTOR('',#960,10.);
#237=VECTOR('',#961,10.);
#238=VECTOR('',#970,1.7);
#239=VECTOR('',#977,1.7);
#240=VECTOR('',#982,10.);
#241=VECTOR('',#985,10.);
#242=VECTOR('',#990,10.);
#243=VECTOR('',#991,10.);
#244=VECTOR('',#992,10.);
#245=VECTOR('',#999,10.);
#246=VECTOR('',#1002,10.);
#247=VECTOR('',#1009,10.);
#248=VECTOR('',#1010,10.);
#249=VECTOR('',#1017,10.);
#250=VECTOR('',#1020,10.);
#251=VECTOR('',#1025,10.);
#252=VECTOR('',#1026,10.);
#253=VECTOR('',#1027,10.);
#254=VECTOR('',#1034,10.);
#255=VECTOR('',#1037,10.);
#256=VECTOR('',#1044,10.);
#257=VECTOR('',#1045,10.);
#258=VECTOR('',#1050,10.);
#259=VECTOR('',#1051,10.);
#260=VECTOR('',#1054,10.);
#261=VECTOR('',#1059,1000.);
#262=VECTOR('',#1066,10.);
#263=VECTOR('',#1069,1.25);
#264=VECTOR('',#1072,1.6);
#265=VECTOR('',#1091,1000.);
#266=VECTOR('',#1120,1000.);
#267=VECTOR('',#1121,1000.);
#268=VECTOR('',#1122,1000.);
#269=VECTOR('',#1123,10.);
#270=VECTOR('',#1126,1000.);
#271=VECTOR('',#1127,1000.);
#272=VECTOR('',#1128,10.);
#273=VECTOR('',#1133,1000.);
#274=VECTOR('',#1134,1000.);
#275=VECTOR('',#1137,1000.);
#276=VECTOR('',#1140,10.);
#277=VECTOR('',#1141,1000.);
#278=VECTOR('',#1144,10.);
#279=VECTOR('',#1145,1000.);
#280=VECTOR('',#1146,1000.);
#281=VECTOR('',#1151,1000.);
#282=VECTOR('',#1164,1.7);
#283=VECTOR('',#1173,3.);
#284=CIRCLE('',#846,8.);
#285=CIRCLE('',#848,1.7);
#286=CIRCLE('',#851,1.7);
#287=CIRCLE('',#853,8.);
#288=CIRCLE('',#855,1.7);
#289=CIRCLE('',#857,1.7);
#290=CIRCLE('',#859,3.5);
#291=CIRCLE('',#860,3.5);
#292=CIRCLE('',#862,3.5);
#293=CIRCLE('',#863,1.25);
#294=CIRCLE('',#865,3.5);
#295=CIRCLE('',#867,1.);
#296=CIRCLE('',#868,8.);
#297=CIRCLE('',#870,1.25);
#298=CIRCLE('',#872,3.5);
#299=CIRCLE('',#873,3.5);
#300=CIRCLE('',#875,3.5);
#301=CIRCLE('',#876,1.6);
#302=CIRCLE('',#878,3.5);
#303=CIRCLE('',#880,1.);
#304=CIRCLE('',#881,8.);
#305=CIRCLE('',#883,1.6);
#306=CIRCLE('',#885,1.);
#307=CIRCLE('',#887,8.);
#308=CIRCLE('',#888,8.);
#309=CIRCLE('',#890,1.);
#310=CIRCLE('',#894,8.);
#311=CIRCLE('',#896,8.);
#312=CIRCLE('',#897,8.);
#313=CIRCLE('',#899,8.);
#314=CIRCLE('',#901,8.);
#315=CIRCLE('',#902,8.);
#316=CIRCLE('',#904,1.75);
#317=CIRCLE('',#905,2.25);
#318=CIRCLE('',#907,1.75);
#319=CIRCLE('',#908,2.25);
#320=CIRCLE('',#910,2.25);
#321=CIRCLE('',#911,1.75);
#322=CIRCLE('',#913,2.25);
#323=CIRCLE('',#914,1.75);
#324=CIRCLE('',#917,1.7);
#325=CIRCLE('',#919,7.5);
#326=CIRCLE('',#923,7.5);
#327=CIRCLE('',#930,1.7);
#328=CIRCLE('',#932,3.);
#329=VERTEX_POINT('',#1181);
#330=VERTEX_POINT('',#1182);
#331=VERTEX_POINT('',#1184);
#332=VERTEX_POINT('',#1186);
#333=VERTEX_POINT('',#1190);
#334=VERTEX_POINT('',#1192);
#335=VERTEX_POINT('',#1195);
#336=VERTEX_POINT('',#1198);
#337=VERTEX_POINT('',#1202);
#338=VERTEX_POINT('',#1205);
#339=VERTEX_POINT('',#1210);
#340=VERTEX_POINT('',#1212);
#341=VERTEX_POINT('',#1239);
#342=VERTEX_POINT('',#1244);
#343=VERTEX_POINT('',#1246);
#344=VERTEX_POINT('',#1258);
#345=VERTEX_POINT('',#1262);
#346=VERTEX_POINT('',#1263);
#347=VERTEX_POINT('',#1265);
#348=VERTEX_POINT('',#1267);
#349=VERTEX_POINT('',#1271);
#350=VERTEX_POINT('',#1273);
#351=VERTEX_POINT('',#1275);
#352=VERTEX_POINT('',#1278);
#353=VERTEX_POINT('',#1281);
#354=VERTEX_POINT('',#1285);
#355=VERTEX_POINT('',#1287);
#356=VERTEX_POINT('',#1291);
#357=VERTEX_POINT('',#1294);
#358=VERTEX_POINT('',#1297);
#359=VERTEX_POINT('',#1298);
#360=VERTEX_POINT('',#1300);
#361=VERTEX_POINT('',#1302);
#362=VERTEX_POINT('',#1306);
#363=VERTEX_POINT('',#1308);
#364=VERTEX_POINT('',#1310);
#365=VERTEX_POINT('',#1313);
#366=VERTEX_POINT('',#1316);
#367=VERTEX_POINT('',#1320);
#368=VERTEX_POINT('',#1322);
#369=VERTEX_POINT('',#1326);
#370=VERTEX_POINT('',#1329);
#371=VERTEX_POINT('',#1334);
#372=VERTEX_POINT('',#1338);
#373=VERTEX_POINT('',#1340);
#374=VERTEX_POINT('',#1344);
#375=VERTEX_POINT('',#1359);
#376=VERTEX_POINT('',#1361);
#377=VERTEX_POINT('',#1364);
#378=VERTEX_POINT('',#1365);
#379=VERTEX_POINT('',#1408);
#380=VERTEX_POINT('',#1409);
#381=VERTEX_POINT('',#1416);
#382=VERTEX_POINT('',#1418);
#383=VERTEX_POINT('',#1427);
#384=VERTEX_POINT('',#1428);
#385=VERTEX_POINT('',#1435);
#386=VERTEX_POINT('',#1437);
#387=VERTEX_POINT('',#1446);
#388=VERTEX_POINT('',#1447);
#389=VERTEX_POINT('',#1454);
#390=VERTEX_POINT('',#1456);
#391=VERTEX_POINT('',#1465);
#392=VERTEX_POINT('',#1466);
#393=VERTEX_POINT('',#1473);
#394=VERTEX_POINT('',#1475);
#395=VERTEX_POINT('',#1484);
#396=VERTEX_POINT('',#1486);
#397=VERTEX_POINT('',#1491);
#398=VERTEX_POINT('',#1497);
#399=VERTEX_POINT('',#1504);
#400=VERTEX_POINT('',#1507);
#401=VERTEX_POINT('',#1510);
#402=VERTEX_POINT('',#1519);
#403=VERTEX_POINT('',#1527);
#404=VERTEX_POINT('',#1539);
#405=VERTEX_POINT('',#1543);
#406=EDGE_CURVE('',#329,#330,#284,.T.);
#407=EDGE_CURVE('',#331,#329,#172,.T.);
#408=EDGE_CURVE('',#332,#331,#173,.T.);
#409=EDGE_CURVE('',#332,#330,#174,.T.);
#410=EDGE_CURVE('',#333,#329,#175,.T.);
#411=EDGE_CURVE('',#334,#333,#176,.T.);
#412=EDGE_CURVE('',#331,#334,#177,.T.);
#413=EDGE_CURVE('',#335,#335,#285,.T.);
#414=EDGE_CURVE('',#334,#336,#178,.T.);
#415=EDGE_CURVE('',#336,#332,#179,.T.);
#416=EDGE_CURVE('',#330,#337,#180,.T.);
#417=EDGE_CURVE('',#336,#337,#181,.T.);
#418=EDGE_CURVE('',#338,#338,#286,.T.);
#419=EDGE_CURVE('',#337,#333,#287,.T.);
#420=EDGE_CURVE('',#335,#339,#182,.T.);
#421=EDGE_CURVE('',#340,#339,#25,.T.);
#422=EDGE_CURVE('',#341,#340,#26,.T.);
#423=EDGE_CURVE('',#341,#342,#288,.T.);
#424=EDGE_CURVE('',#343,#342,#27,.T.);
#425=EDGE_CURVE('',#339,#343,#28,.T.);
#426=EDGE_CURVE('',#344,#344,#289,.T.);
#427=EDGE_CURVE('',#344,#338,#183,.T.);
#428=EDGE_CURVE('',#345,#346,#290,.T.);
#429=EDGE_CURVE('',#347,#346,#184,.T.);
#430=EDGE_CURVE('',#347,#348,#291,.T.);
#431=EDGE_CURVE('',#348,#345,#185,.T.);
#432=EDGE_CURVE('',#349,#347,#292,.T.);
#433=EDGE_CURVE('',#350,#349,#186,.T.);
#434=EDGE_CURVE('',#351,#350,#187,.T.);
#435=EDGE_CURVE('',#351,#348,#188,.T.);
#436=EDGE_CURVE('',#352,#352,#293,.T.);
#437=EDGE_CURVE('',#346,#353,#294,.T.);
#438=EDGE_CURVE('',#353,#349,#189,.T.);
#439=EDGE_CURVE('',#354,#353,#190,.T.);
#440=EDGE_CURVE('',#354,#355,#295,.F.);
#441=EDGE_CURVE('',#350,#355,#296,.T.);
#442=EDGE_CURVE('',#356,#345,#191,.T.);
#443=EDGE_CURVE('',#354,#356,#192,.T.);
#444=EDGE_CURVE('',#357,#357,#297,.T.);
#445=EDGE_CURVE('',#358,#359,#298,.T.);
#446=EDGE_CURVE('',#360,#359,#193,.T.);
#447=EDGE_CURVE('',#360,#361,#299,.T.);
#448=EDGE_CURVE('',#361,#358,#194,.T.);
#449=EDGE_CURVE('',#362,#360,#300,.T.);
#450=EDGE_CURVE('',#363,#362,#195,.T.);
#451=EDGE_CURVE('',#364,#363,#196,.T.);
#452=EDGE_CURVE('',#364,#361,#197,.T.);
#453=EDGE_CURVE('',#365,#365,#301,.T.);
#454=EDGE_CURVE('',#359,#366,#302,.T.);
#455=EDGE_CURVE('',#366,#362,#198,.T.);
#456=EDGE_CURVE('',#367,#366,#199,.T.);
#457=EDGE_CURVE('',#367,#368,#303,.F.);
#458=EDGE_CURVE('',#368,#363,#304,.T.);
#459=EDGE_CURVE('',#369,#358,#200,.T.);
#460=EDGE_CURVE('',#367,#369,#201,.T.);
#461=EDGE_CURVE('',#370,#370,#305,.T.);
#462=EDGE_CURVE('',#342,#341,#202,.T.);
#463=EDGE_CURVE('',#340,#368,#203,.T.);
#464=EDGE_CURVE('',#369,#371,#306,.T.);
#465=EDGE_CURVE('',#371,#343,#204,.T.);
#466=EDGE_CURVE('',#372,#371,#307,.T.);
#467=EDGE_CURVE('',#372,#373,#205,.F.);
#468=EDGE_CURVE('',#373,#368,#308,.T.);
#469=EDGE_CURVE('',#356,#374,#309,.T.);
#470=EDGE_CURVE('',#374,#355,#206,.T.);
#471=EDGE_CURVE('',#357,#352,#207,.T.);
#472=EDGE_CURVE('',#370,#365,#208,.T.);
#473=EDGE_CURVE('',#371,#364,#310,.T.);
#474=EDGE_CURVE('',#363,#351,#311,.T.);
#475=EDGE_CURVE('',#364,#350,#312,.T.);
#476=EDGE_CURVE('',#351,#374,#313,.T.);
#477=EDGE_CURVE('',#374,#375,#314,.T.);
#478=EDGE_CURVE('',#375,#376,#209,.T.);
#479=EDGE_CURVE('',#355,#376,#315,.T.);
#480=EDGE_CURVE('',#377,#378,#29,.T.);
#481=EDGE_CURVE('',#378,#377,#30,.T.);
#482=EDGE_CURVE('',#379,#380,#31,.T.);
#483=EDGE_CURVE('',#381,#380,#316,.T.);
#484=EDGE_CURVE('',#382,#381,#32,.F.);
#485=EDGE_CURVE('',#379,#382,#317,.T.);
#486=EDGE_CURVE('',#383,#384,#33,.T.);
#487=EDGE_CURVE('',#385,#384,#318,.T.);
#488=EDGE_CURVE('',#386,#385,#34,.F.);
#489=EDGE_CURVE('',#383,#386,#319,.T.);
#490=EDGE_CURVE('',#387,#388,#35,.F.);
#491=EDGE_CURVE('',#389,#387,#320,.T.);
#492=EDGE_CURVE('',#389,#390,#36,.T.);
#493=EDGE_CURVE('',#390,#388,#321,.T.);
#494=EDGE_CURVE('',#391,#392,#37,.F.);
#495=EDGE_CURVE('',#393,#391,#322,.T.);
#496=EDGE_CURVE('',#393,#394,#38,.T.);
#497=EDGE_CURVE('',#394,#392,#323,.T.);
#498=EDGE_CURVE('',#389,#395,#210,.T.);
#499=EDGE_CURVE('',#395,#396,#211,.T.);
#500=EDGE_CURVE('',#382,#396,#212,.T.);
#501=EDGE_CURVE('',#381,#390,#213,.T.);
#502=EDGE_CURVE('',#393,#397,#214,.T.);
#503=EDGE_CURVE('',#376,#397,#39,.T.);
#504=EDGE_CURVE('',#398,#375,#40,.T.);
#505=EDGE_CURVE('',#386,#398,#215,.T.);
#506=EDGE_CURVE('',#385,#394,#216,.T.);
#507=EDGE_CURVE('',#399,#399,#324,.F.);
#508=EDGE_CURVE('',#396,#400,#217,.T.);
#509=EDGE_CURVE('',#400,#383,#218,.T.);
#510=EDGE_CURVE('',#401,#398,#325,.T.);
#511=EDGE_CURVE('',#401,#379,#219,.T.);
#512=EDGE_CURVE('',#388,#380,#220,.T.);
#513=EDGE_CURVE('',#373,#401,#41,.T.);
#514=EDGE_CURVE('',#402,#372,#42,.T.);
#515=EDGE_CURVE('',#402,#387,#221,.T.);
#516=EDGE_CURVE('',#392,#384,#222,.T.);
#517=EDGE_CURVE('',#403,#400,#223,.T.);
#518=EDGE_CURVE('',#403,#391,#224,.T.);
#519=EDGE_CURVE('',#402,#397,#326,.T.);
#520=EDGE_CURVE('',#395,#403,#225,.T.);
#521=EDGE_CURVE('',#399,#404,#226,.T.);
#522=EDGE_CURVE('',#404,#404,#327,.T.);
#523=EDGE_CURVE('',#405,#405,#328,.T.);
#524=EDGE_CURVE('',#405,#378,#227,.T.);
#525=ORIENTED_EDGE('',*,*,#406,.F.);
#526=ORIENTED_EDGE('',*,*,#407,.F.);
#527=ORIENTED_EDGE('',*,*,#408,.F.);
#528=ORIENTED_EDGE('',*,*,#409,.T.);
#529=ORIENTED_EDGE('',*,*,#410,.F.);
#530=ORIENTED_EDGE('',*,*,#411,.F.);
#531=ORIENTED_EDGE('',*,*,#412,.F.);
#532=ORIENTED_EDGE('',*,*,#407,.T.);
#533=ORIENTED_EDGE('',*,*,#413,.F.);
#534=ORIENTED_EDGE('',*,*,#408,.T.);
#535=ORIENTED_EDGE('',*,*,#412,.T.);
#536=ORIENTED_EDGE('',*,*,#414,.T.);
#537=ORIENTED_EDGE('',*,*,#415,.T.);
#538=ORIENTED_EDGE('',*,*,#416,.F.);
#539=ORIENTED_EDGE('',*,*,#409,.F.);
#540=ORIENTED_EDGE('',*,*,#415,.F.);
#541=ORIENTED_EDGE('',*,*,#417,.T.);
#542=ORIENTED_EDGE('',*,*,#418,.F.);
#543=ORIENTED_EDGE('',*,*,#419,.F.);
#544=ORIENTED_EDGE('',*,*,#417,.F.);
#545=ORIENTED_EDGE('',*,*,#414,.F.);
#546=ORIENTED_EDGE('',*,*,#411,.T.);
#547=ORIENTED_EDGE('',*,*,#413,.T.);
#548=ORIENTED_EDGE('',*,*,#420,.T.);
#549=ORIENTED_EDGE('',*,*,#421,.F.);
#550=ORIENTED_EDGE('',*,*,#422,.F.);
#551=ORIENTED_EDGE('',*,*,#423,.T.);
#552=ORIENTED_EDGE('',*,*,#424,.F.);
#553=ORIENTED_EDGE('',*,*,#425,.F.);
#554=ORIENTED_EDGE('',*,*,#420,.F.);
#555=ORIENTED_EDGE('',*,*,#426,.F.);
#556=ORIENTED_EDGE('',*,*,#427,.T.);
#557=ORIENTED_EDGE('',*,*,#418,.T.);
#558=ORIENTED_EDGE('',*,*,#427,.F.);
#559=ORIENTED_EDGE('',*,*,#428,.T.);
#560=ORIENTED_EDGE('',*,*,#429,.F.);
#561=ORIENTED_EDGE('',*,*,#430,.T.);
#562=ORIENTED_EDGE('',*,*,#431,.T.);
#563=ORIENTED_EDGE('',*,*,#430,.F.);
#564=ORIENTED_EDGE('',*,*,#432,.F.);
#565=ORIENTED_EDGE('',*,*,#433,.F.);
#566=ORIENTED_EDGE('',*,*,#434,.F.);
#567=ORIENTED_EDGE('',*,*,#435,.T.);
#568=ORIENTED_EDGE('',*,*,#436,.T.);
#569=ORIENTED_EDGE('',*,*,#432,.T.);
#570=ORIENTED_EDGE('',*,*,#429,.T.);
#571=ORIENTED_EDGE('',*,*,#437,.T.);
#572=ORIENTED_EDGE('',*,*,#438,.T.);
#573=ORIENTED_EDGE('',*,*,#438,.F.);
#574=ORIENTED_EDGE('',*,*,#439,.F.);
#575=ORIENTED_EDGE('',*,*,#440,.T.);
#576=ORIENTED_EDGE('',*,*,#441,.F.);
#577=ORIENTED_EDGE('',*,*,#433,.T.);
#578=ORIENTED_EDGE('',*,*,#428,.F.);
#579=ORIENTED_EDGE('',*,*,#442,.F.);
#580=ORIENTED_EDGE('',*,*,#443,.F.);
#581=ORIENTED_EDGE('',*,*,#439,.T.);
#582=ORIENTED_EDGE('',*,*,#437,.F.);
#583=ORIENTED_EDGE('',*,*,#444,.T.);
#584=ORIENTED_EDGE('',*,*,#445,.T.);
#585=ORIENTED_EDGE('',*,*,#446,.F.);
#586=ORIENTED_EDGE('',*,*,#447,.T.);
#587=ORIENTED_EDGE('',*,*,#448,.T.);
#588=ORIENTED_EDGE('',*,*,#447,.F.);
#589=ORIENTED_EDGE('',*,*,#449,.F.);
#590=ORIENTED_EDGE('',*,*,#450,.F.);
#591=ORIENTED_EDGE('',*,*,#451,.F.);
#592=ORIENTED_EDGE('',*,*,#452,.T.);
#593=ORIENTED_EDGE('',*,*,#453,.T.);
#594=ORIENTED_EDGE('',*,*,#449,.T.);
#595=ORIENTED_EDGE('',*,*,#446,.T.);
#596=ORIENTED_EDGE('',*,*,#454,.T.);
#597=ORIENTED_EDGE('',*,*,#455,.T.);
#598=ORIENTED_EDGE('',*,*,#455,.F.);
#599=ORIENTED_EDGE('',*,*,#456,.F.);
#600=ORIENTED_EDGE('',*,*,#457,.T.);
#601=ORIENTED_EDGE('',*,*,#458,.T.);
#602=ORIENTED_EDGE('',*,*,#450,.T.);
#603=ORIENTED_EDGE('',*,*,#445,.F.);
#604=ORIENTED_EDGE('',*,*,#459,.F.);
#605=ORIENTED_EDGE('',*,*,#460,.F.);
#606=ORIENTED_EDGE('',*,*,#456,.T.);
#607=ORIENTED_EDGE('',*,*,#454,.F.);
#608=ORIENTED_EDGE('',*,*,#461,.T.);
#609=ORIENTED_EDGE('',*,*,#462,.T.);
#610=ORIENTED_EDGE('',*,*,#422,.T.);
#611=ORIENTED_EDGE('',*,*,#463,.T.);
#612=ORIENTED_EDGE('',*,*,#457,.F.);
#613=ORIENTED_EDGE('',*,*,#460,.T.);
#614=ORIENTED_EDGE('',*,*,#464,.T.);
#615=ORIENTED_EDGE('',*,*,#465,.T.);
#616=ORIENTED_EDGE('',*,*,#424,.T.);
#617=ORIENTED_EDGE('',*,*,#421,.T.);
#618=ORIENTED_EDGE('',*,*,#425,.T.);
#619=ORIENTED_EDGE('',*,*,#465,.F.);
#620=ORIENTED_EDGE('',*,*,#466,.F.);
#621=ORIENTED_EDGE('',*,*,#467,.T.);
#622=ORIENTED_EDGE('',*,*,#468,.T.);
#623=ORIENTED_EDGE('',*,*,#463,.F.);
#624=ORIENTED_EDGE('',*,*,#416,.T.);
#625=ORIENTED_EDGE('',*,*,#419,.T.);
#626=ORIENTED_EDGE('',*,*,#410,.T.);
#627=ORIENTED_EDGE('',*,*,#406,.T.);
#628=ORIENTED_EDGE('',*,*,#469,.T.);
#629=ORIENTED_EDGE('',*,*,#470,.T.);
#630=ORIENTED_EDGE('',*,*,#440,.F.);
#631=ORIENTED_EDGE('',*,*,#443,.T.);
#632=ORIENTED_EDGE('',*,*,#444,.F.);
#633=ORIENTED_EDGE('',*,*,#471,.T.);
#634=ORIENTED_EDGE('',*,*,#436,.F.);
#635=ORIENTED_EDGE('',*,*,#471,.F.);
#636=ORIENTED_EDGE('',*,*,#461,.F.);
#637=ORIENTED_EDGE('',*,*,#472,.T.);
#638=ORIENTED_EDGE('',*,*,#453,.F.);
#639=ORIENTED_EDGE('',*,*,#472,.F.);
#640=ORIENTED_EDGE('',*,*,#448,.F.);
#641=ORIENTED_EDGE('',*,*,#452,.F.);
#642=ORIENTED_EDGE('',*,*,#473,.F.);
#643=ORIENTED_EDGE('',*,*,#464,.F.);
#644=ORIENTED_EDGE('',*,*,#459,.T.);
#645=ORIENTED_EDGE('',*,*,#451,.T.);
#646=ORIENTED_EDGE('',*,*,#474,.T.);
#647=ORIENTED_EDGE('',*,*,#434,.T.);
#648=ORIENTED_EDGE('',*,*,#475,.F.);
#649=ORIENTED_EDGE('',*,*,#431,.F.);
#650=ORIENTED_EDGE('',*,*,#435,.F.);
#651=ORIENTED_EDGE('',*,*,#476,.T.);
#652=ORIENTED_EDGE('',*,*,#469,.F.);
#653=ORIENTED_EDGE('',*,*,#442,.T.);
#654=ORIENTED_EDGE('',*,*,#470,.F.);
#655=ORIENTED_EDGE('',*,*,#477,.T.);
#656=ORIENTED_EDGE('',*,*,#478,.T.);
#657=ORIENTED_EDGE('',*,*,#479,.F.);
#658=ORIENTED_EDGE('',*,*,#480,.T.);
#659=ORIENTED_EDGE('',*,*,#481,.T.);
#660=ORIENTED_EDGE('',*,*,#482,.T.);
#661=ORIENTED_EDGE('',*,*,#483,.F.);
#662=ORIENTED_EDGE('',*,*,#484,.F.);
#663=ORIENTED_EDGE('',*,*,#485,.F.);
#664=ORIENTED_EDGE('',*,*,#486,.T.);
#665=ORIENTED_EDGE('',*,*,#487,.F.);
#666=ORIENTED_EDGE('',*,*,#488,.F.);
#667=ORIENTED_EDGE('',*,*,#489,.F.);
#668=ORIENTED_EDGE('',*,*,#490,.F.);
#669=ORIENTED_EDGE('',*,*,#491,.F.);
#670=ORIENTED_EDGE('',*,*,#492,.T.);
#671=ORIENTED_EDGE('',*,*,#493,.T.);
#672=ORIENTED_EDGE('',*,*,#494,.F.);
#673=ORIENTED_EDGE('',*,*,#495,.F.);
#674=ORIENTED_EDGE('',*,*,#496,.T.);
#675=ORIENTED_EDGE('',*,*,#497,.T.);
#676=ORIENTED_EDGE('',*,*,#498,.T.);
#677=ORIENTED_EDGE('',*,*,#499,.T.);
#678=ORIENTED_EDGE('',*,*,#500,.F.);
#679=ORIENTED_EDGE('',*,*,#484,.T.);
#680=ORIENTED_EDGE('',*,*,#501,.T.);
#681=ORIENTED_EDGE('',*,*,#492,.F.);
#682=ORIENTED_EDGE('',*,*,#502,.T.);
#683=ORIENTED_EDGE('',*,*,#503,.F.);
#684=ORIENTED_EDGE('',*,*,#478,.F.);
#685=ORIENTED_EDGE('',*,*,#504,.F.);
#686=ORIENTED_EDGE('',*,*,#505,.F.);
#687=ORIENTED_EDGE('',*,*,#488,.T.);
#688=ORIENTED_EDGE('',*,*,#506,.T.);
#689=ORIENTED_EDGE('',*,*,#496,.F.);
#690=ORIENTED_EDGE('',*,*,#507,.T.);
#691=ORIENTED_EDGE('',*,*,#485,.T.);
#692=ORIENTED_EDGE('',*,*,#500,.T.);
#693=ORIENTED_EDGE('',*,*,#508,.T.);
#694=ORIENTED_EDGE('',*,*,#509,.T.);
#695=ORIENTED_EDGE('',*,*,#489,.T.);
#696=ORIENTED_EDGE('',*,*,#505,.T.);
#697=ORIENTED_EDGE('',*,*,#510,.F.);
#698=ORIENTED_EDGE('',*,*,#511,.T.);
#699=ORIENTED_EDGE('',*,*,#512,.T.);
#700=ORIENTED_EDGE('',*,*,#482,.F.);
#701=ORIENTED_EDGE('',*,*,#511,.F.);
#702=ORIENTED_EDGE('',*,*,#513,.F.);
#703=ORIENTED_EDGE('',*,*,#467,.F.);
#704=ORIENTED_EDGE('',*,*,#514,.F.);
#705=ORIENTED_EDGE('',*,*,#515,.T.);
#706=ORIENTED_EDGE('',*,*,#490,.T.);
#707=ORIENTED_EDGE('',*,*,#426,.T.);
#708=ORIENTED_EDGE('',*,*,#516,.T.);
#709=ORIENTED_EDGE('',*,*,#486,.F.);
#710=ORIENTED_EDGE('',*,*,#509,.F.);
#711=ORIENTED_EDGE('',*,*,#517,.F.);
#712=ORIENTED_EDGE('',*,*,#518,.T.);
#713=ORIENTED_EDGE('',*,*,#494,.T.);
#714=ORIENTED_EDGE('',*,*,#491,.T.);
#715=ORIENTED_EDGE('',*,*,#515,.F.);
#716=ORIENTED_EDGE('',*,*,#519,.T.);
#717=ORIENTED_EDGE('',*,*,#502,.F.);
#718=ORIENTED_EDGE('',*,*,#495,.T.);
#719=ORIENTED_EDGE('',*,*,#518,.F.);
#720=ORIENTED_EDGE('',*,*,#520,.F.);
#721=ORIENTED_EDGE('',*,*,#498,.F.);
#722=ORIENTED_EDGE('',*,*,#501,.F.);
#723=ORIENTED_EDGE('',*,*,#483,.T.);
#724=ORIENTED_EDGE('',*,*,#512,.F.);
#725=ORIENTED_EDGE('',*,*,#493,.F.);
#726=ORIENTED_EDGE('',*,*,#506,.F.);
#727=ORIENTED_EDGE('',*,*,#487,.T.);
#728=ORIENTED_EDGE('',*,*,#516,.F.);
#729=ORIENTED_EDGE('',*,*,#497,.F.);
#730=ORIENTED_EDGE('',*,*,#510,.T.);
#731=ORIENTED_EDGE('',*,*,#504,.T.);
#732=ORIENTED_EDGE('',*,*,#477,.F.);
#733=ORIENTED_EDGE('',*,*,#476,.F.);
#734=ORIENTED_EDGE('',*,*,#474,.F.);
#735=ORIENTED_EDGE('',*,*,#458,.F.);
#736=ORIENTED_EDGE('',*,*,#468,.F.);
#737=ORIENTED_EDGE('',*,*,#513,.T.);
#738=ORIENTED_EDGE('',*,*,#466,.T.);
#739=ORIENTED_EDGE('',*,*,#473,.T.);
#740=ORIENTED_EDGE('',*,*,#475,.T.);
#741=ORIENTED_EDGE('',*,*,#441,.T.);
#742=ORIENTED_EDGE('',*,*,#479,.T.);
#743=ORIENTED_EDGE('',*,*,#503,.T.);
#744=ORIENTED_EDGE('',*,*,#519,.F.);
#745=ORIENTED_EDGE('',*,*,#514,.T.);
#746=ORIENTED_EDGE('',*,*,#508,.F.);
#747=ORIENTED_EDGE('',*,*,#499,.F.);
#748=ORIENTED_EDGE('',*,*,#520,.T.);
#749=ORIENTED_EDGE('',*,*,#517,.T.);
#750=ORIENTED_EDGE('',*,*,#507,.F.);
#751=ORIENTED_EDGE('',*,*,#521,.T.);
#752=ORIENTED_EDGE('',*,*,#522,.T.);
#753=ORIENTED_EDGE('',*,*,#521,.F.);
#754=ORIENTED_EDGE('',*,*,#523,.T.);
#755=ORIENTED_EDGE('',*,*,#522,.F.);
#756=ORIENTED_EDGE('',*,*,#523,.F.);
#757=ORIENTED_EDGE('',*,*,#524,.T.);
#758=ORIENTED_EDGE('',*,*,#480,.F.);
#759=ORIENTED_EDGE('',*,*,#481,.F.);
#760=ORIENTED_EDGE('',*,*,#524,.F.);
#761=ORIENTED_EDGE('',*,*,#462,.F.);
#762=ORIENTED_EDGE('',*,*,#423,.F.);
#763=PLANE('',#845);
#764=PLANE('',#847);
#765=PLANE('',#849);
#766=PLANE('',#850);
#767=PLANE('',#852);
#768=PLANE('',#861);
#769=PLANE('',#866);
#770=PLANE('',#869);
#771=PLANE('',#874);
#772=PLANE('',#879);
#773=PLANE('',#882);
#774=PLANE('',#893);
#775=PLANE('',#898);
#776=PLANE('',#915);
#777=PLANE('',#916);
#778=PLANE('',#918);
#779=PLANE('',#920);
#780=PLANE('',#921);
#781=PLANE('',#922);
#782=PLANE('',#928);
#783=PLANE('',#931);
#784=PLANE('',#934);
#785=ADVANCED_FACE('',(#71),#763,.F.);
#786=ADVANCED_FACE('',(#72,#60),#764,.F.);
#787=ADVANCED_FACE('',(#73),#765,.T.);
#788=ADVANCED_FACE('',(#74,#61),#766,.F.);
#789=ADVANCED_FACE('',(#75),#767,.F.);
#790=ADVANCED_FACE('',(#76),#43,.F.);
#791=ADVANCED_FACE('',(#77),#44,.F.);
#792=ADVANCED_FACE('',(#78),#45,.T.);
#793=ADVANCED_FACE('',(#79,#62),#768,.T.);
#794=ADVANCED_FACE('',(#80),#46,.T.);
#795=ADVANCED_FACE('',(#81),#769,.T.);
#796=ADVANCED_FACE('',(#82,#63),#770,.T.);
#797=ADVANCED_FACE('',(#83),#47,.T.);
#798=ADVANCED_FACE('',(#84,#64),#771,.T.);
#799=ADVANCED_FACE('',(#85),#48,.T.);
#800=ADVANCED_FACE('',(#86),#772,.T.);
#801=ADVANCED_FACE('',(#87,#65),#773,.T.);
#802=ADVANCED_FACE('',(#88),#49,.F.);
#803=ADVANCED_FACE('',(#89,#66),#50,.T.);
#804=ADVANCED_FACE('',(#90),#51,.F.);
#805=ADVANCED_FACE('',(#91),#52,.F.);
#806=ADVANCED_FACE('',(#92),#53,.F.);
#807=ADVANCED_FACE('',(#93),#774,.T.);
#808=ADVANCED_FACE('',(#94),#54,.T.);
#809=ADVANCED_FACE('',(#95),#775,.T.);
#810=ADVANCED_FACE('',(#96,#67),#55,.T.);
#811=ADVANCED_FACE('',(#97),#21,.F.);
#812=ADVANCED_FACE('',(#98),#22,.F.);
#813=ADVANCED_FACE('',(#99),#23,.F.);
#814=ADVANCED_FACE('',(#100),#24,.F.);
#815=ADVANCED_FACE('',(#101),#776,.T.);
#816=ADVANCED_FACE('',(#102,#68),#777,.T.);
#817=ADVANCED_FACE('',(#103),#778,.T.);
#818=ADVANCED_FACE('',(#104,#69),#779,.T.);
#819=ADVANCED_FACE('',(#105),#780,.T.);
#820=ADVANCED_FACE('',(#106),#781,.T.);
#821=ADVANCED_FACE('',(#107),#56,.F.);
#822=ADVANCED_FACE('',(#108),#57,.F.);
#823=ADVANCED_FACE('',(#109),#19,.T.);
#824=ADVANCED_FACE('',(#110),#20,.T.);
#825=ADVANCED_FACE('',(#111),#782,.T.);
#826=ADVANCED_FACE('',(#112),#58,.F.);
#827=ADVANCED_FACE('',(#113,#70),#783,.T.);
#828=ADVANCED_FACE('',(#114),#59,.F.);
#829=ADVANCED_FACE('',(#115),#784,.T.);
#830=CLOSED_SHELL('',(#785,#786,#787,#788,#789,#790,#791,#792,#793,#794,
#795,#796,#797,#798,#799,#800,#801,#802,#803,#804,#805,#806,#807,#808,#809,
#810,#811,#812,#813,#814,#815,#816,#817,#818,#819,#820,#821,#822,#823,#824,
#825,#826,#827,#828,#829));
#831=DERIVED_UNIT_ELEMENT(#833,1.);
#832=DERIVED_UNIT_ELEMENT(#1556,-3.);
#833=(
MASS_UNIT()
NAMED_UNIT(*)
SI_UNIT(.KILO.,.GRAM.)
);
#834=DERIVED_UNIT((#831,#832));
#835=MEASURE_REPRESENTATION_ITEM('density measure',
POSITIVE_RATIO_MEASURE(7850.),#834);
#836=PROPERTY_DEFINITION_REPRESENTATION(#841,#838);
#837=PROPERTY_DEFINITION_REPRESENTATION(#842,#839);
#838=REPRESENTATION('material name',(#840),#1553);
#839=REPRESENTATION('density',(#835),#1553);
#840=DESCRIPTIVE_REPRESENTATION_ITEM('\X2\92FC\X0\','\X2\92FC\X0\');
#841=PROPERTY_DEFINITION('material property','material name',#1568);
#842=PROPERTY_DEFINITION('material property','density of part',#1568);
#843=AXIS2_PLACEMENT_3D('',#1178,#936,#937);
#844=AXIS2_PLACEMENT_3D('',#1179,#938,#939);
#845=AXIS2_PLACEMENT_3D('',#1180,#940,#941);
#846=AXIS2_PLACEMENT_3D('',#1183,#942,#943);
#847=AXIS2_PLACEMENT_3D('',#1189,#947,#948);
#848=AXIS2_PLACEMENT_3D('',#1196,#952,#953);
#849=AXIS2_PLACEMENT_3D('',#1197,#954,#955);
#850=AXIS2_PLACEMENT_3D('',#1201,#958,#959);
#851=AXIS2_PLACEMENT_3D('',#1206,#962,#963);
#852=AXIS2_PLACEMENT_3D('',#1207,#964,#965);
#853=AXIS2_PLACEMENT_3D('',#1208,#966,#967);
#854=AXIS2_PLACEMENT_3D('',#1209,#968,#969);
#855=AXIS2_PLACEMENT_3D('',#1245,#971,#972);
#856=AXIS2_PLACEMENT_3D('',#1257,#973,#974);
#857=AXIS2_PLACEMENT_3D('',#1259,#975,#976);
#858=AXIS2_PLACEMENT_3D('',#1261,#978,#979);
#859=AXIS2_PLACEMENT_3D('',#1264,#980,#981);
#860=AXIS2_PLACEMENT_3D('',#1268,#983,#984);
#861=AXIS2_PLACEMENT_3D('',#1270,#986,#987);
#862=AXIS2_PLACEMENT_3D('',#1272,#988,#989);
#863=AXIS2_PLACEMENT_3D('',#1279,#993,#994);
#864=AXIS2_PLACEMENT_3D('',#1280,#995,#996);
#865=AXIS2_PLACEMENT_3D('',#1282,#997,#998);
#866=AXIS2_PLACEMENT_3D('',#1284,#1000,#1001);
#867=AXIS2_PLACEMENT_3D('',#1288,#1003,#1004);
#868=AXIS2_PLACEMENT_3D('',#1289,#1005,#1006);
#869=AXIS2_PLACEMENT_3D('',#1290,#1007,#1008);
#870=AXIS2_PLACEMENT_3D('',#1295,#1011,#1012);
#871=AXIS2_PLACEMENT_3D('',#1296,#1013,#1014);
#872=AXIS2_PLACEMENT_3D('',#1299,#1015,#1016);
#873=AXIS2_PLACEMENT_3D('',#1303,#1018,#1019);
#874=AXIS2_PLACEMENT_3D('',#1305,#1021,#1022);
#875=AXIS2_PLACEMENT_3D('',#1307,#1023,#1024);
#876=AXIS2_PLACEMENT_3D('',#1314,#1028,#1029);
#877=AXIS2_PLACEMENT_3D('',#1315,#1030,#1031);
#878=AXIS2_PLACEMENT_3D('',#1317,#1032,#1033);
#879=AXIS2_PLACEMENT_3D('',#1319,#1035,#1036);
#880=AXIS2_PLACEMENT_3D('',#1323,#1038,#1039);
#881=AXIS2_PLACEMENT_3D('',#1324,#1040,#1041);
#882=AXIS2_PLACEMENT_3D('',#1325,#1042,#1043);
#883=AXIS2_PLACEMENT_3D('',#1330,#1046,#1047);
#884=AXIS2_PLACEMENT_3D('',#1331,#1048,#1049);
#885=AXIS2_PLACEMENT_3D('',#1335,#1052,#1053);
#886=AXIS2_PLACEMENT_3D('',#1337,#1055,#1056);
#887=AXIS2_PLACEMENT_3D('',#1339,#1057,#1058);
#888=AXIS2_PLACEMENT_3D('',#1342,#1060,#1061);
#889=AXIS2_PLACEMENT_3D('',#1343,#1062,#1063);
#890=AXIS2_PLACEMENT_3D('',#1345,#1064,#1065);
#891=AXIS2_PLACEMENT_3D('',#1347,#1067,#1068);
#892=AXIS2_PLACEMENT_3D('',#1349,#1070,#1071);
#893=AXIS2_PLACEMENT_3D('',#1351,#1073,#1074);
#894=AXIS2_PLACEMENT_3D('',#1352,#1075,#1076);
#895=AXIS2_PLACEMENT_3D('',#1353,#1077,#1078);
#896=AXIS2_PLACEMENT_3D('',#1354,#1079,#1080);
#897=AXIS2_PLACEMENT_3D('',#1355,#1081,#1082);
#898=AXIS2_PLACEMENT_3D('',#1356,#1083,#1084);
#899=AXIS2_PLACEMENT_3D('',#1357,#1085,#1086);
#900=AXIS2_PLACEMENT_3D('',#1358,#1087,#1088);
#901=AXIS2_PLACEMENT_3D('',#1360,#1089,#1090);
#902=AXIS2_PLACEMENT_3D('',#1363,#1092,#1093);
#903=AXIS2_PLACEMENT_3D('',#1407,#1094,#1095);
#904=AXIS2_PLACEMENT_3D('',#1417,#1096,#1097);
#905=AXIS2_PLACEMENT_3D('',#1425,#1098,#1099);
#906=AXIS2_PLACEMENT_3D('',#1426,#1100,#1101);
#907=AXIS2_PLACEMENT_3D('',#1436,#1102,#1103);
#908=AXIS2_PLACEMENT_3D('',#1444,#1104,#1105);
#909=AXIS2_PLACEMENT_3D('',#1445,#1106,#1107);
#910=AXIS2_PLACEMENT_3D('',#1455,#1108,#1109);
#911=AXIS2_PLACEMENT_3D('',#1463,#1110,#1111);
#912=AXIS2_PLACEMENT_3D('',#1464,#1112,#1113);
#913=AXIS2_PLACEMENT_3D('',#1474,#1114,#1115);
#914=AXIS2_PLACEMENT_3D('',#1482,#1116,#1117);
#915=AXIS2_PLACEMENT_3D('',#1483,#1118,#1119);
#916=AXIS2_PLACEMENT_3D('',#1490,#1124,#1125);
#917=AXIS2_PLACEMENT_3D('',#1505,#1129,#1130);
#918=AXIS2_PLACEMENT_3D('',#1506,#1131,#1132);
#919=AXIS2_PLACEMENT_3D('',#1511,#1135,#1136);
#920=AXIS2_PLACEMENT_3D('',#1513,#1138,#1139);
#921=AXIS2_PLACEMENT_3D('',#1525,#1142,#1143);
#922=AXIS2_PLACEMENT_3D('',#1530,#1147,#1148);
#923=AXIS2_PLACEMENT_3D('',#1531,#1149,#1150);
#924=AXIS2_PLACEMENT_3D('',#1533,#1152,#1153);
#925=AXIS2_PLACEMENT_3D('',#1534,#1154,#1155);
#926=AXIS2_PLACEMENT_3D('',#1535,#1156,#1157);
#927=AXIS2_PLACEMENT_3D('',#1536,#1158,#1159);
#928=AXIS2_PLACEMENT_3D('',#1537,#1160,#1161);
#929=AXIS2_PLACEMENT_3D('',#1538,#1162,#1163);
#930=AXIS2_PLACEMENT_3D('',#1541,#1165,#1166);
#931=AXIS2_PLACEMENT_3D('',#1542,#1167,#1168);
#932=AXIS2_PLACEMENT_3D('',#1544,#1169,#1170);
#933=AXIS2_PLACEMENT_3D('',#1545,#1171,#1172);
#934=AXIS2_PLACEMENT_3D('',#1547,#1174,#1175);
#935=AXIS2_PLACEMENT_3D('',#1548,#1176,#1177);
#936=DIRECTION('axis',(0.,0.,1.));
#937=DIRECTION('refdir',(1.,0.,0.));
#938=DIRECTION('axis',(0.,0.,1.));
#939=DIRECTION('refdir',(1.,0.,0.));
#940=DIRECTION('center_axis',(-1.,0.,0.));
#941=DIRECTION('ref_axis',(0.,0.,-1.));
#942=DIRECTION('center_axis',(-1.,0.,0.));
#943=DIRECTION('ref_axis',(0.,0.,-1.));
#944=DIRECTION('',(0.,-1.,0.));
#945=DIRECTION('',(0.,0.,-1.));
#946=DIRECTION('',(0.,-1.,0.));
#947=DIRECTION('center_axis',(0.,0.,-1.));
#948=DIRECTION('ref_axis',(1.,0.,0.));
#949=DIRECTION('',(-1.,0.,0.));
#950=DIRECTION('',(0.,-1.,0.));
#951=DIRECTION('',(1.,0.,0.));
#952=DIRECTION('center_axis',(0.,0.,1.));
#953=DIRECTION('ref_axis',(-1.,0.,0.));
#954=DIRECTION('center_axis',(0.,-1.,0.));
#955=DIRECTION('ref_axis',(0.,0.,-1.));
#956=DIRECTION('',(0.,0.,1.));
#957=DIRECTION('',(-1.,0.,0.));
#958=DIRECTION('center_axis',(0.,0.,1.));
#959=DIRECTION('ref_axis',(-1.,0.,0.));
#960=DIRECTION('',(1.,0.,0.));
#961=DIRECTION('',(0.,-1.,0.));
#962=DIRECTION('center_axis',(0.,0.,-1.));
#963=DIRECTION('ref_axis',(-1.,0.,0.));
#964=DIRECTION('center_axis',(1.,0.,0.));
#965=DIRECTION('ref_axis',(0.,0.,1.));
#966=DIRECTION('center_axis',(1.,0.,0.));
#967=DIRECTION('ref_axis',(0.,0.,-1.));
#968=DIRECTION('center_axis',(0.,0.,-1.));
#969=DIRECTION('ref_axis',(-1.,0.,0.));
#970=DIRECTION('',(0.,0.,-1.));
#971=DIRECTION('center_axis',(0.,0.,-1.));
#972=DIRECTION('ref_axis',(-1.,0.,0.));
#973=DIRECTION('center_axis',(0.,0.,-1.));
#974=DIRECTION('ref_axis',(-1.,0.,0.));
#975=DIRECTION('center_axis',(0.,0.,-1.));
#976=DIRECTION('ref_axis',(-1.,0.,0.));
#977=DIRECTION('',(0.,0.,-1.));
#978=DIRECTION('center_axis',(0.,1.,0.));
#979=DIRECTION('ref_axis',(-0.707106781186547,0.,-0.707106781186548));
#980=DIRECTION('center_axis',(0.,-1.,0.));
#981=DIRECTION('ref_axis',(-0.707106781186547,0.,-0.707106781186548));
#982=DIRECTION('',(0.,1.,0.));
#983=DIRECTION('center_axis',(0.,1.,0.));
#984=DIRECTION('ref_axis',(-0.707106781186547,0.,-0.707106781186548));
#985=DIRECTION('',(0.,1.,0.));
#986=DIRECTION('center_axis',(0.,-1.,0.));
#987=DIRECTION('ref_axis',(-1.,0.,0.));
#988=DIRECTION('center_axis',(0.,1.,0.));
#989=DIRECTION('ref_axis',(0.707106781186547,0.,-0.707106781186548));
#990=DIRECTION('',(0.,0.,-1.));
#991=DIRECTION('',(1.,0.,0.));
#992=DIRECTION('',(0.,0.,-1.));
#993=DIRECTION('center_axis',(0.,1.,0.));
#994=DIRECTION('ref_axis',(-1.,0.,0.));
#995=DIRECTION('center_axis',(0.,-1.,0.));
#996=DIRECTION('ref_axis',(0.707106781186547,0.,-0.707106781186548));
#997=DIRECTION('center_axis',(0.,-1.,0.));
#998=DIRECTION('ref_axis',(0.707106781186547,0.,-0.707106781186548));
#999=DIRECTION('',(0.,-1.,0.));
#1000=DIRECTION('center_axis',(1.,0.,0.));
#1001=DIRECTION('ref_axis',(0.,-1.,0.));
#1002=DIRECTION('',(0.,0.,-1.));
#1003=DIRECTION('center_axis',(1.,0.,0.));
#1004=DIRECTION('ref_axis',(0.,-0.849836584137619,0.52704627905081));
#1005=DIRECTION('center_axis',(1.,0.,0.));
#1006=DIRECTION('ref_axis',(0.,0.,-1.));
#1007=DIRECTION('center_axis',(0.,1.,0.));
#1008=DIRECTION('ref_axis',(1.,0.,0.));
#1009=DIRECTION('',(0.,0.,-1.));
#1010=DIRECTION('',(-1.,0.,0.));
#1011=DIRECTION('center_axis',(0.,-1.,0.));
#1012=DIRECTION('ref_axis',(-1.,0.,0.));
#1013=DIRECTION('center_axis',(0.,-1.,0.));
#1014=DIRECTION('ref_axis',(0.707106781186547,0.,-0.707106781186548));
#1015=DIRECTION('center_axis',(0.,1.,0.));
#1016=DIRECTION('ref_axis',(0.707106781186547,0.,-0.707106781186548));
#1017=DIRECTION('',(0.,-1.,0.));
#1018=DIRECTION('center_axis',(0.,-1.,0.));
#1019=DIRECTION('ref_axis',(0.707106781186547,0.,-0.707106781186548));
#1020=DIRECTION('',(0.,-1.,0.));
#1021=DIRECTION('center_axis',(0.,1.,0.));
#1022=DIRECTION('ref_axis',(1.,0.,0.));
#1023=DIRECTION('center_axis',(0.,-1.,0.));
#1024=DIRECTION('ref_axis',(-0.707106781186547,0.,-0.707106781186548));
#1025=DIRECTION('',(0.,0.,-1.));
#1026=DIRECTION('',(-1.,0.,0.));
#1027=DIRECTION('',(0.,0.,-1.));
#1028=DIRECTION('center_axis',(0.,-1.,0.));
#1029=DIRECTION('ref_axis',(1.,0.,0.));
#1030=DIRECTION('center_axis',(0.,1.,0.));
#1031=DIRECTION('ref_axis',(-0.707106781186547,0.,-0.707106781186548));
#1032=DIRECTION('center_axis',(0.,1.,0.));
#1033=DIRECTION('ref_axis',(-0.707106781186547,0.,-0.707106781186548));
#1034=DIRECTION('',(0.,1.,0.));
#1035=DIRECTION('center_axis',(-1.,0.,0.));
#1036=DIRECTION('ref_axis',(0.,1.,0.));
#1037=DIRECTION('',(0.,0.,-1.));
#1038=DIRECTION('center_axis',(-1.,0.,0.));
#1039=DIRECTION('ref_axis',(0.,0.849836587059977,0.527046274338649));
#1040=DIRECTION('center_axis',(1.,0.,0.));
#1041=DIRECTION('ref_axis',(0.,0.,-1.));
#1042=DIRECTION('center_axis',(0.,-1.,0.));
#1043=DIRECTION('ref_axis',(-1.,0.,0.));
#1044=DIRECTION('',(0.,0.,-1.));
#1045=DIRECTION('',(1.,0.,0.));
#1046=DIRECTION('center_axis',(0.,1.,0.));
#1047=DIRECTION('ref_axis',(1.,0.,0.));
#1048=DIRECTION('center_axis',(1.,0.,0.));
#1049=DIRECTION('ref_axis',(0.,0.849836587059977,0.527046274338649));
#1050=DIRECTION('',(-1.,0.,0.));
#1051=DIRECTION('',(-1.,0.,0.));
#1052=DIRECTION('center_axis',(1.,0.,0.));
#1053=DIRECTION('ref_axis',(0.,0.849836587059977,0.527046274338649));
#1054=DIRECTION('',(-1.,0.,0.));
#1055=DIRECTION('center_axis',(1.,0.,0.));
#1056=DIRECTION('ref_axis',(0.,0.,-1.));
#1057=DIRECTION('center_axis',(1.,0.,0.));
#1058=DIRECTION('ref_axis',(0.,0.,-1.));
#1059=DIRECTION('',(1.,0.,0.));
#1060=DIRECTION('center_axis',(1.,0.,0.));
#1061=DIRECTION('ref_axis',(0.,0.,-1.));
#1062=DIRECTION('center_axis',(-1.,0.,0.));
#1063=DIRECTION('ref_axis',(0.,-0.849836584137619,0.52704627905081));
#1064=DIRECTION('center_axis',(-1.,0.,0.));
#1065=DIRECTION('ref_axis',(0.,-0.849836584137619,0.52704627905081));
#1066=DIRECTION('',(1.,0.,0.));
#1067=DIRECTION('center_axis',(0.,-1.,0.));
#1068=DIRECTION('ref_axis',(-1.,0.,0.));
#1069=DIRECTION('',(0.,-1.,0.));
#1070=DIRECTION('center_axis',(0.,1.,0.));
#1071=DIRECTION('ref_axis',(1.,0.,0.));
#1072=DIRECTION('',(0.,1.,0.));
#1073=DIRECTION('center_axis',(1.,0.,0.));
#1074=DIRECTION('ref_axis',(0.,-1.,0.));
#1075=DIRECTION('center_axis',(1.,0.,0.));
#1076=DIRECTION('ref_axis',(0.,0.,-1.));
#1077=DIRECTION('center_axis',(1.,0.,0.));
#1078=DIRECTION('ref_axis',(0.,0.,-1.));
#1079=DIRECTION('center_axis',(1.,0.,0.));
#1080=DIRECTION('ref_axis',(0.,0.,-1.));
#1081=DIRECTION('center_axis',(1.,0.,0.));
#1082=DIRECTION('ref_axis',(0.,0.,-1.));
#1083=DIRECTION('center_axis',(-1.,0.,0.));
#1084=DIRECTION('ref_axis',(0.,1.,0.));
#1085=DIRECTION('center_axis',(1.,0.,0.));
#1086=DIRECTION('ref_axis',(0.,0.,-1.));
#1087=DIRECTION('center_axis',(1.,0.,0.));
#1088=DIRECTION('ref_axis',(0.,0.553359000388793,0.832942865200679));
#1089=DIRECTION('center_axis',(1.,0.,0.));
#1090=DIRECTION('ref_axis',(0.,0.,-1.));
#1091=DIRECTION('',(1.,0.,0.));
#1092=DIRECTION('center_axis',(1.,0.,0.));
#1093=DIRECTION('ref_axis',(0.,0.,-1.));
#1094=DIRECTION('center_axis',(-1.,0.,0.));
#1095=DIRECTION('ref_axis',(0.,3.19131907692471E-14,-1.));
#1096=DIRECTION('center_axis',(-1.,0.,0.));
#1097=DIRECTION('ref_axis',(0.,1.,0.));
#1098=DIRECTION('center_axis',(1.,0.,0.));
#1099=DIRECTION('ref_axis',(0.,1.,0.));
#1100=DIRECTION('center_axis',(-1.,0.,0.));
#1101=DIRECTION('ref_axis',(0.,-3.17907260893324E-14,1.));
#1102=DIRECTION('center_axis',(-1.,0.,0.));
#1103=DIRECTION('ref_axis',(0.,1.,0.));
#1104=DIRECTION('center_axis',(1.,0.,0.));
#1105=DIRECTION('ref_axis',(0.,1.,0.));
#1106=DIRECTION('center_axis',(-1.,-3.63966548241506E-33,-2.22865234150336E-49));
#1107=DIRECTION('ref_axis',(0.,-3.20356554491619E-14,-1.));
#1108=DIRECTION('center_axis',(-1.,0.,0.));
#1109=DIRECTION('ref_axis',(0.,1.,0.));
#1110=DIRECTION('center_axis',(-1.,0.,0.));
#1111=DIRECTION('ref_axis',(0.,1.,0.));
#1112=DIRECTION('center_axis',(-1.,-3.63966548241506E-33,2.22865234150336E-49));
#1113=DIRECTION('ref_axis',(0.,3.21581201290766E-14,1.));
#1114=DIRECTION('center_axis',(-1.,0.,0.));
#1115=DIRECTION('ref_axis',(0.,1.,0.));
#1116=DIRECTION('center_axis',(-1.,0.,0.));
#1117=DIRECTION('ref_axis',(0.,1.,0.));
#1118=DIRECTION('center_axis',(0.,0.,1.));
#1119=DIRECTION('ref_axis',(1.,0.,0.));
#1120=DIRECTION('',(0.,1.,0.));
#1121=DIRECTION('',(-1.,0.,0.));
#1122=DIRECTION('',(0.,1.,0.));
#1123=DIRECTION('',(1.,0.,0.));
#1124=DIRECTION('center_axis',(0.,0.,-1.));
#1125=DIRECTION('ref_axis',(-1.,0.,0.));
#1126=DIRECTION('',(0.,-1.,0.));
#1127=DIRECTION('',(0.,-1.,0.));
#1128=DIRECTION('',(1.,0.,0.));
#1129=DIRECTION('center_axis',(0.,0.,-1.));
#1130=DIRECTION('ref_axis',(-1.,0.,0.));
#1131=DIRECTION('center_axis',(-1.,0.,0.));
#1132=DIRECTION('ref_axis',(0.,0.,1.));
#1133=DIRECTION('',(0.,0.,1.));
#1134=DIRECTION('',(0.,-1.,0.));
#1135=DIRECTION('center_axis',(1.,0.,0.));
#1136=DIRECTION('ref_axis',(0.,0.,-1.));
#1137=DIRECTION('',(0.,1.,0.));
#1138=DIRECTION('center_axis',(0.,0.,1.));
#1139=DIRECTION('ref_axis',(1.,0.,0.));
#1140=DIRECTION('',(-1.,0.,0.));
#1141=DIRECTION('',(0.,1.,0.));
#1142=DIRECTION('center_axis',(0.,0.,-1.));
#1143=DIRECTION('ref_axis',(-1.,0.,0.));
#1144=DIRECTION('',(-1.,0.,0.));
#1145=DIRECTION('',(-1.,0.,0.));
#1146=DIRECTION('',(0.,-1.,0.));
#1147=DIRECTION('center_axis',(1.,0.,0.));
#1148=DIRECTION('ref_axis',(0.,0.,-1.));
#1149=DIRECTION('center_axis',(1.,0.,0.));
#1150=DIRECTION('ref_axis',(0.,0.,-1.));
#1151=DIRECTION('',(0.,0.,1.));
#1152=DIRECTION('center_axis',(-1.,0.,0.));
#1153=DIRECTION('ref_axis',(0.,1.,0.));
#1154=DIRECTION('center_axis',(-1.,0.,0.));
#1155=DIRECTION('ref_axis',(0.,1.,0.));
#1156=DIRECTION('center_axis',(1.,0.,0.));
#1157=DIRECTION('ref_axis',(0.,1.,-6.12323399573677E-17));
#1158=DIRECTION('center_axis',(-1.,0.,0.));
#1159=DIRECTION('ref_axis',(0.,1.,-1.83697019872103E-16));
#1160=DIRECTION('center_axis',(0.,-1.,0.));
#1161=DIRECTION('ref_axis',(0.,0.,-1.));
#1162=DIRECTION('center_axis',(0.,0.,1.));
#1163=DIRECTION('ref_axis',(1.,0.,0.));
#1164=DIRECTION('',(0.,0.,1.));
#1165=DIRECTION('center_axis',(0.,0.,1.));
#1166=DIRECTION('ref_axis',(1.,0.,0.));
#1167=DIRECTION('center_axis',(0.,0.,1.));
#1168=DIRECTION('ref_axis',(1.,0.,0.));
#1169=DIRECTION('center_axis',(0.,0.,1.));
#1170=DIRECTION('ref_axis',(1.,0.,0.));
#1171=DIRECTION('center_axis',(0.,0.,1.));
#1172=DIRECTION('ref_axis',(1.,0.,0.));
#1173=DIRECTION('',(0.,0.,1.));
#1174=DIRECTION('center_axis',(0.,0.,1.));
#1175=DIRECTION('ref_axis',(1.,0.,0.));
#1176=DIRECTION('',(0.,0.,1.));
#1177=DIRECTION('',(1.,0.,0.));
#1178=CARTESIAN_POINT('',(0.,0.,0.));
#1179=CARTESIAN_POINT('',(0.,0.,0.));
#1180=CARTESIAN_POINT('Origin',(-3.,0.,-1.6));
#1181=CARTESIAN_POINT('',(-3.,-6.98498389404013,-3.9));
#1182=CARTESIAN_POINT('',(-3.,-7.83836717690617,-1.6));
#1183=CARTESIAN_POINT('Origin',(-3.,0.,0.));
#1184=CARTESIAN_POINT('',(-3.,-1.3,-3.9));
#1185=CARTESIAN_POINT('',(-3.,0.,-3.9));
#1186=CARTESIAN_POINT('',(-3.,-1.3,-1.6));
#1187=CARTESIAN_POINT('',(-3.,-1.3,-2.175));
#1188=CARTESIAN_POINT('',(-3.,0.,-1.6));
#1189=CARTESIAN_POINT('Origin',(-3.,0.,-3.9));
#1190=CARTESIAN_POINT('',(3.,-6.98498389404013,-3.9));
#1191=CARTESIAN_POINT('',(4.,-6.98498389404013,-3.9));
#1192=CARTESIAN_POINT('',(3.,-1.3,-3.9));
#1193=CARTESIAN_POINT('',(3.,0.,-3.9));
#1194=CARTESIAN_POINT('',(-1.5,-1.3,-3.9));
#1195=CARTESIAN_POINT('',(1.7,-4.5,-3.9));
#1196=CARTESIAN_POINT('Origin',(0.,-4.5,-3.9));
#1197=CARTESIAN_POINT('Origin',(0.,-1.3,-2.75));
#1198=CARTESIAN_POINT('',(3.,-1.3,-1.6));
#1199=CARTESIAN_POINT('',(3.,-1.3,-3.325));
#1200=CARTESIAN_POINT('',(1.5,-1.3,-1.6));
#1201=CARTESIAN_POINT('Origin',(3.,0.,-1.6));
#1202=CARTESIAN_POINT('',(3.,-7.83836717690617,-1.6));
#1203=CARTESIAN_POINT('',(4.,-7.83836717690617,-1.6));
#1204=CARTESIAN_POINT('',(3.,0.,-1.6));
#1205=CARTESIAN_POINT('',(1.7,-4.5,-1.6));
#1206=CARTESIAN_POINT('Origin',(0.,-4.5,-1.6));
#1207=CARTESIAN_POINT('Origin',(3.,0.,-3.9));
#1208=CARTESIAN_POINT('Origin',(3.,0.,0.));
#1209=CARTESIAN_POINT('Origin',(0.,-4.5,2.2));
#1210=CARTESIAN_POINT('',(1.7,-4.5,-6.61437827766148));
#1211=CARTESIAN_POINT('',(1.7,-4.5,2.2));
#1212=CARTESIAN_POINT('',(-1.41351503933129,-3.55555559529199,-7.16645131210614));
#1213=CARTESIAN_POINT('Ctrl Pts',(-1.41351503933129,-3.55555559529198,-7.16645131210614));
#1214=CARTESIAN_POINT('Ctrl Pts',(-1.4767986021734,-3.65026976520382,-7.11945992374429));
#1215=CARTESIAN_POINT('Ctrl Pts',(-1.53022898552143,-3.75109612107008,-7.06704756089852));
#1216=CARTESIAN_POINT('Ctrl Pts',(-1.66112217583969,-4.06991333239282,-6.89175752683888));
#1217=CARTESIAN_POINT('Ctrl Pts',(-1.7,-4.29646664786518,-6.75284935478447));
#1218=CARTESIAN_POINT('Ctrl Pts',(-1.7,-4.73538309411975,-6.45423867283782));
#1219=CARTESIAN_POINT('Ctrl Pts',(-1.64905344939279,-4.9779307622549,-6.26924122201755));
#1220=CARTESIAN_POINT('Ctrl Pts',(-1.45186678728097,-5.41644855693594,-5.89451142956075));
#1221=CARTESIAN_POINT('Ctrl Pts',(-1.30626479047314,-5.61285119352322,-5.70494985496193));
#1222=CARTESIAN_POINT('Ctrl Pts',(-0.997524407036493,-5.88824975470897,
-5.41833205970044));
#1223=CARTESIAN_POINT('Ctrl Pts',(-0.827131680857803,-5.99992147416033,
-5.29295049749903));
#1224=CARTESIAN_POINT('Ctrl Pts',(-0.535383001334267,-6.11689289078059,
-5.15627938843876));
#1225=CARTESIAN_POINT('Ctrl Pts',(-0.432076338944076,-6.14776094954429,
-5.11918523517073));
#1226=CARTESIAN_POINT('Ctrl Pts',(-0.219039539349158,-6.18931084787816,
-5.06887940756851));
#1227=CARTESIAN_POINT('Ctrl Pts',(-0.109305603145612,-6.2,-5.05568986390582));
#1228=CARTESIAN_POINT('Ctrl Pts',(0.109305603145612,-6.2,-5.05568986390582));
#1229=CARTESIAN_POINT('Ctrl Pts',(0.219039539349158,-6.18931084787816,-5.06887940756851));
#1230=CARTESIAN_POINT('Ctrl Pts',(0.432076338944077,-6.14776094954428,-5.11918523517073));
#1231=CARTESIAN_POINT('Ctrl Pts',(0.535383001334267,-6.11689289078059,-5.15627938843876));
#1232=CARTESIAN_POINT('Ctrl Pts',(0.827131680857803,-5.99992147416033,-5.29295049749903));
#1233=CARTESIAN_POINT('Ctrl Pts',(0.997524407036493,-5.88824975470897,-5.41833205970045));
#1234=CARTESIAN_POINT('Ctrl Pts',(1.30626479047314,-5.61285119352322,-5.70494985496193));
#1235=CARTESIAN_POINT('Ctrl Pts',(1.45186678728098,-5.41644855693594,-5.89451142956075));
#1236=CARTESIAN_POINT('Ctrl Pts',(1.6490534493928,-4.9779307622549,-6.26924122201755));
#1237=CARTESIAN_POINT('Ctrl Pts',(1.7,-4.73538309411975,-6.45423867283782));
#1238=CARTESIAN_POINT('Ctrl Pts',(1.7,-4.5,-6.61437827766148));
#1239=CARTESIAN_POINT('',(-1.3101389237043,-3.41670133361343,-7.25));
#1240=CARTESIAN_POINT('Ctrl Pts',(-1.3101389237043,-3.41670133361343,-7.25));
#1241=CARTESIAN_POINT('Ctrl Pts',(-1.34559069288357,-3.45957662198691,-7.21921038773574));
#1242=CARTESIAN_POINT('Ctrl Pts',(-1.38045870274795,-3.50608139789846,-7.19099738821887));
#1243=CARTESIAN_POINT('Ctrl Pts',(-1.41351503933128,-3.55555559529198,-7.16645131210614));
#1244=CARTESIAN_POINT('',(1.3101389237043,-3.41670133361343,-7.25));
#1245=CARTESIAN_POINT('Origin',(0.,-4.5,-7.25));
#1246=CARTESIAN_POINT('',(1.41351503933129,-3.55555559529199,-7.16645131210614));
#1247=CARTESIAN_POINT('Ctrl Pts',(1.41351503933128,-3.55555559529198,-7.16645131210614));
#1248=CARTESIAN_POINT('Ctrl Pts',(1.38046333036533,-3.50608832388237,-7.19099395196852));
#1249=CARTESIAN_POINT('Ctrl Pts',(1.34559301773715,-3.45957943365951,-7.21920836861674));
#1250=CARTESIAN_POINT('Ctrl Pts',(1.3101389237043,-3.41670133361343,-7.25));
#1251=CARTESIAN_POINT('Ctrl Pts',(1.7,-4.5,-6.61437827766148));
#1252=CARTESIAN_POINT('Ctrl Pts',(1.7,-4.29646664786518,-6.75284935478447));
#1253=CARTESIAN_POINT('Ctrl Pts',(1.66112217583969,-4.06991333239282,-6.89175752683889));
#1254=CARTESIAN_POINT('Ctrl Pts',(1.53022898552143,-3.75109612107008,-7.06704756089852));
#1255=CARTESIAN_POINT('Ctrl Pts',(1.4767986021734,-3.65026976520382,-7.11945992374429));
#1256=CARTESIAN_POINT('Ctrl Pts',(1.41351503933129,-3.55555559529199,-7.16645131210614));
#1257=CARTESIAN_POINT('Origin',(0.,-4.5,2.2));
#1258=CARTESIAN_POINT('',(1.7,-4.5,-0.5));
#1259=CARTESIAN_POINT('Origin',(0.,-4.5,-0.5));
#1260=CARTESIAN_POINT('',(1.7,-4.5,2.2));
#1261=CARTESIAN_POINT('Origin',(-5.21540638453999E-8,1.49999995529652,-10.5));
#1262=CARTESIAN_POINT('',(-3.50000005215406,2.99999995529652,-10.5));
#1263=CARTESIAN_POINT('',(5.21540638453999E-8,2.99999995529652,-14.));
#1264=CARTESIAN_POINT('Origin',(-5.21540638453999E-8,2.99999995529652,-10.5));
#1265=CARTESIAN_POINT('',(5.21540638453999E-8,0.999999955296517,-14.));
#1266=CARTESIAN_POINT('',(5.21540638453999E-8,2.49999995529652,-14.));
#1267=CARTESIAN_POINT('',(-3.50000005215406,0.999999955296517,-10.5));
#1268=CARTESIAN_POINT('Origin',(-5.21540638453999E-8,0.999999955296517,
-10.5));
#1269=CARTESIAN_POINT('',(-3.50000005215406,1.49999995529652,-10.5));
#1270=CARTESIAN_POINT('Origin',(3.50000005215406,0.999999955296517,0.));
#1271=CARTESIAN_POINT('',(3.50000005215406,0.999999955296517,-10.5));
#1272=CARTESIAN_POINT('Origin',(5.21540638453999E-8,0.999999955296517,-10.5));
#1273=CARTESIAN_POINT('',(3.50000005215406,0.999999955296517,-7.93725393882588));
#1274=CARTESIAN_POINT('',(3.50000005215406,0.999999955296517,0.));
#1275=CARTESIAN_POINT('',(-3.50000005215406,0.999999955296517,-7.93725393882588));
#1276=CARTESIAN_POINT('',(4.,0.999999955296517,-7.93725393882588));
#1277=CARTESIAN_POINT('',(-3.50000005215406,0.999999955296517,0.));
#1278=CARTESIAN_POINT('',(1.25,0.999999955296517,-11.0000001639128));
#1279=CARTESIAN_POINT('Origin',(0.,0.999999955296517,-11.0000001639128));
#1280=CARTESIAN_POINT('Origin',(5.21540638453999E-8,2.49999995529652,-10.5));
#1281=CARTESIAN_POINT('',(3.50000005215406,2.99999995529652,-10.5));
#1282=CARTESIAN_POINT('Origin',(5.21540638453999E-8,2.99999995529652,-10.5));
#1283=CARTESIAN_POINT('',(3.50000005215406,2.49999995529652,-10.5));
#1284=CARTESIAN_POINT('Origin',(3.50000005215406,2.99999995529652,0.));
#1285=CARTESIAN_POINT('',(3.50000005215406,2.99999995529652,-8.06225777047769));
#1286=CARTESIAN_POINT('',(3.50000005215406,2.99999995529652,0.));
#1287=CARTESIAN_POINT('',(3.5,3.55555551581913,-7.16645135153572));
#1288=CARTESIAN_POINT('Origin',(3.50000005215406,3.99999995529652,-8.06225777047769));
#1289=CARTESIAN_POINT('Origin',(3.5,0.,0.));
#1290=CARTESIAN_POINT('Origin',(-3.50000005215406,2.99999995529652,0.));
#1291=CARTESIAN_POINT('',(-3.50000005215406,2.99999995529652,-8.06225777047769));
#1292=CARTESIAN_POINT('',(-3.50000005215406,2.99999995529652,0.));
#1293=CARTESIAN_POINT('',(4.,2.99999995529652,-8.06225777047769));
#1294=CARTESIAN_POINT('',(1.25,2.99999995529652,-11.0000001639128));
#1295=CARTESIAN_POINT('Origin',(0.,2.99999995529652,-11.0000001639128));
#1296=CARTESIAN_POINT('Origin',(5.21540638453999E-8,-1.50000004470348,-10.5));
#1297=CARTESIAN_POINT('',(3.50000005215406,-3.00000004470348,-10.5));
#1298=CARTESIAN_POINT('',(-5.21540638453999E-8,-3.00000004470348,-14.));
#1299=CARTESIAN_POINT('Origin',(5.21540638453999E-8,-3.00000004470348,-10.5));
#1300=CARTESIAN_POINT('',(-5.21540638453999E-8,-1.00000004470348,-14.));
#1301=CARTESIAN_POINT('',(-5.21540638453999E-8,-2.50000004470348,-14.));
#1302=CARTESIAN_POINT('',(3.50000005215406,-1.00000004470348,-10.5));
#1303=CARTESIAN_POINT('Origin',(5.21540638453999E-8,-1.00000004470348,-10.5));
#1304=CARTESIAN_POINT('',(3.50000005215406,-1.50000004470348,-10.5));
#1305=CARTESIAN_POINT('Origin',(-3.50000005215406,-1.00000004470348,0.));
#1306=CARTESIAN_POINT('',(-3.50000005215406,-1.00000004470348,-10.5));
#1307=CARTESIAN_POINT('Origin',(-5.21540638453999E-8,-1.00000004470348,
-10.5));
#1308=CARTESIAN_POINT('',(-3.50000005215406,-1.00000004470348,-7.93725392756166));
#1309=CARTESIAN_POINT('',(-3.50000005215406,-1.00000004470348,0.));
#1310=CARTESIAN_POINT('',(3.50000005215406,-1.00000004470348,-7.93725392756166));
#1311=CARTESIAN_POINT('',(4.,-1.00000004470348,-7.93725392756166));
#1312=CARTESIAN_POINT('',(3.50000005215406,-1.00000004470348,0.));
#1313=CARTESIAN_POINT('',(-1.6,-1.00000004470348,-11.0000001639128));
#1314=CARTESIAN_POINT('Origin',(0.,-1.00000004470348,-11.0000001639128));
#1315=CARTESIAN_POINT('Origin',(-5.21540638453999E-8,-2.50000004470348,
-10.5));
#1316=CARTESIAN_POINT('',(-3.50000005215406,-3.00000004470348,-10.5));
#1317=CARTESIAN_POINT('Origin',(-5.21540638453999E-8,-3.00000004470348,
-10.5));
#1318=CARTESIAN_POINT('',(-3.50000005215406,-2.50000004470348,-10.5));
#1319=CARTESIAN_POINT('Origin',(-3.50000005215406,-3.00000004470348,0.));
#1320=CARTESIAN_POINT('',(-3.50000005215406,-3.00000004470348,-8.06225772611941));
#1321=CARTESIAN_POINT('',(-3.50000005215406,-3.00000004470348,0.));
#1322=CARTESIAN_POINT('',(-3.5,-3.55555559529199,-7.16645131210614));
#1323=CARTESIAN_POINT('Origin',(-3.50000005215406,-4.00000004470348,-8.06225772611941));
#1324=CARTESIAN_POINT('Origin',(-3.5,0.,0.));
#1325=CARTESIAN_POINT('Origin',(3.50000005215406,-3.00000004470348,0.));
#1326=CARTESIAN_POINT('',(3.50000005215406,-3.00000004470348,-8.06225772611941));
#1327=CARTESIAN_POINT('',(3.50000005215406,-3.00000004470348,0.));
#1328=CARTESIAN_POINT('',(4.,-3.00000004470348,-8.06225772611941));
#1329=CARTESIAN_POINT('',(-1.6,-3.00000004470348,-11.0000001639128));
#1330=CARTESIAN_POINT('Origin',(0.,-3.00000004470348,-11.0000001639128));
#1331=CARTESIAN_POINT('Origin',(4.,-4.00000004470348,-8.06225772611941));
#1332=CARTESIAN_POINT('',(4.,-3.41670133361343,-7.25));
#1333=CARTESIAN_POINT('',(4.,-3.55555559529199,-7.16645131210614));
#1334=CARTESIAN_POINT('',(3.5,-3.55555559529199,-7.16645131210614));
#1335=CARTESIAN_POINT('Origin',(3.50000005215406,-4.00000004470348,-8.06225772611941));
#1336=CARTESIAN_POINT('',(4.,-3.55555559529199,-7.16645131210614));
#1337=CARTESIAN_POINT('Origin',(4.,0.,0.));
#1338=CARTESIAN_POINT('',(3.5,-7.98435971133565,-0.5));
#1339=CARTESIAN_POINT('Origin',(3.5,0.,0.));
#1340=CARTESIAN_POINT('',(-3.5,-7.98435971133565,-0.5));
#1341=CARTESIAN_POINT('',(4.,-7.98435971133565,-0.5));
#1342=CARTESIAN_POINT('Origin',(-3.5,0.,0.));
#1343=CARTESIAN_POINT('Origin',(4.,3.99999995529652,-8.06225777047769));
#1344=CARTESIAN_POINT('',(-3.5,3.55555551581913,-7.16645135153572));
#1345=CARTESIAN_POINT('Origin',(-3.50000005215406,3.99999995529652,-8.06225777047769));
#1346=CARTESIAN_POINT('',(4.,3.55555551581913,-7.16645135153572));
#1347=CARTESIAN_POINT('Origin',(0.,2.99999995529652,-11.0000001639128));
#1348=CARTESIAN_POINT('',(1.25,2.99999995529652,-11.0000001639128));
#1349=CARTESIAN_POINT('Origin',(0.,-3.00000004470348,-11.0000001639128));
#1350=CARTESIAN_POINT('',(-1.6,-3.00000004470348,-11.0000001639128));
#1351=CARTESIAN_POINT('Origin',(3.50000005215406,-1.00000004470348,0.));
#1352=CARTESIAN_POINT('Origin',(3.5,0.,0.));
#1353=CARTESIAN_POINT('Origin',(4.,0.,0.));
#1354=CARTESIAN_POINT('Origin',(-3.5,0.,0.));
#1355=CARTESIAN_POINT('Origin',(3.5,0.,0.));
#1356=CARTESIAN_POINT('Origin',(-3.50000005215406,0.999999955296517,0.));
#1357=CARTESIAN_POINT('Origin',(-3.5,0.,0.));
#1358=CARTESIAN_POINT('Origin',(4.,0.,0.));
#1359=CARTESIAN_POINT('',(-3.5,-7.98435971133565,0.5));
#1360=CARTESIAN_POINT('Origin',(-3.5,0.,0.));
#1361=CARTESIAN_POINT('',(3.5,-7.98435971133565,0.5));
#1362=CARTESIAN_POINT('',(4.,-7.98435971133565,0.5));
#1363=CARTESIAN_POINT('Origin',(3.5,0.,0.));
#1364=CARTESIAN_POINT('',(3.,-4.5,6.61437827766148));
#1365=CARTESIAN_POINT('',(-3.,-4.5,6.61437827766148));
#1366=CARTESIAN_POINT('Ctrl Pts',(3.,-4.5,6.61437827766148));
#1367=CARTESIAN_POINT('Ctrl Pts',(3.,-4.96443330110445,6.2984075594417));
#1368=CARTESIAN_POINT('Ctrl Pts',(2.88889046956611,-5.41882552240296,5.91283508472472));
#1369=CARTESIAN_POINT('Ctrl Pts',(2.50804259482747,-6.20283683161276,5.08429927515614));
#1370=CARTESIAN_POINT('Ctrl Pts',(2.23997936121037,-6.53334590711602,4.64140920068909));
#1371=CARTESIAN_POINT('Ctrl Pts',(1.70953392370859,-6.98421213681547,3.91931917945549));
#1372=CARTESIAN_POINT('Ctrl Pts',(1.42515812419866,-7.16229443864337,3.5772214441295));
#1373=CARTESIAN_POINT('Ctrl Pts',(0.944250625582375,-7.35274037332696,3.15609372996841));
#1374=CARTESIAN_POINT('Ctrl Pts',(0.775957276913376,-7.40379564726176,3.03212011262875));
#1375=CARTESIAN_POINT('Ctrl Pts',(0.413762089286038,-7.47706890054856,2.84664423965873));
#1376=CARTESIAN_POINT('Ctrl Pts',(0.220651525498563,-7.5,2.78388218141501));
#1377=CARTESIAN_POINT('Ctrl Pts',(0.,-7.5,2.78388218141501));
#1378=CARTESIAN_POINT('Ctrl Pts',(-0.220651525498563,-7.5,2.78388218141501));
#1379=CARTESIAN_POINT('Ctrl Pts',(-0.413762089286039,-7.47706890054856,
2.84664423965873));
#1380=CARTESIAN_POINT('Ctrl Pts',(-0.775957276913377,-7.40379564726176,
3.03212011262875));
#1381=CARTESIAN_POINT('Ctrl Pts',(-0.944250625582377,-7.35274037332696,
3.15609372996841));
#1382=CARTESIAN_POINT('Ctrl Pts',(-1.42515812419866,-7.16229443864337,3.5772214441295));
#1383=CARTESIAN_POINT('Ctrl Pts',(-1.70953392370859,-6.98421213681547,3.91931917945549));
#1384=CARTESIAN_POINT('Ctrl Pts',(-2.23997936121037,-6.53334590711602,4.64140920068909));
#1385=CARTESIAN_POINT('Ctrl Pts',(-2.50804259482747,-6.20283683161276,5.08429927515614));
#1386=CARTESIAN_POINT('Ctrl Pts',(-2.88889046956611,-5.41882552240296,5.91283508472472));
#1387=CARTESIAN_POINT('Ctrl Pts',(-3.,-4.96443330110445,6.29840755944169));
#1388=CARTESIAN_POINT('Ctrl Pts',(-3.,-4.5,6.61437827766148));
#1389=CARTESIAN_POINT('Ctrl Pts',(-3.,-4.5,6.61437827766148));
#1390=CARTESIAN_POINT('Ctrl Pts',(-3.,-4.15289292005581,6.85052773784946));
#1391=CARTESIAN_POINT('Ctrl Pts',(-2.93545268536899,-3.75893448720851,7.07420984269802));
#1392=CARTESIAN_POINT('Ctrl Pts',(-2.63141140178017,-3.00275717049091,7.42680825694599));
#1393=CARTESIAN_POINT('Ctrl Pts',(-2.39066680739899,-2.64173377493408,7.55720631486211));
#1394=CARTESIAN_POINT('Ctrl Pts',(-1.83586851186185,-2.09934383222073,7.7242616882193));
#1395=CARTESIAN_POINT('Ctrl Pts',(-1.50339710119962,-1.87400127175436,7.77892445170882));
#1396=CARTESIAN_POINT('Ctrl Pts',(-0.7723143296698,-1.57431992959272,7.84506610423911));
#1397=CARTESIAN_POINT('Ctrl Pts',(-0.373838296987234,-1.5,7.85811682275086));
#1398=CARTESIAN_POINT('Ctrl Pts',(0.373838296987233,-1.5,7.85811682275086));
#1399=CARTESIAN_POINT('Ctrl Pts',(0.772314329669799,-1.57431992959272,7.84506610423911));
#1400=CARTESIAN_POINT('Ctrl Pts',(1.50339710119961,-1.87400127175436,7.77892445170882));
#1401=CARTESIAN_POINT('Ctrl Pts',(1.83586851186185,-2.09934383222073,7.7242616882193));
#1402=CARTESIAN_POINT('Ctrl Pts',(2.39066680739899,-2.64173377493407,7.55720631486211));
#1403=CARTESIAN_POINT('Ctrl Pts',(2.63141140178017,-3.00275717049091,7.42680825694599));
#1404=CARTESIAN_POINT('Ctrl Pts',(2.93545268536899,-3.75893448720851,7.07420984269802));
#1405=CARTESIAN_POINT('Ctrl Pts',(3.,-4.15289292005581,6.85052773784946));
#1406=CARTESIAN_POINT('Ctrl Pts',(3.,-4.5,6.61437827766148));
#1407=CARTESIAN_POINT('Origin',(-4.41143782776615,0.,0.));
#1408=CARTESIAN_POINT('',(-4.,-2.19374109684803,-0.5));
#1409=CARTESIAN_POINT('',(-3.5,-1.67705098312484,-0.5));
#1410=CARTESIAN_POINT('Ctrl Pts',(-4.,-2.19374109684803,-0.5));
#1411=CARTESIAN_POINT('Ctrl Pts',(-3.89565707397646,-2.1454310646261,-0.5));
#1412=CARTESIAN_POINT('Ctrl Pts',(-3.78847033713137,-2.0690119545176,-0.5));
#1413=CARTESIAN_POINT('Ctrl Pts',(-3.62685347619466,-1.90509043633523,-0.5));
#1414=CARTESIAN_POINT('Ctrl Pts',(-3.54809348707084,-1.78822438143918,-0.5));
#1415=CARTESIAN_POINT('Ctrl Pts',(-3.49999999999988,-1.67705098312456,-0.5));
#1416=CARTESIAN_POINT('',(-3.5,1.67705098312484,-0.5));
#1417=CARTESIAN_POINT('Origin',(-3.5,0.,0.));
#1418=CARTESIAN_POINT('',(-4.,2.19374109684803,-0.5));
#1419=CARTESIAN_POINT('Ctrl Pts',(-3.50000000000007,1.677050983125,-0.5));
#1420=CARTESIAN_POINT('Ctrl Pts',(-3.54809348707104,1.7882243814395,-0.5));
#1421=CARTESIAN_POINT('Ctrl Pts',(-3.62685347619477,1.90509043633534,-0.5));
#1422=CARTESIAN_POINT('Ctrl Pts',(-3.78847033713171,2.06901195451795,-0.5));
#1423=CARTESIAN_POINT('Ctrl Pts',(-3.89565707397742,2.14543106462674,-0.5));
#1424=CARTESIAN_POINT('Ctrl Pts',(-4.00000000000137,2.19374109684867,-0.5));
#1425=CARTESIAN_POINT('Origin',(-4.,0.,0.));
#1426=CARTESIAN_POINT('Origin',(-4.41143782776615,0.,0.));
#1427=CARTESIAN_POINT('',(-4.,2.19374109684803,0.5));
#1428=CARTESIAN_POINT('',(-3.5,1.67705098312484,0.5));
#1429=CARTESIAN_POINT('Ctrl Pts',(-4.,2.19374109684803,0.5));
#1430=CARTESIAN_POINT('Ctrl Pts',(-3.89565707397646,2.1454310646261,0.5));
#1431=CARTESIAN_POINT('Ctrl Pts',(-3.78847033713137,2.0690119545176,0.5));
#1432=CARTESIAN_POINT('Ctrl Pts',(-3.62685347619466,1.90509043633523,0.5));
#1433=CARTESIAN_POINT('Ctrl Pts',(-3.54809348707084,1.78822438143918,0.5));
#1434=CARTESIAN_POINT('Ctrl Pts',(-3.49999999999988,1.67705098312456,0.5));
#1435=CARTESIAN_POINT('',(-3.5,-1.67705098312484,0.5));
#1436=CARTESIAN_POINT('Origin',(-3.5,0.,0.));
#1437=CARTESIAN_POINT('',(-4.,-2.19374109684803,0.5));
#1438=CARTESIAN_POINT('Ctrl Pts',(-3.50000000000007,-1.677050983125,0.5));
#1439=CARTESIAN_POINT('Ctrl Pts',(-3.54809348707104,-1.7882243814395,0.5));
#1440=CARTESIAN_POINT('Ctrl Pts',(-3.62685347619477,-1.90509043633534,0.5));
#1441=CARTESIAN_POINT('Ctrl Pts',(-3.78847033713171,-2.06901195451795,0.5));
#1442=CARTESIAN_POINT('Ctrl Pts',(-3.89565707397742,-2.14543106462674,0.5));
#1443=CARTESIAN_POINT('Ctrl Pts',(-4.00000000000137,-2.19374109684867,0.5));
#1444=CARTESIAN_POINT('Origin',(-4.,0.,0.));
#1445=CARTESIAN_POINT('Origin',(4.41143782776615,0.,0.));
#1446=CARTESIAN_POINT('',(4.,-2.19374109684803,-0.5));
#1447=CARTESIAN_POINT('',(3.5,-1.67705098312484,-0.5));
#1448=CARTESIAN_POINT('Ctrl Pts',(3.50000000000007,-1.677050983125,-0.5));
#1449=CARTESIAN_POINT('Ctrl Pts',(3.54809348707104,-1.7882243814395,-0.5));
#1450=CARTESIAN_POINT('Ctrl Pts',(3.62685347619477,-1.90509043633534,-0.5));
#1451=CARTESIAN_POINT('Ctrl Pts',(3.78847033713171,-2.06901195451795,-0.5));
#1452=CARTESIAN_POINT('Ctrl Pts',(3.89565707397742,-2.14543106462674,-0.5));
#1453=CARTESIAN_POINT('Ctrl Pts',(4.00000000000137,-2.19374109684867,-0.5));
#1454=CARTESIAN_POINT('',(4.,2.19374109684803,-0.5));
#1455=CARTESIAN_POINT('Origin',(4.,0.,0.));
#1456=CARTESIAN_POINT('',(3.5,1.67705098312484,-0.5));
#1457=CARTESIAN_POINT('Ctrl Pts',(4.,2.19374109684803,-0.5));
#1458=CARTESIAN_POINT('Ctrl Pts',(3.89565707397646,2.1454310646261,-0.5));
#1459=CARTESIAN_POINT('Ctrl Pts',(3.78847033713137,2.0690119545176,-0.5));
#1460=CARTESIAN_POINT('Ctrl Pts',(3.62685347619466,1.90509043633523,-0.5));
#1461=CARTESIAN_POINT('Ctrl Pts',(3.54809348707084,1.78822438143918,-0.5));
#1462=CARTESIAN_POINT('Ctrl Pts',(3.49999999999988,1.67705098312456,-0.5));
#1463=CARTESIAN_POINT('Origin',(3.5,0.,0.));
#1464=CARTESIAN_POINT('Origin',(4.41143782776615,0.,0.));
#1465=CARTESIAN_POINT('',(4.,2.19374109684803,0.5));
#1466=CARTESIAN_POINT('',(3.5,1.67705098312484,0.5));
#1467=CARTESIAN_POINT('Ctrl Pts',(3.50000000000007,1.677050983125,0.5));
#1468=CARTESIAN_POINT('Ctrl Pts',(3.54809348707104,1.7882243814395,0.5));
#1469=CARTESIAN_POINT('Ctrl Pts',(3.62685347619477,1.90509043633534,0.5));
#1470=CARTESIAN_POINT('Ctrl Pts',(3.78847033713171,2.06901195451795,0.5));
#1471=CARTESIAN_POINT('Ctrl Pts',(3.89565707397742,2.14543106462674,0.5));
#1472=CARTESIAN_POINT('Ctrl Pts',(4.00000000000137,2.19374109684867,0.5));
#1473=CARTESIAN_POINT('',(4.,-2.19374109684803,0.5));
#1474=CARTESIAN_POINT('Origin',(4.,0.,0.));
#1475=CARTESIAN_POINT('',(3.5,-1.67705098312484,0.5));
#1476=CARTESIAN_POINT('Ctrl Pts',(4.,-2.19374109684803,0.5));
#1477=CARTESIAN_POINT('Ctrl Pts',(3.89565707397646,-2.1454310646261,0.5));
#1478=CARTESIAN_POINT('Ctrl Pts',(3.78847033713137,-2.0690119545176,0.5));
#1479=CARTESIAN_POINT('Ctrl Pts',(3.62685347619466,-1.90509043633523,0.5));
#1480=CARTESIAN_POINT('Ctrl Pts',(3.54809348707084,-1.78822438143918,0.5));
#1481=CARTESIAN_POINT('Ctrl Pts',(3.49999999999988,-1.67705098312456,0.5));
#1482=CARTESIAN_POINT('Origin',(3.5,0.,0.));
#1483=CARTESIAN_POINT('Origin',(4.,-8.,-0.5));
#1484=CARTESIAN_POINT('',(4.,4.,-0.5));
#1485=CARTESIAN_POINT('',(4.,-8.,-0.5));
#1486=CARTESIAN_POINT('',(-4.,4.,-0.5));
#1487=CARTESIAN_POINT('',(4.,4.,-0.5));
#1488=CARTESIAN_POINT('',(-4.,-8.,-0.5));
#1489=CARTESIAN_POINT('',(4.,1.67705098312484,-0.5));
#1490=CARTESIAN_POINT('Origin',(4.,4.,0.5));
#1491=CARTESIAN_POINT('',(4.,-7.48331477354788,0.5));
#1492=CARTESIAN_POINT('',(4.,4.,0.5));
#1493=CARTESIAN_POINT('Ctrl Pts',(3.5,-7.98435971133565,0.5));
#1494=CARTESIAN_POINT('Ctrl Pts',(3.66667763589315,-7.81735557633255,0.5));
#1495=CARTESIAN_POINT('Ctrl Pts',(3.83334503541187,-7.65034132157299,0.5));
#1496=CARTESIAN_POINT('Ctrl Pts',(4.,-7.48331477354788,0.5));
#1497=CARTESIAN_POINT('',(-4.,-7.48331477354788,0.5));
#1498=CARTESIAN_POINT('Ctrl Pts',(-4.,-7.48331477354788,0.5));
#1499=CARTESIAN_POINT('Ctrl Pts',(-3.83334498315042,-7.65034137395096,0.5));
#1500=CARTESIAN_POINT('Ctrl Pts',(-3.66667758689798,-7.8173556254237,0.5));
#1501=CARTESIAN_POINT('Ctrl Pts',(-3.5,-7.98435971133566,0.5));
#1502=CARTESIAN_POINT('',(-4.,4.,0.5));
#1503=CARTESIAN_POINT('',(4.,-1.67705098312484,0.5));
#1504=CARTESIAN_POINT('',(-1.7,-4.5,0.5));
#1505=CARTESIAN_POINT('Origin',(0.,-4.5,0.5));
#1506=CARTESIAN_POINT('Origin',(-4.,7.5,0.));
#1507=CARTESIAN_POINT('',(-4.,4.,0.5));
#1508=CARTESIAN_POINT('',(-4.,4.,-0.5));
#1509=CARTESIAN_POINT('',(-4.,4.,0.5));
#1510=CARTESIAN_POINT('',(-4.,-7.48331477354788,-0.5));
#1511=CARTESIAN_POINT('Origin',(-4.,0.,0.));
#1512=CARTESIAN_POINT('',(-4.,-8.,-0.5));
#1513=CARTESIAN_POINT('Origin',(4.,-8.,-0.5));
#1514=CARTESIAN_POINT('',(4.,-1.67705098312484,-0.5));
#1515=CARTESIAN_POINT('Ctrl Pts',(-3.5,-7.98435971133565,-0.5));
#1516=CARTESIAN_POINT('Ctrl Pts',(-3.66667763589315,-7.81735557633255,-0.5));
#1517=CARTESIAN_POINT('Ctrl Pts',(-3.83334503541187,-7.65034132157299,-0.5));
#1518=CARTESIAN_POINT('Ctrl Pts',(-4.,-7.48331477354788,-0.5));
#1519=CARTESIAN_POINT('',(4.,-7.48331477354788,-0.5));
#1520=CARTESIAN_POINT('Ctrl Pts',(4.,-7.48331477354788,-0.5));
#1521=CARTESIAN_POINT('Ctrl Pts',(3.83334498315042,-7.65034137395096,-0.5));
#1522=CARTESIAN_POINT('Ctrl Pts',(3.66667758689798,-7.8173556254237,-0.5));
#1523=CARTESIAN_POINT('Ctrl Pts',(3.5,-7.98435971133566,-0.5));
#1524=CARTESIAN_POINT('',(4.,-8.,-0.5));
#1525=CARTESIAN_POINT('Origin',(4.,4.,0.5));
#1526=CARTESIAN_POINT('',(4.,1.67705098312484,0.5));
#1527=CARTESIAN_POINT('',(4.,4.,0.5));
#1528=CARTESIAN_POINT('',(4.,4.,0.5));
#1529=CARTESIAN_POINT('',(4.,4.,0.5));
#1530=CARTESIAN_POINT('Origin',(4.,2.,0.));
#1531=CARTESIAN_POINT('Origin',(4.,0.,0.));
#1532=CARTESIAN_POINT('',(4.,4.,-0.5));
#1533=CARTESIAN_POINT('Origin',(4.,0.,0.));
#1534=CARTESIAN_POINT('Origin',(4.,0.,0.));
#1535=CARTESIAN_POINT('Origin',(-3.5,0.,0.));
#1536=CARTESIAN_POINT('Origin',(4.,0.,0.));
#1537=CARTESIAN_POINT('Origin',(4.,4.,-0.5));
#1538=CARTESIAN_POINT('Origin',(0.,-4.5,8.));
#1539=CARTESIAN_POINT('',(-1.7,-4.5,2.2));
#1540=CARTESIAN_POINT('',(-1.7,-4.5,8.));
#1541=CARTESIAN_POINT('Origin',(0.,-4.5,2.2));
#1542=CARTESIAN_POINT('Origin',(0.,-6.2,2.2));
#1543=CARTESIAN_POINT('',(-3.,-4.5,2.2));
#1544=CARTESIAN_POINT('Origin',(0.,-4.5,2.2));
#1545=CARTESIAN_POINT('Origin',(0.,-4.5,8.));
#1546=CARTESIAN_POINT('',(-3.,-4.5,8.));
#1547=CARTESIAN_POINT('Origin',(0.,-3.2705,-7.25));
#1548=CARTESIAN_POINT('',(0.,0.,0.));
#1549=UNCERTAINTY_MEASURE_WITH_UNIT(LENGTH_MEASURE(0.01),#1555,
'DISTANCE_ACCURACY_VALUE',
'Maximum model space distance between geometric entities at asserted c
onnectivities');
#1550=UNCERTAINTY_MEASURE_WITH_UNIT(LENGTH_MEASURE(0.01),#1555,
'DISTANCE_ACCURACY_VALUE',
'Maximum model space distance between geometric entities at asserted c
onnectivities');
#1551=UNCERTAINTY_MEASURE_WITH_UNIT(LENGTH_MEASURE(0.01),#1555,
'DISTANCE_ACCURACY_VALUE',
'Maximum model space distance between geometric entities at asserted c
onnectivities');
#1552=(
GEOMETRIC_REPRESENTATION_CONTEXT(3)
GLOBAL_UNCERTAINTY_ASSIGNED_CONTEXT((#1549))
GLOBAL_UNIT_ASSIGNED_CONTEXT((#1555,#1557,#1558))
REPRESENTATION_CONTEXT('','3D')
);
#1553=(
GEOMETRIC_REPRESENTATION_CONTEXT(3)
GLOBAL_UNCERTAINTY_ASSIGNED_CONTEXT((#1550))
GLOBAL_UNIT_ASSIGNED_CONTEXT((#1555,#1557,#1558))
REPRESENTATION_CONTEXT('','3D')
);
#1554=(
GEOMETRIC_REPRESENTATION_CONTEXT(3)
GLOBAL_UNCERTAINTY_ASSIGNED_CONTEXT((#1551))
GLOBAL_UNIT_ASSIGNED_CONTEXT((#1555,#1557,#1558))
REPRESENTATION_CONTEXT('','3D')
);
#1555=(
LENGTH_UNIT()
NAMED_UNIT(*)
SI_UNIT(.MILLI.,.METRE.)
);
#1556=(
LENGTH_UNIT()
NAMED_UNIT(*)
SI_UNIT($,.METRE.)
);
#1557=(
NAMED_UNIT(*)
PLANE_ANGLE_UNIT()
SI_UNIT($,.RADIAN.)
);
#1558=(
NAMED_UNIT(*)
SI_UNIT($,.STERADIAN.)
SOLID_ANGLE_UNIT()
);
#1559=SHAPE_DEFINITION_REPRESENTATION(#1561,#1564);
#1560=SHAPE_DEFINITION_REPRESENTATION(#1562,#1565);
#1561=PRODUCT_DEFINITION_SHAPE('',$,#1567);
#1562=PRODUCT_DEFINITION_SHAPE('',$,#1568);
#1563=PRODUCT_DEFINITION_SHAPE($,$,#14);
#1564=SHAPE_REPRESENTATION('',(#843,#935),#1552);
#1565=SHAPE_REPRESENTATION('',(#844),#1553);
#1566=PRODUCT_DEFINITION_CONTEXT('part definition',#1574,'design');
#1567=PRODUCT_DEFINITION('PSCS3-8','kikker - \X2\30BB30C330C830AB30E930FC\X0\ 
v5',#1569,#1566);
#1568=PRODUCT_DEFINITION('PSCS3-8_b','PSCS3-8_b',#1570,#1566);
#1569=PRODUCT_DEFINITION_FORMATION('',$,#1576);
#1570=PRODUCT_DEFINITION_FORMATION('',$,#1577);
#1571=PRODUCT_RELATED_PRODUCT_CATEGORY('kikker - \X2\30BB30C330C830AB30E930FC\X0\ 
v5','kikker - \X2\30BB30C330C830AB30E930FC\X0\ v5',(#1576));
#1572=PRODUCT_RELATED_PRODUCT_CATEGORY('PSCS3-8_b','PSCS3-8_b',(#1577));
#1573=APPLICATION_PROTOCOL_DEFINITION('international standard',
'automotive_design',2009,#1574);
#1574=APPLICATION_CONTEXT(
'Core Data for Automotive Mechanical Design Process');
#1575=PRODUCT_CONTEXT('part definition',#1574,'mechanical');
#1576=PRODUCT('PSCS3-8','kikker - \X2\30BB30C330C830AB30E930FC\X0\ v5',
'STEP AP203',(#1575));
#1577=PRODUCT('PSCS3-8_b','PSCS3-8_b','PSCS3-8_b',(#1575));
#1578=PRESENTATION_STYLE_ASSIGNMENT((#1580));
#1579=PRESENTATION_STYLE_ASSIGNMENT((#1581));
#1580=SURFACE_STYLE_USAGE(.BOTH.,#1582);
#1581=SURFACE_STYLE_USAGE(.BOTH.,#1583);
#1582=SURFACE_SIDE_STYLE('',(#1584));
#1583=SURFACE_SIDE_STYLE('',(#1585));
#1584=SURFACE_STYLE_FILL_AREA(#1586);
#1585=SURFACE_STYLE_FILL_AREA(#1587);
#1586=FILL_AREA_STYLE('\X2\92FC\X0\ - \X2\30B530C630F3\X0\',(#1588));
#1587=FILL_AREA_STYLE('\X2\30A230EB30DF30CB30A630E0\X0\ - \X2\3064308451FA3057\X0\',
(#1589));
#1588=FILL_AREA_STYLE_COLOUR('\X2\92FC\X0\ - \X2\30B530C630F3\X0\',#1590);
#1589=FILL_AREA_STYLE_COLOUR('\X2\30A230EB30DF30CB30A630E0\X0\ - \X2\3064308451FA3057\X0\',
#1591);
#1590=COLOUR_RGB('\X2\92FC\X0\ - \X2\30B530C630F3\X0\',0.627450980392157,
0.627450980392157,0.627450980392157);
#1591=COLOUR_RGB('\X2\30A230EB30DF30CB30A630E0\X0\ - \X2\3064308451FA3057\X0\',
0.96078431372549,0.96078431372549,0.964705882352941);
ENDSEC;
END-ISO-10303-21;
