ISO-10303-21;
HEADER;
/* Generated by software containing ST-Developer
 * from STEP Tools, Inc. (www.steptools.com) 
 */

FILE_DESCRIPTION(
/* description */ (''),
/* implementation_level */ '2;1');

FILE_NAME(
/* name */ 'tipkickstroke-downside.step',
/* time_stamp */ '2026-05-18T14:46:38+09:00',
/* author */ (''),
/* organization */ (''),
/* preprocessor_version */ 'ST-DEVELOPER v20.1',
/* originating_system */ 'Autodesk Translation Framework v15.8.0.0',
/* authorisation */ '');

FILE_SCHEMA (('AUTOMOTIVE_DESIGN { 1 0 10303 214 3 1 1 }'));
ENDSEC;

DATA;
#10=MECHANICAL_DESIGN_GEOMETRIC_PRESENTATION_REPRESENTATION('',(#13),#585);
#11=SHAPE_REPRESENTATION_RELATIONSHIP('SRR','None',#592,#12);
#12=ADVANCED_BREP_SHAPE_REPRESENTATION('',(#14),#584);
#13=STYLED_ITEM('',(#601),#14);
#14=MANIFOLD_SOLID_BREP('\X2\30C130C330D730AD30C330AF30B930C830ED30FC30AF\X0\_
JLC-ver',#361);
#15=FACE_BOUND('',#47,.T.);
#16=FACE_BOUND('',#54,.T.);
#17=CIRCLE('',#382,1.6);
#18=CIRCLE('',#383,1.6);
#19=CYLINDRICAL_SURFACE('',#381,1.6);
#20=FACE_OUTER_BOUND('',#38,.T.);
#21=FACE_OUTER_BOUND('',#39,.T.);
#22=FACE_OUTER_BOUND('',#40,.T.);
#23=FACE_OUTER_BOUND('',#41,.T.);
#24=FACE_OUTER_BOUND('',#42,.T.);
#25=FACE_OUTER_BOUND('',#43,.T.);
#26=FACE_OUTER_BOUND('',#44,.T.);
#27=FACE_OUTER_BOUND('',#45,.T.);
#28=FACE_OUTER_BOUND('',#46,.T.);
#29=FACE_OUTER_BOUND('',#48,.T.);
#30=FACE_OUTER_BOUND('',#49,.T.);
#31=FACE_OUTER_BOUND('',#50,.T.);
#32=FACE_OUTER_BOUND('',#51,.T.);
#33=FACE_OUTER_BOUND('',#52,.T.);
#34=FACE_OUTER_BOUND('',#53,.T.);
#35=FACE_OUTER_BOUND('',#55,.T.);
#36=FACE_OUTER_BOUND('',#56,.T.);
#37=FACE_OUTER_BOUND('',#57,.T.);
#38=EDGE_LOOP('',(#230,#231,#232,#233));
#39=EDGE_LOOP('',(#234,#235,#236,#237));
#40=EDGE_LOOP('',(#238,#239,#240,#241));
#41=EDGE_LOOP('',(#242,#243,#244,#245));
#42=EDGE_LOOP('',(#246,#247,#248,#249));
#43=EDGE_LOOP('',(#250,#251,#252,#253));
#44=EDGE_LOOP('',(#254,#255,#256,#257));
#45=EDGE_LOOP('',(#258,#259,#260,#261,#262,#263,#264,#265,#266,#267,#268,
#269,#270,#271,#272));
#46=EDGE_LOOP('',(#273,#274,#275,#276));
#47=EDGE_LOOP('',(#277));
#48=EDGE_LOOP('',(#278,#279,#280,#281));
#49=EDGE_LOOP('',(#282,#283,#284,#285));
#50=EDGE_LOOP('',(#286,#287,#288,#289));
#51=EDGE_LOOP('',(#290,#291,#292,#293));
#52=EDGE_LOOP('',(#294,#295,#296,#297));
#53=EDGE_LOOP('',(#298,#299,#300,#301));
#54=EDGE_LOOP('',(#302));
#55=EDGE_LOOP('',(#303,#304,#305,#306));
#56=EDGE_LOOP('',(#307,#308,#309,#310));
#57=EDGE_LOOP('',(#311,#312,#313,#314,#315,#316,#317,#318,#319,#320,#321,
#322,#323,#324,#325));
#58=LINE('',#487,#104);
#59=LINE('',#489,#105);
#60=LINE('',#491,#106);
#61=LINE('',#492,#107);
#62=LINE('',#496,#108);
#63=LINE('',#498,#109);
#64=LINE('',#500,#110);
#65=LINE('',#501,#111);
#66=LINE('',#504,#112);
#67=LINE('',#506,#113);
#68=LINE('',#507,#114);
#69=LINE('',#510,#115);
#70=LINE('',#512,#116);
#71=LINE('',#513,#117);
#72=LINE('',#516,#118);
#73=LINE('',#518,#119);
#74=LINE('',#519,#120);
#75=LINE('',#522,#121);
#76=LINE('',#524,#122);
#77=LINE('',#525,#123);
#78=LINE('',#530,#124);
#79=LINE('',#534,#125);
#80=LINE('',#536,#126);
#81=LINE('',#538,#127);
#82=LINE('',#540,#128);
#83=LINE('',#542,#129);
#84=LINE('',#544,#130);
#85=LINE('',#545,#131);
#86=LINE('',#547,#132);
#87=LINE('',#548,#133);
#88=LINE('',#551,#134);
#89=LINE('',#553,#135);
#90=LINE('',#554,#136);
#91=LINE('',#557,#137);
#92=LINE('',#558,#138);
#93=LINE('',#560,#139);
#94=LINE('',#563,#140);
#95=LINE('',#564,#141);
#96=LINE('',#566,#142);
#97=LINE('',#569,#143);
#98=LINE('',#570,#144);
#99=LINE('',#573,#145);
#100=LINE('',#574,#146);
#101=LINE('',#577,#147);
#102=LINE('',#578,#148);
#103=LINE('',#580,#149);
#104=VECTOR('',#399,10.);
#105=VECTOR('',#400,10.);
#106=VECTOR('',#401,10.);
#107=VECTOR('',#402,10.);
#108=VECTOR('',#405,10.);
#109=VECTOR('',#406,10.);
#110=VECTOR('',#407,10.);
#111=VECTOR('',#408,10.);
#112=VECTOR('',#411,10.);
#113=VECTOR('',#412,10.);
#114=VECTOR('',#413,10.);
#115=VECTOR('',#416,10.);
#116=VECTOR('',#417,10.);
#117=VECTOR('',#418,10.);
#118=VECTOR('',#421,10.);
#119=VECTOR('',#422,10.);
#120=VECTOR('',#423,10.);
#121=VECTOR('',#426,10.);
#122=VECTOR('',#427,10.);
#123=VECTOR('',#428,10.);
#124=VECTOR('',#433,1.6);
#125=VECTOR('',#438,10.);
#126=VECTOR('',#439,10.);
#127=VECTOR('',#440,10.);
#128=VECTOR('',#441,10.);
#129=VECTOR('',#442,10.);
#130=VECTOR('',#443,10.);
#131=VECTOR('',#444,10.);
#132=VECTOR('',#445,10.);
#133=VECTOR('',#446,10.);
#134=VECTOR('',#449,10.);
#135=VECTOR('',#450,10.);
#136=VECTOR('',#451,10.);
#137=VECTOR('',#454,10.);
#138=VECTOR('',#455,10.);
#139=VECTOR('',#458,10.);
#140=VECTOR('',#461,10.);
#141=VECTOR('',#462,10.);
#142=VECTOR('',#465,10.);
#143=VECTOR('',#468,10.);
#144=VECTOR('',#469,10.);
#145=VECTOR('',#472,10.);
#146=VECTOR('',#473,10.);
#147=VECTOR('',#476,10.);
#148=VECTOR('',#477,10.);
#149=VECTOR('',#480,10.);
#150=VERTEX_POINT('',#485);
#151=VERTEX_POINT('',#486);
#152=VERTEX_POINT('',#488);
#153=VERTEX_POINT('',#490);
#154=VERTEX_POINT('',#494);
#155=VERTEX_POINT('',#495);
#156=VERTEX_POINT('',#497);
#157=VERTEX_POINT('',#499);
#158=VERTEX_POINT('',#503);
#159=VERTEX_POINT('',#505);
#160=VERTEX_POINT('',#509);
#161=VERTEX_POINT('',#511);
#162=VERTEX_POINT('',#515);
#163=VERTEX_POINT('',#517);
#164=VERTEX_POINT('',#521);
#165=VERTEX_POINT('',#523);
#166=VERTEX_POINT('',#527);
#167=VERTEX_POINT('',#529);
#168=VERTEX_POINT('',#533);
#169=VERTEX_POINT('',#535);
#170=VERTEX_POINT('',#537);
#171=VERTEX_POINT('',#539);
#172=VERTEX_POINT('',#541);
#173=VERTEX_POINT('',#543);
#174=VERTEX_POINT('',#546);
#175=VERTEX_POINT('',#550);
#176=VERTEX_POINT('',#552);
#177=VERTEX_POINT('',#556);
#178=VERTEX_POINT('',#562);
#179=VERTEX_POINT('',#568);
#180=VERTEX_POINT('',#572);
#181=VERTEX_POINT('',#576);
#182=EDGE_CURVE('',#150,#151,#58,.T.);
#183=EDGE_CURVE('',#152,#150,#59,.T.);
#184=EDGE_CURVE('',#153,#152,#60,.T.);
#185=EDGE_CURVE('',#151,#153,#61,.T.);
#186=EDGE_CURVE('',#154,#155,#62,.T.);
#187=EDGE_CURVE('',#156,#154,#63,.T.);
#188=EDGE_CURVE('',#157,#156,#64,.T.);
#189=EDGE_CURVE('',#155,#157,#65,.T.);
#190=EDGE_CURVE('',#158,#155,#66,.T.);
#191=EDGE_CURVE('',#159,#158,#67,.T.);
#192=EDGE_CURVE('',#159,#154,#68,.T.);
#193=EDGE_CURVE('',#156,#160,#69,.T.);
#194=EDGE_CURVE('',#160,#161,#70,.T.);
#195=EDGE_CURVE('',#157,#161,#71,.T.);
#196=EDGE_CURVE('',#162,#151,#72,.T.);
#197=EDGE_CURVE('',#163,#162,#73,.T.);
#198=EDGE_CURVE('',#163,#150,#74,.T.);
#199=EDGE_CURVE('',#152,#164,#75,.T.);
#200=EDGE_CURVE('',#164,#165,#76,.T.);
#201=EDGE_CURVE('',#153,#165,#77,.T.);
#202=EDGE_CURVE('',#166,#166,#17,.T.);
#203=EDGE_CURVE('',#166,#167,#78,.T.);
#204=EDGE_CURVE('',#167,#167,#18,.T.);
#205=EDGE_CURVE('',#168,#159,#79,.T.);
#206=EDGE_CURVE('',#169,#168,#80,.T.);
#207=EDGE_CURVE('',#170,#169,#81,.T.);
#208=EDGE_CURVE('',#171,#170,#82,.T.);
#209=EDGE_CURVE('',#172,#171,#83,.T.);
#210=EDGE_CURVE('',#173,#172,#84,.T.);
#211=EDGE_CURVE('',#164,#173,#85,.T.);
#212=EDGE_CURVE('',#174,#163,#86,.T.);
#213=EDGE_CURVE('',#160,#174,#87,.T.);
#214=EDGE_CURVE('',#169,#175,#88,.T.);
#215=EDGE_CURVE('',#176,#175,#89,.T.);
#216=EDGE_CURVE('',#170,#176,#90,.T.);
#217=EDGE_CURVE('',#168,#177,#91,.T.);
#218=EDGE_CURVE('',#175,#177,#92,.T.);
#219=EDGE_CURVE('',#177,#158,#93,.T.);
#220=EDGE_CURVE('',#174,#178,#94,.T.);
#221=EDGE_CURVE('',#161,#178,#95,.T.);
#222=EDGE_CURVE('',#178,#162,#96,.T.);
#223=EDGE_CURVE('',#179,#176,#97,.T.);
#224=EDGE_CURVE('',#171,#179,#98,.T.);
#225=EDGE_CURVE('',#180,#179,#99,.T.);
#226=EDGE_CURVE('',#172,#180,#100,.T.);
#227=EDGE_CURVE('',#181,#180,#101,.T.);
#228=EDGE_CURVE('',#173,#181,#102,.T.);
#229=EDGE_CURVE('',#165,#181,#103,.T.);
#230=ORIENTED_EDGE('',*,*,#182,.F.);
#231=ORIENTED_EDGE('',*,*,#183,.F.);
#232=ORIENTED_EDGE('',*,*,#184,.F.);
#233=ORIENTED_EDGE('',*,*,#185,.F.);
#234=ORIENTED_EDGE('',*,*,#186,.F.);
#235=ORIENTED_EDGE('',*,*,#187,.F.);
#236=ORIENTED_EDGE('',*,*,#188,.F.);
#237=ORIENTED_EDGE('',*,*,#189,.F.);
#238=ORIENTED_EDGE('',*,*,#186,.T.);
#239=ORIENTED_EDGE('',*,*,#190,.F.);
#240=ORIENTED_EDGE('',*,*,#191,.F.);
#241=ORIENTED_EDGE('',*,*,#192,.T.);
#242=ORIENTED_EDGE('',*,*,#188,.T.);
#243=ORIENTED_EDGE('',*,*,#193,.T.);
#244=ORIENTED_EDGE('',*,*,#194,.T.);
#245=ORIENTED_EDGE('',*,*,#195,.F.);
#246=ORIENTED_EDGE('',*,*,#182,.T.);
#247=ORIENTED_EDGE('',*,*,#196,.F.);
#248=ORIENTED_EDGE('',*,*,#197,.F.);
#249=ORIENTED_EDGE('',*,*,#198,.T.);
#250=ORIENTED_EDGE('',*,*,#184,.T.);
#251=ORIENTED_EDGE('',*,*,#199,.T.);
#252=ORIENTED_EDGE('',*,*,#200,.T.);
#253=ORIENTED_EDGE('',*,*,#201,.F.);
#254=ORIENTED_EDGE('',*,*,#202,.F.);
#255=ORIENTED_EDGE('',*,*,#203,.T.);
#256=ORIENTED_EDGE('',*,*,#204,.F.);
#257=ORIENTED_EDGE('',*,*,#203,.F.);
#258=ORIENTED_EDGE('',*,*,#187,.T.);
#259=ORIENTED_EDGE('',*,*,#192,.F.);
#260=ORIENTED_EDGE('',*,*,#205,.F.);
#261=ORIENTED_EDGE('',*,*,#206,.F.);
#262=ORIENTED_EDGE('',*,*,#207,.F.);
#263=ORIENTED_EDGE('',*,*,#208,.F.);
#264=ORIENTED_EDGE('',*,*,#209,.F.);
#265=ORIENTED_EDGE('',*,*,#210,.F.);
#266=ORIENTED_EDGE('',*,*,#211,.F.);
#267=ORIENTED_EDGE('',*,*,#199,.F.);
#268=ORIENTED_EDGE('',*,*,#183,.T.);
#269=ORIENTED_EDGE('',*,*,#198,.F.);
#270=ORIENTED_EDGE('',*,*,#212,.F.);
#271=ORIENTED_EDGE('',*,*,#213,.F.);
#272=ORIENTED_EDGE('',*,*,#193,.F.);
#273=ORIENTED_EDGE('',*,*,#207,.T.);
#274=ORIENTED_EDGE('',*,*,#214,.T.);
#275=ORIENTED_EDGE('',*,*,#215,.F.);
#276=ORIENTED_EDGE('',*,*,#216,.F.);
#277=ORIENTED_EDGE('',*,*,#204,.T.);
#278=ORIENTED_EDGE('',*,*,#206,.T.);
#279=ORIENTED_EDGE('',*,*,#217,.T.);
#280=ORIENTED_EDGE('',*,*,#218,.F.);
#281=ORIENTED_EDGE('',*,*,#214,.F.);
#282=ORIENTED_EDGE('',*,*,#205,.T.);
#283=ORIENTED_EDGE('',*,*,#191,.T.);
#284=ORIENTED_EDGE('',*,*,#219,.F.);
#285=ORIENTED_EDGE('',*,*,#217,.F.);
#286=ORIENTED_EDGE('',*,*,#213,.T.);
#287=ORIENTED_EDGE('',*,*,#220,.T.);
#288=ORIENTED_EDGE('',*,*,#221,.F.);
#289=ORIENTED_EDGE('',*,*,#194,.F.);
#290=ORIENTED_EDGE('',*,*,#212,.T.);
#291=ORIENTED_EDGE('',*,*,#197,.T.);
#292=ORIENTED_EDGE('',*,*,#222,.F.);
#293=ORIENTED_EDGE('',*,*,#220,.F.);
#294=ORIENTED_EDGE('',*,*,#208,.T.);
#295=ORIENTED_EDGE('',*,*,#216,.T.);
#296=ORIENTED_EDGE('',*,*,#223,.F.);
#297=ORIENTED_EDGE('',*,*,#224,.F.);
#298=ORIENTED_EDGE('',*,*,#209,.T.);
#299=ORIENTED_EDGE('',*,*,#224,.T.);
#300=ORIENTED_EDGE('',*,*,#225,.F.);
#301=ORIENTED_EDGE('',*,*,#226,.F.);
#302=ORIENTED_EDGE('',*,*,#202,.T.);
#303=ORIENTED_EDGE('',*,*,#210,.T.);
#304=ORIENTED_EDGE('',*,*,#226,.T.);
#305=ORIENTED_EDGE('',*,*,#227,.F.);
#306=ORIENTED_EDGE('',*,*,#228,.F.);
#307=ORIENTED_EDGE('',*,*,#211,.T.);
#308=ORIENTED_EDGE('',*,*,#228,.T.);
#309=ORIENTED_EDGE('',*,*,#229,.F.);
#310=ORIENTED_EDGE('',*,*,#200,.F.);
#311=ORIENTED_EDGE('',*,*,#222,.T.);
#312=ORIENTED_EDGE('',*,*,#196,.T.);
#313=ORIENTED_EDGE('',*,*,#185,.T.);
#314=ORIENTED_EDGE('',*,*,#201,.T.);
#315=ORIENTED_EDGE('',*,*,#229,.T.);
#316=ORIENTED_EDGE('',*,*,#227,.T.);
#317=ORIENTED_EDGE('',*,*,#225,.T.);
#318=ORIENTED_EDGE('',*,*,#223,.T.);
#319=ORIENTED_EDGE('',*,*,#215,.T.);
#320=ORIENTED_EDGE('',*,*,#218,.T.);
#321=ORIENTED_EDGE('',*,*,#219,.T.);
#322=ORIENTED_EDGE('',*,*,#190,.T.);
#323=ORIENTED_EDGE('',*,*,#189,.T.);
#324=ORIENTED_EDGE('',*,*,#195,.T.);
#325=ORIENTED_EDGE('',*,*,#221,.T.);
#326=PLANE('',#375);
#327=PLANE('',#376);
#328=PLANE('',#377);
#329=PLANE('',#378);
#330=PLANE('',#379);
#331=PLANE('',#380);
#332=PLANE('',#384);
#333=PLANE('',#385);
#334=PLANE('',#386);
#335=PLANE('',#387);
#336=PLANE('',#388);
#337=PLANE('',#389);
#338=PLANE('',#390);
#339=PLANE('',#391);
#340=PLANE('',#392);
#341=PLANE('',#393);
#342=PLANE('',#394);
#343=ADVANCED_FACE('',(#20),#326,.F.);
#344=ADVANCED_FACE('',(#21),#327,.F.);
#345=ADVANCED_FACE('',(#22),#328,.T.);
#346=ADVANCED_FACE('',(#23),#329,.T.);
#347=ADVANCED_FACE('',(#24),#330,.T.);
#348=ADVANCED_FACE('',(#25),#331,.T.);
#349=ADVANCED_FACE('',(#26),#19,.F.);
#350=ADVANCED_FACE('',(#27),#332,.F.);
#351=ADVANCED_FACE('',(#28,#15),#333,.T.);
#352=ADVANCED_FACE('',(#29),#334,.T.);
#353=ADVANCED_FACE('',(#30),#335,.T.);
#354=ADVANCED_FACE('',(#31),#336,.T.);
#355=ADVANCED_FACE('',(#32),#337,.T.);
#356=ADVANCED_FACE('',(#33),#338,.T.);
#357=ADVANCED_FACE('',(#34,#16),#339,.T.);
#358=ADVANCED_FACE('',(#35),#340,.T.);
#359=ADVANCED_FACE('',(#36),#341,.T.);
#360=ADVANCED_FACE('',(#37),#342,.T.);
#361=CLOSED_SHELL('',(#343,#344,#345,#346,#347,#348,#349,#350,#351,#352,
#353,#354,#355,#356,#357,#358,#359,#360));
#362=DERIVED_UNIT_ELEMENT(#364,1.);
#363=DERIVED_UNIT_ELEMENT(#587,-3.);
#364=(
MASS_UNIT()
NAMED_UNIT(*)
SI_UNIT(.KILO.,.GRAM.)
);
#365=DERIVED_UNIT((#362,#363));
#366=MEASURE_REPRESENTATION_ITEM('density measure',
POSITIVE_RATIO_MEASURE(7850.),#365);
#367=PROPERTY_DEFINITION_REPRESENTATION(#372,#369);
#368=PROPERTY_DEFINITION_REPRESENTATION(#373,#370);
#369=REPRESENTATION('material name',(#371),#584);
#370=REPRESENTATION('density',(#366),#584);
#371=DESCRIPTIVE_REPRESENTATION_ITEM('\X2\92FC\X0\','\X2\92FC\X0\');
#372=PROPERTY_DEFINITION('material property','material name',#594);
#373=PROPERTY_DEFINITION('material property','density of part',#594);
#374=AXIS2_PLACEMENT_3D('',#483,#395,#396);
#375=AXIS2_PLACEMENT_3D('',#484,#397,#398);
#376=AXIS2_PLACEMENT_3D('',#493,#403,#404);
#377=AXIS2_PLACEMENT_3D('',#502,#409,#410);
#378=AXIS2_PLACEMENT_3D('',#508,#414,#415);
#379=AXIS2_PLACEMENT_3D('',#514,#419,#420);
#380=AXIS2_PLACEMENT_3D('',#520,#424,#425);
#381=AXIS2_PLACEMENT_3D('',#526,#429,#430);
#382=AXIS2_PLACEMENT_3D('',#528,#431,#432);
#383=AXIS2_PLACEMENT_3D('',#531,#434,#435);
#384=AXIS2_PLACEMENT_3D('',#532,#436,#437);
#385=AXIS2_PLACEMENT_3D('',#549,#447,#448);
#386=AXIS2_PLACEMENT_3D('',#555,#452,#453);
#387=AXIS2_PLACEMENT_3D('',#559,#456,#457);
#388=AXIS2_PLACEMENT_3D('',#561,#459,#460);
#389=AXIS2_PLACEMENT_3D('',#565,#463,#464);
#390=AXIS2_PLACEMENT_3D('',#567,#466,#467);
#391=AXIS2_PLACEMENT_3D('',#571,#470,#471);
#392=AXIS2_PLACEMENT_3D('',#575,#474,#475);
#393=AXIS2_PLACEMENT_3D('',#579,#478,#479);
#394=AXIS2_PLACEMENT_3D('',#581,#481,#482);
#395=DIRECTION('axis',(0.,0.,1.));
#396=DIRECTION('refdir',(1.,0.,0.));
#397=DIRECTION('center_axis',(0.,-0.64278760968654,-0.766044443118978));
#398=DIRECTION('ref_axis',(0.,-0.766044443118978,0.64278760968654));
#399=DIRECTION('',(-2.92697896805995E-17,0.766044443118978,-0.64278760968654));
#400=DIRECTION('',(-1.,0.,0.));
#401=DIRECTION('',(4.85343582937318E-16,-0.766044443118978,0.64278760968654));
#402=DIRECTION('',(1.,0.,0.));
#403=DIRECTION('center_axis',(0.,-0.64278760968654,-0.766044443118978));
#404=DIRECTION('ref_axis',(0.,-0.766044443118978,0.64278760968654));
#405=DIRECTION('',(-2.42671791468659E-16,0.766044443118978,-0.64278760968654));
#406=DIRECTION('',(-1.,0.,0.));
#407=DIRECTION('',(2.34158317444796E-16,-0.766044443118978,0.64278760968654));
#408=DIRECTION('',(1.,0.,0.));
#409=DIRECTION('center_axis',(-1.,-3.1678552549851E-16,0.));
#410=DIRECTION('ref_axis',(-3.1678552549851E-16,1.,0.));
#411=DIRECTION('',(-3.1678552549851E-16,1.,0.));
#412=DIRECTION('',(0.,0.,-1.));
#413=DIRECTION('',(-3.1678552549851E-16,1.,0.));
#414=DIRECTION('center_axis',(1.,3.05671974450218E-16,0.));
#415=DIRECTION('ref_axis',(3.05671974450218E-16,-1.,0.));
#416=DIRECTION('',(3.05671974450218E-16,-1.,0.));
#417=DIRECTION('',(0.,0.,-1.));
#418=DIRECTION('',(3.05671974450218E-16,-1.,0.));
#419=DIRECTION('center_axis',(-1.,-3.82089968062773E-17,0.));
#420=DIRECTION('ref_axis',(-3.82089968062773E-17,1.,0.));
#421=DIRECTION('',(-3.82089968062773E-17,1.,0.));
#422=DIRECTION('',(0.,0.,-1.));
#423=DIRECTION('',(-3.82089968062773E-17,1.,0.));
#424=DIRECTION('center_axis',(1.,6.33571050997021E-16,0.));
#425=DIRECTION('ref_axis',(6.33571050997021E-16,-1.,0.));
#426=DIRECTION('',(6.33571050997021E-16,-1.,0.));
#427=DIRECTION('',(0.,0.,-1.));
#428=DIRECTION('',(6.33571050997021E-16,-1.,0.));
#429=DIRECTION('center_axis',(0.,1.,0.));
#430=DIRECTION('ref_axis',(1.,0.,0.));
#431=DIRECTION('center_axis',(-1.3559578287022E-16,1.,0.));
#432=DIRECTION('ref_axis',(1.,0.,0.));
#433=DIRECTION('',(0.,1.,0.));
#434=DIRECTION('center_axis',(1.81368576418962E-9,-1.,0.));
#435=DIRECTION('ref_axis',(1.,1.81368576418962E-9,0.));
#436=DIRECTION('center_axis',(0.,0.,-1.));
#437=DIRECTION('ref_axis',(-1.,0.,0.));
#438=DIRECTION('',(-0.707106781186548,0.707106781186547,0.));
#439=DIRECTION('',(0.,1.,0.));
#440=DIRECTION('',(1.,1.81368576418962E-9,0.));
#441=DIRECTION('',(0.,1.,0.));
#442=DIRECTION('',(-1.,-1.3559578287022E-16,0.));
#443=DIRECTION('',(-4.18874533570281E-17,-1.,0.));
#444=DIRECTION('',(-0.707106781186547,-0.707106781186548,0.));
#445=DIRECTION('',(0.707106781186547,0.707106781186548,0.));
#446=DIRECTION('',(0.707106781186549,-0.707106781186546,0.));
#447=DIRECTION('center_axis',(-1.81368576418962E-9,1.,0.));
#448=DIRECTION('ref_axis',(1.,1.81368576418962E-9,0.));
#449=DIRECTION('',(0.,0.,-1.));
#450=DIRECTION('',(1.,1.81368576418962E-9,0.));
#451=DIRECTION('',(0.,0.,-1.));
#452=DIRECTION('center_axis',(-1.,0.,0.));
#453=DIRECTION('ref_axis',(0.,1.,0.));
#454=DIRECTION('',(0.,0.,-1.));
#455=DIRECTION('',(0.,1.,0.));
#456=DIRECTION('center_axis',(-0.707106781186547,-0.707106781186548,0.));
#457=DIRECTION('ref_axis',(-0.707106781186548,0.707106781186547,0.));
#458=DIRECTION('',(-0.707106781186548,0.707106781186547,0.));
#459=DIRECTION('center_axis',(0.707106781186546,0.707106781186549,0.));
#460=DIRECTION('ref_axis',(0.707106781186549,-0.707106781186546,0.));
#461=DIRECTION('',(0.,0.,-1.));
#462=DIRECTION('',(0.707106781186549,-0.707106781186546,0.));
#463=DIRECTION('center_axis',(-0.707106781186548,0.707106781186547,0.));
#464=DIRECTION('ref_axis',(0.707106781186547,0.707106781186548,0.));
#465=DIRECTION('',(0.707106781186547,0.707106781186548,0.));
#466=DIRECTION('center_axis',(-1.,0.,0.));
#467=DIRECTION('ref_axis',(0.,1.,0.));
#468=DIRECTION('',(0.,1.,0.));
#469=DIRECTION('',(0.,0.,-1.));
#470=DIRECTION('center_axis',(1.3559578287022E-16,-1.,0.));
#471=DIRECTION('ref_axis',(-1.,-1.3559578287022E-16,0.));
#472=DIRECTION('',(-1.,-1.3559578287022E-16,0.));
#473=DIRECTION('',(0.,0.,-1.));
#474=DIRECTION('center_axis',(1.,-4.18874533570281E-17,0.));
#475=DIRECTION('ref_axis',(-4.18874533570281E-17,-1.,0.));
#476=DIRECTION('',(-4.18874533570281E-17,-1.,0.));
#477=DIRECTION('',(0.,0.,-1.));
#478=DIRECTION('center_axis',(0.707106781186548,-0.707106781186547,0.));
#479=DIRECTION('ref_axis',(-0.707106781186547,-0.707106781186548,0.));
#480=DIRECTION('',(-0.707106781186547,-0.707106781186548,0.));
#481=DIRECTION('center_axis',(0.,0.,-1.));
#482=DIRECTION('ref_axis',(-1.,0.,0.));
#483=CARTESIAN_POINT('',(0.,0.,0.));
#484=CARTESIAN_POINT('Origin',(8.90891572483203,76.2081430870967,-9.4));
#485=CARTESIAN_POINT('',(2.90891572483203,70.2493751241257,-4.4));
#486=CARTESIAN_POINT('',(2.90891572483203,76.2081430870967,-9.4));
#487=CARTESIAN_POINT('',(2.90891572483203,65.3682923892525,-0.304285277422155));
#488=CARTESIAN_POINT('',(8.90891572483203,70.2493751241257,-4.4));
#489=CARTESIAN_POINT('',(-4.3381895558946,70.2493751241257,-4.4));
#490=CARTESIAN_POINT('',(8.90891572483203,76.2081430870967,-9.4));
#491=CARTESIAN_POINT('',(8.90891572483203,73.893844867518,-7.45807321751728));
#492=CARTESIAN_POINT('',(5.90891572483203,76.2081430870967,-9.4));
#493=CARTESIAN_POINT('Origin',(8.90891572483203,76.2081430870967,-9.4));
#494=CARTESIAN_POINT('',(-8.90891572483205,70.2493751241257,-4.4));
#495=CARTESIAN_POINT('',(-8.90891572483205,76.2081430870967,-9.4));
#496=CARTESIAN_POINT('',(-8.90891572483205,64.6390809002864,0.307595814019592));
#497=CARTESIAN_POINT('',(-2.90891572483205,70.2493751241257,-4.4));
#498=CARTESIAN_POINT('',(-4.3381895558946,70.2493751241257,-4.4));
#499=CARTESIAN_POINT('',(-2.90891572483205,76.2081430870967,-9.4));
#500=CARTESIAN_POINT('',(-2.90891572483205,73.893844867518,-7.45807321751729));
#501=CARTESIAN_POINT('',(-5.90891572483205,76.2081430870967,-9.4));
#502=CARTESIAN_POINT('Origin',(-8.90891572483205,44.6662751122185,0.));
#503=CARTESIAN_POINT('',(-8.90891572483205,44.6662751122185,-9.4));
#504=CARTESIAN_POINT('',(-8.90891572483205,44.6662751122185,-9.4));
#505=CARTESIAN_POINT('',(-8.90891572483205,44.6662751122185,-4.4));
#506=CARTESIAN_POINT('',(-8.90891572483205,44.6662751122185,0.));
#507=CARTESIAN_POINT('',(-8.90891572483204,41.1351733278836,-4.4));
#508=CARTESIAN_POINT('Origin',(-2.90891572483205,76.2081430870967,0.));
#509=CARTESIAN_POINT('',(-2.90891572483205,47.1515564864571,-4.4));
#510=CARTESIAN_POINT('',(-2.90891572483205,56.9061073153227,-4.4));
#511=CARTESIAN_POINT('',(-2.90891572483205,47.1515564864571,-9.4));
#512=CARTESIAN_POINT('',(-2.90891572483205,47.1515564864571,0.));
#513=CARTESIAN_POINT('',(-2.90891572483205,47.1515564864571,-9.4));
#514=CARTESIAN_POINT('Origin',(2.90891572483203,47.1515564864571,0.));
#515=CARTESIAN_POINT('',(2.90891572483203,47.1515564864571,-9.4));
#516=CARTESIAN_POINT('',(2.90891572483203,47.1515564864571,-9.4));
#517=CARTESIAN_POINT('',(2.90891572483203,47.1515564864571,-4.4));
#518=CARTESIAN_POINT('',(2.90891572483203,47.1515564864571,0.));
#519=CARTESIAN_POINT('',(2.90891572483203,42.3778140150029,-4.4));
#520=CARTESIAN_POINT('Origin',(8.90891572483203,76.2081430870967,0.));
#521=CARTESIAN_POINT('',(8.90891572483205,44.6662751122186,-4.4));
#522=CARTESIAN_POINT('',(8.90891572483204,56.9061073153227,-4.4));
#523=CARTESIAN_POINT('',(8.90891572483205,44.6662751122186,-9.4));
#524=CARTESIAN_POINT('',(8.90891572483205,44.6662751122186,0.));
#525=CARTESIAN_POINT('',(8.90891572483205,44.6662751122186,-9.4));
#526=CARTESIAN_POINT('Origin',(-41.0793902602961,-3.10000005215409,-6.89952556424382));
#527=CARTESIAN_POINT('',(-42.6793902602961,-0.999999999999503,-6.89952556424382));
#528=CARTESIAN_POINT('Origin',(-41.0793902602961,-0.999999999999503,-6.89952556424382));
#529=CARTESIAN_POINT('',(-42.6793902602961,4.99999994784591,-6.89952556424382));
#530=CARTESIAN_POINT('',(-42.6793902602961,-3.10000005215409,-6.89952556424382));
#531=CARTESIAN_POINT('Origin',(-41.0793902602961,5.00000000544176,-6.89952556424382));
#532=CARTESIAN_POINT('Origin',(-17.5852948366212,37.6040715435486,-4.4));
#533=CARTESIAN_POINT('',(-3.,38.7573593873865,-4.4));
#534=CARTESIAN_POINT('',(-6.35800174819584,42.1153611355823,-4.4));
#535=CARTESIAN_POINT('',(-3.,5.00000007450581,-4.4));
#536=CARTESIAN_POINT('',(-3.,21.3020358090272,-4.4));
#537=CARTESIAN_POINT('',(-44.0795053980745,5.00000000000049,-4.4));
#538=CARTESIAN_POINT('',(-30.8324000877811,5.00000002402658,-4.4));
#539=CARTESIAN_POINT('',(-44.0795053980745,-0.999999999999508,-4.4));
#540=CARTESIAN_POINT('',(-44.0795053980745,18.3020357717745,-4.4));
#541=CARTESIAN_POINT('',(3.,-0.999999999999499,-4.4));
#542=CARTESIAN_POINT('',(-7.29264741831061,-0.999999999999506,-4.4));
#543=CARTESIAN_POINT('',(3.,38.7573593873865,-4.4));
#544=CARTESIAN_POINT('',(3.,38.1807154654676,-4.4));
#545=CARTESIAN_POINT('',(0.51981219230125,36.2771715796878,-4.4));
#546=CARTESIAN_POINT('',(-2.4980018054066E-15,44.2426407616251,-4.4));
#547=CARTESIAN_POINT('',(-6.05596601367443,38.1866747479507,-4.4));
#548=CARTESIAN_POINT('',(-4.19113926705222,48.4337800286773,-4.4));
#549=CARTESIAN_POINT('Origin',(-44.0795053980745,5.00000000000049,0.));
#550=CARTESIAN_POINT('',(-3.,5.00000007450581,-9.4));
#551=CARTESIAN_POINT('',(-3.,5.00000007450581,0.));
#552=CARTESIAN_POINT('',(-44.0795053980745,5.00000000000049,-9.4));
#553=CARTESIAN_POINT('',(-44.0795053980745,5.00000000000049,-9.4));
#554=CARTESIAN_POINT('',(-44.0795053980745,5.00000000000049,0.));
#555=CARTESIAN_POINT('Origin',(-3.,5.00000007450581,0.));
#556=CARTESIAN_POINT('',(-3.,38.7573593873865,-9.4));
#557=CARTESIAN_POINT('',(-3.,38.7573593873865,0.));
#558=CARTESIAN_POINT('',(-3.,5.00000007450581,-9.4));
#559=CARTESIAN_POINT('Origin',(-3.,38.7573593873865,0.));
#560=CARTESIAN_POINT('',(-3.,38.7573593873865,-9.4));
#561=CARTESIAN_POINT('Origin',(-2.90891572483205,47.1515564864571,0.));
#562=CARTESIAN_POINT('',(-2.4980018054066E-15,44.2426407616251,-9.4));
#563=CARTESIAN_POINT('',(-2.4980018054066E-15,44.2426407616251,0.));
#564=CARTESIAN_POINT('',(-2.4980018054066E-15,44.2426407616251,-9.4));
#565=CARTESIAN_POINT('Origin',(-2.4980018054066E-15,44.2426407616251,0.));
#566=CARTESIAN_POINT('',(-2.4980018054066E-15,44.2426407616251,-9.4));
#567=CARTESIAN_POINT('Origin',(-44.0795053980745,-0.999999999999509,0.));
#568=CARTESIAN_POINT('',(-44.0795053980745,-0.999999999999508,-9.4));
#569=CARTESIAN_POINT('',(-44.0795053980745,5.00000000000049,-9.4));
#570=CARTESIAN_POINT('',(-44.0795053980745,-0.999999999999509,0.));
#571=CARTESIAN_POINT('Origin',(3.,-0.999999999999503,0.));
#572=CARTESIAN_POINT('',(3.,-0.999999999999499,-9.4));
#573=CARTESIAN_POINT('',(-44.0795053980745,-0.99999999999951,-9.4));
#574=CARTESIAN_POINT('',(3.,-0.999999999999503,0.));
#575=CARTESIAN_POINT('Origin',(3.,38.7573593873865,0.));
#576=CARTESIAN_POINT('',(3.,38.7573593873865,-9.4));
#577=CARTESIAN_POINT('',(3.,-0.999999999999503,-9.4));
#578=CARTESIAN_POINT('',(3.,38.7573593873865,0.));
#579=CARTESIAN_POINT('Origin',(8.90891572483205,44.6662751122186,0.));
#580=CARTESIAN_POINT('',(3.,38.7573593873865,-9.4));
#581=CARTESIAN_POINT('Origin',(-17.5852948366212,37.6040715435486,-9.4));
#582=UNCERTAINTY_MEASURE_WITH_UNIT(LENGTH_MEASURE(0.01),#586,
'DISTANCE_ACCURACY_VALUE',
'Maximum model space distance between geometric entities at asserted c
onnectivities');
#583=UNCERTAINTY_MEASURE_WITH_UNIT(LENGTH_MEASURE(0.01),#586,
'DISTANCE_ACCURACY_VALUE',
'Maximum model space distance between geometric entities at asserted c
onnectivities');
#584=(
GEOMETRIC_REPRESENTATION_CONTEXT(3)
GLOBAL_UNCERTAINTY_ASSIGNED_CONTEXT((#582))
GLOBAL_UNIT_ASSIGNED_CONTEXT((#586,#588,#589))
REPRESENTATION_CONTEXT('','3D')
);
#585=(
GEOMETRIC_REPRESENTATION_CONTEXT(3)
GLOBAL_UNCERTAINTY_ASSIGNED_CONTEXT((#583))
GLOBAL_UNIT_ASSIGNED_CONTEXT((#586,#588,#589))
REPRESENTATION_CONTEXT('','3D')
);
#586=(
LENGTH_UNIT()
NAMED_UNIT(*)
SI_UNIT(.MILLI.,.METRE.)
);
#587=(
LENGTH_UNIT()
NAMED_UNIT(*)
SI_UNIT($,.METRE.)
);
#588=(
NAMED_UNIT(*)
PLANE_ANGLE_UNIT()
SI_UNIT($,.RADIAN.)
);
#589=(
NAMED_UNIT(*)
SI_UNIT($,.STERADIAN.)
SOLID_ANGLE_UNIT()
);
#590=SHAPE_DEFINITION_REPRESENTATION(#591,#592);
#591=PRODUCT_DEFINITION_SHAPE('',$,#594);
#592=SHAPE_REPRESENTATION('',(#374),#584);
#593=PRODUCT_DEFINITION_CONTEXT('part definition',#598,'design');
#594=PRODUCT_DEFINITION('## open-robot-raw','## open-robot-raw v26',#595,
#593);
#595=PRODUCT_DEFINITION_FORMATION('',$,#600);
#596=PRODUCT_RELATED_PRODUCT_CATEGORY('## open-robot-raw v26',
'## open-robot-raw v26',(#600));
#597=APPLICATION_PROTOCOL_DEFINITION('international standard',
'automotive_design',2009,#598);
#598=APPLICATION_CONTEXT(
'Core Data for Automotive Mechanical Design Process');
#599=PRODUCT_CONTEXT('part definition',#598,'mechanical');
#600=PRODUCT('## open-robot-raw','## open-robot-raw v26',$,(#599));
#601=PRESENTATION_STYLE_ASSIGNMENT((#609));
#602=PRESENTATION_STYLE_ASSIGNMENT((#610));
#603=PRESENTATION_STYLE_ASSIGNMENT((#611));
#604=PRESENTATION_STYLE_ASSIGNMENT((#612));
#605=PRESENTATION_STYLE_ASSIGNMENT((#613));
#606=PRESENTATION_STYLE_ASSIGNMENT((#614));
#607=PRESENTATION_STYLE_ASSIGNMENT((#615));
#608=PRESENTATION_STYLE_ASSIGNMENT((#616));
#609=SURFACE_STYLE_USAGE(.BOTH.,#617);
#610=SURFACE_STYLE_USAGE(.BOTH.,#618);
#611=SURFACE_STYLE_USAGE(.BOTH.,#619);
#612=SURFACE_STYLE_USAGE(.BOTH.,#620);
#613=SURFACE_STYLE_USAGE(.BOTH.,#621);
#614=SURFACE_STYLE_USAGE(.BOTH.,#622);
#615=SURFACE_STYLE_USAGE(.BOTH.,#623);
#616=SURFACE_STYLE_USAGE(.BOTH.,#624);
#617=SURFACE_SIDE_STYLE('',(#625));
#618=SURFACE_SIDE_STYLE('',(#626));
#619=SURFACE_SIDE_STYLE('',(#627));
#620=SURFACE_SIDE_STYLE('',(#628));
#621=SURFACE_SIDE_STYLE('',(#629));
#622=SURFACE_SIDE_STYLE('',(#630));
#623=SURFACE_SIDE_STYLE('',(#631));
#624=SURFACE_SIDE_STYLE('',(#632));
#625=SURFACE_STYLE_FILL_AREA(#633);
#626=SURFACE_STYLE_FILL_AREA(#634);
#627=SURFACE_STYLE_FILL_AREA(#635);
#628=SURFACE_STYLE_FILL_AREA(#636);
#629=SURFACE_STYLE_FILL_AREA(#637);
#630=SURFACE_STYLE_FILL_AREA(#638);
#631=SURFACE_STYLE_FILL_AREA(#639);
#632=SURFACE_STYLE_FILL_AREA(#640);
#633=FILL_AREA_STYLE('\X2\92FC\X0\ - \X2\30B530C630F3\X0\',(#641));
#634=FILL_AREA_STYLE('ABS(\X2\767D\X0\)',(#642));
#635=FILL_AREA_STYLE('\X2\30A230EB30DF30CB30A630E0\X0\ - \X2\3064308451FA3057\X0\',
(#643));
#636=FILL_AREA_STYLE('\X2\92FC\X0\ - \X2\30B530C630F3\X0\',(#644));
#637=FILL_AREA_STYLE(
'PA 12 - Nylon - PA 603-CF (EOS P 3D \X2\30D730EA30F330BF4F7F7528\X0\)',
(#645));
#638=FILL_AREA_STYLE('\X2\30DD30EA30AB30FC30DC30CD30FC30C8\X0\(\X2\30AF30EA30A2\X0\)',
(#646));
#639=FILL_AREA_STYLE('\X2\30A230AF30EA30EB\X0\(\X2\30AF30EA30A2\X0\)',(#647));
#640=FILL_AREA_STYLE('ABS(kuro)',(#648));
#641=FILL_AREA_STYLE_COLOUR('\X2\92FC\X0\ - \X2\30B530C630F3\X0\',#649);
#642=FILL_AREA_STYLE_COLOUR('ABS(\X2\767D\X0\)',#650);
#643=FILL_AREA_STYLE_COLOUR('\X2\30A230EB30DF30CB30A630E0\X0\ - \X2\3064308451FA3057\X0\',
#651);
#644=FILL_AREA_STYLE_COLOUR('\X2\92FC\X0\ - \X2\30B530C630F3\X0\',#652);
#645=FILL_AREA_STYLE_COLOUR(
'PA 12 - Nylon - PA 603-CF (EOS P 3D \X2\30D730EA30F330BF4F7F7528\X0\)',
#653);
#646=FILL_AREA_STYLE_COLOUR('\X2\30DD30EA30AB30FC30DC30CD30FC30C8\X0\(
\X2\30AF30EA30A2\X0\)',#654);
#647=FILL_AREA_STYLE_COLOUR('\X2\30A230AF30EA30EB\X0\(\X2\30AF30EA30A2\X0\)',
#655);
#648=FILL_AREA_STYLE_COLOUR('ABS(kuro)',#656);
#649=COLOUR_RGB('\X2\92FC\X0\ - \X2\30B530C630F3\X0\',0.627450980392157,
0.627450980392157,0.627450980392157);
#650=COLOUR_RGB('ABS(\X2\767D\X0\)',0.964705882352941,0.964705882352941,
0.952941176470588);
#651=COLOUR_RGB('\X2\30A230EB30DF30CB30A630E0\X0\ - \X2\3064308451FA3057\X0\',
0.96078431372549,0.96078431372549,0.964705882352941);
#652=COLOUR_RGB('\X2\92FC\X0\ - \X2\30B530C630F3\X0\',0.,0.,0.);
#653=COLOUR_RGB(
'PA 12 - Nylon - PA 603-CF (EOS P 3D \X2\30D730EA30F330BF4F7F7528\X0\)',
0.247058823529412,0.247058823529412,0.247058823529412);
#654=COLOUR_RGB('\X2\30DD30EA30AB30FC30DC30CD30FC30C8\X0\(\X2\30AF30EA30A2\X0\)',
0.964705882352941,0.964705882352941,0.952941176470588);
#655=COLOUR_RGB('\X2\30A230AF30EA30EB\X0\(\X2\30AF30EA30A2\X0\)',0.964705882352941,
0.964705882352941,0.952941176470588);
#656=COLOUR_RGB('ABS(kuro)',0.,0.,0.);
ENDSEC;
END-ISO-10303-21;
