ISO-10303-21;
HEADER;
/* Generated by software containing ST-Developer
 * from STEP Tools, Inc. (www.steptools.com) 
 */

FILE_DESCRIPTION(
/* description */ (''),
/* implementation_level */ '2;1');

FILE_NAME(
/* name */ 'tipkickstroke-upside.step',
/* time_stamp */ '2026-05-16T00:34:33+09:00',
/* author */ (''),
/* organization */ (''),
/* preprocessor_version */ 'ST-DEVELOPER v20.1',
/* originating_system */ 'Autodesk Translation Framework v15.8.0.0',
/* authorisation */ '');

FILE_SCHEMA (('AUTOMOTIVE_DESIGN { 1 0 10303 214 3 1 1 }'));
ENDSEC;

DATA;
#10=MECHANICAL_DESIGN_GEOMETRIC_PRESENTATION_REPRESENTATION('',(#13),#1371);
#11=SHAPE_REPRESENTATION_RELATIONSHIP('SRR','None',#1378,#12);
#12=ADVANCED_BREP_SHAPE_REPRESENTATION('',(#14),#1370);
#13=STYLED_ITEM('',(#1389),#14);
#14=MANIFOLD_SOLID_BREP('\X2\30C130C330D730AD30C330AF30B930C830ED30FC30AF4E0A\X0\',
#798);
#15=FACE_BOUND('',#90,.T.);
#16=FACE_BOUND('',#100,.T.);
#17=FACE_BOUND('',#110,.T.);
#18=FACE_BOUND('',#118,.T.);
#19=B_SPLINE_CURVE_WITH_KNOTS('',3,(#1182,#1183,#1184,#1185,#1186,#1187,
#1188,#1189,#1190,#1191),.UNSPECIFIED.,.F.,.F.,(4,2,2,2,4),(0.434957184298172,
0.436138552378227,0.495034002547772,0.553929452717317,0.555110820797373),
 .UNSPECIFIED.);
#20=B_SPLINE_CURVE_WITH_KNOTS('',3,(#1195,#1196,#1197,#1198,#1199,#1200,
#1201,#1202,#1203,#1204),.UNSPECIFIED.,.F.,.F.,(4,2,2,2,4),(0.434957184298171,
0.436138552378226,0.495034002547772,0.553929452717317,0.555110820797371),
 .UNSPECIFIED.);
#21=CYLINDRICAL_SURFACE('',#815,1.);
#22=CYLINDRICAL_SURFACE('',#826,1.6);
#23=CYLINDRICAL_SURFACE('',#829,1.);
#24=CYLINDRICAL_SURFACE('',#832,1.);
#25=CYLINDRICAL_SURFACE('',#835,1.);
#26=CYLINDRICAL_SURFACE('',#840,1.);
#27=CYLINDRICAL_SURFACE('',#843,1.);
#28=CYLINDRICAL_SURFACE('',#846,1.);
#29=CYLINDRICAL_SURFACE('',#848,1.);
#30=CYLINDRICAL_SURFACE('',#854,1.);
#31=CYLINDRICAL_SURFACE('',#863,1.);
#32=CYLINDRICAL_SURFACE('',#866,1.);
#33=CYLINDRICAL_SURFACE('',#868,1.);
#34=CYLINDRICAL_SURFACE('',#870,1.);
#35=CYLINDRICAL_SURFACE('',#872,1.);
#36=CYLINDRICAL_SURFACE('',#874,1.6);
#37=CYLINDRICAL_SURFACE('',#876,1.25);
#38=FACE_OUTER_BOUND('',#77,.T.);
#39=FACE_OUTER_BOUND('',#78,.T.);
#40=FACE_OUTER_BOUND('',#79,.T.);
#41=FACE_OUTER_BOUND('',#80,.T.);
#42=FACE_OUTER_BOUND('',#81,.T.);
#43=FACE_OUTER_BOUND('',#82,.T.);
#44=FACE_OUTER_BOUND('',#83,.T.);
#45=FACE_OUTER_BOUND('',#84,.T.);
#46=FACE_OUTER_BOUND('',#85,.T.);
#47=FACE_OUTER_BOUND('',#86,.T.);
#48=FACE_OUTER_BOUND('',#87,.T.);
#49=FACE_OUTER_BOUND('',#88,.T.);
#50=FACE_OUTER_BOUND('',#89,.T.);
#51=FACE_OUTER_BOUND('',#91,.T.);
#52=FACE_OUTER_BOUND('',#92,.T.);
#53=FACE_OUTER_BOUND('',#93,.T.);
#54=FACE_OUTER_BOUND('',#94,.T.);
#55=FACE_OUTER_BOUND('',#95,.T.);
#56=FACE_OUTER_BOUND('',#96,.T.);
#57=FACE_OUTER_BOUND('',#97,.T.);
#58=FACE_OUTER_BOUND('',#98,.T.);
#59=FACE_OUTER_BOUND('',#99,.T.);
#60=FACE_OUTER_BOUND('',#101,.T.);
#61=FACE_OUTER_BOUND('',#102,.T.);
#62=FACE_OUTER_BOUND('',#103,.T.);
#63=FACE_OUTER_BOUND('',#104,.T.);
#64=FACE_OUTER_BOUND('',#105,.T.);
#65=FACE_OUTER_BOUND('',#106,.T.);
#66=FACE_OUTER_BOUND('',#107,.T.);
#67=FACE_OUTER_BOUND('',#108,.T.);
#68=FACE_OUTER_BOUND('',#109,.T.);
#69=FACE_OUTER_BOUND('',#111,.T.);
#70=FACE_OUTER_BOUND('',#112,.T.);
#71=FACE_OUTER_BOUND('',#113,.T.);
#72=FACE_OUTER_BOUND('',#114,.T.);
#73=FACE_OUTER_BOUND('',#115,.T.);
#74=FACE_OUTER_BOUND('',#116,.T.);
#75=FACE_OUTER_BOUND('',#117,.T.);
#76=FACE_OUTER_BOUND('',#119,.T.);
#77=EDGE_LOOP('',(#505,#506,#507,#508,#509,#510));
#78=EDGE_LOOP('',(#511,#512,#513,#514));
#79=EDGE_LOOP('',(#515,#516,#517,#518,#519,#520,#521,#522,#523,#524,#525,
#526,#527,#528,#529,#530));
#80=EDGE_LOOP('',(#531,#532,#533,#534,#535,#536,#537));
#81=EDGE_LOOP('',(#538,#539,#540,#541,#542,#543,#544,#545));
#82=EDGE_LOOP('',(#546,#547,#548,#549,#550,#551,#552,#553));
#83=EDGE_LOOP('',(#554,#555,#556,#557,#558,#559,#560));
#84=EDGE_LOOP('',(#561,#562,#563,#564));
#85=EDGE_LOOP('',(#565,#566,#567,#568));
#86=EDGE_LOOP('',(#569,#570,#571,#572));
#87=EDGE_LOOP('',(#573,#574,#575,#576,#577,#578,#579,#580));
#88=EDGE_LOOP('',(#581,#582,#583,#584));
#89=EDGE_LOOP('',(#585,#586,#587,#588));
#90=EDGE_LOOP('',(#589));
#91=EDGE_LOOP('',(#590,#591,#592,#593));
#92=EDGE_LOOP('',(#594,#595,#596,#597,#598,#599,#600,#601,#602,#603,#604,
#605,#606));
#93=EDGE_LOOP('',(#607,#608,#609,#610));
#94=EDGE_LOOP('',(#611,#612,#613,#614));
#95=EDGE_LOOP('',(#615,#616,#617,#618,#619,#620,#621,#622));
#96=EDGE_LOOP('',(#623,#624,#625,#626,#627,#628,#629,#630));
#97=EDGE_LOOP('',(#631,#632,#633,#634));
#98=EDGE_LOOP('',(#635,#636,#637,#638));
#99=EDGE_LOOP('',(#639,#640,#641,#642,#643,#644,#645,#646,#647,#648));
#100=EDGE_LOOP('',(#649));
#101=EDGE_LOOP('',(#650,#651,#652,#653));
#102=EDGE_LOOP('',(#654,#655,#656,#657));
#103=EDGE_LOOP('',(#658,#659,#660,#661));
#104=EDGE_LOOP('',(#662,#663,#664,#665));
#105=EDGE_LOOP('',(#666,#667,#668,#669));
#106=EDGE_LOOP('',(#670,#671,#672,#673));
#107=EDGE_LOOP('',(#674,#675,#676,#677));
#108=EDGE_LOOP('',(#678,#679,#680,#681));
#109=EDGE_LOOP('',(#682,#683,#684,#685));
#110=EDGE_LOOP('',(#686));
#111=EDGE_LOOP('',(#687,#688,#689,#690));
#112=EDGE_LOOP('',(#691,#692,#693,#694,#695,#696,#697,#698));
#113=EDGE_LOOP('',(#699,#700,#701,#702));
#114=EDGE_LOOP('',(#703,#704,#705,#706));
#115=EDGE_LOOP('',(#707,#708,#709,#710,#711,#712,#713));
#116=EDGE_LOOP('',(#714,#715,#716,#717));
#117=EDGE_LOOP('',(#718,#719,#720,#721,#722,#723,#724,#725,#726,#727));
#118=EDGE_LOOP('',(#728));
#119=EDGE_LOOP('',(#729,#730,#731,#732,#733,#734,#735,#736));
#120=LINE('',#1123,#198);
#121=LINE('',#1125,#199);
#122=LINE('',#1127,#200);
#123=LINE('',#1130,#201);
#124=LINE('',#1133,#202);
#125=LINE('',#1136,#203);
#126=LINE('',#1139,#204);
#127=LINE('',#1143,#205);
#128=LINE('',#1147,#206);
#129=LINE('',#1149,#207);
#130=LINE('',#1151,#208);
#131=LINE('',#1155,#209);
#132=LINE('',#1159,#210);
#133=LINE('',#1163,#211);
#134=LINE('',#1165,#212);
#135=LINE('',#1166,#213);
#136=LINE('',#1169,#214);
#137=LINE('',#1175,#215);
#138=LINE('',#1177,#216);
#139=LINE('',#1178,#217);
#140=LINE('',#1194,#218);
#141=LINE('',#1209,#219);
#142=LINE('',#1210,#220);
#143=LINE('',#1213,#221);
#144=LINE('',#1214,#222);
#145=LINE('',#1219,#223);
#146=LINE('',#1220,#224);
#147=LINE('',#1223,#225);
#148=LINE('',#1224,#226);
#149=LINE('',#1229,#227);
#150=LINE('',#1230,#228);
#151=LINE('',#1233,#229);
#152=LINE('',#1237,#230);
#153=LINE('',#1239,#231);
#154=LINE('',#1241,#232);
#155=LINE('',#1244,#233);
#156=LINE('',#1245,#234);
#157=LINE('',#1253,#235);
#158=LINE('',#1254,#236);
#159=LINE('',#1256,#237);
#160=LINE('',#1258,#238);
#161=LINE('',#1259,#239);
#162=LINE('',#1263,#240);
#163=LINE('',#1267,#241);
#164=LINE('',#1270,#242);
#165=LINE('',#1272,#243);
#166=LINE('',#1273,#244);
#167=LINE('',#1278,#245);
#168=LINE('',#1280,#246);
#169=LINE('',#1282,#247);
#170=LINE('',#1289,#248);
#171=LINE('',#1292,#249);
#172=LINE('',#1295,#250);
#173=LINE('',#1297,#251);
#174=LINE('',#1298,#252);
#175=LINE('',#1301,#253);
#176=LINE('',#1305,#254);
#177=LINE('',#1309,#255);
#178=LINE('',#1310,#256);
#179=LINE('',#1318,#257);
#180=LINE('',#1319,#258);
#181=LINE('',#1322,#259);
#182=LINE('',#1323,#260);
#183=LINE('',#1327,#261);
#184=LINE('',#1333,#262);
#185=LINE('',#1338,#263);
#186=LINE('',#1343,#264);
#187=LINE('',#1345,#265);
#188=LINE('',#1348,#266);
#189=LINE('',#1350,#267);
#190=LINE('',#1351,#268);
#191=LINE('',#1354,#269);
#192=LINE('',#1355,#270);
#193=LINE('',#1358,#271);
#194=LINE('',#1359,#272);
#195=LINE('',#1361,#273);
#196=LINE('',#1364,#274);
#197=LINE('',#1366,#275);
#198=VECTOR('',#893,10.);
#199=VECTOR('',#894,10.);
#200=VECTOR('',#895,10.);
#201=VECTOR('',#898,10.);
#202=VECTOR('',#901,10.);
#203=VECTOR('',#904,10.);
#204=VECTOR('',#907,10.);
#205=VECTOR('',#910,10.);
#206=VECTOR('',#913,10.);
#207=VECTOR('',#914,10.);
#208=VECTOR('',#915,10.);
#209=VECTOR('',#918,10.);
#210=VECTOR('',#921,10.);
#211=VECTOR('',#924,10.);
#212=VECTOR('',#925,10.);
#213=VECTOR('',#926,10.);
#214=VECTOR('',#929,10.);
#215=VECTOR('',#934,10.);
#216=VECTOR('',#935,10.);
#217=VECTOR('',#936,10.);
#218=VECTOR('',#941,1.6);
#219=VECTOR('',#948,10.);
#220=VECTOR('',#949,10.);
#221=VECTOR('',#952,10.);
#222=VECTOR('',#953,10.);
#223=VECTOR('',#958,10.);
#224=VECTOR('',#959,10.);
#225=VECTOR('',#962,10.);
#226=VECTOR('',#963,10.);
#227=VECTOR('',#968,10.);
#228=VECTOR('',#969,10.);
#229=VECTOR('',#972,10.);
#230=VECTOR('',#975,10.);
#231=VECTOR('',#976,10.);
#232=VECTOR('',#977,10.);
#233=VECTOR('',#982,10.);
#234=VECTOR('',#983,10.);
#235=VECTOR('',#994,10.);
#236=VECTOR('',#995,10.);
#237=VECTOR('',#996,10.);
#238=VECTOR('',#997,10.);
#239=VECTOR('',#998,10.);
#240=VECTOR('',#1003,10.);
#241=VECTOR('',#1008,10.);
#242=VECTOR('',#1011,10.);
#243=VECTOR('',#1012,10.);
#244=VECTOR('',#1013,10.);
#245=VECTOR('',#1018,10.);
#246=VECTOR('',#1019,10.);
#247=VECTOR('',#1020,10.);
#248=VECTOR('',#1027,10.);
#249=VECTOR('',#1030,10.);
#250=VECTOR('',#1033,10.);
#251=VECTOR('',#1034,10.);
#252=VECTOR('',#1035,10.);
#253=VECTOR('',#1038,10.);
#254=VECTOR('',#1041,10.);
#255=VECTOR('',#1044,10.);
#256=VECTOR('',#1045,10.);
#257=VECTOR('',#1054,10.);
#258=VECTOR('',#1055,10.);
#259=VECTOR('',#1058,10.);
#260=VECTOR('',#1059,10.);
#261=VECTOR('',#1064,10.);
#262=VECTOR('',#1073,10.);
#263=VECTOR('',#1080,1.6);
#264=VECTOR('',#1087,1.25);
#265=VECTOR('',#1090,10.);
#266=VECTOR('',#1093,10.);
#267=VECTOR('',#1094,10.);
#268=VECTOR('',#1095,10.);
#269=VECTOR('',#1098,10.);
#270=VECTOR('',#1099,10.);
#271=VECTOR('',#1102,10.);
#272=VECTOR('',#1103,10.);
#273=VECTOR('',#1106,10.);
#274=VECTOR('',#1111,10.);
#275=VECTOR('',#1114,10.);
#276=CIRCLE('',#813,1.);
#277=CIRCLE('',#814,1.);
#278=CIRCLE('',#816,1.);
#279=CIRCLE('',#818,1.);
#280=CIRCLE('',#819,1.);
#281=CIRCLE('',#820,1.);
#282=CIRCLE('',#821,1.);
#283=CIRCLE('',#822,1.);
#284=CIRCLE('',#824,1.6);
#285=CIRCLE('',#825,1.6);
#286=CIRCLE('',#827,1.6);
#287=CIRCLE('',#828,1.6);
#288=CIRCLE('',#830,1.);
#289=CIRCLE('',#833,1.);
#290=CIRCLE('',#836,1.);
#291=CIRCLE('',#838,1.);
#292=CIRCLE('',#839,1.);
#293=CIRCLE('',#842,1.25);
#294=CIRCLE('',#844,1.);
#295=CIRCLE('',#847,1.);
#296=CIRCLE('',#849,1.);
#297=CIRCLE('',#852,1.);
#298=CIRCLE('',#853,1.);
#299=CIRCLE('',#855,1.);
#300=CIRCLE('',#856,1.);
#301=CIRCLE('',#859,1.);
#302=CIRCLE('',#860,1.);
#303=CIRCLE('',#861,1.);
#304=CIRCLE('',#862,1.6);
#305=CIRCLE('',#864,1.);
#306=CIRCLE('',#867,1.);
#307=CIRCLE('',#869,1.);
#308=CIRCLE('',#871,1.);
#309=CIRCLE('',#873,1.);
#310=CIRCLE('',#875,1.6);
#311=CIRCLE('',#877,1.25);
#312=VERTEX_POINT('',#1119);
#313=VERTEX_POINT('',#1120);
#314=VERTEX_POINT('',#1122);
#315=VERTEX_POINT('',#1124);
#316=VERTEX_POINT('',#1126);
#317=VERTEX_POINT('',#1128);
#318=VERTEX_POINT('',#1132);
#319=VERTEX_POINT('',#1134);
#320=VERTEX_POINT('',#1138);
#321=VERTEX_POINT('',#1140);
#322=VERTEX_POINT('',#1142);
#323=VERTEX_POINT('',#1144);
#324=VERTEX_POINT('',#1146);
#325=VERTEX_POINT('',#1148);
#326=VERTEX_POINT('',#1150);
#327=VERTEX_POINT('',#1152);
#328=VERTEX_POINT('',#1154);
#329=VERTEX_POINT('',#1156);
#330=VERTEX_POINT('',#1158);
#331=VERTEX_POINT('',#1160);
#332=VERTEX_POINT('',#1162);
#333=VERTEX_POINT('',#1164);
#334=VERTEX_POINT('',#1168);
#335=VERTEX_POINT('',#1170);
#336=VERTEX_POINT('',#1172);
#337=VERTEX_POINT('',#1174);
#338=VERTEX_POINT('',#1176);
#339=VERTEX_POINT('',#1180);
#340=VERTEX_POINT('',#1181);
#341=VERTEX_POINT('',#1192);
#342=VERTEX_POINT('',#1207);
#343=VERTEX_POINT('',#1212);
#344=VERTEX_POINT('',#1216);
#345=VERTEX_POINT('',#1217);
#346=VERTEX_POINT('',#1222);
#347=VERTEX_POINT('',#1226);
#348=VERTEX_POINT('',#1227);
#349=VERTEX_POINT('',#1232);
#350=VERTEX_POINT('',#1234);
#351=VERTEX_POINT('',#1236);
#352=VERTEX_POINT('',#1238);
#353=VERTEX_POINT('',#1240);
#354=VERTEX_POINT('',#1247);
#355=VERTEX_POINT('',#1252);
#356=VERTEX_POINT('',#1255);
#357=VERTEX_POINT('',#1257);
#358=VERTEX_POINT('',#1261);
#359=VERTEX_POINT('',#1265);
#360=VERTEX_POINT('',#1269);
#361=VERTEX_POINT('',#1271);
#362=VERTEX_POINT('',#1275);
#363=VERTEX_POINT('',#1277);
#364=VERTEX_POINT('',#1279);
#365=VERTEX_POINT('',#1281);
#366=VERTEX_POINT('',#1285);
#367=VERTEX_POINT('',#1286);
#368=VERTEX_POINT('',#1288);
#369=VERTEX_POINT('',#1290);
#370=VERTEX_POINT('',#1294);
#371=VERTEX_POINT('',#1296);
#372=VERTEX_POINT('',#1300);
#373=VERTEX_POINT('',#1302);
#374=VERTEX_POINT('',#1304);
#375=VERTEX_POINT('',#1306);
#376=VERTEX_POINT('',#1308);
#377=VERTEX_POINT('',#1312);
#378=VERTEX_POINT('',#1315);
#379=VERTEX_POINT('',#1316);
#380=VERTEX_POINT('',#1321);
#381=VERTEX_POINT('',#1325);
#382=VERTEX_POINT('',#1331);
#383=VERTEX_POINT('',#1337);
#384=VERTEX_POINT('',#1341);
#385=VERTEX_POINT('',#1347);
#386=VERTEX_POINT('',#1349);
#387=VERTEX_POINT('',#1353);
#388=VERTEX_POINT('',#1357);
#389=EDGE_CURVE('',#312,#313,#276,.T.);
#390=EDGE_CURVE('',#314,#312,#120,.T.);
#391=EDGE_CURVE('',#315,#314,#121,.T.);
#392=EDGE_CURVE('',#315,#316,#122,.T.);
#393=EDGE_CURVE('',#317,#316,#277,.T.);
#394=EDGE_CURVE('',#317,#313,#123,.T.);
#395=EDGE_CURVE('',#313,#318,#124,.T.);
#396=EDGE_CURVE('',#318,#319,#278,.T.);
#397=EDGE_CURVE('',#319,#312,#125,.T.);
#398=EDGE_CURVE('',#320,#318,#126,.T.);
#399=EDGE_CURVE('',#321,#320,#279,.T.);
#400=EDGE_CURVE('',#321,#322,#127,.T.);
#401=EDGE_CURVE('',#323,#322,#280,.T.);
#402=EDGE_CURVE('',#324,#323,#128,.T.);
#403=EDGE_CURVE('',#325,#324,#129,.T.);
#404=EDGE_CURVE('',#325,#326,#130,.T.);
#405=EDGE_CURVE('',#327,#326,#281,.T.);
#406=EDGE_CURVE('',#327,#328,#131,.T.);
#407=EDGE_CURVE('',#329,#328,#282,.T.);
#408=EDGE_CURVE('',#329,#330,#132,.T.);
#409=EDGE_CURVE('',#331,#330,#283,.T.);
#410=EDGE_CURVE('',#332,#331,#133,.T.);
#411=EDGE_CURVE('',#333,#332,#134,.T.);
#412=EDGE_CURVE('',#333,#319,#135,.T.);
#413=EDGE_CURVE('',#334,#331,#136,.T.);
#414=EDGE_CURVE('',#334,#335,#284,.T.);
#415=EDGE_CURVE('',#335,#336,#285,.T.);
#416=EDGE_CURVE('',#337,#336,#137,.T.);
#417=EDGE_CURVE('',#338,#337,#138,.T.);
#418=EDGE_CURVE('',#332,#338,#139,.T.);
#419=EDGE_CURVE('',#339,#340,#19,.T.);
#420=EDGE_CURVE('',#341,#339,#286,.T.);
#421=EDGE_CURVE('',#341,#335,#140,.T.);
#422=EDGE_CURVE('',#336,#334,#20,.T.);
#423=EDGE_CURVE('',#340,#341,#287,.T.);
#424=EDGE_CURVE('',#342,#337,#288,.T.);
#425=EDGE_CURVE('',#330,#339,#141,.T.);
#426=EDGE_CURVE('',#340,#342,#142,.T.);
#427=EDGE_CURVE('',#343,#329,#143,.T.);
#428=EDGE_CURVE('',#343,#342,#144,.T.);
#429=EDGE_CURVE('',#344,#345,#289,.T.);
#430=EDGE_CURVE('',#345,#327,#145,.T.);
#431=EDGE_CURVE('',#326,#344,#146,.T.);
#432=EDGE_CURVE('',#346,#345,#147,.T.);
#433=EDGE_CURVE('',#328,#346,#148,.T.);
#434=EDGE_CURVE('',#347,#348,#290,.T.);
#435=EDGE_CURVE('',#348,#323,#149,.T.);
#436=EDGE_CURVE('',#322,#347,#150,.T.);
#437=EDGE_CURVE('',#349,#348,#151,.T.);
#438=EDGE_CURVE('',#350,#349,#291,.T.);
#439=EDGE_CURVE('',#351,#350,#152,.T.);
#440=EDGE_CURVE('',#352,#351,#153,.T.);
#441=EDGE_CURVE('',#352,#353,#154,.T.);
#442=EDGE_CURVE('',#324,#353,#292,.T.);
#443=EDGE_CURVE('',#320,#317,#155,.T.);
#444=EDGE_CURVE('',#316,#321,#156,.T.);
#445=EDGE_CURVE('',#354,#354,#293,.T.);
#446=EDGE_CURVE('',#346,#343,#294,.T.);
#447=EDGE_CURVE('',#355,#344,#157,.T.);
#448=EDGE_CURVE('',#349,#355,#158,.T.);
#449=EDGE_CURVE('',#356,#347,#159,.T.);
#450=EDGE_CURVE('',#356,#357,#160,.T.);
#451=EDGE_CURVE('',#338,#357,#161,.T.);
#452=EDGE_CURVE('',#355,#358,#295,.T.);
#453=EDGE_CURVE('',#358,#350,#162,.T.);
#454=EDGE_CURVE('',#359,#325,#296,.T.);
#455=EDGE_CURVE('',#353,#359,#163,.T.);
#456=EDGE_CURVE('',#360,#359,#164,.T.);
#457=EDGE_CURVE('',#361,#360,#165,.T.);
#458=EDGE_CURVE('',#361,#358,#166,.T.);
#459=EDGE_CURVE('',#362,#352,#297,.T.);
#460=EDGE_CURVE('',#363,#362,#167,.T.);
#461=EDGE_CURVE('',#364,#363,#168,.T.);
#462=EDGE_CURVE('',#364,#365,#169,.T.);
#463=EDGE_CURVE('',#360,#365,#298,.T.);
#464=EDGE_CURVE('',#366,#367,#299,.T.);
#465=EDGE_CURVE('',#367,#368,#170,.T.);
#466=EDGE_CURVE('',#368,#369,#300,.T.);
#467=EDGE_CURVE('',#369,#366,#171,.T.);
#468=EDGE_CURVE('',#367,#370,#172,.T.);
#469=EDGE_CURVE('',#371,#370,#173,.T.);
#470=EDGE_CURVE('',#368,#371,#174,.T.);
#471=EDGE_CURVE('',#366,#372,#175,.T.);
#472=EDGE_CURVE('',#373,#372,#301,.T.);
#473=EDGE_CURVE('',#373,#374,#176,.T.);
#474=EDGE_CURVE('',#375,#374,#302,.T.);
#475=EDGE_CURVE('',#375,#376,#177,.T.);
#476=EDGE_CURVE('',#365,#376,#178,.T.);
#477=EDGE_CURVE('',#370,#364,#303,.T.);
#478=EDGE_CURVE('',#377,#377,#304,.T.);
#479=EDGE_CURVE('',#378,#379,#305,.T.);
#480=EDGE_CURVE('',#379,#373,#179,.T.);
#481=EDGE_CURVE('',#372,#378,#180,.T.);
#482=EDGE_CURVE('',#379,#380,#181,.T.);
#483=EDGE_CURVE('',#374,#380,#182,.T.);
#484=EDGE_CURVE('',#380,#381,#306,.T.);
#485=EDGE_CURVE('',#381,#375,#183,.T.);
#486=EDGE_CURVE('',#363,#371,#307,.T.);
#487=EDGE_CURVE('',#351,#382,#308,.T.);
#488=EDGE_CURVE('',#382,#362,#184,.T.);
#489=EDGE_CURVE('',#376,#361,#309,.T.);
#490=EDGE_CURVE('',#377,#383,#185,.T.);
#491=EDGE_CURVE('',#383,#383,#310,.T.);
#492=EDGE_CURVE('',#384,#384,#311,.T.);
#493=EDGE_CURVE('',#384,#354,#186,.T.);
#494=EDGE_CURVE('',#314,#333,#187,.T.);
#495=EDGE_CURVE('',#356,#385,#188,.T.);
#496=EDGE_CURVE('',#385,#386,#189,.T.);
#497=EDGE_CURVE('',#357,#386,#190,.T.);
#498=EDGE_CURVE('',#387,#315,#191,.T.);
#499=EDGE_CURVE('',#385,#387,#192,.T.);
#500=EDGE_CURVE('',#388,#314,#193,.T.);
#501=EDGE_CURVE('',#387,#388,#194,.T.);
#502=EDGE_CURVE('',#386,#388,#195,.T.);
#503=EDGE_CURVE('',#378,#369,#196,.T.);
#504=EDGE_CURVE('',#381,#382,#197,.T.);
#505=ORIENTED_EDGE('',*,*,#389,.F.);
#506=ORIENTED_EDGE('',*,*,#390,.F.);
#507=ORIENTED_EDGE('',*,*,#391,.F.);
#508=ORIENTED_EDGE('',*,*,#392,.T.);
#509=ORIENTED_EDGE('',*,*,#393,.F.);
#510=ORIENTED_EDGE('',*,*,#394,.T.);
#511=ORIENTED_EDGE('',*,*,#389,.T.);
#512=ORIENTED_EDGE('',*,*,#395,.T.);
#513=ORIENTED_EDGE('',*,*,#396,.T.);
#514=ORIENTED_EDGE('',*,*,#397,.T.);
#515=ORIENTED_EDGE('',*,*,#396,.F.);
#516=ORIENTED_EDGE('',*,*,#398,.F.);
#517=ORIENTED_EDGE('',*,*,#399,.F.);
#518=ORIENTED_EDGE('',*,*,#400,.T.);
#519=ORIENTED_EDGE('',*,*,#401,.F.);
#520=ORIENTED_EDGE('',*,*,#402,.F.);
#521=ORIENTED_EDGE('',*,*,#403,.F.);
#522=ORIENTED_EDGE('',*,*,#404,.T.);
#523=ORIENTED_EDGE('',*,*,#405,.F.);
#524=ORIENTED_EDGE('',*,*,#406,.T.);
#525=ORIENTED_EDGE('',*,*,#407,.F.);
#526=ORIENTED_EDGE('',*,*,#408,.T.);
#527=ORIENTED_EDGE('',*,*,#409,.F.);
#528=ORIENTED_EDGE('',*,*,#410,.F.);
#529=ORIENTED_EDGE('',*,*,#411,.F.);
#530=ORIENTED_EDGE('',*,*,#412,.T.);
#531=ORIENTED_EDGE('',*,*,#413,.F.);
#532=ORIENTED_EDGE('',*,*,#414,.T.);
#533=ORIENTED_EDGE('',*,*,#415,.T.);
#534=ORIENTED_EDGE('',*,*,#416,.F.);
#535=ORIENTED_EDGE('',*,*,#417,.F.);
#536=ORIENTED_EDGE('',*,*,#418,.F.);
#537=ORIENTED_EDGE('',*,*,#410,.T.);
#538=ORIENTED_EDGE('',*,*,#419,.F.);
#539=ORIENTED_EDGE('',*,*,#420,.F.);
#540=ORIENTED_EDGE('',*,*,#421,.T.);
#541=ORIENTED_EDGE('',*,*,#414,.F.);
#542=ORIENTED_EDGE('',*,*,#422,.F.);
#543=ORIENTED_EDGE('',*,*,#415,.F.);
#544=ORIENTED_EDGE('',*,*,#421,.F.);
#545=ORIENTED_EDGE('',*,*,#423,.F.);
#546=ORIENTED_EDGE('',*,*,#424,.T.);
#547=ORIENTED_EDGE('',*,*,#416,.T.);
#548=ORIENTED_EDGE('',*,*,#422,.T.);
#549=ORIENTED_EDGE('',*,*,#413,.T.);
#550=ORIENTED_EDGE('',*,*,#409,.T.);
#551=ORIENTED_EDGE('',*,*,#425,.T.);
#552=ORIENTED_EDGE('',*,*,#419,.T.);
#553=ORIENTED_EDGE('',*,*,#426,.T.);
#554=ORIENTED_EDGE('',*,*,#426,.F.);
#555=ORIENTED_EDGE('',*,*,#423,.T.);
#556=ORIENTED_EDGE('',*,*,#420,.T.);
#557=ORIENTED_EDGE('',*,*,#425,.F.);
#558=ORIENTED_EDGE('',*,*,#408,.F.);
#559=ORIENTED_EDGE('',*,*,#427,.F.);
#560=ORIENTED_EDGE('',*,*,#428,.T.);
#561=ORIENTED_EDGE('',*,*,#429,.T.);
#562=ORIENTED_EDGE('',*,*,#430,.T.);
#563=ORIENTED_EDGE('',*,*,#405,.T.);
#564=ORIENTED_EDGE('',*,*,#431,.T.);
#565=ORIENTED_EDGE('',*,*,#430,.F.);
#566=ORIENTED_EDGE('',*,*,#432,.F.);
#567=ORIENTED_EDGE('',*,*,#433,.F.);
#568=ORIENTED_EDGE('',*,*,#406,.F.);
#569=ORIENTED_EDGE('',*,*,#434,.T.);
#570=ORIENTED_EDGE('',*,*,#435,.T.);
#571=ORIENTED_EDGE('',*,*,#401,.T.);
#572=ORIENTED_EDGE('',*,*,#436,.T.);
#573=ORIENTED_EDGE('',*,*,#435,.F.);
#574=ORIENTED_EDGE('',*,*,#437,.F.);
#575=ORIENTED_EDGE('',*,*,#438,.F.);
#576=ORIENTED_EDGE('',*,*,#439,.F.);
#577=ORIENTED_EDGE('',*,*,#440,.F.);
#578=ORIENTED_EDGE('',*,*,#441,.T.);
#579=ORIENTED_EDGE('',*,*,#442,.F.);
#580=ORIENTED_EDGE('',*,*,#402,.T.);
#581=ORIENTED_EDGE('',*,*,#399,.T.);
#582=ORIENTED_EDGE('',*,*,#443,.T.);
#583=ORIENTED_EDGE('',*,*,#393,.T.);
#584=ORIENTED_EDGE('',*,*,#444,.T.);
#585=ORIENTED_EDGE('',*,*,#395,.F.);
#586=ORIENTED_EDGE('',*,*,#394,.F.);
#587=ORIENTED_EDGE('',*,*,#443,.F.);
#588=ORIENTED_EDGE('',*,*,#398,.T.);
#589=ORIENTED_EDGE('',*,*,#445,.T.);
#590=ORIENTED_EDGE('',*,*,#446,.T.);
#591=ORIENTED_EDGE('',*,*,#427,.T.);
#592=ORIENTED_EDGE('',*,*,#407,.T.);
#593=ORIENTED_EDGE('',*,*,#433,.T.);
#594=ORIENTED_EDGE('',*,*,#424,.F.);
#595=ORIENTED_EDGE('',*,*,#428,.F.);
#596=ORIENTED_EDGE('',*,*,#446,.F.);
#597=ORIENTED_EDGE('',*,*,#432,.T.);
#598=ORIENTED_EDGE('',*,*,#429,.F.);
#599=ORIENTED_EDGE('',*,*,#447,.F.);
#600=ORIENTED_EDGE('',*,*,#448,.F.);
#601=ORIENTED_EDGE('',*,*,#437,.T.);
#602=ORIENTED_EDGE('',*,*,#434,.F.);
#603=ORIENTED_EDGE('',*,*,#449,.F.);
#604=ORIENTED_EDGE('',*,*,#450,.T.);
#605=ORIENTED_EDGE('',*,*,#451,.F.);
#606=ORIENTED_EDGE('',*,*,#417,.T.);
#607=ORIENTED_EDGE('',*,*,#438,.T.);
#608=ORIENTED_EDGE('',*,*,#448,.T.);
#609=ORIENTED_EDGE('',*,*,#452,.T.);
#610=ORIENTED_EDGE('',*,*,#453,.T.);
#611=ORIENTED_EDGE('',*,*,#454,.T.);
#612=ORIENTED_EDGE('',*,*,#403,.T.);
#613=ORIENTED_EDGE('',*,*,#442,.T.);
#614=ORIENTED_EDGE('',*,*,#455,.T.);
#615=ORIENTED_EDGE('',*,*,#431,.F.);
#616=ORIENTED_EDGE('',*,*,#404,.F.);
#617=ORIENTED_EDGE('',*,*,#454,.F.);
#618=ORIENTED_EDGE('',*,*,#456,.F.);
#619=ORIENTED_EDGE('',*,*,#457,.F.);
#620=ORIENTED_EDGE('',*,*,#458,.T.);
#621=ORIENTED_EDGE('',*,*,#452,.F.);
#622=ORIENTED_EDGE('',*,*,#447,.T.);
#623=ORIENTED_EDGE('',*,*,#455,.F.);
#624=ORIENTED_EDGE('',*,*,#441,.F.);
#625=ORIENTED_EDGE('',*,*,#459,.F.);
#626=ORIENTED_EDGE('',*,*,#460,.F.);
#627=ORIENTED_EDGE('',*,*,#461,.F.);
#628=ORIENTED_EDGE('',*,*,#462,.T.);
#629=ORIENTED_EDGE('',*,*,#463,.F.);
#630=ORIENTED_EDGE('',*,*,#456,.T.);
#631=ORIENTED_EDGE('',*,*,#464,.T.);
#632=ORIENTED_EDGE('',*,*,#465,.T.);
#633=ORIENTED_EDGE('',*,*,#466,.T.);
#634=ORIENTED_EDGE('',*,*,#467,.T.);
#635=ORIENTED_EDGE('',*,*,#465,.F.);
#636=ORIENTED_EDGE('',*,*,#468,.T.);
#637=ORIENTED_EDGE('',*,*,#469,.F.);
#638=ORIENTED_EDGE('',*,*,#470,.F.);
#639=ORIENTED_EDGE('',*,*,#464,.F.);
#640=ORIENTED_EDGE('',*,*,#471,.T.);
#641=ORIENTED_EDGE('',*,*,#472,.F.);
#642=ORIENTED_EDGE('',*,*,#473,.T.);
#643=ORIENTED_EDGE('',*,*,#474,.F.);
#644=ORIENTED_EDGE('',*,*,#475,.T.);
#645=ORIENTED_EDGE('',*,*,#476,.F.);
#646=ORIENTED_EDGE('',*,*,#462,.F.);
#647=ORIENTED_EDGE('',*,*,#477,.F.);
#648=ORIENTED_EDGE('',*,*,#468,.F.);
#649=ORIENTED_EDGE('',*,*,#478,.T.);
#650=ORIENTED_EDGE('',*,*,#479,.T.);
#651=ORIENTED_EDGE('',*,*,#480,.T.);
#652=ORIENTED_EDGE('',*,*,#472,.T.);
#653=ORIENTED_EDGE('',*,*,#481,.T.);
#654=ORIENTED_EDGE('',*,*,#480,.F.);
#655=ORIENTED_EDGE('',*,*,#482,.T.);
#656=ORIENTED_EDGE('',*,*,#483,.F.);
#657=ORIENTED_EDGE('',*,*,#473,.F.);
#658=ORIENTED_EDGE('',*,*,#484,.T.);
#659=ORIENTED_EDGE('',*,*,#485,.T.);
#660=ORIENTED_EDGE('',*,*,#474,.T.);
#661=ORIENTED_EDGE('',*,*,#483,.T.);
#662=ORIENTED_EDGE('',*,*,#477,.T.);
#663=ORIENTED_EDGE('',*,*,#461,.T.);
#664=ORIENTED_EDGE('',*,*,#486,.T.);
#665=ORIENTED_EDGE('',*,*,#469,.T.);
#666=ORIENTED_EDGE('',*,*,#459,.T.);
#667=ORIENTED_EDGE('',*,*,#440,.T.);
#668=ORIENTED_EDGE('',*,*,#487,.T.);
#669=ORIENTED_EDGE('',*,*,#488,.T.);
#670=ORIENTED_EDGE('',*,*,#489,.T.);
#671=ORIENTED_EDGE('',*,*,#457,.T.);
#672=ORIENTED_EDGE('',*,*,#463,.T.);
#673=ORIENTED_EDGE('',*,*,#476,.T.);
#674=ORIENTED_EDGE('',*,*,#478,.F.);
#675=ORIENTED_EDGE('',*,*,#490,.T.);
#676=ORIENTED_EDGE('',*,*,#491,.F.);
#677=ORIENTED_EDGE('',*,*,#490,.F.);
#678=ORIENTED_EDGE('',*,*,#492,.F.);
#679=ORIENTED_EDGE('',*,*,#493,.T.);
#680=ORIENTED_EDGE('',*,*,#445,.F.);
#681=ORIENTED_EDGE('',*,*,#493,.F.);
#682=ORIENTED_EDGE('',*,*,#397,.F.);
#683=ORIENTED_EDGE('',*,*,#412,.F.);
#684=ORIENTED_EDGE('',*,*,#494,.F.);
#685=ORIENTED_EDGE('',*,*,#390,.T.);
#686=ORIENTED_EDGE('',*,*,#492,.T.);
#687=ORIENTED_EDGE('',*,*,#450,.F.);
#688=ORIENTED_EDGE('',*,*,#495,.T.);
#689=ORIENTED_EDGE('',*,*,#496,.T.);
#690=ORIENTED_EDGE('',*,*,#497,.F.);
#691=ORIENTED_EDGE('',*,*,#436,.F.);
#692=ORIENTED_EDGE('',*,*,#400,.F.);
#693=ORIENTED_EDGE('',*,*,#444,.F.);
#694=ORIENTED_EDGE('',*,*,#392,.F.);
#695=ORIENTED_EDGE('',*,*,#498,.F.);
#696=ORIENTED_EDGE('',*,*,#499,.F.);
#697=ORIENTED_EDGE('',*,*,#495,.F.);
#698=ORIENTED_EDGE('',*,*,#449,.T.);
#699=ORIENTED_EDGE('',*,*,#391,.T.);
#700=ORIENTED_EDGE('',*,*,#500,.F.);
#701=ORIENTED_EDGE('',*,*,#501,.F.);
#702=ORIENTED_EDGE('',*,*,#498,.T.);
#703=ORIENTED_EDGE('',*,*,#499,.T.);
#704=ORIENTED_EDGE('',*,*,#501,.T.);
#705=ORIENTED_EDGE('',*,*,#502,.F.);
#706=ORIENTED_EDGE('',*,*,#496,.F.);
#707=ORIENTED_EDGE('',*,*,#411,.T.);
#708=ORIENTED_EDGE('',*,*,#418,.T.);
#709=ORIENTED_EDGE('',*,*,#451,.T.);
#710=ORIENTED_EDGE('',*,*,#497,.T.);
#711=ORIENTED_EDGE('',*,*,#502,.T.);
#712=ORIENTED_EDGE('',*,*,#500,.T.);
#713=ORIENTED_EDGE('',*,*,#494,.T.);
#714=ORIENTED_EDGE('',*,*,#467,.F.);
#715=ORIENTED_EDGE('',*,*,#503,.F.);
#716=ORIENTED_EDGE('',*,*,#481,.F.);
#717=ORIENTED_EDGE('',*,*,#471,.F.);
#718=ORIENTED_EDGE('',*,*,#466,.F.);
#719=ORIENTED_EDGE('',*,*,#470,.T.);
#720=ORIENTED_EDGE('',*,*,#486,.F.);
#721=ORIENTED_EDGE('',*,*,#460,.T.);
#722=ORIENTED_EDGE('',*,*,#488,.F.);
#723=ORIENTED_EDGE('',*,*,#504,.F.);
#724=ORIENTED_EDGE('',*,*,#484,.F.);
#725=ORIENTED_EDGE('',*,*,#482,.F.);
#726=ORIENTED_EDGE('',*,*,#479,.F.);
#727=ORIENTED_EDGE('',*,*,#503,.T.);
#728=ORIENTED_EDGE('',*,*,#491,.T.);
#729=ORIENTED_EDGE('',*,*,#453,.F.);
#730=ORIENTED_EDGE('',*,*,#458,.F.);
#731=ORIENTED_EDGE('',*,*,#489,.F.);
#732=ORIENTED_EDGE('',*,*,#475,.F.);
#733=ORIENTED_EDGE('',*,*,#485,.F.);
#734=ORIENTED_EDGE('',*,*,#504,.T.);
#735=ORIENTED_EDGE('',*,*,#487,.F.);
#736=ORIENTED_EDGE('',*,*,#439,.T.);
#737=PLANE('',#812);
#738=PLANE('',#817);
#739=PLANE('',#823);
#740=PLANE('',#831);
#741=PLANE('',#834);
#742=PLANE('',#837);
#743=PLANE('',#841);
#744=PLANE('',#845);
#745=PLANE('',#850);
#746=PLANE('',#851);
#747=PLANE('',#857);
#748=PLANE('',#858);
#749=PLANE('',#865);
#750=PLANE('',#878);
#751=PLANE('',#879);
#752=PLANE('',#880);
#753=PLANE('',#881);
#754=PLANE('',#882);
#755=PLANE('',#883);
#756=PLANE('',#884);
#757=PLANE('',#885);
#758=PLANE('',#886);
#759=ADVANCED_FACE('',(#38),#737,.T.);
#760=ADVANCED_FACE('',(#39),#21,.T.);
#761=ADVANCED_FACE('',(#40),#738,.T.);
#762=ADVANCED_FACE('',(#41),#739,.T.);
#763=ADVANCED_FACE('',(#42),#22,.F.);
#764=ADVANCED_FACE('',(#43),#23,.T.);
#765=ADVANCED_FACE('',(#44),#740,.T.);
#766=ADVANCED_FACE('',(#45),#24,.F.);
#767=ADVANCED_FACE('',(#46),#741,.F.);
#768=ADVANCED_FACE('',(#47),#25,.F.);
#769=ADVANCED_FACE('',(#48),#742,.T.);
#770=ADVANCED_FACE('',(#49),#26,.T.);
#771=ADVANCED_FACE('',(#50,#15),#743,.T.);
#772=ADVANCED_FACE('',(#51),#27,.T.);
#773=ADVANCED_FACE('',(#52),#744,.T.);
#774=ADVANCED_FACE('',(#53),#28,.F.);
#775=ADVANCED_FACE('',(#54),#29,.T.);
#776=ADVANCED_FACE('',(#55),#745,.T.);
#777=ADVANCED_FACE('',(#56),#746,.T.);
#778=ADVANCED_FACE('',(#57),#30,.T.);
#779=ADVANCED_FACE('',(#58),#747,.T.);
#780=ADVANCED_FACE('',(#59,#16),#748,.T.);
#781=ADVANCED_FACE('',(#60),#31,.T.);
#782=ADVANCED_FACE('',(#61),#749,.T.);
#783=ADVANCED_FACE('',(#62),#32,.T.);
#784=ADVANCED_FACE('',(#63),#33,.F.);
#785=ADVANCED_FACE('',(#64),#34,.F.);
#786=ADVANCED_FACE('',(#65),#35,.T.);
#787=ADVANCED_FACE('',(#66),#36,.F.);
#788=ADVANCED_FACE('',(#67),#37,.F.);
#789=ADVANCED_FACE('',(#68,#17),#750,.T.);
#790=ADVANCED_FACE('',(#69),#751,.T.);
#791=ADVANCED_FACE('',(#70),#752,.F.);
#792=ADVANCED_FACE('',(#71),#753,.T.);
#793=ADVANCED_FACE('',(#72),#754,.T.);
#794=ADVANCED_FACE('',(#73),#755,.T.);
#795=ADVANCED_FACE('',(#74),#756,.F.);
#796=ADVANCED_FACE('',(#75,#18),#757,.T.);
#797=ADVANCED_FACE('',(#76),#758,.T.);
#798=CLOSED_SHELL('',(#759,#760,#761,#762,#763,#764,#765,#766,#767,#768,
#769,#770,#771,#772,#773,#774,#775,#776,#777,#778,#779,#780,#781,#782,#783,
#784,#785,#786,#787,#788,#789,#790,#791,#792,#793,#794,#795,#796,#797));
#799=DERIVED_UNIT_ELEMENT(#801,1.);
#800=DERIVED_UNIT_ELEMENT(#1373,-3.);
#801=(
MASS_UNIT()
NAMED_UNIT(*)
SI_UNIT(.KILO.,.GRAM.)
);
#802=DERIVED_UNIT((#799,#800));
#803=MEASURE_REPRESENTATION_ITEM('density measure',
POSITIVE_RATIO_MEASURE(7850.),#802);
#804=PROPERTY_DEFINITION_REPRESENTATION(#809,#806);
#805=PROPERTY_DEFINITION_REPRESENTATION(#810,#807);
#806=REPRESENTATION('material name',(#808),#1370);
#807=REPRESENTATION('density',(#803),#1370);
#808=DESCRIPTIVE_REPRESENTATION_ITEM('\X2\92FC\X0\','\X2\92FC\X0\');
#809=PROPERTY_DEFINITION('material property','material name',#1380);
#810=PROPERTY_DEFINITION('material property','density of part',#1380);
#811=AXIS2_PLACEMENT_3D('',#1117,#887,#888);
#812=AXIS2_PLACEMENT_3D('',#1118,#889,#890);
#813=AXIS2_PLACEMENT_3D('',#1121,#891,#892);
#814=AXIS2_PLACEMENT_3D('',#1129,#896,#897);
#815=AXIS2_PLACEMENT_3D('',#1131,#899,#900);
#816=AXIS2_PLACEMENT_3D('',#1135,#902,#903);
#817=AXIS2_PLACEMENT_3D('',#1137,#905,#906);
#818=AXIS2_PLACEMENT_3D('',#1141,#908,#909);
#819=AXIS2_PLACEMENT_3D('',#1145,#911,#912);
#820=AXIS2_PLACEMENT_3D('',#1153,#916,#917);
#821=AXIS2_PLACEMENT_3D('',#1157,#919,#920);
#822=AXIS2_PLACEMENT_3D('',#1161,#922,#923);
#823=AXIS2_PLACEMENT_3D('',#1167,#927,#928);
#824=AXIS2_PLACEMENT_3D('',#1171,#930,#931);
#825=AXIS2_PLACEMENT_3D('',#1173,#932,#933);
#826=AXIS2_PLACEMENT_3D('',#1179,#937,#938);
#827=AXIS2_PLACEMENT_3D('',#1193,#939,#940);
#828=AXIS2_PLACEMENT_3D('',#1205,#942,#943);
#829=AXIS2_PLACEMENT_3D('',#1206,#944,#945);
#830=AXIS2_PLACEMENT_3D('',#1208,#946,#947);
#831=AXIS2_PLACEMENT_3D('',#1211,#950,#951);
#832=AXIS2_PLACEMENT_3D('',#1215,#954,#955);
#833=AXIS2_PLACEMENT_3D('',#1218,#956,#957);
#834=AXIS2_PLACEMENT_3D('',#1221,#960,#961);
#835=AXIS2_PLACEMENT_3D('',#1225,#964,#965);
#836=AXIS2_PLACEMENT_3D('',#1228,#966,#967);
#837=AXIS2_PLACEMENT_3D('',#1231,#970,#971);
#838=AXIS2_PLACEMENT_3D('',#1235,#973,#974);
#839=AXIS2_PLACEMENT_3D('',#1242,#978,#979);
#840=AXIS2_PLACEMENT_3D('',#1243,#980,#981);
#841=AXIS2_PLACEMENT_3D('',#1246,#984,#985);
#842=AXIS2_PLACEMENT_3D('',#1248,#986,#987);
#843=AXIS2_PLACEMENT_3D('',#1249,#988,#989);
#844=AXIS2_PLACEMENT_3D('',#1250,#990,#991);
#845=AXIS2_PLACEMENT_3D('',#1251,#992,#993);
#846=AXIS2_PLACEMENT_3D('',#1260,#999,#1000);
#847=AXIS2_PLACEMENT_3D('',#1262,#1001,#1002);
#848=AXIS2_PLACEMENT_3D('',#1264,#1004,#1005);
#849=AXIS2_PLACEMENT_3D('',#1266,#1006,#1007);
#850=AXIS2_PLACEMENT_3D('',#1268,#1009,#1010);
#851=AXIS2_PLACEMENT_3D('',#1274,#1014,#1015);
#852=AXIS2_PLACEMENT_3D('',#1276,#1016,#1017);
#853=AXIS2_PLACEMENT_3D('',#1283,#1021,#1022);
#854=AXIS2_PLACEMENT_3D('',#1284,#1023,#1024);
#855=AXIS2_PLACEMENT_3D('',#1287,#1025,#1026);
#856=AXIS2_PLACEMENT_3D('',#1291,#1028,#1029);
#857=AXIS2_PLACEMENT_3D('',#1293,#1031,#1032);
#858=AXIS2_PLACEMENT_3D('',#1299,#1036,#1037);
#859=AXIS2_PLACEMENT_3D('',#1303,#1039,#1040);
#860=AXIS2_PLACEMENT_3D('',#1307,#1042,#1043);
#861=AXIS2_PLACEMENT_3D('',#1311,#1046,#1047);
#862=AXIS2_PLACEMENT_3D('',#1313,#1048,#1049);
#863=AXIS2_PLACEMENT_3D('',#1314,#1050,#1051);
#864=AXIS2_PLACEMENT_3D('',#1317,#1052,#1053);
#865=AXIS2_PLACEMENT_3D('',#1320,#1056,#1057);
#866=AXIS2_PLACEMENT_3D('',#1324,#1060,#1061);
#867=AXIS2_PLACEMENT_3D('',#1326,#1062,#1063);
#868=AXIS2_PLACEMENT_3D('',#1328,#1065,#1066);
#869=AXIS2_PLACEMENT_3D('',#1329,#1067,#1068);
#870=AXIS2_PLACEMENT_3D('',#1330,#1069,#1070);
#871=AXIS2_PLACEMENT_3D('',#1332,#1071,#1072);
#872=AXIS2_PLACEMENT_3D('',#1334,#1074,#1075);
#873=AXIS2_PLACEMENT_3D('',#1335,#1076,#1077);
#874=AXIS2_PLACEMENT_3D('',#1336,#1078,#1079);
#875=AXIS2_PLACEMENT_3D('',#1339,#1081,#1082);
#876=AXIS2_PLACEMENT_3D('',#1340,#1083,#1084);
#877=AXIS2_PLACEMENT_3D('',#1342,#1085,#1086);
#878=AXIS2_PLACEMENT_3D('',#1344,#1088,#1089);
#879=AXIS2_PLACEMENT_3D('',#1346,#1091,#1092);
#880=AXIS2_PLACEMENT_3D('',#1352,#1096,#1097);
#881=AXIS2_PLACEMENT_3D('',#1356,#1100,#1101);
#882=AXIS2_PLACEMENT_3D('',#1360,#1104,#1105);
#883=AXIS2_PLACEMENT_3D('',#1362,#1107,#1108);
#884=AXIS2_PLACEMENT_3D('',#1363,#1109,#1110);
#885=AXIS2_PLACEMENT_3D('',#1365,#1112,#1113);
#886=AXIS2_PLACEMENT_3D('',#1367,#1115,#1116);
#887=DIRECTION('axis',(0.,0.,1.));
#888=DIRECTION('refdir',(1.,0.,0.));
#889=DIRECTION('center_axis',(-1.,0.,0.));
#890=DIRECTION('ref_axis',(0.,1.,0.));
#891=DIRECTION('center_axis',(1.,0.,0.));
#892=DIRECTION('ref_axis',(0.,0.707106781186548,-0.707106781186547));
#893=DIRECTION('',(0.,0.,-1.));
#894=DIRECTION('',(0.,0.,-1.));
#895=DIRECTION('',(0.,1.,0.));
#896=DIRECTION('center_axis',(1.,0.,0.));
#897=DIRECTION('ref_axis',(0.,0.707106781186548,0.707106781186547));
#898=DIRECTION('',(0.,0.,-1.));
#899=DIRECTION('center_axis',(-1.,0.,0.));
#900=DIRECTION('ref_axis',(0.,-0.707106781186548,-0.707106781186547));
#901=DIRECTION('',(1.,0.,0.));
#902=DIRECTION('center_axis',(-1.,0.,0.));
#903=DIRECTION('ref_axis',(0.,-0.707106781186548,-0.707106781186547));
#904=DIRECTION('',(-1.,0.,0.));
#905=DIRECTION('center_axis',(1.,0.,0.));
#906=DIRECTION('ref_axis',(0.,0.,-1.));
#907=DIRECTION('',(0.,0.,-1.));
#908=DIRECTION('center_axis',(-1.,0.,0.));
#909=DIRECTION('ref_axis',(0.,0.707106781186548,0.707106781186547));
#910=DIRECTION('',(0.,-1.,0.));
#911=DIRECTION('center_axis',(1.,0.,0.));
#912=DIRECTION('ref_axis',(0.,-0.707106781186548,-0.707106781186547));
#913=DIRECTION('',(0.,0.,-1.));
#914=DIRECTION('',(0.,1.,0.));
#915=DIRECTION('',(0.,2.77555756156289E-16,-1.));
#916=DIRECTION('center_axis',(1.,0.,0.));
#917=DIRECTION('ref_axis',(0.,0.707106781186548,-0.707106781186547));
#918=DIRECTION('',(0.,-1.,0.));
#919=DIRECTION('center_axis',(-1.,0.,0.));
#920=DIRECTION('ref_axis',(0.,-0.707106781186548,0.707106781186548));
#921=DIRECTION('',(0.,0.,-1.));
#922=DIRECTION('center_axis',(-1.,0.,0.));
#923=DIRECTION('ref_axis',(0.,-0.707106781186548,-0.707106781186547));
#924=DIRECTION('',(0.,0.,-1.));
#925=DIRECTION('',(0.,-1.,0.));
#926=DIRECTION('',(0.,0.,-1.));
#927=DIRECTION('center_axis',(0.,1.,0.));
#928=DIRECTION('ref_axis',(1.,0.,0.));
#929=DIRECTION('',(1.,0.,0.));
#930=DIRECTION('center_axis',(0.,-1.,0.));
#931=DIRECTION('ref_axis',(1.,0.,0.));
#932=DIRECTION('center_axis',(0.,-1.,0.));
#933=DIRECTION('ref_axis',(1.,0.,0.));
#934=DIRECTION('',(1.,0.,0.));
#935=DIRECTION('',(0.,0.,-1.));
#936=DIRECTION('',(-1.,0.,0.));
#937=DIRECTION('center_axis',(0.,1.,0.));
#938=DIRECTION('ref_axis',(1.,0.,0.));
#939=DIRECTION('center_axis',(0.,1.,0.));
#940=DIRECTION('ref_axis',(1.,0.,0.));
#941=DIRECTION('',(0.,1.,0.));
#942=DIRECTION('center_axis',(0.,1.,0.));
#943=DIRECTION('ref_axis',(1.,0.,0.));
#944=DIRECTION('center_axis',(-1.,0.,0.));
#945=DIRECTION('ref_axis',(0.,-0.707106781186548,-0.707106781186547));
#946=DIRECTION('center_axis',(1.,0.,0.));
#947=DIRECTION('ref_axis',(0.,0.707106781186548,-0.707106781186547));
#948=DIRECTION('',(-1.,0.,0.));
#949=DIRECTION('',(-1.,0.,0.));
#950=DIRECTION('center_axis',(0.,-1.,0.));
#951=DIRECTION('ref_axis',(-1.,0.,0.));
#952=DIRECTION('',(1.,0.,0.));
#953=DIRECTION('',(0.,0.,-1.));
#954=DIRECTION('center_axis',(1.,0.,0.));
#955=DIRECTION('ref_axis',(0.,0.707106781186548,-0.707106781186547));
#956=DIRECTION('center_axis',(-1.,0.,0.));
#957=DIRECTION('ref_axis',(0.,0.707106781186548,-0.707106781186547));
#958=DIRECTION('',(1.,0.,0.));
#959=DIRECTION('',(-1.,0.,0.));
#960=DIRECTION('center_axis',(0.,0.,-1.));
#961=DIRECTION('ref_axis',(-1.,0.,0.));
#962=DIRECTION('',(0.,1.,0.));
#963=DIRECTION('',(-1.,0.,0.));
#964=DIRECTION('center_axis',(-1.,0.,0.));
#965=DIRECTION('ref_axis',(0.,-0.707106781186548,-0.707106781186547));
#966=DIRECTION('center_axis',(-1.,0.,0.));
#967=DIRECTION('ref_axis',(0.,-0.707106781186548,-0.707106781186547));
#968=DIRECTION('',(1.,0.,0.));
#969=DIRECTION('',(-1.,0.,0.));
#970=DIRECTION('center_axis',(0.,1.,0.));
#971=DIRECTION('ref_axis',(0.,0.,1.));
#972=DIRECTION('',(0.,0.,-1.));
#973=DIRECTION('center_axis',(0.,1.,0.));
#974=DIRECTION('ref_axis',(0.707106781186546,0.,0.707106781186549));
#975=DIRECTION('',(1.,0.,0.));
#976=DIRECTION('',(0.,0.,-1.));
#977=DIRECTION('',(1.,0.,0.));
#978=DIRECTION('center_axis',(0.,-1.,0.));
#979=DIRECTION('ref_axis',(0.70710678118655,0.,0.707106781186545));
#980=DIRECTION('center_axis',(1.,0.,0.));
#981=DIRECTION('ref_axis',(0.,0.707106781186548,0.707106781186547));
#982=DIRECTION('',(-1.,0.,0.));
#983=DIRECTION('',(1.,0.,0.));
#984=DIRECTION('center_axis',(0.,1.,0.));
#985=DIRECTION('ref_axis',(1.,0.,0.));
#986=DIRECTION('center_axis',(0.,-1.,0.));
#987=DIRECTION('ref_axis',(1.,0.,0.));
#988=DIRECTION('center_axis',(-1.,0.,0.));
#989=DIRECTION('ref_axis',(0.,-0.707106781186548,0.707106781186548));
#990=DIRECTION('center_axis',(1.,0.,0.));
#991=DIRECTION('ref_axis',(0.,-0.707106781186548,0.707106781186548));
#992=DIRECTION('center_axis',(-1.,0.,0.));
#993=DIRECTION('ref_axis',(0.,1.,0.));
#994=DIRECTION('',(0.,0.,-1.));
#995=DIRECTION('',(0.,-1.,0.));
#996=DIRECTION('',(0.,1.,0.));
#997=DIRECTION('',(0.,0.,-1.));
#998=DIRECTION('',(0.,1.,0.));
#999=DIRECTION('center_axis',(0.,-1.,0.));
#1000=DIRECTION('ref_axis',(0.707106781186546,0.,0.707106781186549));
#1001=DIRECTION('center_axis',(0.,-1.,0.));
#1002=DIRECTION('ref_axis',(0.707106781186546,0.,0.707106781186549));
#1003=DIRECTION('',(0.,1.,0.));
#1004=DIRECTION('center_axis',(0.,-1.,0.));
#1005=DIRECTION('ref_axis',(0.70710678118655,0.,0.707106781186545));
#1006=DIRECTION('center_axis',(0.,1.,0.));
#1007=DIRECTION('ref_axis',(0.70710678118655,0.,0.707106781186545));
#1008=DIRECTION('',(0.,-1.,0.));
#1009=DIRECTION('center_axis',(0.,-1.,0.));
#1010=DIRECTION('ref_axis',(0.,0.,-1.));
#1011=DIRECTION('',(1.,0.,0.));
#1012=DIRECTION('',(0.,0.,1.));
#1013=DIRECTION('',(1.,0.,0.));
#1014=DIRECTION('center_axis',(0.,0.,1.));
#1015=DIRECTION('ref_axis',(-1.,0.,0.));
#1016=DIRECTION('center_axis',(0.,0.,1.));
#1017=DIRECTION('ref_axis',(-0.707106781186546,-0.707106781186549,0.));
#1018=DIRECTION('',(0.,-1.,0.));
#1019=DIRECTION('',(1.,0.,0.));
#1020=DIRECTION('',(0.,-1.,0.));
#1021=DIRECTION('center_axis',(0.,0.,-1.));
#1022=DIRECTION('ref_axis',(-0.707106781186546,-0.707106781186549,0.));
#1023=DIRECTION('center_axis',(-1.,0.,0.));
#1024=DIRECTION('ref_axis',(0.,-0.707106781186549,0.707106781186546));
#1025=DIRECTION('center_axis',(1.,0.,0.));
#1026=DIRECTION('ref_axis',(0.,-0.707106781186549,0.707106781186546));
#1027=DIRECTION('',(1.,0.,0.));
#1028=DIRECTION('center_axis',(-1.,0.,0.));
#1029=DIRECTION('ref_axis',(0.,-0.707106781186549,0.707106781186546));
#1030=DIRECTION('',(-1.,0.,0.));
#1031=DIRECTION('center_axis',(0.,-1.,0.));
#1032=DIRECTION('ref_axis',(-1.,0.,0.));
#1033=DIRECTION('',(0.,0.,-1.));
#1034=DIRECTION('',(-1.,0.,0.));
#1035=DIRECTION('',(0.,0.,-1.));
#1036=DIRECTION('center_axis',(-1.,0.,0.));
#1037=DIRECTION('ref_axis',(0.,1.,0.));
#1038=DIRECTION('',(0.,1.,0.));
#1039=DIRECTION('center_axis',(1.,0.,0.));
#1040=DIRECTION('ref_axis',(0.,0.707106781186549,0.707106781186546));
#1041=DIRECTION('',(0.,0.,-1.));
#1042=DIRECTION('center_axis',(1.,0.,0.));
#1043=DIRECTION('ref_axis',(0.,0.70710678118655,-0.707106781186545));
#1044=DIRECTION('',(0.,-1.,0.));
#1045=DIRECTION('',(0.,0.,-1.));
#1046=DIRECTION('center_axis',(-1.,0.,0.));
#1047=DIRECTION('ref_axis',(0.,0.707106781186548,-0.707106781186547));
#1048=DIRECTION('center_axis',(1.,0.,0.));
#1049=DIRECTION('ref_axis',(0.,-1.,0.));
#1050=DIRECTION('center_axis',(1.,-2.60770310173667E-8,0.));
#1051=DIRECTION('ref_axis',(1.84392537599599E-8,0.707106781186549,0.707106781186546));
#1052=DIRECTION('center_axis',(-1.,0.,0.));
#1053=DIRECTION('ref_axis',(0.,0.707106781186549,0.707106781186546));
#1054=DIRECTION('',(-1.,2.60770310173667E-8,0.));
#1055=DIRECTION('',(1.,-2.60770310173667E-8,0.));
#1056=DIRECTION('center_axis',(2.60770310173667E-8,1.,0.));
#1057=DIRECTION('ref_axis',(1.,-2.60770310173667E-8,0.));
#1058=DIRECTION('',(0.,0.,-1.));
#1059=DIRECTION('',(1.,-2.60770310173667E-8,0.));
#1060=DIRECTION('center_axis',(1.,-2.60770310173667E-8,0.));
#1061=DIRECTION('ref_axis',(1.84392537599599E-8,0.70710678118655,-0.707106781186545));
#1062=DIRECTION('center_axis',(-1.,0.,0.));
#1063=DIRECTION('ref_axis',(0.,0.70710678118655,-0.707106781186545));
#1064=DIRECTION('',(-1.,2.60770310173667E-8,0.));
#1065=DIRECTION('center_axis',(1.,0.,0.));
#1066=DIRECTION('ref_axis',(0.,0.707106781186548,-0.707106781186547));
#1067=DIRECTION('center_axis',(1.,0.,0.));
#1068=DIRECTION('ref_axis',(0.,0.707106781186548,-0.707106781186547));
#1069=DIRECTION('center_axis',(0.,0.,-1.));
#1070=DIRECTION('ref_axis',(-0.707106781186546,-0.707106781186549,0.));
#1071=DIRECTION('center_axis',(0.,0.,-1.));
#1072=DIRECTION('ref_axis',(-0.707106781186546,-0.707106781186549,0.));
#1073=DIRECTION('',(0.,0.,1.));
#1074=DIRECTION('center_axis',(0.,0.,-1.));
#1075=DIRECTION('ref_axis',(-0.707106781186546,-0.707106781186549,0.));
#1076=DIRECTION('center_axis',(0.,0.,1.));
#1077=DIRECTION('ref_axis',(-0.707106781186546,-0.707106781186549,0.));
#1078=DIRECTION('center_axis',(1.,0.,0.));
#1079=DIRECTION('ref_axis',(0.,-1.,0.));
#1080=DIRECTION('',(1.,0.,0.));
#1081=DIRECTION('center_axis',(-1.,0.,0.));
#1082=DIRECTION('ref_axis',(0.,-1.,0.));
#1083=DIRECTION('center_axis',(0.,1.,0.));
#1084=DIRECTION('ref_axis',(1.,0.,0.));
#1085=DIRECTION('center_axis',(0.,1.,0.));
#1086=DIRECTION('ref_axis',(1.,0.,0.));
#1087=DIRECTION('',(0.,1.,0.));
#1088=DIRECTION('center_axis',(0.,-1.,0.));
#1089=DIRECTION('ref_axis',(-1.,0.,0.));
#1090=DIRECTION('',(1.,0.,0.));
#1091=DIRECTION('center_axis',(4.60475697268992E-16,-1.,0.));
#1092=DIRECTION('ref_axis',(-1.,-4.60475697268992E-16,0.));
#1093=DIRECTION('',(-1.,-4.60475697268992E-16,0.));
#1094=DIRECTION('',(0.,0.,-1.));
#1095=DIRECTION('',(-1.,-4.60475697268992E-16,0.));
#1096=DIRECTION('center_axis',(0.,0.,-1.));
#1097=DIRECTION('ref_axis',(-1.,0.,0.));
#1098=DIRECTION('',(1.,0.,0.));
#1099=DIRECTION('',(0.,1.,0.));
#1100=DIRECTION('center_axis',(0.,1.,0.));
#1101=DIRECTION('ref_axis',(1.,0.,0.));
#1102=DIRECTION('',(1.,0.,0.));
#1103=DIRECTION('',(0.,0.,-1.));
#1104=DIRECTION('center_axis',(-1.,0.,0.));
#1105=DIRECTION('ref_axis',(0.,1.,0.));
#1106=DIRECTION('',(0.,1.,0.));
#1107=DIRECTION('center_axis',(0.,0.,-1.));
#1108=DIRECTION('ref_axis',(-1.,0.,0.));
#1109=DIRECTION('center_axis',(0.,0.,-1.));
#1110=DIRECTION('ref_axis',(-1.,0.,0.));
#1111=DIRECTION('',(0.,-1.,0.));
#1112=DIRECTION('center_axis',(1.,0.,0.));
#1113=DIRECTION('ref_axis',(0.,-1.,0.));
#1114=DIRECTION('',(0.,-1.,0.));
#1115=DIRECTION('center_axis',(0.,0.,-1.));
#1116=DIRECTION('ref_axis',(-1.,0.,0.));
#1117=CARTESIAN_POINT('',(0.,0.,0.));
#1118=CARTESIAN_POINT('Origin',(-44.0793902602961,5.09999994784591,5.77999204002579));
#1119=CARTESIAN_POINT('',(-44.0793902602961,5.09999994784591,-8.37900795997421));
#1120=CARTESIAN_POINT('',(-44.0793902602961,7.09999994784591,-8.37900795997421));
#1121=CARTESIAN_POINT('Origin',(-44.0793902602961,6.09999994784591,-8.37900795997421));
#1122=CARTESIAN_POINT('',(-44.0793902602961,5.09999994784591,-4.37900795997421));
#1123=CARTESIAN_POINT('',(-44.0793902602961,5.09999994784591,5.77999204002579));
#1124=CARTESIAN_POINT('',(-44.0793902602961,5.09999994784591,-1.37900795997421));
#1125=CARTESIAN_POINT('',(-44.0793902602961,5.09999994784591,5.77999204002579));
#1126=CARTESIAN_POINT('',(-44.0793902602961,6.09999994784591,-1.37900795997421));
#1127=CARTESIAN_POINT('',(-44.0793902602961,5.59999994784591,-1.37900795997421));
#1128=CARTESIAN_POINT('',(-44.0793902602961,7.09999994784591,-2.37900795997421));
#1129=CARTESIAN_POINT('Origin',(-44.0793902602961,6.09999994784591,-2.37900795997421));
#1130=CARTESIAN_POINT('',(-44.0793902602961,7.09999994784591,5.77999204002579));
#1131=CARTESIAN_POINT('Origin',(-39.5793902602961,6.09999994784591,-8.37900795997421));
#1132=CARTESIAN_POINT('',(-38.0793902602961,7.09999994784591,-8.37900795997421));
#1133=CARTESIAN_POINT('',(-42.5793902602961,7.09999994784591,-8.37900795997421));
#1134=CARTESIAN_POINT('',(-38.0793902602961,5.09999994784591,-8.37900795997421));
#1135=CARTESIAN_POINT('Origin',(-38.0793902602961,6.09999994784591,-8.37900795997421));
#1136=CARTESIAN_POINT('',(-39.5793902602961,5.09999994784591,-8.37900795997421));
#1137=CARTESIAN_POINT('Origin',(-38.0793902602961,1.99999994784591,6.77999204002579));
#1138=CARTESIAN_POINT('',(-38.0793902602961,7.09999994784591,-2.37900795997421));
#1139=CARTESIAN_POINT('',(-38.0793902602961,7.09999994784591,5.77999204002579));
#1140=CARTESIAN_POINT('',(-38.0793902602961,6.09999994784591,-1.37900795997421));
#1141=CARTESIAN_POINT('Origin',(-38.0793902602961,6.09999994784591,-2.37900795997421));
#1142=CARTESIAN_POINT('',(-38.0793902602961,3.99999994784591,-1.37900795997421));
#1143=CARTESIAN_POINT('',(-38.0793902602961,4.57499994784591,-1.37900795997421));
#1144=CARTESIAN_POINT('',(-38.0793902602961,2.99999994784591,-0.379007959974212));
#1145=CARTESIAN_POINT('Origin',(-38.0793902602961,3.99999994784591,-0.379007959974212));
#1146=CARTESIAN_POINT('',(-38.0793902602961,2.99999994784591,6.77999204002579));
#1147=CARTESIAN_POINT('',(-38.0793902602961,2.99999994784591,5.77999204002579));
#1148=CARTESIAN_POINT('',(-38.0793902602961,0.999999947845907,6.77999204002579));
#1149=CARTESIAN_POINT('',(-38.0793902602961,10.6749999478459,6.77999204002579));
#1150=CARTESIAN_POINT('',(-38.0793902602961,0.999999947845909,-0.379007959974212));
#1151=CARTESIAN_POINT('',(-38.0793902602961,0.999999947845907,5.77999204002579));
#1152=CARTESIAN_POINT('',(-38.0793902602961,-5.21540935438658E-8,-1.37900795997421));
#1153=CARTESIAN_POINT('Origin',(-38.0793902602961,-5.21540935438658E-8,
-0.379007959974212));
#1154=CARTESIAN_POINT('',(-38.0793902602961,-2.10000005215409,-1.37900795997421));
#1155=CARTESIAN_POINT('',(-38.0793902602961,-1.60000005215409,-1.37900795997421));
#1156=CARTESIAN_POINT('',(-38.0793902602961,-3.10000005215409,-2.37900795997421));
#1157=CARTESIAN_POINT('Origin',(-38.0793902602961,-2.10000005215409,-2.37900795997421));
#1158=CARTESIAN_POINT('',(-38.0793902602961,-3.10000005215409,-8.37900795997421));
#1159=CARTESIAN_POINT('',(-38.0793902602961,-3.10000005215409,5.77999204002579));
#1160=CARTESIAN_POINT('',(-38.0793902602961,-1.10000005215409,-8.37900795997421));
#1161=CARTESIAN_POINT('Origin',(-38.0793902602961,-2.10000005215409,-8.37900795997421));
#1162=CARTESIAN_POINT('',(-38.0793902602961,-1.10000005215409,-4.37900795997421));
#1163=CARTESIAN_POINT('',(-38.0793902602961,-1.10000005215409,5.77999204002579));
#1164=CARTESIAN_POINT('',(-38.0793902602961,5.09999994784591,-4.37900795997421));
#1165=CARTESIAN_POINT('',(-38.0793902602961,5.09999994784591,-4.37900795997421));
#1166=CARTESIAN_POINT('',(-38.0793902602961,5.09999994784591,5.77999204002579));
#1167=CARTESIAN_POINT('Origin',(-44.0793902602961,-1.10000005215409,5.77999204002579));
#1168=CARTESIAN_POINT('',(-40.4701843503413,-1.10000005215409,-8.37900795997421));
#1169=CARTESIAN_POINT('',(-42.5793902602961,-1.10000005215409,-8.37900795997421));
#1170=CARTESIAN_POINT('',(-42.6793902602961,-1.10000005215409,-6.89952556424382));
#1171=CARTESIAN_POINT('Origin',(-41.0793902602961,-1.10000005215409,-6.89952556424382));
#1172=CARTESIAN_POINT('',(-41.6885961702509,-1.10000005215409,-8.37900795997421));
#1173=CARTESIAN_POINT('Origin',(-41.0793902602961,-1.10000005215409,-6.89952556424382));
#1174=CARTESIAN_POINT('',(-44.0793902602961,-1.10000005215409,-8.37900795997421));
#1175=CARTESIAN_POINT('',(-42.5793902602961,-1.10000005215409,-8.37900795997421));
#1176=CARTESIAN_POINT('',(-44.0793902602961,-1.10000005215409,-4.37900795997421));
#1177=CARTESIAN_POINT('',(-44.0793902602961,-1.10000005215409,5.77999204002579));
#1178=CARTESIAN_POINT('',(-38.0793902602961,-1.10000005215409,-4.37900795997421));
#1179=CARTESIAN_POINT('Origin',(-41.0793902602961,-3.10000005215409,-6.89952556424382));
#1180=CARTESIAN_POINT('',(-40.4701843503413,-3.10000005215409,-8.37900795997421));
#1181=CARTESIAN_POINT('',(-41.6885961702509,-3.10000005215409,-8.37900795997421));
#1182=CARTESIAN_POINT('Ctrl Pts',(-40.4701843503413,-3.10000005215409,-8.37900795997421));
#1183=CARTESIAN_POINT('Ctrl Pts',(-40.4740268994787,-3.10000005215409,-8.38059020498812));
#1184=CARTESIAN_POINT('Ctrl Pts',(-40.4778761090226,-3.09999629698981,-8.38215768411892));
#1185=CARTESIAN_POINT('Ctrl Pts',(-40.673950708069,-3.09962501945172,-8.46111392025176));
#1186=CARTESIAN_POINT('Ctrl Pts',(-40.8830720930643,-3.09271124231018,-8.49952556424383));
#1187=CARTESIAN_POINT('Ctrl Pts',(-41.275708427528,-3.09271124231018,-8.49952556424383));
#1188=CARTESIAN_POINT('Ctrl Pts',(-41.4848298125233,-3.09962501945172,-8.46111392025176));
#1189=CARTESIAN_POINT('Ctrl Pts',(-41.6809044115696,-3.09999629698981,-8.38215768411892));
#1190=CARTESIAN_POINT('Ctrl Pts',(-41.6847536211135,-3.10000005215409,-8.38059020498812));
#1191=CARTESIAN_POINT('Ctrl Pts',(-41.6885961702509,-3.10000005215409,-8.37900795997421));
#1192=CARTESIAN_POINT('',(-42.6793902602961,-3.10000005215409,-6.89952556424382));
#1193=CARTESIAN_POINT('Origin',(-41.0793902602961,-3.10000005215409,-6.89952556424382));
#1194=CARTESIAN_POINT('',(-42.6793902602961,-3.10000005215409,-6.89952556424382));
#1195=CARTESIAN_POINT('Ctrl Pts',(-41.6885961702509,-1.10000005215409,-8.37900795997421));
#1196=CARTESIAN_POINT('Ctrl Pts',(-41.6847536211135,-1.10000005215409,-8.38059020498812));
#1197=CARTESIAN_POINT('Ctrl Pts',(-41.6809044115696,-1.10000380731838,-8.38215768411892));
#1198=CARTESIAN_POINT('Ctrl Pts',(-41.4848298125233,-1.10037508485647,-8.46111392025176));
#1199=CARTESIAN_POINT('Ctrl Pts',(-41.275708427528,-1.10728886199801,-8.49952556424383));
#1200=CARTESIAN_POINT('Ctrl Pts',(-40.8830720930643,-1.10728886199801,-8.49952556424383));
#1201=CARTESIAN_POINT('Ctrl Pts',(-40.673950708069,-1.10037508485647,-8.46111392025176));
#1202=CARTESIAN_POINT('Ctrl Pts',(-40.4778761090226,-1.10000380731838,-8.38215768411892));
#1203=CARTESIAN_POINT('Ctrl Pts',(-40.4740268994787,-1.10000005215409,-8.38059020498812));
#1204=CARTESIAN_POINT('Ctrl Pts',(-40.4701843503413,-1.10000005215409,-8.37900795997421));
#1205=CARTESIAN_POINT('Origin',(-41.0793902602961,-3.10000005215409,-6.89952556424382));
#1206=CARTESIAN_POINT('Origin',(-39.5793902602961,-2.10000005215409,-8.37900795997421));
#1207=CARTESIAN_POINT('',(-44.0793902602961,-3.10000005215409,-8.37900795997421));
#1208=CARTESIAN_POINT('Origin',(-44.0793902602961,-2.10000005215409,-8.37900795997421));
#1209=CARTESIAN_POINT('',(-39.5793902602961,-3.10000005215409,-8.37900795997421));
#1210=CARTESIAN_POINT('',(-39.5793902602961,-3.10000005215409,-8.37900795997421));
#1211=CARTESIAN_POINT('Origin',(-38.0793902602961,-3.10000005215409,5.77999204002579));
#1212=CARTESIAN_POINT('',(-44.0793902602961,-3.10000005215409,-2.37900795997421));
#1213=CARTESIAN_POINT('',(-39.5793902602961,-3.10000005215409,-2.37900795997421));
#1214=CARTESIAN_POINT('',(-44.0793902602961,-3.10000005215409,5.77999204002579));
#1215=CARTESIAN_POINT('Origin',(-48.0794190559165,-5.21540935438658E-8,
-0.379007959974212));
#1216=CARTESIAN_POINT('',(-44.0793902602961,0.999999947845907,-0.379007959974212));
#1217=CARTESIAN_POINT('',(-44.0793902602961,-5.21540935438658E-8,-1.37900795997421));
#1218=CARTESIAN_POINT('Origin',(-44.0793902602961,-5.21540935438658E-8,
-0.379007959974212));
#1219=CARTESIAN_POINT('',(-48.0794190559165,-5.21540935438658E-8,-1.37900795997421));
#1220=CARTESIAN_POINT('',(-48.0794190559165,0.999999947845907,-0.379007959974212));
#1221=CARTESIAN_POINT('Origin',(-41.0793902602961,-0.0500000521540929,-1.37900795997421));
#1222=CARTESIAN_POINT('',(-44.0793902602961,-2.10000005215409,-1.37900795997421));
#1223=CARTESIAN_POINT('',(-44.0793902602961,-0.575000052154093,-1.37900795997421));
#1224=CARTESIAN_POINT('',(-39.5793902602961,-2.10000005215409,-1.37900795997421));
#1225=CARTESIAN_POINT('Origin',(-47.636287137821,3.99999994784591,-0.379007959974212));
#1226=CARTESIAN_POINT('',(-44.0793902602961,3.99999994784591,-1.37900795997421));
#1227=CARTESIAN_POINT('',(-44.0793902602961,2.9999999478459,-0.379007959974212));
#1228=CARTESIAN_POINT('Origin',(-44.0793902602961,3.99999994784591,-0.379007959974212));
#1229=CARTESIAN_POINT('',(-47.636287137821,2.99999994784591,-0.379007959974212));
#1230=CARTESIAN_POINT('',(-47.636287137821,3.99999994784591,-1.37900795997421));
#1231=CARTESIAN_POINT('Origin',(-54.1793902602961,2.99999994784591,5.77999204002579));
#1232=CARTESIAN_POINT('',(-44.0793902602961,2.9999999478459,4.77999204002579));
#1233=CARTESIAN_POINT('',(-44.0793902602961,2.9999999478459,5.77999204002579));
#1234=CARTESIAN_POINT('',(-45.0793902602961,2.99999994784591,5.77999204002579));
#1235=CARTESIAN_POINT('Origin',(-45.0793902602961,2.99999994784591,4.77999204002579));
#1236=CARTESIAN_POINT('',(-53.1793902602961,2.99999994784591,5.77999204002579));
#1237=CARTESIAN_POINT('',(-54.1793902602961,2.99999994784591,5.77999204002579));
#1238=CARTESIAN_POINT('',(-53.1793902602961,2.99999994784591,7.77999204002579));
#1239=CARTESIAN_POINT('',(-53.1793902602961,2.99999994784591,10.4049920400258));
#1240=CARTESIAN_POINT('',(-39.0793902602961,2.99999994784591,7.77999204002579));
#1241=CARTESIAN_POINT('',(-54.1793902602961,2.99999994784591,7.77999204002579));
#1242=CARTESIAN_POINT('Origin',(-39.0793902602961,2.99999994784591,6.77999204002579));
#1243=CARTESIAN_POINT('Origin',(-42.586287137821,6.09999994784591,-2.37900795997421));
#1244=CARTESIAN_POINT('',(-42.586287137821,7.09999994784591,-2.37900795997421));
#1245=CARTESIAN_POINT('',(-42.586287137821,6.09999994784591,-1.37900795997421));
#1246=CARTESIAN_POINT('Origin',(-44.0793902602961,7.09999994784591,5.77999204002579));
#1247=CARTESIAN_POINT('',(-42.3293902602961,7.09999994784591,-6.89952556424382));
#1248=CARTESIAN_POINT('Origin',(-41.0793902602961,7.09999994784591,-6.89952556424382));
#1249=CARTESIAN_POINT('Origin',(-39.5793902602961,-2.10000005215409,-2.37900795997421));
#1250=CARTESIAN_POINT('Origin',(-44.0793902602961,-2.10000005215409,-2.37900795997421));
#1251=CARTESIAN_POINT('Origin',(-44.0793902602961,0.999999947845907,5.77999204002579));
#1252=CARTESIAN_POINT('',(-44.0793902602961,0.999999947845907,4.77999204002579));
#1253=CARTESIAN_POINT('',(-44.0793902602961,0.999999947845907,5.77999204002579));
#1254=CARTESIAN_POINT('',(-44.0793902602961,11.924999973271,4.77999204002579));
#1255=CARTESIAN_POINT('',(-44.0793902602961,2.9999999478459,-1.37900795997421));
#1256=CARTESIAN_POINT('',(-44.0793902602961,2.52499994784591,-1.37900795997421));
#1257=CARTESIAN_POINT('',(-44.0793902602961,2.9999999478459,-4.37900795997421));
#1258=CARTESIAN_POINT('',(-44.0793902602961,2.9999999478459,5.77999204002579));
#1259=CARTESIAN_POINT('',(-44.0793902602961,0.999999947845907,-4.37900795997421));
#1260=CARTESIAN_POINT('Origin',(-45.0793902602961,11.924999973271,4.77999204002579));
#1261=CARTESIAN_POINT('',(-45.0793902602961,0.999999947845907,5.77999204002579));
#1262=CARTESIAN_POINT('Origin',(-45.0793902602961,0.999999947845907,4.77999204002579));
#1263=CARTESIAN_POINT('',(-45.0793902602961,11.924999973271,5.77999204002579));
#1264=CARTESIAN_POINT('Origin',(-39.0793902602961,10.6749999478459,6.77999204002579));
#1265=CARTESIAN_POINT('',(-39.0793902602961,0.999999947845907,7.77999204002579));
#1266=CARTESIAN_POINT('Origin',(-39.0793902602961,0.999999947845907,6.77999204002579));
#1267=CARTESIAN_POINT('',(-39.0793902602961,10.6749999478459,7.77999204002579));
#1268=CARTESIAN_POINT('Origin',(-55.079447851537,0.999999947845907,6.77999204002579));
#1269=CARTESIAN_POINT('',(-54.9795054427778,0.999999947845907,7.77999204002579));
#1270=CARTESIAN_POINT('',(-54.1793902602961,0.999999947845907,7.77999204002579));
#1271=CARTESIAN_POINT('',(-54.9795054427778,0.999999947845907,5.77999204002579));
#1272=CARTESIAN_POINT('',(-54.9795054427778,0.999999947845907,10.9049920400258));
#1273=CARTESIAN_POINT('',(-55.9795054427778,0.999999947845907,5.77999204002579));
#1274=CARTESIAN_POINT('Origin',(-54.1793902602961,19.3499999478459,7.77999204002579));
#1275=CARTESIAN_POINT('',(-54.1793902602961,3.99999994784591,7.77999204002579));
#1276=CARTESIAN_POINT('Origin',(-53.1793902602961,3.99999994784591,7.77999204002579));
#1277=CARTESIAN_POINT('',(-54.1793902602961,18.3499999478459,7.77999204002579));
#1278=CARTESIAN_POINT('',(-54.1793902602961,19.3499999478459,7.77999204002579));
#1279=CARTESIAN_POINT('',(-55.9795054427778,18.3499999478459,7.77999204002579));
#1280=CARTESIAN_POINT('',(-54.1793902602961,18.3499999478459,7.77999204002579));
#1281=CARTESIAN_POINT('',(-55.9795054427778,1.99999994784591,7.77999204002579));
#1282=CARTESIAN_POINT('',(-55.9795054427778,19.3499999478459,7.77999204002579));
#1283=CARTESIAN_POINT('Origin',(-54.9795054427778,1.99999994784591,7.77999204002579));
#1284=CARTESIAN_POINT('Origin',(-54.6294190559166,20.3499999478459,10.2799920400258));
#1285=CARTESIAN_POINT('',(-55.9795054427778,20.3499999478459,11.2799920400258));
#1286=CARTESIAN_POINT('',(-55.9795054427778,19.3499999478459,10.2799920400258));
#1287=CARTESIAN_POINT('Origin',(-55.9795054427778,20.3499999478459,10.2799920400258));
#1288=CARTESIAN_POINT('',(-54.1793902602961,19.3499999478459,10.2799920400258));
#1289=CARTESIAN_POINT('',(-54.6294190559166,19.3499999478459,10.2799920400258));
#1290=CARTESIAN_POINT('',(-54.1793902602961,20.3499999478459,11.2799920400258));
#1291=CARTESIAN_POINT('Origin',(-54.1793902602961,20.3499999478459,10.2799920400258));
#1292=CARTESIAN_POINT('',(-54.6294190559166,20.3499999478459,11.2799920400258));
#1293=CARTESIAN_POINT('Origin',(-54.1793902602961,19.3499999478459,15.0299920400258));
#1294=CARTESIAN_POINT('',(-55.9795054427778,19.3499999478459,8.77999204002579));
#1295=CARTESIAN_POINT('',(-55.9795054427778,19.3499999478459,15.0299920400258));
#1296=CARTESIAN_POINT('',(-54.1793902602961,19.3499999478459,8.77999204002579));
#1297=CARTESIAN_POINT('',(-54.1793902602961,19.3499999478459,8.77999204002579));
#1298=CARTESIAN_POINT('',(-54.1793902602961,19.3499999478459,15.0299920400258));
#1299=CARTESIAN_POINT('Origin',(-55.9795054427778,19.3499999478459,15.0299920400258));
#1300=CARTESIAN_POINT('',(-55.9795054427778,25.3500000495463,11.2799920400258));
#1301=CARTESIAN_POINT('',(-55.9795054427778,21.099999973271,11.2799920400258));
#1302=CARTESIAN_POINT('',(-55.9795054427778,26.3500000495463,10.2799920400258));
#1303=CARTESIAN_POINT('Origin',(-55.9795054427778,25.3500000495463,10.2799920400258));
#1304=CARTESIAN_POINT('',(-55.9795054427778,26.3500000495463,6.77999204002579));
#1305=CARTESIAN_POINT('',(-55.9795054427778,26.3500000495463,15.0299920400258));
#1306=CARTESIAN_POINT('',(-55.9795054427778,25.3500000495463,5.77999204002579));
#1307=CARTESIAN_POINT('Origin',(-55.9795054427778,25.3500000495463,6.77999204002579));
#1308=CARTESIAN_POINT('',(-55.9795054427778,1.99999994784591,5.77999204002579));
#1309=CARTESIAN_POINT('',(-55.9795054427778,19.3499999478459,5.77999204002579));
#1310=CARTESIAN_POINT('',(-55.9795054427778,1.99999994784591,10.9049920400258));
#1311=CARTESIAN_POINT('Origin',(-55.9795054427778,18.3499999478459,8.77999204002579));
#1312=CARTESIAN_POINT('',(-55.9795054427778,24.45,8.779991876113));
#1313=CARTESIAN_POINT('Origin',(-55.9795054427778,22.85,8.779991876113));
#1314=CARTESIAN_POINT('Origin',(-55.5294766275996,25.3500000378109,10.2799920400258));
#1315=CARTESIAN_POINT('',(-54.1793902602961,25.3500000026047,11.2799920400258));
#1316=CARTESIAN_POINT('',(-54.1793902602961,26.3500000026047,10.2799920400258));
#1317=CARTESIAN_POINT('Origin',(-54.1793902602961,25.3500000026047,10.2799920400258));
#1318=CARTESIAN_POINT('',(-55.5294766015226,26.3500000378109,10.2799920400258));
#1319=CARTESIAN_POINT('',(-55.5294766275996,25.3500000378109,11.2799920400258));
#1320=CARTESIAN_POINT('Origin',(-55.9795054427778,26.3500000495463,15.0299920400258));
#1321=CARTESIAN_POINT('',(-54.1793902602961,26.3500000026047,6.77999204002579));
#1322=CARTESIAN_POINT('',(-54.1793902602961,26.3500000026047,15.0299920400258));
#1323=CARTESIAN_POINT('',(-55.5294766015226,26.3500000378109,6.77999204002579));
#1324=CARTESIAN_POINT('Origin',(-55.5294766275996,25.3500000378109,6.77999204002579));
#1325=CARTESIAN_POINT('',(-54.1793902602961,25.3500000026047,5.77999204002579));
#1326=CARTESIAN_POINT('Origin',(-54.1793902602961,25.3500000026047,6.77999204002579));
#1327=CARTESIAN_POINT('',(-55.5294766275996,25.3500000378109,5.77999204002579));
#1328=CARTESIAN_POINT('Origin',(-54.1793902602961,18.3499999478459,8.77999204002579));
#1329=CARTESIAN_POINT('Origin',(-54.1793902602961,18.3499999478459,8.77999204002579));
#1330=CARTESIAN_POINT('Origin',(-53.1793902602961,3.99999994784591,10.4049920400258));
#1331=CARTESIAN_POINT('',(-54.1793902602961,3.9999999478459,5.77999204002579));
#1332=CARTESIAN_POINT('Origin',(-53.1793902602961,3.99999994784591,5.77999204002579));
#1333=CARTESIAN_POINT('',(-54.1793902602961,3.99999994784591,10.4049920400258));
#1334=CARTESIAN_POINT('Origin',(-54.9795054427778,1.99999994784591,10.9049920400258));
#1335=CARTESIAN_POINT('Origin',(-54.9795054427778,1.99999994784591,5.77999204002579));
#1336=CARTESIAN_POINT('Origin',(-55.9795054427778,22.85,8.779991876113));
#1337=CARTESIAN_POINT('',(-54.1793902602778,24.45,8.779991876113));
#1338=CARTESIAN_POINT('',(-55.9795054427778,24.45,8.779991876113));
#1339=CARTESIAN_POINT('Origin',(-54.1793902602961,22.85,8.779991876113));
#1340=CARTESIAN_POINT('Origin',(-41.0793902602961,-3.10000005215409,-6.89952556424382));
#1341=CARTESIAN_POINT('',(-42.3293902602961,5.09999994784591,-6.89952556424382));
#1342=CARTESIAN_POINT('Origin',(-41.0793902602961,5.09999994784591,-6.89952556424382));
#1343=CARTESIAN_POINT('',(-42.3293902602961,-3.10000005215409,-6.89952556424382));
#1344=CARTESIAN_POINT('Origin',(-38.0793902602961,5.09999994784591,5.77999204002579));
#1345=CARTESIAN_POINT('',(-44.1069777703955,5.09999994784591,-4.37900795997421));
#1346=CARTESIAN_POINT('Origin',(-38.0793902602961,2.99999994784591,5.77999204002579));
#1347=CARTESIAN_POINT('',(-44.1069777703955,2.9999999478459,-1.37900795997421));
#1348=CARTESIAN_POINT('',(-39.586287137821,2.99999994784591,-1.37900795997421));
#1349=CARTESIAN_POINT('',(-44.1069777703955,2.9999999478459,-4.37900795997421));
#1350=CARTESIAN_POINT('',(-44.1069777703955,2.9999999478459,5.77999204002579));
#1351=CARTESIAN_POINT('',(-38.0793902602961,2.99999994784591,-4.37900795997421));
#1352=CARTESIAN_POINT('Origin',(-41.0931840153458,4.04999994784591,-1.37900795997421));
#1353=CARTESIAN_POINT('',(-44.1069777703955,5.09999994784591,-1.37900795997421));
#1354=CARTESIAN_POINT('',(-42.6000808928707,5.09999994784591,-1.37900795997421));
#1355=CARTESIAN_POINT('',(-44.1069777703955,3.52499994784591,-1.37900795997421));
#1356=CARTESIAN_POINT('Origin',(-44.1069777703955,5.09999994784591,5.77999204002579));
#1357=CARTESIAN_POINT('',(-44.1069777703955,5.09999994784591,-4.37900795997421));
#1358=CARTESIAN_POINT('',(-44.1069777703955,5.09999994784591,-4.37900795997421));
#1359=CARTESIAN_POINT('',(-44.1069777703955,5.09999994784591,5.77999204002579));
#1360=CARTESIAN_POINT('Origin',(-44.1069777703955,2.9999999478459,5.77999204002579));
#1361=CARTESIAN_POINT('',(-44.1069777703955,2.9999999478459,-4.37900795997421));
#1362=CARTESIAN_POINT('Origin',(-41.0793902602961,1.99999994784591,-4.37900795997421));
#1363=CARTESIAN_POINT('Origin',(-55.079447851537,22.8499999986961,11.2799920400258));
#1364=CARTESIAN_POINT('',(-54.1793902602961,24.6000000006504,11.2799920400258));
#1365=CARTESIAN_POINT('Origin',(-54.1793902602961,26.3500000026047,15.0299920400258));
#1366=CARTESIAN_POINT('',(-54.1793902602961,26.3500000026047,5.77999204002579));
#1367=CARTESIAN_POINT('Origin',(-55.079447851537,22.8499999986961,5.77999204002579));
#1368=UNCERTAINTY_MEASURE_WITH_UNIT(LENGTH_MEASURE(0.01),#1372,
'DISTANCE_ACCURACY_VALUE',
'Maximum model space distance between geometric entities at asserted c
onnectivities');
#1369=UNCERTAINTY_MEASURE_WITH_UNIT(LENGTH_MEASURE(0.01),#1372,
'DISTANCE_ACCURACY_VALUE',
'Maximum model space distance between geometric entities at asserted c
onnectivities');
#1370=(
GEOMETRIC_REPRESENTATION_CONTEXT(3)
GLOBAL_UNCERTAINTY_ASSIGNED_CONTEXT((#1368))
GLOBAL_UNIT_ASSIGNED_CONTEXT((#1372,#1374,#1375))
REPRESENTATION_CONTEXT('','3D')
);
#1371=(
GEOMETRIC_REPRESENTATION_CONTEXT(3)
GLOBAL_UNCERTAINTY_ASSIGNED_CONTEXT((#1369))
GLOBAL_UNIT_ASSIGNED_CONTEXT((#1372,#1374,#1375))
REPRESENTATION_CONTEXT('','3D')
);
#1372=(
LENGTH_UNIT()
NAMED_UNIT(*)
SI_UNIT(.MILLI.,.METRE.)
);
#1373=(
LENGTH_UNIT()
NAMED_UNIT(*)
SI_UNIT($,.METRE.)
);
#1374=(
NAMED_UNIT(*)
PLANE_ANGLE_UNIT()
SI_UNIT($,.RADIAN.)
);
#1375=(
NAMED_UNIT(*)
SI_UNIT($,.STERADIAN.)
SOLID_ANGLE_UNIT()
);
#1376=SHAPE_DEFINITION_REPRESENTATION(#1377,#1378);
#1377=PRODUCT_DEFINITION_SHAPE('',$,#1380);
#1378=SHAPE_REPRESENTATION('',(#811),#1370);
#1379=PRODUCT_DEFINITION_CONTEXT('part definition',#1384,'design');
#1380=PRODUCT_DEFINITION('## open-robot-raw','## open-robot-raw v23',#1381,
#1379);
#1381=PRODUCT_DEFINITION_FORMATION('',$,#1386);
#1382=PRODUCT_RELATED_PRODUCT_CATEGORY('## open-robot-raw v23',
'## open-robot-raw v23',(#1386));
#1383=APPLICATION_PROTOCOL_DEFINITION('international standard',
'automotive_design',2009,#1384);
#1384=APPLICATION_CONTEXT(
'Core Data for Automotive Mechanical Design Process');
#1385=PRODUCT_CONTEXT('part definition',#1384,'mechanical');
#1386=PRODUCT('## open-robot-raw','## open-robot-raw v23',$,(#1385));
#1387=PRESENTATION_STYLE_ASSIGNMENT((#1395));
#1388=PRESENTATION_STYLE_ASSIGNMENT((#1396));
#1389=PRESENTATION_STYLE_ASSIGNMENT((#1397));
#1390=PRESENTATION_STYLE_ASSIGNMENT((#1398));
#1391=PRESENTATION_STYLE_ASSIGNMENT((#1399));
#1392=PRESENTATION_STYLE_ASSIGNMENT((#1400));
#1393=PRESENTATION_STYLE_ASSIGNMENT((#1401));
#1394=PRESENTATION_STYLE_ASSIGNMENT((#1402));
#1395=SURFACE_STYLE_USAGE(.BOTH.,#1403);
#1396=SURFACE_STYLE_USAGE(.BOTH.,#1404);
#1397=SURFACE_STYLE_USAGE(.BOTH.,#1405);
#1398=SURFACE_STYLE_USAGE(.BOTH.,#1406);
#1399=SURFACE_STYLE_USAGE(.BOTH.,#1407);
#1400=SURFACE_STYLE_USAGE(.BOTH.,#1408);
#1401=SURFACE_STYLE_USAGE(.BOTH.,#1409);
#1402=SURFACE_STYLE_USAGE(.BOTH.,#1410);
#1403=SURFACE_SIDE_STYLE('',(#1411));
#1404=SURFACE_SIDE_STYLE('',(#1412));
#1405=SURFACE_SIDE_STYLE('',(#1413));
#1406=SURFACE_SIDE_STYLE('',(#1414));
#1407=SURFACE_SIDE_STYLE('',(#1415));
#1408=SURFACE_SIDE_STYLE('',(#1416));
#1409=SURFACE_SIDE_STYLE('',(#1417));
#1410=SURFACE_SIDE_STYLE('',(#1418));
#1411=SURFACE_STYLE_FILL_AREA(#1419);
#1412=SURFACE_STYLE_FILL_AREA(#1420);
#1413=SURFACE_STYLE_FILL_AREA(#1421);
#1414=SURFACE_STYLE_FILL_AREA(#1422);
#1415=SURFACE_STYLE_FILL_AREA(#1423);
#1416=SURFACE_STYLE_FILL_AREA(#1424);
#1417=SURFACE_STYLE_FILL_AREA(#1425);
#1418=SURFACE_STYLE_FILL_AREA(#1426);
#1419=FILL_AREA_STYLE('\X2\92FC\X0\ - \X2\30B530C630F3\X0\',(#1427));
#1420=FILL_AREA_STYLE('ABS(\X2\767D\X0\)',(#1428));
#1421=FILL_AREA_STYLE('\X2\30A230EB30DF30CB30A630E0\X0\ - \X2\3064308451FA3057\X0\',
(#1429));
#1422=FILL_AREA_STYLE('\X2\92FC\X0\ - \X2\30B530C630F3\X0\',(#1430));
#1423=FILL_AREA_STYLE(
'PA 12 - Nylon - PA 603-CF (EOS P 3D \X2\30D730EA30F330BF4F7F7528\X0\)',
(#1431));
#1424=FILL_AREA_STYLE('\X2\30DD30EA30AB30FC30DC30CD30FC30C8\X0\(\X2\30AF30EA30A2\X0\)',
(#1432));
#1425=FILL_AREA_STYLE('\X2\30A230AF30EA30EB\X0\(\X2\30AF30EA30A2\X0\)',
(#1433));
#1426=FILL_AREA_STYLE('ABS(kuro)',(#1434));
#1427=FILL_AREA_STYLE_COLOUR('\X2\92FC\X0\ - \X2\30B530C630F3\X0\',#1435);
#1428=FILL_AREA_STYLE_COLOUR('ABS(\X2\767D\X0\)',#1436);
#1429=FILL_AREA_STYLE_COLOUR('\X2\30A230EB30DF30CB30A630E0\X0\ - \X2\3064308451FA3057\X0\',
#1437);
#1430=FILL_AREA_STYLE_COLOUR('\X2\92FC\X0\ - \X2\30B530C630F3\X0\',#1438);
#1431=FILL_AREA_STYLE_COLOUR(
'PA 12 - Nylon - PA 603-CF (EOS P 3D \X2\30D730EA30F330BF4F7F7528\X0\)',
#1439);
#1432=FILL_AREA_STYLE_COLOUR('\X2\30DD30EA30AB30FC30DC30CD30FC30C8\X0\(
\X2\30AF30EA30A2\X0\)',#1440);
#1433=FILL_AREA_STYLE_COLOUR('\X2\30A230AF30EA30EB\X0\(\X2\30AF30EA30A2\X0\)',
#1441);
#1434=FILL_AREA_STYLE_COLOUR('ABS(kuro)',#1442);
#1435=COLOUR_RGB('\X2\92FC\X0\ - \X2\30B530C630F3\X0\',0.627450980392157,
0.627450980392157,0.627450980392157);
#1436=COLOUR_RGB('ABS(\X2\767D\X0\)',0.964705882352941,0.964705882352941,
0.952941176470588);
#1437=COLOUR_RGB('\X2\30A230EB30DF30CB30A630E0\X0\ - \X2\3064308451FA3057\X0\',
0.96078431372549,0.96078431372549,0.964705882352941);
#1438=COLOUR_RGB('\X2\92FC\X0\ - \X2\30B530C630F3\X0\',0.,0.,0.);
#1439=COLOUR_RGB(
'PA 12 - Nylon - PA 603-CF (EOS P 3D \X2\30D730EA30F330BF4F7F7528\X0\)',
0.247058823529412,0.247058823529412,0.247058823529412);
#1440=COLOUR_RGB('\X2\30DD30EA30AB30FC30DC30CD30FC30C8\X0\(\X2\30AF30EA30A2\X0\)',
0.964705882352941,0.964705882352941,0.952941176470588);
#1441=COLOUR_RGB('\X2\30A230AF30EA30EB\X0\(\X2\30AF30EA30A2\X0\)',0.964705882352941,
0.964705882352941,0.952941176470588);
#1442=COLOUR_RGB('ABS(kuro)',0.,0.,0.);
ENDSEC;
END-ISO-10303-21;
