ISO-10303-21;
HEADER;
/* Generated by software containing ST-Developer
 * from STEP Tools, Inc. (www.steptools.com) 
 */

FILE_DESCRIPTION(
/* description */ (''),
/* implementation_level */ '2;1');

FILE_NAME(
/* name */ 'tipkick-plate.step',
/* time_stamp */ '2026-05-16T00:33:54+09:00',
/* author */ (''),
/* organization */ (''),
/* preprocessor_version */ 'ST-DEVELOPER v20.1',
/* originating_system */ 'Autodesk Translation Framework v15.8.0.0',
/* authorisation */ '');

FILE_SCHEMA (('AUTOMOTIVE_DESIGN { 1 0 10303 214 3 1 1 }'));
ENDSEC;

DATA;
#10=MECHANICAL_DESIGN_GEOMETRIC_PRESENTATION_REPRESENTATION('',(#14,#15),
#934);
#11=SHAPE_REPRESENTATION_RELATIONSHIP('SRR','None',#941,#12);
#12=ADVANCED_BREP_SHAPE_REPRESENTATION('',(#13),#933);
#13=MANIFOLD_SOLID_BREP('\X2\30C130C330D730AD30C330AF677F\X0\',#434);
#14=STYLED_ITEM('',(#952),#426);
#15=STYLED_ITEM('',(#951),#13);
#16=FACE_BOUND('',#62,.T.);
#17=FACE_BOUND('',#73,.T.);
#18=FACE_BOUND('',#76,.T.);
#19=FACE_BOUND('',#81,.T.);
#20=PLANE('',#454);
#21=PLANE('',#461);
#22=PLANE('',#482);
#23=PLANE('',#483);
#24=PLANE('',#488);
#25=PLANE('',#495);
#26=(
BOUNDED_SURFACE()
B_SPLINE_SURFACE(2,2,((#643,#644,#645,#646,#647,#648,#649,#650,#651,#652,
#653),(#654,#655,#656,#657,#658,#659,#660,#661,#662,#663,#664),(#665,#666,
#667,#668,#669,#670,#671,#672,#673,#674,#675)),.UNSPECIFIED.,.F.,.T.,.F.)
B_SPLINE_SURFACE_WITH_KNOTS((3,3),(3,2,2,2,2,3),(-3.14159265358979,-1.5707963267949),
(2.19122419901523,3.14159265358979,4.71238898038469,6.28318530717959,7.85398163397448,
8.47440950619482),.UNSPECIFIED.)
GEOMETRIC_REPRESENTATION_ITEM()
RATIONAL_B_SPLINE_SURFACE(((0.860014558694898,0.822792763790659,1.,0.707106781186548,
1.,0.707106781186548,1.,0.707106781186548,1.,0.884314017395889,0.860014558694898),
(0.608122126372314,0.581802342787592,0.707106781186543,0.499999999999997,
0.707106781186543,0.499999999999997,0.707106781186543,0.499999999999997,
0.707106781186543,0.625304438398947,0.608122126372314),(0.860014558694898,
0.822792763790659,1.,0.707106781186548,1.,0.707106781186548,1.,0.707106781186548,
1.,0.884314017395889,0.860014558694898)))
REPRESENTATION_ITEM('')
SURFACE()
);
#27=(
BOUNDED_SURFACE()
B_SPLINE_SURFACE(2,2,((#720,#721,#722,#723,#724,#725,#726,#727,#728,#729,
#730),(#731,#732,#733,#734,#735,#736,#737,#738,#739,#740,#741),(#742,#743,
#744,#745,#746,#747,#748,#749,#750,#751,#752)),.UNSPECIFIED.,.F.,.T.,.F.)
B_SPLINE_SURFACE_WITH_KNOTS((3,3),(3,2,2,2,2,3),(-3.14159265358979,-1.5707963267949),
(-3.16727750082503,-3.14159265358979,-1.5707963267949,0.,1.5707963267949,
3.11590780635456),.UNSPECIFIED.)
GEOMETRIC_REPRESENTATION_ITEM()
RATIONAL_B_SPLINE_SURFACE(((0.990578146120133,0.995210761921751,1.,0.707106781186548,
1.,0.707106781186548,1.,0.707106781186548,1.,0.711896019264796,0.990578146120133),
(0.70044452441674,0.703720278464696,0.707106781186543,0.499999999999997,
0.707106781186543,0.499999999999997,0.707106781186543,0.499999999999997,
0.707106781186543,0.503386502721843,0.70044452441674),(0.990578146120133,
0.995210761921751,1.,0.707106781186548,1.,0.707106781186548,1.,0.707106781186548,
1.,0.711896019264796,0.990578146120133)))
REPRESENTATION_ITEM('')
SURFACE()
);
#28=(
BOUNDED_SURFACE()
B_SPLINE_SURFACE(2,2,((#811,#812,#813,#814,#815,#816,#817,#818,#819),(#820,
#821,#822,#823,#824,#825,#826,#827,#828),(#829,#830,#831,#832,#833,#834,
#835,#836,#837)),.UNSPECIFIED.,.F.,.T.,.F.)
B_SPLINE_SURFACE_WITH_KNOTS((3,3),(3,2,2,2,3),(-3.14159265358979,-1.5707963267949),
(-3.14159265358979,-1.5707963267949,0.,1.5707963267949,3.14159265358979),
 .UNSPECIFIED.)
GEOMETRIC_REPRESENTATION_ITEM()
RATIONAL_B_SPLINE_SURFACE(((1.,0.707106781186548,1.,0.707106781186548,1.,
0.707106781186548,1.,0.707106781186548,1.),(0.707106781186542,0.499999999999996,
0.707106781186542,0.499999999999996,0.707106781186542,0.499999999999996,
0.707106781186542,0.499999999999996,0.707106781186542),(1.,0.707106781186548,
1.,0.707106781186548,1.,0.707106781186548,1.,0.707106781186548,1.)))
REPRESENTATION_ITEM('')
SURFACE()
);
#29=(
BOUNDED_SURFACE()
B_SPLINE_SURFACE(2,2,((#866,#867,#868,#869,#870,#871,#872,#873,#874),(#875,
#876,#877,#878,#879,#880,#881,#882,#883),(#884,#885,#886,#887,#888,#889,
#890,#891,#892)),.UNSPECIFIED.,.F.,.T.,.F.)
B_SPLINE_SURFACE_WITH_KNOTS((3,3),(3,2,2,2,3),(-3.14159265358979,-1.5707963267949),
(-3.14159265358979,-1.5707963267949,0.,1.5707963267949,3.14159265358979),
 .UNSPECIFIED.)
GEOMETRIC_REPRESENTATION_ITEM()
RATIONAL_B_SPLINE_SURFACE(((1.,0.707106781186548,1.,0.707106781186548,1.,
0.707106781186548,1.,0.707106781186548,1.),(0.707106781186542,0.499999999999996,
0.707106781186542,0.499999999999996,0.707106781186542,0.499999999999996,
0.707106781186542,0.499999999999996,0.707106781186542),(1.,0.707106781186548,
1.,0.707106781186548,1.,0.707106781186548,1.,0.707106781186548,1.)))
REPRESENTATION_ITEM('')
SURFACE()
);
#30=FACE_OUTER_BOUND('',#54,.T.);
#31=FACE_OUTER_BOUND('',#55,.T.);
#32=FACE_OUTER_BOUND('',#56,.T.);
#33=FACE_OUTER_BOUND('',#57,.T.);
#34=FACE_OUTER_BOUND('',#58,.T.);
#35=FACE_OUTER_BOUND('',#59,.T.);
#36=FACE_OUTER_BOUND('',#60,.T.);
#37=FACE_OUTER_BOUND('',#61,.T.);
#38=FACE_OUTER_BOUND('',#63,.T.);
#39=FACE_OUTER_BOUND('',#64,.T.);
#40=FACE_OUTER_BOUND('',#65,.T.);
#41=FACE_OUTER_BOUND('',#66,.T.);
#42=FACE_OUTER_BOUND('',#67,.T.);
#43=FACE_OUTER_BOUND('',#68,.T.);
#44=FACE_OUTER_BOUND('',#69,.T.);
#45=FACE_OUTER_BOUND('',#70,.T.);
#46=FACE_OUTER_BOUND('',#71,.T.);
#47=FACE_OUTER_BOUND('',#72,.T.);
#48=FACE_OUTER_BOUND('',#74,.T.);
#49=FACE_OUTER_BOUND('',#75,.T.);
#50=FACE_OUTER_BOUND('',#77,.T.);
#51=FACE_OUTER_BOUND('',#78,.T.);
#52=FACE_OUTER_BOUND('',#79,.T.);
#53=FACE_OUTER_BOUND('',#80,.T.);
#54=EDGE_LOOP('',(#272,#273,#274,#275,#276));
#55=EDGE_LOOP('',(#277,#278,#279,#280));
#56=EDGE_LOOP('',(#281,#282,#283));
#57=EDGE_LOOP('',(#284,#285,#286,#287,#288,#289,#290,#291));
#58=EDGE_LOOP('',(#292,#293,#294,#295,#296));
#59=EDGE_LOOP('',(#297,#298,#299,#300));
#60=EDGE_LOOP('',(#301,#302,#303));
#61=EDGE_LOOP('',(#304,#305,#306,#307,#308,#309));
#62=EDGE_LOOP('',(#310));
#63=EDGE_LOOP('',(#311,#312,#313,#314,#315,#316));
#64=EDGE_LOOP('',(#317,#318,#319,#320,#321));
#65=EDGE_LOOP('',(#322,#323,#324,#325));
#66=EDGE_LOOP('',(#326,#327,#328));
#67=EDGE_LOOP('',(#329,#330,#331,#332,#333,#334));
#68=EDGE_LOOP('',(#335,#336,#337,#338,#339));
#69=EDGE_LOOP('',(#340,#341,#342,#343));
#70=EDGE_LOOP('',(#344,#345,#346));
#71=EDGE_LOOP('',(#347,#348,#349,#350,#351,#352,#353,#354));
#72=EDGE_LOOP('',(#355,#356,#357,#358,#359,#360));
#73=EDGE_LOOP('',(#361));
#74=EDGE_LOOP('',(#362,#363,#364,#365));
#75=EDGE_LOOP('',(#366,#367,#368,#369,#370,#371));
#76=EDGE_LOOP('',(#372));
#77=EDGE_LOOP('',(#373,#374,#375,#376));
#78=EDGE_LOOP('',(#377,#378,#379,#380,#381,#382,#383,#384));
#79=EDGE_LOOP('',(#385,#386,#387,#388));
#80=EDGE_LOOP('',(#389,#390,#391,#392,#393,#394));
#81=EDGE_LOOP('',(#395));
#82=ELLIPSE('',#450,1.41421356237309,1.);
#83=ELLIPSE('',#457,1.41421356237309,1.);
#84=ELLIPSE('',#470,1.4142135623731,1.);
#85=ELLIPSE('',#479,1.4142135623731,1.);
#86=B_SPLINE_CURVE_WITH_KNOTS('',3,(#630,#631,#632,#633,#634,#635),
 .UNSPECIFIED.,.F.,.F.,(4,2,4),(0.268960830268346,0.313212166121582,0.329834833889773),
 .UNSPECIFIED.);
#87=B_SPLINE_CURVE_WITH_KNOTS('',3,(#677,#678,#679,#680,#681,#682,#683,
#684,#685,#686,#687,#688,#689),.UNSPECIFIED.,.F.,.F.,(4,1,2,2,2,2,4),(-0.000728428128841747,
-0.000364214064420874,0.,0.0536301664062403,0.0917473172684064,0.127979947035727,
0.164963258917031),.UNSPECIFIED.);
#88=B_SPLINE_CURVE_WITH_KNOTS('',3,(#710,#711,#712,#713,#714,#715),
 .UNSPECIFIED.,.F.,.F.,(4,2,4),(0.538741944373778,0.555364612141748,0.599615947994985),
 .UNSPECIFIED.);
#89=B_SPLINE_CURVE_WITH_KNOTS('',3,(#754,#755,#756,#757,#758,#759,#760,
#761,#762,#763,#764,#765,#766),.UNSPECIFIED.,.F.,.F.,(4,2,2,2,2,1,4),(0.,
0.0353227417026278,0.0699285073134961,0.106334178029675,0.157556321722924,
0.157904182384059,0.158252043045194),.UNSPECIFIED.);
#90=B_SPLINE_CURVE_WITH_KNOTS('',3,(#783,#784,#785,#786,#787,#788),
 .UNSPECIFIED.,.F.,.F.,(4,2,4),(0.268960830268347,0.314574635464639,0.329939691378487),
 .UNSPECIFIED.);
#91=B_SPLINE_CURVE_WITH_KNOTS('',3,(#799,#800,#801,#802,#803,#804),
 .UNSPECIFIED.,.F.,.F.,(4,2,4),(0.538656252424912,0.55402130833876,0.599635113535052),
 .UNSPECIFIED.);
#92=B_SPLINE_CURVE_WITH_KNOTS('',3,(#839,#840,#841,#842,#843,#844,#845,
#846,#847,#848,#849,#850,#851),.UNSPECIFIED.,.F.,.F.,(4,2,2,2,2,1,4),(0.,
0.0353227417026183,0.0699285073134772,0.106334178029649,0.157556321722791,
0.157904182383959,0.158252043045128),.UNSPECIFIED.);
#93=B_SPLINE_CURVE_WITH_KNOTS('',3,(#893,#894,#895,#896,#897,#898,#899,
#900,#901,#902,#903,#904,#905),.UNSPECIFIED.,.F.,.F.,(4,1,2,2,2,2,4),(-0.000728428128908141,
-0.00036421406445407,0.,0.0536301664061881,0.0917473172683886,0.127979947035735,
0.164963258917064),.UNSPECIFIED.);
#94=CIRCLE('',#449,1.);
#95=CIRCLE('',#452,1.);
#96=CIRCLE('',#453,1.);
#97=CIRCLE('',#456,1.);
#98=CIRCLE('',#459,1.);
#99=CIRCLE('',#460,1.);
#100=CIRCLE('',#462,1.65);
#101=CIRCLE('',#463,3.);
#102=CIRCLE('',#464,1.);
#103=CIRCLE('',#465,1.25);
#104=CIRCLE('',#467,3.);
#105=CIRCLE('',#469,1.);
#106=CIRCLE('',#472,1.);
#107=CIRCLE('',#473,1.);
#108=CIRCLE('',#475,3.);
#109=CIRCLE('',#476,3.);
#110=CIRCLE('',#478,1.);
#111=CIRCLE('',#481,1.);
#112=CIRCLE('',#484,1.);
#113=CIRCLE('',#485,1.25);
#114=CIRCLE('',#487,1.);
#115=CIRCLE('',#489,1.65);
#116=CIRCLE('',#490,1.25);
#117=CIRCLE('',#492,1.25);
#118=LINE('',#624,#144);
#119=LINE('',#628,#145);
#120=LINE('',#639,#146);
#121=LINE('',#642,#147);
#122=LINE('',#693,#148);
#123=LINE('',#695,#149);
#124=LINE('',#697,#150);
#125=LINE('',#699,#151);
#126=LINE('',#701,#152);
#127=LINE('',#702,#153);
#128=LINE('',#706,#154);
#129=LINE('',#719,#155);
#130=LINE('',#774,#156);
#131=LINE('',#782,#157);
#132=LINE('',#792,#158);
#133=LINE('',#796,#159);
#134=LINE('',#807,#160);
#135=LINE('',#810,#161);
#136=LINE('',#859,#162);
#137=LINE('',#865,#163);
#138=LINE('',#907,#164);
#139=LINE('',#909,#165);
#140=LINE('',#911,#166);
#141=LINE('',#912,#167);
#142=LINE('',#926,#168);
#143=LINE('',#929,#169);
#144=VECTOR('',#500,10.);
#145=VECTOR('',#503,10.);
#146=VECTOR('',#508,10.);
#147=VECTOR('',#511,10.);
#148=VECTOR('',#516,10.);
#149=VECTOR('',#517,10.);
#150=VECTOR('',#518,10.);
#151=VECTOR('',#519,10.);
#152=VECTOR('',#520,10.);
#153=VECTOR('',#521,10.);
#154=VECTOR('',#524,10.);
#155=VECTOR('',#533,10.);
#156=VECTOR('',#542,10.);
#157=VECTOR('',#551,10.);
#158=VECTOR('',#554,10.);
#159=VECTOR('',#557,10.);
#160=VECTOR('',#562,10.);
#161=VECTOR('',#565,10.);
#162=VECTOR('',#576,10.);
#163=VECTOR('',#585,10.);
#164=VECTOR('',#588,10.);
#165=VECTOR('',#589,10.);
#166=VECTOR('',#590,10.);
#167=VECTOR('',#591,10.);
#168=VECTOR('',#612,1.25);
#169=VECTOR('',#617,1.25);
#170=VERTEX_POINT('',#622);
#171=VERTEX_POINT('',#623);
#172=VERTEX_POINT('',#625);
#173=VERTEX_POINT('',#627);
#174=VERTEX_POINT('',#629);
#175=VERTEX_POINT('',#638);
#176=VERTEX_POINT('',#640);
#177=VERTEX_POINT('',#676);
#178=VERTEX_POINT('',#692);
#179=VERTEX_POINT('',#694);
#180=VERTEX_POINT('',#696);
#181=VERTEX_POINT('',#698);
#182=VERTEX_POINT('',#700);
#183=VERTEX_POINT('',#704);
#184=VERTEX_POINT('',#705);
#185=VERTEX_POINT('',#708);
#186=VERTEX_POINT('',#717);
#187=VERTEX_POINT('',#753);
#188=VERTEX_POINT('',#769);
#189=VERTEX_POINT('',#771);
#190=VERTEX_POINT('',#773);
#191=VERTEX_POINT('',#776);
#192=VERTEX_POINT('',#779);
#193=VERTEX_POINT('',#781);
#194=VERTEX_POINT('',#790);
#195=VERTEX_POINT('',#791);
#196=VERTEX_POINT('',#793);
#197=VERTEX_POINT('',#795);
#198=VERTEX_POINT('',#797);
#199=VERTEX_POINT('',#806);
#200=VERTEX_POINT('',#808);
#201=VERTEX_POINT('',#838);
#202=VERTEX_POINT('',#857);
#203=VERTEX_POINT('',#858);
#204=VERTEX_POINT('',#863);
#205=VERTEX_POINT('',#908);
#206=VERTEX_POINT('',#910);
#207=VERTEX_POINT('',#915);
#208=VERTEX_POINT('',#921);
#209=VERTEX_POINT('',#924);
#210=EDGE_CURVE('',#170,#171,#118,.T.);
#211=EDGE_CURVE('',#171,#172,#94,.T.);
#212=EDGE_CURVE('',#172,#173,#119,.T.);
#213=EDGE_CURVE('',#173,#174,#86,.T.);
#214=EDGE_CURVE('',#174,#170,#82,.T.);
#215=EDGE_CURVE('',#175,#174,#120,.T.);
#216=EDGE_CURVE('',#175,#176,#95,.T.);
#217=EDGE_CURVE('',#176,#170,#121,.T.);
#218=EDGE_CURVE('',#177,#171,#87,.F.);
#219=EDGE_CURVE('',#177,#172,#96,.T.);
#220=EDGE_CURVE('',#178,#176,#122,.T.);
#221=EDGE_CURVE('',#179,#178,#123,.T.);
#222=EDGE_CURVE('',#180,#179,#124,.T.);
#223=EDGE_CURVE('',#181,#180,#125,.T.);
#224=EDGE_CURVE('',#182,#181,#126,.T.);
#225=EDGE_CURVE('',#171,#182,#127,.T.);
#226=EDGE_CURVE('',#183,#184,#128,.T.);
#227=EDGE_CURVE('',#184,#182,#97,.T.);
#228=EDGE_CURVE('',#181,#185,#83,.T.);
#229=EDGE_CURVE('',#185,#183,#88,.T.);
#230=EDGE_CURVE('',#180,#186,#98,.T.);
#231=EDGE_CURVE('',#186,#185,#129,.T.);
#232=EDGE_CURVE('',#187,#182,#89,.T.);
#233=EDGE_CURVE('',#184,#187,#99,.T.);
#234=EDGE_CURVE('',#188,#187,#100,.T.);
#235=EDGE_CURVE('',#189,#183,#101,.T.);
#236=EDGE_CURVE('',#190,#189,#130,.T.);
#237=EDGE_CURVE('',#188,#190,#102,.T.);
#238=EDGE_CURVE('',#191,#191,#103,.T.);
#239=EDGE_CURVE('',#192,#186,#104,.T.);
#240=EDGE_CURVE('',#192,#193,#131,.T.);
#241=EDGE_CURVE('',#189,#193,#90,.T.);
#242=EDGE_CURVE('',#194,#195,#132,.T.);
#243=EDGE_CURVE('',#195,#196,#105,.T.);
#244=EDGE_CURVE('',#196,#197,#133,.T.);
#245=EDGE_CURVE('',#197,#198,#84,.T.);
#246=EDGE_CURVE('',#198,#194,#91,.T.);
#247=EDGE_CURVE('',#197,#199,#134,.T.);
#248=EDGE_CURVE('',#199,#200,#106,.T.);
#249=EDGE_CURVE('',#200,#198,#135,.T.);
#250=EDGE_CURVE('',#201,#196,#92,.T.);
#251=EDGE_CURVE('',#195,#201,#107,.T.);
#252=EDGE_CURVE('',#173,#194,#108,.T.);
#253=EDGE_CURVE('',#175,#200,#109,.T.);
#254=EDGE_CURVE('',#202,#203,#136,.T.);
#255=EDGE_CURVE('',#203,#190,#110,.T.);
#256=EDGE_CURVE('',#193,#202,#85,.T.);
#257=EDGE_CURVE('',#192,#204,#111,.T.);
#258=EDGE_CURVE('',#204,#202,#137,.T.);
#259=EDGE_CURVE('',#188,#203,#93,.F.);
#260=EDGE_CURVE('',#196,#203,#138,.T.);
#261=EDGE_CURVE('',#205,#204,#139,.T.);
#262=EDGE_CURVE('',#206,#205,#140,.T.);
#263=EDGE_CURVE('',#199,#206,#141,.T.);
#264=EDGE_CURVE('',#205,#179,#112,.T.);
#265=EDGE_CURVE('',#207,#207,#113,.T.);
#266=EDGE_CURVE('',#178,#206,#114,.T.);
#267=EDGE_CURVE('',#177,#201,#115,.T.);
#268=EDGE_CURVE('',#208,#208,#116,.T.);
#269=EDGE_CURVE('',#209,#209,#117,.T.);
#270=EDGE_CURVE('',#209,#208,#142,.T.);
#271=EDGE_CURVE('',#207,#191,#143,.T.);
#272=ORIENTED_EDGE('',*,*,#210,.T.);
#273=ORIENTED_EDGE('',*,*,#211,.T.);
#274=ORIENTED_EDGE('',*,*,#212,.T.);
#275=ORIENTED_EDGE('',*,*,#213,.T.);
#276=ORIENTED_EDGE('',*,*,#214,.T.);
#277=ORIENTED_EDGE('',*,*,#215,.F.);
#278=ORIENTED_EDGE('',*,*,#216,.T.);
#279=ORIENTED_EDGE('',*,*,#217,.T.);
#280=ORIENTED_EDGE('',*,*,#214,.F.);
#281=ORIENTED_EDGE('',*,*,#218,.F.);
#282=ORIENTED_EDGE('',*,*,#219,.T.);
#283=ORIENTED_EDGE('',*,*,#211,.F.);
#284=ORIENTED_EDGE('',*,*,#210,.F.);
#285=ORIENTED_EDGE('',*,*,#217,.F.);
#286=ORIENTED_EDGE('',*,*,#220,.F.);
#287=ORIENTED_EDGE('',*,*,#221,.F.);
#288=ORIENTED_EDGE('',*,*,#222,.F.);
#289=ORIENTED_EDGE('',*,*,#223,.F.);
#290=ORIENTED_EDGE('',*,*,#224,.F.);
#291=ORIENTED_EDGE('',*,*,#225,.F.);
#292=ORIENTED_EDGE('',*,*,#226,.T.);
#293=ORIENTED_EDGE('',*,*,#227,.T.);
#294=ORIENTED_EDGE('',*,*,#224,.T.);
#295=ORIENTED_EDGE('',*,*,#228,.T.);
#296=ORIENTED_EDGE('',*,*,#229,.T.);
#297=ORIENTED_EDGE('',*,*,#223,.T.);
#298=ORIENTED_EDGE('',*,*,#230,.T.);
#299=ORIENTED_EDGE('',*,*,#231,.T.);
#300=ORIENTED_EDGE('',*,*,#228,.F.);
#301=ORIENTED_EDGE('',*,*,#232,.T.);
#302=ORIENTED_EDGE('',*,*,#227,.F.);
#303=ORIENTED_EDGE('',*,*,#233,.T.);
#304=ORIENTED_EDGE('',*,*,#234,.T.);
#305=ORIENTED_EDGE('',*,*,#233,.F.);
#306=ORIENTED_EDGE('',*,*,#226,.F.);
#307=ORIENTED_EDGE('',*,*,#235,.F.);
#308=ORIENTED_EDGE('',*,*,#236,.F.);
#309=ORIENTED_EDGE('',*,*,#237,.F.);
#310=ORIENTED_EDGE('',*,*,#238,.F.);
#311=ORIENTED_EDGE('',*,*,#231,.F.);
#312=ORIENTED_EDGE('',*,*,#239,.F.);
#313=ORIENTED_EDGE('',*,*,#240,.T.);
#314=ORIENTED_EDGE('',*,*,#241,.F.);
#315=ORIENTED_EDGE('',*,*,#235,.T.);
#316=ORIENTED_EDGE('',*,*,#229,.F.);
#317=ORIENTED_EDGE('',*,*,#242,.T.);
#318=ORIENTED_EDGE('',*,*,#243,.T.);
#319=ORIENTED_EDGE('',*,*,#244,.T.);
#320=ORIENTED_EDGE('',*,*,#245,.T.);
#321=ORIENTED_EDGE('',*,*,#246,.T.);
#322=ORIENTED_EDGE('',*,*,#247,.T.);
#323=ORIENTED_EDGE('',*,*,#248,.T.);
#324=ORIENTED_EDGE('',*,*,#249,.T.);
#325=ORIENTED_EDGE('',*,*,#245,.F.);
#326=ORIENTED_EDGE('',*,*,#250,.T.);
#327=ORIENTED_EDGE('',*,*,#243,.F.);
#328=ORIENTED_EDGE('',*,*,#251,.T.);
#329=ORIENTED_EDGE('',*,*,#215,.T.);
#330=ORIENTED_EDGE('',*,*,#213,.F.);
#331=ORIENTED_EDGE('',*,*,#252,.T.);
#332=ORIENTED_EDGE('',*,*,#246,.F.);
#333=ORIENTED_EDGE('',*,*,#249,.F.);
#334=ORIENTED_EDGE('',*,*,#253,.F.);
#335=ORIENTED_EDGE('',*,*,#254,.T.);
#336=ORIENTED_EDGE('',*,*,#255,.T.);
#337=ORIENTED_EDGE('',*,*,#236,.T.);
#338=ORIENTED_EDGE('',*,*,#241,.T.);
#339=ORIENTED_EDGE('',*,*,#256,.T.);
#340=ORIENTED_EDGE('',*,*,#240,.F.);
#341=ORIENTED_EDGE('',*,*,#257,.T.);
#342=ORIENTED_EDGE('',*,*,#258,.T.);
#343=ORIENTED_EDGE('',*,*,#256,.F.);
#344=ORIENTED_EDGE('',*,*,#259,.F.);
#345=ORIENTED_EDGE('',*,*,#237,.T.);
#346=ORIENTED_EDGE('',*,*,#255,.F.);
#347=ORIENTED_EDGE('',*,*,#244,.F.);
#348=ORIENTED_EDGE('',*,*,#260,.T.);
#349=ORIENTED_EDGE('',*,*,#254,.F.);
#350=ORIENTED_EDGE('',*,*,#258,.F.);
#351=ORIENTED_EDGE('',*,*,#261,.F.);
#352=ORIENTED_EDGE('',*,*,#262,.F.);
#353=ORIENTED_EDGE('',*,*,#263,.F.);
#354=ORIENTED_EDGE('',*,*,#247,.F.);
#355=ORIENTED_EDGE('',*,*,#264,.F.);
#356=ORIENTED_EDGE('',*,*,#261,.T.);
#357=ORIENTED_EDGE('',*,*,#257,.F.);
#358=ORIENTED_EDGE('',*,*,#239,.T.);
#359=ORIENTED_EDGE('',*,*,#230,.F.);
#360=ORIENTED_EDGE('',*,*,#222,.T.);
#361=ORIENTED_EDGE('',*,*,#265,.T.);
#362=ORIENTED_EDGE('',*,*,#266,.T.);
#363=ORIENTED_EDGE('',*,*,#262,.T.);
#364=ORIENTED_EDGE('',*,*,#264,.T.);
#365=ORIENTED_EDGE('',*,*,#221,.T.);
#366=ORIENTED_EDGE('',*,*,#267,.T.);
#367=ORIENTED_EDGE('',*,*,#251,.F.);
#368=ORIENTED_EDGE('',*,*,#242,.F.);
#369=ORIENTED_EDGE('',*,*,#252,.F.);
#370=ORIENTED_EDGE('',*,*,#212,.F.);
#371=ORIENTED_EDGE('',*,*,#219,.F.);
#372=ORIENTED_EDGE('',*,*,#268,.F.);
#373=ORIENTED_EDGE('',*,*,#269,.F.);
#374=ORIENTED_EDGE('',*,*,#270,.T.);
#375=ORIENTED_EDGE('',*,*,#268,.T.);
#376=ORIENTED_EDGE('',*,*,#270,.F.);
#377=ORIENTED_EDGE('',*,*,#267,.F.);
#378=ORIENTED_EDGE('',*,*,#218,.T.);
#379=ORIENTED_EDGE('',*,*,#225,.T.);
#380=ORIENTED_EDGE('',*,*,#232,.F.);
#381=ORIENTED_EDGE('',*,*,#234,.F.);
#382=ORIENTED_EDGE('',*,*,#259,.T.);
#383=ORIENTED_EDGE('',*,*,#260,.F.);
#384=ORIENTED_EDGE('',*,*,#250,.F.);
#385=ORIENTED_EDGE('',*,*,#265,.F.);
#386=ORIENTED_EDGE('',*,*,#271,.T.);
#387=ORIENTED_EDGE('',*,*,#238,.T.);
#388=ORIENTED_EDGE('',*,*,#271,.F.);
#389=ORIENTED_EDGE('',*,*,#266,.F.);
#390=ORIENTED_EDGE('',*,*,#220,.T.);
#391=ORIENTED_EDGE('',*,*,#216,.F.);
#392=ORIENTED_EDGE('',*,*,#253,.T.);
#393=ORIENTED_EDGE('',*,*,#248,.F.);
#394=ORIENTED_EDGE('',*,*,#263,.T.);
#395=ORIENTED_EDGE('',*,*,#269,.T.);
#396=CYLINDRICAL_SURFACE('',#448,1.);
#397=CYLINDRICAL_SURFACE('',#451,1.);
#398=CYLINDRICAL_SURFACE('',#455,1.);
#399=CYLINDRICAL_SURFACE('',#458,1.);
#400=CYLINDRICAL_SURFACE('',#466,3.);
#401=CYLINDRICAL_SURFACE('',#468,1.);
#402=CYLINDRICAL_SURFACE('',#471,1.);
#403=CYLINDRICAL_SURFACE('',#474,3.);
#404=CYLINDRICAL_SURFACE('',#477,1.);
#405=CYLINDRICAL_SURFACE('',#480,1.);
#406=CYLINDRICAL_SURFACE('',#486,1.);
#407=CYLINDRICAL_SURFACE('',#491,1.25);
#408=CYLINDRICAL_SURFACE('',#493,1.65);
#409=CYLINDRICAL_SURFACE('',#494,1.25);
#410=ADVANCED_FACE('',(#30),#396,.F.);
#411=ADVANCED_FACE('',(#31),#397,.F.);
#412=ADVANCED_FACE('',(#32),#26,.T.);
#413=ADVANCED_FACE('',(#33),#20,.T.);
#414=ADVANCED_FACE('',(#34),#398,.F.);
#415=ADVANCED_FACE('',(#35),#399,.F.);
#416=ADVANCED_FACE('',(#36),#27,.T.);
#417=ADVANCED_FACE('',(#37,#16),#21,.F.);
#418=ADVANCED_FACE('',(#38),#400,.T.);
#419=ADVANCED_FACE('',(#39),#401,.F.);
#420=ADVANCED_FACE('',(#40),#402,.F.);
#421=ADVANCED_FACE('',(#41),#28,.T.);
#422=ADVANCED_FACE('',(#42),#403,.T.);
#423=ADVANCED_FACE('',(#43),#404,.F.);
#424=ADVANCED_FACE('',(#44),#405,.F.);
#425=ADVANCED_FACE('',(#45),#29,.T.);
#426=ADVANCED_FACE('',(#46),#22,.T.);
#427=ADVANCED_FACE('',(#47,#17),#23,.T.);
#428=ADVANCED_FACE('',(#48),#406,.T.);
#429=ADVANCED_FACE('',(#49,#18),#24,.T.);
#430=ADVANCED_FACE('',(#50),#407,.F.);
#431=ADVANCED_FACE('',(#51),#408,.F.);
#432=ADVANCED_FACE('',(#52),#409,.F.);
#433=ADVANCED_FACE('',(#53,#19),#25,.F.);
#434=CLOSED_SHELL('',(#410,#411,#412,#413,#414,#415,#416,#417,#418,#419,
#420,#421,#422,#423,#424,#425,#426,#427,#428,#429,#430,#431,#432,#433));
#435=DERIVED_UNIT_ELEMENT(#437,1.);
#436=DERIVED_UNIT_ELEMENT(#936,-3.);
#437=(
MASS_UNIT()
NAMED_UNIT(*)
SI_UNIT(.KILO.,.GRAM.)
);
#438=DERIVED_UNIT((#435,#436));
#439=MEASURE_REPRESENTATION_ITEM('density measure',
POSITIVE_RATIO_MEASURE(7850.),#438);
#440=PROPERTY_DEFINITION_REPRESENTATION(#445,#442);
#441=PROPERTY_DEFINITION_REPRESENTATION(#446,#443);
#442=REPRESENTATION('material name',(#444),#933);
#443=REPRESENTATION('density',(#439),#933);
#444=DESCRIPTIVE_REPRESENTATION_ITEM('\X2\92FC\X0\','\X2\92FC\X0\');
#445=PROPERTY_DEFINITION('material property','material name',#943);
#446=PROPERTY_DEFINITION('material property','density of part',#943);
#447=AXIS2_PLACEMENT_3D('',#620,#496,#497);
#448=AXIS2_PLACEMENT_3D('',#621,#498,#499);
#449=AXIS2_PLACEMENT_3D('',#626,#501,#502);
#450=AXIS2_PLACEMENT_3D('',#636,#504,#505);
#451=AXIS2_PLACEMENT_3D('',#637,#506,#507);
#452=AXIS2_PLACEMENT_3D('',#641,#509,#510);
#453=AXIS2_PLACEMENT_3D('',#690,#512,#513);
#454=AXIS2_PLACEMENT_3D('',#691,#514,#515);
#455=AXIS2_PLACEMENT_3D('',#703,#522,#523);
#456=AXIS2_PLACEMENT_3D('',#707,#525,#526);
#457=AXIS2_PLACEMENT_3D('',#709,#527,#528);
#458=AXIS2_PLACEMENT_3D('',#716,#529,#530);
#459=AXIS2_PLACEMENT_3D('',#718,#531,#532);
#460=AXIS2_PLACEMENT_3D('',#767,#534,#535);
#461=AXIS2_PLACEMENT_3D('',#768,#536,#537);
#462=AXIS2_PLACEMENT_3D('',#770,#538,#539);
#463=AXIS2_PLACEMENT_3D('',#772,#540,#541);
#464=AXIS2_PLACEMENT_3D('',#775,#543,#544);
#465=AXIS2_PLACEMENT_3D('',#777,#545,#546);
#466=AXIS2_PLACEMENT_3D('',#778,#547,#548);
#467=AXIS2_PLACEMENT_3D('',#780,#549,#550);
#468=AXIS2_PLACEMENT_3D('',#789,#552,#553);
#469=AXIS2_PLACEMENT_3D('',#794,#555,#556);
#470=AXIS2_PLACEMENT_3D('',#798,#558,#559);
#471=AXIS2_PLACEMENT_3D('',#805,#560,#561);
#472=AXIS2_PLACEMENT_3D('',#809,#563,#564);
#473=AXIS2_PLACEMENT_3D('',#852,#566,#567);
#474=AXIS2_PLACEMENT_3D('',#853,#568,#569);
#475=AXIS2_PLACEMENT_3D('',#854,#570,#571);
#476=AXIS2_PLACEMENT_3D('',#855,#572,#573);
#477=AXIS2_PLACEMENT_3D('',#856,#574,#575);
#478=AXIS2_PLACEMENT_3D('',#860,#577,#578);
#479=AXIS2_PLACEMENT_3D('',#861,#579,#580);
#480=AXIS2_PLACEMENT_3D('',#862,#581,#582);
#481=AXIS2_PLACEMENT_3D('',#864,#583,#584);
#482=AXIS2_PLACEMENT_3D('',#906,#586,#587);
#483=AXIS2_PLACEMENT_3D('',#913,#592,#593);
#484=AXIS2_PLACEMENT_3D('',#914,#594,#595);
#485=AXIS2_PLACEMENT_3D('',#916,#596,#597);
#486=AXIS2_PLACEMENT_3D('',#917,#598,#599);
#487=AXIS2_PLACEMENT_3D('',#918,#600,#601);
#488=AXIS2_PLACEMENT_3D('',#919,#602,#603);
#489=AXIS2_PLACEMENT_3D('',#920,#604,#605);
#490=AXIS2_PLACEMENT_3D('',#922,#606,#607);
#491=AXIS2_PLACEMENT_3D('',#923,#608,#609);
#492=AXIS2_PLACEMENT_3D('',#925,#610,#611);
#493=AXIS2_PLACEMENT_3D('',#927,#613,#614);
#494=AXIS2_PLACEMENT_3D('',#928,#615,#616);
#495=AXIS2_PLACEMENT_3D('',#930,#618,#619);
#496=DIRECTION('axis',(0.,0.,1.));
#497=DIRECTION('refdir',(1.,0.,0.));
#498=DIRECTION('center_axis',(0.,0.766044443118978,-0.64278760968654));
#499=DIRECTION('ref_axis',(-0.70710678118655,0.45451947767204,0.541675220419702));
#500=DIRECTION('',(0.,-0.766044443118978,0.64278760968654));
#501=DIRECTION('center_axis',(0.,-0.766044443118977,0.642787609686541));
#502=DIRECTION('ref_axis',(0.,0.642787609686541,0.766044443118977));
#503=DIRECTION('',(0.,0.766044443118978,-0.64278760968654));
#504=DIRECTION('center_axis',(-0.707106781186546,0.541675220419701,-0.454519477672048));
#505=DIRECTION('ref_axis',(-0.707106781186549,-0.541675220419702,0.454519477672041));
#506=DIRECTION('center_axis',(-1.,0.,0.));
#507=DIRECTION('ref_axis',(0.,0.173648177666932,0.984807753012208));
#508=DIRECTION('',(1.,0.,0.));
#509=DIRECTION('center_axis',(-1.,0.,0.));
#510=DIRECTION('ref_axis',(0.,0.173648177666932,0.984807753012208));
#511=DIRECTION('',(1.,0.,0.));
#512=DIRECTION('center_axis',(1.,0.,0.));
#513=DIRECTION('ref_axis',(0.,0.642787609686541,0.766044443118977));
#514=DIRECTION('center_axis',(0.,-0.64278760968654,-0.766044443118978));
#515=DIRECTION('ref_axis',(0.,0.766044443118978,-0.64278760968654));
#516=DIRECTION('',(0.,-0.766044443118977,0.64278760968654));
#517=DIRECTION('',(-1.,0.,0.));
#518=DIRECTION('',(0.,0.766044443118977,-0.64278760968654));
#519=DIRECTION('',(1.,0.,0.));
#520=DIRECTION('',(0.,0.766044443118978,-0.64278760968654));
#521=DIRECTION('',(1.,0.,0.));
#522=DIRECTION('center_axis',(0.,-0.766044443118978,0.64278760968654));
#523=DIRECTION('ref_axis',(0.70710678118655,0.45451947767204,0.541675220419702));
#524=DIRECTION('',(0.,-0.766044443118978,0.64278760968654));
#525=DIRECTION('center_axis',(0.,-0.766044443118977,0.642787609686541));
#526=DIRECTION('ref_axis',(1.,0.,0.));
#527=DIRECTION('center_axis',(0.707106781186546,0.541675220419701,-0.454519477672047));
#528=DIRECTION('ref_axis',(-0.707106781186549,0.541675220419702,-0.454519477672041));
#529=DIRECTION('center_axis',(-1.,0.,0.));
#530=DIRECTION('ref_axis',(0.,0.173648177666932,0.984807753012208));
#531=DIRECTION('center_axis',(1.,0.,0.));
#532=DIRECTION('ref_axis',(0.,0.173648177666932,0.984807753012208));
#533=DIRECTION('',(-1.,0.,0.));
#534=DIRECTION('center_axis',(-1.,0.,0.));
#535=DIRECTION('ref_axis',(0.,0.642787609686541,0.766044443118977));
#536=DIRECTION('center_axis',(1.,0.,0.));
#537=DIRECTION('ref_axis',(0.,1.,0.));
#538=DIRECTION('center_axis',(-1.,0.,0.));
#539=DIRECTION('ref_axis',(0.,1.,0.));
#540=DIRECTION('center_axis',(1.,0.,0.));
#541=DIRECTION('ref_axis',(0.,1.,0.));
#542=DIRECTION('',(0.,0.766044443118978,-0.64278760968654));
#543=DIRECTION('center_axis',(-1.,0.,0.));
#544=DIRECTION('ref_axis',(0.,-0.642787609686542,-0.766044443118976));
#545=DIRECTION('center_axis',(-1.,0.,0.));
#546=DIRECTION('ref_axis',(0.,1.,0.));
#547=DIRECTION('center_axis',(1.,0.,0.));
#548=DIRECTION('ref_axis',(0.,-0.766044443118833,0.642787609686712));
#549=DIRECTION('center_axis',(1.,0.,0.));
#550=DIRECTION('ref_axis',(0.,1.,0.));
#551=DIRECTION('',(-1.,0.,0.));
#552=DIRECTION('center_axis',(0.,-0.766044443118978,0.64278760968654));
#553=DIRECTION('ref_axis',(-0.707106781186549,-0.45451947767204,-0.541675220419703));
#554=DIRECTION('',(0.,-0.766044443118978,0.64278760968654));
#555=DIRECTION('center_axis',(0.,-0.766044443118976,0.642787609686542));
#556=DIRECTION('ref_axis',(-1.,0.,0.));
#557=DIRECTION('',(0.,0.766044443118978,-0.64278760968654));
#558=DIRECTION('center_axis',(-0.707106781186548,0.541675220419701,-0.454519477672044));
#559=DIRECTION('ref_axis',(0.707106781186547,0.541675220419703,-0.454519477672044));
#560=DIRECTION('center_axis',(1.,0.,0.));
#561=DIRECTION('ref_axis',(0.,-0.93969262078591,-0.342020143325665));
#562=DIRECTION('',(-1.,0.,0.));
#563=DIRECTION('center_axis',(-1.,0.,0.));
#564=DIRECTION('ref_axis',(0.,-0.93969262078591,-0.342020143325665));
#565=DIRECTION('',(1.,0.,0.));
#566=DIRECTION('center_axis',(1.,0.,0.));
#567=DIRECTION('ref_axis',(0.,-0.642787609686542,-0.766044443118976));
#568=DIRECTION('center_axis',(-1.,0.,0.));
#569=DIRECTION('ref_axis',(0.,-0.766044443118834,0.642787609686711));
#570=DIRECTION('center_axis',(-1.,0.,0.));
#571=DIRECTION('ref_axis',(0.,1.,0.));
#572=DIRECTION('center_axis',(-1.,0.,0.));
#573=DIRECTION('ref_axis',(0.,1.,0.));
#574=DIRECTION('center_axis',(0.,0.766044443118978,-0.64278760968654));
#575=DIRECTION('ref_axis',(0.707106781186549,-0.45451947767204,-0.541675220419703));
#576=DIRECTION('',(0.,-0.766044443118978,0.64278760968654));
#577=DIRECTION('center_axis',(0.,-0.766044443118976,0.642787609686542));
#578=DIRECTION('ref_axis',(0.,-0.642787609686542,-0.766044443118976));
#579=DIRECTION('center_axis',(0.707106781186548,0.541675220419701,-0.454519477672044));
#580=DIRECTION('ref_axis',(0.707106781186547,-0.541675220419702,0.454519477672044));
#581=DIRECTION('center_axis',(1.,0.,0.));
#582=DIRECTION('ref_axis',(0.,-0.93969262078591,-0.342020143325664));
#583=DIRECTION('center_axis',(1.,0.,0.));
#584=DIRECTION('ref_axis',(0.,-0.93969262078591,-0.342020143325664));
#585=DIRECTION('',(-1.,0.,0.));
#586=DIRECTION('center_axis',(0.,0.64278760968654,0.766044443118978));
#587=DIRECTION('ref_axis',(0.,-0.766044443118978,0.64278760968654));
#588=DIRECTION('',(1.,0.,0.));
#589=DIRECTION('',(0.,-0.766044443118978,0.64278760968654));
#590=DIRECTION('',(1.,0.,0.));
#591=DIRECTION('',(0.,0.766044443118978,-0.64278760968654));
#592=DIRECTION('center_axis',(1.,0.,0.));
#593=DIRECTION('ref_axis',(0.,1.,0.));
#594=DIRECTION('center_axis',(-1.,0.,0.));
#595=DIRECTION('ref_axis',(0.,0.996194698091746,0.0871557427476582));
#596=DIRECTION('center_axis',(-1.,0.,0.));
#597=DIRECTION('ref_axis',(0.,1.,0.));
#598=DIRECTION('center_axis',(-1.,0.,0.));
#599=DIRECTION('ref_axis',(0.,0.996194698091746,0.0871557427476582));
#600=DIRECTION('center_axis',(1.,0.,0.));
#601=DIRECTION('ref_axis',(0.,0.0871557427476713,-0.996194698091744));
#602=DIRECTION('center_axis',(1.,0.,0.));
#603=DIRECTION('ref_axis',(0.,1.,0.));
#604=DIRECTION('center_axis',(1.,0.,0.));
#605=DIRECTION('ref_axis',(0.,1.,0.));
#606=DIRECTION('center_axis',(1.,0.,0.));
#607=DIRECTION('ref_axis',(0.,1.,0.));
#608=DIRECTION('center_axis',(-1.,0.,0.));
#609=DIRECTION('ref_axis',(0.,1.,0.));
#610=DIRECTION('center_axis',(1.,0.,0.));
#611=DIRECTION('ref_axis',(0.,1.,0.));
#612=DIRECTION('',(1.,0.,0.));
#613=DIRECTION('center_axis',(1.,0.,0.));
#614=DIRECTION('ref_axis',(0.,1.,0.));
#615=DIRECTION('center_axis',(1.,0.,0.));
#616=DIRECTION('ref_axis',(0.,1.,0.));
#617=DIRECTION('',(-1.,0.,0.));
#618=DIRECTION('center_axis',(1.,0.,0.));
#619=DIRECTION('ref_axis',(0.,1.,0.));
#620=CARTESIAN_POINT('',(0.,0.,0.));
#621=CARTESIAN_POINT('Origin',(-18.335,65.0140381368662,5.66887097716091));
#622=CARTESIAN_POINT('',(-18.335,67.8077876728904,4.63004406121356));
#623=CARTESIAN_POINT('',(-18.335,66.1595196128908,6.01310518244054));
#624=CARTESIAN_POINT('',(-18.335,65.6568257465527,6.43491542027988));
#625=CARTESIAN_POINT('',(-19.335,65.5167320032043,5.24706073932156));
#626=CARTESIAN_POINT('Origin',(-18.335,65.5167320032043,5.24706073932156));
#627=CARTESIAN_POINT('',(-19.335,66.2242717191281,4.65336442464656));
#628=CARTESIAN_POINT('',(-19.335,65.0140381368662,5.66887097716091));
#629=CARTESIAN_POINT('',(-19.2010254037844,66.8229799198782,4.80369223888049));
#630=CARTESIAN_POINT('Ctrl Pts',(-19.335,66.2242717191281,4.65336442464656));
#631=CARTESIAN_POINT('Ctrl Pts',(-19.335,66.3702719056608,4.67437654356117));
#632=CARTESIAN_POINT('Ctrl Pts',(-19.3156878526283,66.5265331374713,4.70904010411613));
#633=CARTESIAN_POINT('Ctrl Pts',(-19.2491488453642,66.7224648787942,4.76856401736083));
#634=CARTESIAN_POINT('Ctrl Pts',(-19.2270122201908,66.7741406806487,4.78591620953675));
#635=CARTESIAN_POINT('Ctrl Pts',(-19.2010254037846,66.8229799198779,4.80369223888038));
#636=CARTESIAN_POINT('Origin',(-18.335,67.1650000632039,3.86399961809459));
#637=CARTESIAN_POINT('Origin',(0.,67.1650000632039,3.86399961809458));
#638=CARTESIAN_POINT('',(-24.335,66.8229799198782,4.80369223888049));
#639=CARTESIAN_POINT('',(0.,66.8229799198782,4.80369223888049));
#640=CARTESIAN_POINT('',(-24.335,67.8077876728904,4.63004406121357));
#641=CARTESIAN_POINT('Origin',(-24.335,67.1650000632039,3.86399961809458));
#642=CARTESIAN_POINT('',(0.,67.8077876728904,4.63004406121356));
#643=CARTESIAN_POINT('Ctrl Pts',(-18.335,66.1595196128908,6.01310518244054));
#644=CARTESIAN_POINT('Ctrl Pts',(-18.335,66.1595196128908,6.01310518244054));
#645=CARTESIAN_POINT('Ctrl Pts',(-18.335,66.1595196128908,6.01310518244054));
#646=CARTESIAN_POINT('Ctrl Pts',(-18.335,66.1595196128908,6.01310518244054));
#647=CARTESIAN_POINT('Ctrl Pts',(-18.335,66.1595196128908,6.01310518244054));
#648=CARTESIAN_POINT('Ctrl Pts',(-18.335,66.1595196128908,6.01310518244054));
#649=CARTESIAN_POINT('Ctrl Pts',(-18.335,66.1595196128908,6.01310518244054));
#650=CARTESIAN_POINT('Ctrl Pts',(-18.335,66.1595196128908,6.01310518244054));
#651=CARTESIAN_POINT('Ctrl Pts',(-18.335,66.1595196128908,6.01310518244054));
#652=CARTESIAN_POINT('Ctrl Pts',(-18.335,66.1595196128908,6.01310518244054));
#653=CARTESIAN_POINT('Ctrl Pts',(-18.335,66.1595196128908,6.01310518244054));
#654=CARTESIAN_POINT('Ctrl Pts',(-19.335,66.1595196128908,6.01310518244054));
#655=CARTESIAN_POINT('Ctrl Pts',(-19.335,66.1595196128908,6.01310518244054));
#656=CARTESIAN_POINT('Ctrl Pts',(-19.335,66.1595196128908,6.01310518244054));
#657=CARTESIAN_POINT('Ctrl Pts',(-19.335,66.1595196128908,6.01310518244054));
#658=CARTESIAN_POINT('Ctrl Pts',(-19.335,66.1595196128908,6.01310518244054));
#659=CARTESIAN_POINT('Ctrl Pts',(-19.335,66.1595196128908,6.01310518244054));
#660=CARTESIAN_POINT('Ctrl Pts',(-19.335,66.1595196128908,6.01310518244054));
#661=CARTESIAN_POINT('Ctrl Pts',(-19.335,66.1595196128908,6.01310518244054));
#662=CARTESIAN_POINT('Ctrl Pts',(-19.335,66.1595196128908,6.01310518244054));
#663=CARTESIAN_POINT('Ctrl Pts',(-19.335,66.1595196128908,6.01310518244054));
#664=CARTESIAN_POINT('Ctrl Pts',(-19.335,66.1595196128908,6.01310518244054));
#665=CARTESIAN_POINT('Ctrl Pts',(-19.335,65.1632415642935,6.09930291955186));
#666=CARTESIAN_POINT('Ctrl Pts',(-19.335,65.1184225254494,5.58128207520011));
#667=CARTESIAN_POINT('Ctrl Pts',(-19.335,65.5167320032043,5.24706073932156));
#668=CARTESIAN_POINT('Ctrl Pts',(-19.335,66.2827764463232,4.60427312963502));
#669=CARTESIAN_POINT('Ctrl Pts',(-19.335,66.9255640560098,5.370317572754));
#670=CARTESIAN_POINT('Ctrl Pts',(-19.335,67.5683516656963,6.13636201587297));
#671=CARTESIAN_POINT('Ctrl Pts',(-19.335,66.8023072225773,6.77914962555952));
#672=CARTESIAN_POINT('Ctrl Pts',(-19.335,66.0362627794584,7.42193723524606));
#673=CARTESIAN_POINT('Ctrl Pts',(-19.335,65.3934751697718,6.65589279212708));
#674=CARTESIAN_POINT('Ctrl Pts',(-19.335,65.1904651784393,6.41395490562408));
#675=CARTESIAN_POINT('Ctrl Pts',(-19.335,65.1632415642935,6.09930291955186));
#676=CARTESIAN_POINT('',(-19.335,65.1632415633911,6.0993029091222));
#677=CARTESIAN_POINT('Ctrl Pts',(-18.335,66.1595196128908,6.01310518244054));
#678=CARTESIAN_POINT('Ctrl Pts',(-18.3362140388291,66.159519612883,6.01310518247522));
#679=CARTESIAN_POINT('Ctrl Pts',(-18.3386420198642,66.1595411804752,6.01311004073914));
#680=CARTESIAN_POINT('Ctrl Pts',(-18.3410701699896,66.1595023585517,6.01310129572592));
#681=CARTESIAN_POINT('Ctrl Pts',(-18.5210466633176,66.1582233855918,6.01281321032017));
#682=CARTESIAN_POINT('Ctrl Pts',(-18.6918898546846,66.1105859119771,6.00056954323923));
#683=CARTESIAN_POINT('Ctrl Pts',(-18.9440403658944,65.9646291576839,5.98017388080603));
#684=CARTESIAN_POINT('Ctrl Pts',(-19.0362877232102,65.88534757469,5.97243661315702));
#685=CARTESIAN_POINT('Ctrl Pts',(-19.1844706731983,65.7011251884156,5.9731085070954));
#686=CARTESIAN_POINT('Ctrl Pts',(-19.2400430868363,65.6001202086187,5.98093303634548));
#687=CARTESIAN_POINT('Ctrl Pts',(-19.316271198102,65.3838298307134,6.02145429111075));
#688=CARTESIAN_POINT('Ctrl Pts',(-19.335,65.2719547717134,6.05408423897923));
#689=CARTESIAN_POINT('Ctrl Pts',(-19.335,65.1632415633911,6.0993029091222));
#690=CARTESIAN_POINT('Origin',(-19.335,66.1595196128908,6.01310518244054));
#691=CARTESIAN_POINT('Origin',(0.,66.1595196128908,6.01310518244053));
#692=CARTESIAN_POINT('',(-24.335,83.5480343882128,-8.57759115225282));
#693=CARTESIAN_POINT('',(-24.335,84.3140788313317,-9.22037876193936));
#694=CARTESIAN_POINT('',(24.335,83.5480343882128,-8.57759115225282));
#695=CARTESIAN_POINT('',(0.,83.5480343882128,-8.57759115225282));
#696=CARTESIAN_POINT('',(24.335,67.8077876728904,4.63004406121357));
#697=CARTESIAN_POINT('',(24.335,84.3140788313317,-9.22037876193936));
#698=CARTESIAN_POINT('',(18.335,67.8077876728904,4.63004406121356));
#699=CARTESIAN_POINT('',(0.,67.8077876728904,4.63004406121356));
#700=CARTESIAN_POINT('',(18.335,66.1595196128908,6.01310518244054));
#701=CARTESIAN_POINT('',(18.335,65.6568257465527,6.43491542027988));
#702=CARTESIAN_POINT('',(0.,66.1595196128908,6.01310518244054));
#703=CARTESIAN_POINT('Origin',(18.335,65.0140381368662,5.66887097716091));
#704=CARTESIAN_POINT('',(19.335,66.2242717191281,4.65336442464656));
#705=CARTESIAN_POINT('',(19.335,65.5167320032043,5.24706073932156));
#706=CARTESIAN_POINT('',(19.335,65.0140381368662,5.66887097716091));
#707=CARTESIAN_POINT('Origin',(18.335,65.5167320032043,5.24706073932156));
#708=CARTESIAN_POINT('',(19.2010254037844,66.8229799198782,4.80369223888049));
#709=CARTESIAN_POINT('Origin',(18.335,67.1650000632039,3.86399961809459));
#710=CARTESIAN_POINT('Ctrl Pts',(19.2010254037856,66.822979919876,4.80369223887968));
#711=CARTESIAN_POINT('Ctrl Pts',(19.2270122201914,66.7741406806473,4.78591620953628));
#712=CARTESIAN_POINT('Ctrl Pts',(19.2491488453644,66.7224648787935,4.76856401736061));
#713=CARTESIAN_POINT('Ctrl Pts',(19.3156878526283,66.5265331374713,4.70904010411613));
#714=CARTESIAN_POINT('Ctrl Pts',(19.335,66.3702719056608,4.67437654356117));
#715=CARTESIAN_POINT('Ctrl Pts',(19.335,66.2242717191281,4.65336442464656));
#716=CARTESIAN_POINT('Origin',(0.,67.1650000632039,3.86399961809458));
#717=CARTESIAN_POINT('',(24.335,66.8229799198782,4.80369223888049));
#718=CARTESIAN_POINT('Origin',(24.335,67.1650000632039,3.86399961809458));
#719=CARTESIAN_POINT('',(0.,66.8229799198782,4.80369223888049));
#720=CARTESIAN_POINT('Ctrl Pts',(18.335,66.1595196128908,6.01310518244054));
#721=CARTESIAN_POINT('Ctrl Pts',(18.335,66.1595196128908,6.01310518244054));
#722=CARTESIAN_POINT('Ctrl Pts',(18.335,66.1595196128908,6.01310518244054));
#723=CARTESIAN_POINT('Ctrl Pts',(18.335,66.1595196128908,6.01310518244054));
#724=CARTESIAN_POINT('Ctrl Pts',(18.335,66.1595196128908,6.01310518244054));
#725=CARTESIAN_POINT('Ctrl Pts',(18.335,66.1595196128908,6.01310518244054));
#726=CARTESIAN_POINT('Ctrl Pts',(18.335,66.1595196128908,6.01310518244054));
#727=CARTESIAN_POINT('Ctrl Pts',(18.335,66.1595196128908,6.01310518244054));
#728=CARTESIAN_POINT('Ctrl Pts',(18.335,66.1595196128908,6.01310518244054));
#729=CARTESIAN_POINT('Ctrl Pts',(18.335,66.1595196128908,6.01310518244054));
#730=CARTESIAN_POINT('Ctrl Pts',(18.335,66.1595196128908,6.01310518244054));
#731=CARTESIAN_POINT('Ctrl Pts',(19.335,66.1595196128908,6.01310518244054));
#732=CARTESIAN_POINT('Ctrl Pts',(19.335,66.1595196128908,6.01310518244054));
#733=CARTESIAN_POINT('Ctrl Pts',(19.335,66.1595196128908,6.01310518244054));
#734=CARTESIAN_POINT('Ctrl Pts',(19.335,66.1595196128908,6.01310518244054));
#735=CARTESIAN_POINT('Ctrl Pts',(19.335,66.1595196128908,6.01310518244054));
#736=CARTESIAN_POINT('Ctrl Pts',(19.335,66.1595196128908,6.01310518244054));
#737=CARTESIAN_POINT('Ctrl Pts',(19.335,66.1595196128908,6.01310518244054));
#738=CARTESIAN_POINT('Ctrl Pts',(19.335,66.1595196128908,6.01310518244054));
#739=CARTESIAN_POINT('Ctrl Pts',(19.335,66.1595196128908,6.01310518244054));
#740=CARTESIAN_POINT('Ctrl Pts',(19.335,66.1595196128908,6.01310518244054));
#741=CARTESIAN_POINT('Ctrl Pts',(19.335,66.1595196128908,6.01310518244054));
#742=CARTESIAN_POINT('Ctrl Pts',(19.335,65.5347027298931,5.23233385694177));
#743=CARTESIAN_POINT('Ctrl Pts',(19.335,65.5256318189406,5.23959290721961));
#744=CARTESIAN_POINT('Ctrl Pts',(19.335,65.5167320032043,5.24706073932156));
#745=CARTESIAN_POINT('Ctrl Pts',(19.335,64.7506875600853,5.8898483490081));
#746=CARTESIAN_POINT('Ctrl Pts',(19.335,65.3934751697718,6.65589279212708));
#747=CARTESIAN_POINT('Ctrl Pts',(19.335,66.0362627794584,7.42193723524606));
#748=CARTESIAN_POINT('Ctrl Pts',(19.335,66.8023072225773,6.77914962555952));
#749=CARTESIAN_POINT('Ctrl Pts',(19.335,67.5683516656963,6.13636201587297));
#750=CARTESIAN_POINT('Ctrl Pts',(19.335,66.9255640560098,5.370317572754));
#751=CARTESIAN_POINT('Ctrl Pts',(19.335,66.2975405825007,4.62186834196606));
#752=CARTESIAN_POINT('Ctrl Pts',(19.335,65.5347027298931,5.23233385694177));
#753=CARTESIAN_POINT('',(19.335,65.1632415633911,6.0993029091222));
#754=CARTESIAN_POINT('Ctrl Pts',(19.335,65.1632415633911,6.0993029091222));
#755=CARTESIAN_POINT('Ctrl Pts',(19.335,65.2719547717134,6.05408423897923));
#756=CARTESIAN_POINT('Ctrl Pts',(19.316271198102,65.3838298307134,6.02145429111075));
#757=CARTESIAN_POINT('Ctrl Pts',(19.2400430868363,65.6001202086187,5.98093303634548));
#758=CARTESIAN_POINT('Ctrl Pts',(19.1844706731983,65.7011251884156,5.9731085070954));
#759=CARTESIAN_POINT('Ctrl Pts',(19.0362877232103,65.88534757469,5.97243661315702));
#760=CARTESIAN_POINT('Ctrl Pts',(18.9440403658944,65.9646291576839,5.98017388080603));
#761=CARTESIAN_POINT('Ctrl Pts',(18.6918898546846,66.1105859119771,6.00056954323923));
#762=CARTESIAN_POINT('Ctrl Pts',(18.5210466633176,66.1582233855918,6.01281321032017));
#763=CARTESIAN_POINT('Ctrl Pts',(18.3410701699896,66.1595023585517,6.01310129572592));
#764=CARTESIAN_POINT('Ctrl Pts',(18.3386420198642,66.1595411804752,6.01311004073914));
#765=CARTESIAN_POINT('Ctrl Pts',(18.3362140388291,66.159519612883,6.01310518247522));
#766=CARTESIAN_POINT('Ctrl Pts',(18.335,66.1595196128908,6.01310518244054));
#767=CARTESIAN_POINT('Origin',(19.335,66.1595196128908,6.01310518244054));
#768=CARTESIAN_POINT('Origin',(19.335,65.7969194899012,7.62277010123822));
#769=CARTESIAN_POINT('',(19.335,67.1872047749906,8.51136833782436));
#770=CARTESIAN_POINT('Origin',(19.335,65.7969194899012,7.62277010123822));
#771=CARTESIAN_POINT('',(19.335,68.7954221578743,7.71754219712246));
#772=CARTESIAN_POINT('Origin',(19.335,65.7969194899012,7.62277010123822));
#773=CARTESIAN_POINT('',(19.335,68.0878824419504,8.31123851179746));
#774=CARTESIAN_POINT('',(19.335,76.6624681848328,1.11630677744687));
#775=CARTESIAN_POINT('Origin',(19.335,67.4450948322639,7.54519406867849));
#776=CARTESIAN_POINT('',(19.335,64.5469194899012,7.62277010123822));
#777=CARTESIAN_POINT('Origin',(19.335,65.7969194899012,7.62277010123822));
#778=CARTESIAN_POINT('Origin',(0.,65.7969194899012,7.62277010123822));
#779=CARTESIAN_POINT('',(24.335,68.7513427489378,7.10182556823742));
#780=CARTESIAN_POINT('Origin',(24.335,65.7969194899012,7.62277010123822));
#781=CARTESIAN_POINT('',(19.2010254037844,68.7513427489378,7.10182556823742));
#782=CARTESIAN_POINT('',(0.,68.7513427489378,7.10182556823742));
#783=CARTESIAN_POINT('Ctrl Pts',(19.335,68.7954221578743,7.71754219712246));
#784=CARTESIAN_POINT('Ctrl Pts',(19.335,68.8002253977851,7.56557206759192));
#785=CARTESIAN_POINT('Ctrl Pts',(19.3144548749735,68.7925880672949,7.40090954374121));
#786=CARTESIAN_POINT('Ctrl Pts',(19.2457250915955,68.7672314066774,7.19864107890807));
#787=CARTESIAN_POINT('Ctrl Pts',(19.2250266453988,68.759678292674,7.1490987858848));
#788=CARTESIAN_POINT('Ctrl Pts',(19.2010254037838,68.7513427489376,7.10182556823611));
#789=CARTESIAN_POINT('Origin',(-18.335,76.6624681848328,1.11630677744687));
#790=CARTESIAN_POINT('',(-19.335,68.7954221578743,7.71754219712246));
#791=CARTESIAN_POINT('',(-19.335,68.0878824419504,8.31123851179746));
#792=CARTESIAN_POINT('',(-19.335,76.6624681848328,1.11630677744687));
#793=CARTESIAN_POINT('',(-18.335,67.4450948322639,7.54519406867849));
#794=CARTESIAN_POINT('Origin',(-18.335,68.0878824419504,8.31123851179746));
#795=CARTESIAN_POINT('',(-18.335,69.0933628922635,6.16213294745151));
#796=CARTESIAN_POINT('',(-18.335,76.0196805751463,0.350262334327898));
#797=CARTESIAN_POINT('',(-19.2010254037844,68.7513427489378,7.10182556823742));
#798=CARTESIAN_POINT('Origin',(-18.335,69.73615050195,6.92817739057049));
#799=CARTESIAN_POINT('Ctrl Pts',(-19.2010254037838,68.7513427489376,7.10182556823611));
#800=CARTESIAN_POINT('Ctrl Pts',(-19.2250266453988,68.759678292674,7.14909878588481));
#801=CARTESIAN_POINT('Ctrl Pts',(-19.2457250915955,68.7672314066773,7.19864107890807));
#802=CARTESIAN_POINT('Ctrl Pts',(-19.3144548749735,68.7925880672949,7.40090954374121));
#803=CARTESIAN_POINT('Ctrl Pts',(-19.335,68.8002253977851,7.56557206759192));
#804=CARTESIAN_POINT('Ctrl Pts',(-19.335,68.7954221578743,7.71754219712246));
#805=CARTESIAN_POINT('Origin',(0.,69.73615050195,6.92817739057049));
#806=CARTESIAN_POINT('',(-24.335,69.0933628922635,6.16213294745151));
#807=CARTESIAN_POINT('',(0.,69.0933628922635,6.16213294745151));
#808=CARTESIAN_POINT('',(-24.335,68.7513427489378,7.10182556823742));
#809=CARTESIAN_POINT('Origin',(-24.335,69.73615050195,6.92817739057049));
#810=CARTESIAN_POINT('',(0.,68.7513427489378,7.10182556823742));
#811=CARTESIAN_POINT('Ctrl Pts',(-18.335,67.4450948322639,7.54519406867849));
#812=CARTESIAN_POINT('Ctrl Pts',(-18.335,67.4450948322639,7.54519406867849));
#813=CARTESIAN_POINT('Ctrl Pts',(-18.335,67.4450948322639,7.54519406867849));
#814=CARTESIAN_POINT('Ctrl Pts',(-18.335,67.4450948322639,7.54519406867849));
#815=CARTESIAN_POINT('Ctrl Pts',(-18.335,67.4450948322639,7.54519406867849));
#816=CARTESIAN_POINT('Ctrl Pts',(-18.335,67.4450948322639,7.54519406867849));
#817=CARTESIAN_POINT('Ctrl Pts',(-18.335,67.4450948322639,7.54519406867849));
#818=CARTESIAN_POINT('Ctrl Pts',(-18.335,67.4450948322639,7.54519406867849));
#819=CARTESIAN_POINT('Ctrl Pts',(-18.335,67.4450948322639,7.54519406867849));
#820=CARTESIAN_POINT('Ctrl Pts',(-19.335,67.4450948322639,7.54519406867849));
#821=CARTESIAN_POINT('Ctrl Pts',(-19.335,67.4450948322639,7.54519406867849));
#822=CARTESIAN_POINT('Ctrl Pts',(-19.335,67.4450948322639,7.54519406867849));
#823=CARTESIAN_POINT('Ctrl Pts',(-19.335,67.4450948322639,7.54519406867849));
#824=CARTESIAN_POINT('Ctrl Pts',(-19.335,67.4450948322639,7.54519406867849));
#825=CARTESIAN_POINT('Ctrl Pts',(-19.335,67.4450948322639,7.54519406867849));
#826=CARTESIAN_POINT('Ctrl Pts',(-19.335,67.4450948322639,7.54519406867849));
#827=CARTESIAN_POINT('Ctrl Pts',(-19.335,67.4450948322639,7.54519406867849));
#828=CARTESIAN_POINT('Ctrl Pts',(-19.335,67.4450948322639,7.54519406867849));
#829=CARTESIAN_POINT('Ctrl Pts',(-19.335,68.0878824419504,8.31123851179746));
#830=CARTESIAN_POINT('Ctrl Pts',(-19.335,67.3218379988314,8.954026121484));
#831=CARTESIAN_POINT('Ctrl Pts',(-19.335,66.6790503891449,8.18798167836503));
#832=CARTESIAN_POINT('Ctrl Pts',(-19.335,66.0362627794584,7.42193723524605));
#833=CARTESIAN_POINT('Ctrl Pts',(-19.335,66.8023072225773,6.77914962555951));
#834=CARTESIAN_POINT('Ctrl Pts',(-19.335,67.5683516656963,6.13636201587297));
#835=CARTESIAN_POINT('Ctrl Pts',(-19.335,68.2111392753828,6.90240645899195));
#836=CARTESIAN_POINT('Ctrl Pts',(-19.335,68.8539268850694,7.66845090211092));
#837=CARTESIAN_POINT('Ctrl Pts',(-19.335,68.0878824419504,8.31123851179746));
#838=CARTESIAN_POINT('',(-19.335,67.1872047749906,8.51136833782436));
#839=CARTESIAN_POINT('Ctrl Pts',(-19.335,67.1872047749906,8.51136833782437));
#840=CARTESIAN_POINT('Ctrl Pts',(-19.335,67.2506143224417,8.41215886708061));
#841=CARTESIAN_POINT('Ctrl Pts',(-19.316271198102,67.3021754482047,8.3076495725934));
#842=CARTESIAN_POINT('Ctrl Pts',(-19.2400430868363,67.3796395240295,8.10168157357708));
#843=CARTESIAN_POINT('Ctrl Pts',(-19.1844706731983,67.4048845117757,8.00356980162567));
#844=CARTESIAN_POINT('Ctrl Pts',(-19.0362877232103,67.4375360797974,7.82226284050222));
#845=CARTESIAN_POINT('Ctrl Pts',(-18.9440403658944,67.443683461039,7.74284216047137));
#846=CARTESIAN_POINT('Ctrl Pts',(-18.6918898546848,67.4489427789481,7.5955611476252));
#847=CARTESIAN_POINT('Ctrl Pts',(-18.5210466633181,67.4451572811634,7.54652130379896));
#848=CARTESIAN_POINT('Ctrl Pts',(-18.3410701699902,67.445095663746,7.5452117358063));
#849=CARTESIAN_POINT('Ctrl Pts',(-18.3386420198647,67.4450937929455,7.5451719851194));
#850=CARTESIAN_POINT('Ctrl Pts',(-18.3362140388294,67.4450948322284,7.54519406868016));
#851=CARTESIAN_POINT('Ctrl Pts',(-18.335,67.4450948322639,7.54519406867849));
#852=CARTESIAN_POINT('Origin',(-19.335,67.4450948322639,7.54519406867849));
#853=CARTESIAN_POINT('Origin',(0.,65.7969194899012,7.62277010123822));
#854=CARTESIAN_POINT('Origin',(-19.335,65.7969194899012,7.62277010123822));
#855=CARTESIAN_POINT('Origin',(-24.335,65.7969194899012,7.62277010123822));
#856=CARTESIAN_POINT('Origin',(18.335,76.6624681848328,1.11630677744687));
#857=CARTESIAN_POINT('',(18.335,69.0933628922635,6.16213294745151));
#858=CARTESIAN_POINT('',(18.335,67.4450948322639,7.54519406867849));
#859=CARTESIAN_POINT('',(18.335,76.0196805751463,0.350262334327898));
#860=CARTESIAN_POINT('Origin',(18.335,68.0878824419504,8.31123851179746));
#861=CARTESIAN_POINT('Origin',(18.335,69.73615050195,6.92817739057049));
#862=CARTESIAN_POINT('Origin',(0.,69.73615050195,6.92817739057049));
#863=CARTESIAN_POINT('',(24.335,69.0933628922635,6.16213294745152));
#864=CARTESIAN_POINT('Origin',(24.335,69.73615050195,6.92817739057049));
#865=CARTESIAN_POINT('',(0.,69.0933628922635,6.16213294745151));
#866=CARTESIAN_POINT('Ctrl Pts',(18.335,67.4450948322639,7.54519406867849));
#867=CARTESIAN_POINT('Ctrl Pts',(18.335,67.4450948322639,7.54519406867849));
#868=CARTESIAN_POINT('Ctrl Pts',(18.335,67.4450948322639,7.54519406867849));
#869=CARTESIAN_POINT('Ctrl Pts',(18.335,67.4450948322639,7.54519406867849));
#870=CARTESIAN_POINT('Ctrl Pts',(18.335,67.4450948322639,7.54519406867849));
#871=CARTESIAN_POINT('Ctrl Pts',(18.335,67.4450948322639,7.54519406867849));
#872=CARTESIAN_POINT('Ctrl Pts',(18.335,67.4450948322639,7.54519406867849));
#873=CARTESIAN_POINT('Ctrl Pts',(18.335,67.4450948322639,7.54519406867849));
#874=CARTESIAN_POINT('Ctrl Pts',(18.335,67.4450948322639,7.54519406867849));
#875=CARTESIAN_POINT('Ctrl Pts',(19.335,67.4450948322639,7.54519406867849));
#876=CARTESIAN_POINT('Ctrl Pts',(19.335,67.4450948322639,7.54519406867849));
#877=CARTESIAN_POINT('Ctrl Pts',(19.335,67.4450948322639,7.54519406867849));
#878=CARTESIAN_POINT('Ctrl Pts',(19.335,67.4450948322639,7.54519406867849));
#879=CARTESIAN_POINT('Ctrl Pts',(19.335,67.4450948322639,7.54519406867849));
#880=CARTESIAN_POINT('Ctrl Pts',(19.335,67.4450948322639,7.54519406867849));
#881=CARTESIAN_POINT('Ctrl Pts',(19.335,67.4450948322639,7.54519406867849));
#882=CARTESIAN_POINT('Ctrl Pts',(19.335,67.4450948322639,7.54519406867849));
#883=CARTESIAN_POINT('Ctrl Pts',(19.335,67.4450948322639,7.54519406867849));
#884=CARTESIAN_POINT('Ctrl Pts',(19.335,68.0878824419504,8.31123851179746));
#885=CARTESIAN_POINT('Ctrl Pts',(19.335,68.8539268850694,7.66845090211092));
#886=CARTESIAN_POINT('Ctrl Pts',(19.335,68.2111392753828,6.90240645899195));
#887=CARTESIAN_POINT('Ctrl Pts',(19.335,67.5683516656963,6.13636201587297));
#888=CARTESIAN_POINT('Ctrl Pts',(19.335,66.8023072225773,6.77914962555951));
#889=CARTESIAN_POINT('Ctrl Pts',(19.335,66.0362627794584,7.42193723524605));
#890=CARTESIAN_POINT('Ctrl Pts',(19.335,66.6790503891449,8.18798167836503));
#891=CARTESIAN_POINT('Ctrl Pts',(19.335,67.3218379988314,8.954026121484));
#892=CARTESIAN_POINT('Ctrl Pts',(19.335,68.0878824419504,8.31123851179746));
#893=CARTESIAN_POINT('Ctrl Pts',(18.335,67.4450948322639,7.54519406867849));
#894=CARTESIAN_POINT('Ctrl Pts',(18.3362140388294,67.4450948322284,7.54519406868016));
#895=CARTESIAN_POINT('Ctrl Pts',(18.3386420198647,67.4450937929455,7.5451719851194));
#896=CARTESIAN_POINT('Ctrl Pts',(18.3410701699902,67.445095663746,7.5452117358063));
#897=CARTESIAN_POINT('Ctrl Pts',(18.5210466633181,67.4451572811634,7.54652130379895));
#898=CARTESIAN_POINT('Ctrl Pts',(18.6918898546848,67.4489427789481,7.59556114762519));
#899=CARTESIAN_POINT('Ctrl Pts',(18.9440403658944,67.443683461039,7.74284216047136));
#900=CARTESIAN_POINT('Ctrl Pts',(19.0362877232103,67.4375360797974,7.82226284050221));
#901=CARTESIAN_POINT('Ctrl Pts',(19.1844706731983,67.4048845117757,8.00356980162567));
#902=CARTESIAN_POINT('Ctrl Pts',(19.2400430868363,67.3796395240295,8.10168157357708));
#903=CARTESIAN_POINT('Ctrl Pts',(19.316271198102,67.3021754482047,8.3076495725934));
#904=CARTESIAN_POINT('Ctrl Pts',(19.335,67.2506143224417,8.4121588670806));
#905=CARTESIAN_POINT('Ctrl Pts',(19.335,67.1872047749906,8.51136833782437));
#906=CARTESIAN_POINT('Origin',(0.,85.5996540507048,-7.6882898757014));
#907=CARTESIAN_POINT('',(0.,67.4450948322639,7.54519406867849));
#908=CARTESIAN_POINT('',(24.335,84.8336096075858,-7.04550226601486));
#909=CARTESIAN_POINT('',(24.335,85.5996540507048,-7.6882898757014));
#910=CARTESIAN_POINT('',(-24.335,84.8336096075858,-7.04550226601486));
#911=CARTESIAN_POINT('',(0.,84.8336096075858,-7.04550226601486));
#912=CARTESIAN_POINT('',(-24.335,85.5996540507048,-7.6882898757014));
#913=CARTESIAN_POINT('Origin',(24.335,75.8795868317978,-0.837592346630437));
#914=CARTESIAN_POINT('Origin',(24.335,84.1908219978993,-7.81154670913383));
#915=CARTESIAN_POINT('',(24.335,64.5469194899012,7.62277010123822));
#916=CARTESIAN_POINT('Origin',(24.335,65.7969194899012,7.62277010123822));
#917=CARTESIAN_POINT('Origin',(0.,84.1908219978993,-7.81154670913383));
#918=CARTESIAN_POINT('Origin',(-24.335,84.1908219978993,-7.81154670913385));
#919=CARTESIAN_POINT('Origin',(-19.335,65.7969194899012,7.62277010123822));
#920=CARTESIAN_POINT('Origin',(-19.335,65.7969194899012,7.62277010123822));
#921=CARTESIAN_POINT('',(-19.335,64.5469194899012,7.62277010123822));
#922=CARTESIAN_POINT('Origin',(-19.335,65.7969194899012,7.62277010123822));
#923=CARTESIAN_POINT('Origin',(0.,65.7969194899012,7.62277010123822));
#924=CARTESIAN_POINT('',(-24.335,64.5469194899012,7.62277010123822));
#925=CARTESIAN_POINT('Origin',(-24.335,65.7969194899012,7.62277010123822));
#926=CARTESIAN_POINT('',(0.,64.5469194899012,7.62277010123822));
#927=CARTESIAN_POINT('Origin',(0.,65.7969194899012,7.62277010123822));
#928=CARTESIAN_POINT('Origin',(0.,65.7969194899012,7.62277010123822));
#929=CARTESIAN_POINT('',(0.,64.5469194899012,7.62277010123822));
#930=CARTESIAN_POINT('Origin',(-24.335,75.8795868317978,-0.837592346630437));
#931=UNCERTAINTY_MEASURE_WITH_UNIT(LENGTH_MEASURE(0.01),#935,
'DISTANCE_ACCURACY_VALUE',
'Maximum model space distance between geometric entities at asserted c
onnectivities');
#932=UNCERTAINTY_MEASURE_WITH_UNIT(LENGTH_MEASURE(0.01),#935,
'DISTANCE_ACCURACY_VALUE',
'Maximum model space distance between geometric entities at asserted c
onnectivities');
#933=(
GEOMETRIC_REPRESENTATION_CONTEXT(3)
GLOBAL_UNCERTAINTY_ASSIGNED_CONTEXT((#931))
GLOBAL_UNIT_ASSIGNED_CONTEXT((#935,#937,#938))
REPRESENTATION_CONTEXT('','3D')
);
#934=(
GEOMETRIC_REPRESENTATION_CONTEXT(3)
GLOBAL_UNCERTAINTY_ASSIGNED_CONTEXT((#932))
GLOBAL_UNIT_ASSIGNED_CONTEXT((#935,#937,#938))
REPRESENTATION_CONTEXT('','3D')
);
#935=(
LENGTH_UNIT()
NAMED_UNIT(*)
SI_UNIT(.MILLI.,.METRE.)
);
#936=(
LENGTH_UNIT()
NAMED_UNIT(*)
SI_UNIT($,.METRE.)
);
#937=(
NAMED_UNIT(*)
PLANE_ANGLE_UNIT()
SI_UNIT($,.RADIAN.)
);
#938=(
NAMED_UNIT(*)
SI_UNIT($,.STERADIAN.)
SOLID_ANGLE_UNIT()
);
#939=SHAPE_DEFINITION_REPRESENTATION(#940,#941);
#940=PRODUCT_DEFINITION_SHAPE('',$,#943);
#941=SHAPE_REPRESENTATION('',(#447),#933);
#942=PRODUCT_DEFINITION_CONTEXT('part definition',#947,'design');
#943=PRODUCT_DEFINITION('## open-robot-raw','## open-robot-raw v23',#944,
#942);
#944=PRODUCT_DEFINITION_FORMATION('',$,#949);
#945=PRODUCT_RELATED_PRODUCT_CATEGORY('## open-robot-raw v23',
'## open-robot-raw v23',(#949));
#946=APPLICATION_PROTOCOL_DEFINITION('international standard',
'automotive_design',2009,#947);
#947=APPLICATION_CONTEXT(
'Core Data for Automotive Mechanical Design Process');
#948=PRODUCT_CONTEXT('part definition',#947,'mechanical');
#949=PRODUCT('## open-robot-raw','## open-robot-raw v23',$,(#948));
#950=PRESENTATION_STYLE_ASSIGNMENT((#958));
#951=PRESENTATION_STYLE_ASSIGNMENT((#959));
#952=PRESENTATION_STYLE_ASSIGNMENT((#960));
#953=PRESENTATION_STYLE_ASSIGNMENT((#961));
#954=PRESENTATION_STYLE_ASSIGNMENT((#962));
#955=PRESENTATION_STYLE_ASSIGNMENT((#963));
#956=PRESENTATION_STYLE_ASSIGNMENT((#964));
#957=PRESENTATION_STYLE_ASSIGNMENT((#965));
#958=SURFACE_STYLE_USAGE(.BOTH.,#966);
#959=SURFACE_STYLE_USAGE(.BOTH.,#967);
#960=SURFACE_STYLE_USAGE(.BOTH.,#968);
#961=SURFACE_STYLE_USAGE(.BOTH.,#969);
#962=SURFACE_STYLE_USAGE(.BOTH.,#970);
#963=SURFACE_STYLE_USAGE(.BOTH.,#971);
#964=SURFACE_STYLE_USAGE(.BOTH.,#972);
#965=SURFACE_STYLE_USAGE(.BOTH.,#973);
#966=SURFACE_SIDE_STYLE('',(#974));
#967=SURFACE_SIDE_STYLE('',(#975));
#968=SURFACE_SIDE_STYLE('',(#976));
#969=SURFACE_SIDE_STYLE('',(#977));
#970=SURFACE_SIDE_STYLE('',(#978));
#971=SURFACE_SIDE_STYLE('',(#979));
#972=SURFACE_SIDE_STYLE('',(#980));
#973=SURFACE_SIDE_STYLE('',(#981));
#974=SURFACE_STYLE_FILL_AREA(#982);
#975=SURFACE_STYLE_FILL_AREA(#983);
#976=SURFACE_STYLE_FILL_AREA(#984);
#977=SURFACE_STYLE_FILL_AREA(#985);
#978=SURFACE_STYLE_FILL_AREA(#986);
#979=SURFACE_STYLE_FILL_AREA(#987);
#980=SURFACE_STYLE_FILL_AREA(#988);
#981=SURFACE_STYLE_FILL_AREA(#989);
#982=FILL_AREA_STYLE('\X2\92FC\X0\ - \X2\30B530C630F3\X0\',(#990));
#983=FILL_AREA_STYLE('ABS(\X2\767D\X0\)',(#991));
#984=FILL_AREA_STYLE('\X2\30A230EB30DF30CB30A630E0\X0\ - \X2\3064308451FA3057\X0\',
(#992));
#985=FILL_AREA_STYLE('\X2\92FC\X0\ - \X2\30B530C630F3\X0\',(#993));
#986=FILL_AREA_STYLE(
'PA 12 - Nylon - PA 603-CF (EOS P 3D \X2\30D730EA30F330BF4F7F7528\X0\)',
(#994));
#987=FILL_AREA_STYLE('\X2\30DD30EA30AB30FC30DC30CD30FC30C8\X0\(\X2\30AF30EA30A2\X0\)',
(#995));
#988=FILL_AREA_STYLE('\X2\30A230AF30EA30EB\X0\(\X2\30AF30EA30A2\X0\)',(#996));
#989=FILL_AREA_STYLE('ABS(kuro)',(#997));
#990=FILL_AREA_STYLE_COLOUR('\X2\92FC\X0\ - \X2\30B530C630F3\X0\',#998);
#991=FILL_AREA_STYLE_COLOUR('ABS(\X2\767D\X0\)',#999);
#992=FILL_AREA_STYLE_COLOUR('\X2\30A230EB30DF30CB30A630E0\X0\ - \X2\3064308451FA3057\X0\',
#1000);
#993=FILL_AREA_STYLE_COLOUR('\X2\92FC\X0\ - \X2\30B530C630F3\X0\',#1001);
#994=FILL_AREA_STYLE_COLOUR(
'PA 12 - Nylon - PA 603-CF (EOS P 3D \X2\30D730EA30F330BF4F7F7528\X0\)',
#1002);
#995=FILL_AREA_STYLE_COLOUR('\X2\30DD30EA30AB30FC30DC30CD30FC30C8\X0\(
\X2\30AF30EA30A2\X0\)',#1003);
#996=FILL_AREA_STYLE_COLOUR('\X2\30A230AF30EA30EB\X0\(\X2\30AF30EA30A2\X0\)',
#1004);
#997=FILL_AREA_STYLE_COLOUR('ABS(kuro)',#1005);
#998=COLOUR_RGB('\X2\92FC\X0\ - \X2\30B530C630F3\X0\',0.627450980392157,
0.627450980392157,0.627450980392157);
#999=COLOUR_RGB('ABS(\X2\767D\X0\)',0.964705882352941,0.964705882352941,
0.952941176470588);
#1000=COLOUR_RGB('\X2\30A230EB30DF30CB30A630E0\X0\ - \X2\3064308451FA3057\X0\',
0.96078431372549,0.96078431372549,0.964705882352941);
#1001=COLOUR_RGB('\X2\92FC\X0\ - \X2\30B530C630F3\X0\',0.,0.,0.);
#1002=COLOUR_RGB(
'PA 12 - Nylon - PA 603-CF (EOS P 3D \X2\30D730EA30F330BF4F7F7528\X0\)',
0.247058823529412,0.247058823529412,0.247058823529412);
#1003=COLOUR_RGB('\X2\30DD30EA30AB30FC30DC30CD30FC30C8\X0\(\X2\30AF30EA30A2\X0\)',
0.964705882352941,0.964705882352941,0.952941176470588);
#1004=COLOUR_RGB('\X2\30A230AF30EA30EB\X0\(\X2\30AF30EA30A2\X0\)',0.964705882352941,
0.964705882352941,0.952941176470588);
#1005=COLOUR_RGB('ABS(kuro)',0.,0.,0.);
ENDSEC;
END-ISO-10303-21;
