0
SECTION
2
HEADER
9
$INSUNITS
70
4
9
$ACADVER
1
AC1014
9
$HANDSEED
5
FFFF
0
ENDSEC
0
SECTION
2
TABLES
0
TABLE
2
VPORT
5
8
100
AcDbSymbolTable
0
ENDTAB
0
TABLE
2
LTYPE
5
5
100
AcDbSymbolTable
0
LTYPE
5
14
100
AcDbSymbolTableRecord
100
AcDbLinetypeTableRecord
2
BYBLOCK
70
0
0
LTYPE
5
15
100
AcDbSymbolTableRecord
100
AcDbLinetypeTableRecord
2
BYLAYER
70
0
0
LTYPE
5
16
100
AcDbSymbolTableRecord
100
AcDbLinetypeTableRecord
2
DASHED
70
0
3
Dashed __ __ __ __ __ __ __ __ __ __ __ __ __ _
72
65
73
2
40
0.75
49
0.5
74
0
49
-0.25
74
0
0
ENDTAB
0
TABLE
2
LAYER
5
2
100
AcDbSymbolTable
70
2
0
LAYER
5
50
100
AcDbSymbolTableRecord
100
AcDbLayerTableRecord
2
0
70
0
62
7
6
CONTINUOUS
0
ENDTAB
0
TABLE
2
STYLE
5
3
100
AcDbSymbolTable
70
1
0
STYLE
5
11
100
AcDbSymbolTableRecord
100
AcDbTextStyleTableRecord
2
STANDARD
70
0
0
ENDTAB
0
TABLE
2
VIEW
5
6
100
AcDbSymbolTable
70
0
0
ENDTAB
0
TABLE
2
UCS
5
7
100
AcDbSymbolTable
70
0
0
ENDTAB
0
TABLE
2
APPID
5
9
100
AcDbSymbolTable
70
2
0
APPID
5
12
100
AcDbSymbolTableRecord
100
AcDbRegAppTableRecord
2
ACAD
70
0
0
ENDTAB
0
TABLE
2
DIMSTYLE
5
A
100
AcDbSymbolTable
70
1
0
ENDTAB
0
TABLE
2
BLOCK_RECORD
5
1
100
AcDbSymbolTable
70
1
0
BLOCK_RECORD
5
1F
100
AcDbSymbolTableRecord
100
AcDbBlockTableRecord
2
*MODEL_SPACE
0
BLOCK_RECORD
5
1B
100
AcDbSymbolTableRecord
100
AcDbBlockTableRecord
2
*PAPER_SPACE
0
ENDTAB
0
ENDSEC
0
SECTION
2
BLOCKS
0
BLOCK
5
20
100
AcDbEntity
100
AcDbBlockBegin
2
*MODEL_SPACE
0
ENDBLK
5
21
100
AcDbEntity
100
AcDbBlockEnd
0
BLOCK
5
1C
100
AcDbEntity
100
AcDbBlockBegin
2
*PAPER_SPACE
0
ENDBLK
5
1D
100
AcDbEntity
100
AcDbBlockEnd
0
ENDSEC
0
SECTION
2
ENTITIES
0
LWPOLYLINE
5
100
100
AcDbEntity
8
0
100
AcDbPolyline
90
28
70
1
43
0.0
10
-26.355220573718672
20
-10.762324343495088
10
-32.29799277114963
20
-16.693407599284797
42
-0.19865653578887885
10
-34.417223803222299
20
-17.57000000000005
10
-71.475878792401687
20
-17.570000000000068
42
-0.41421356237309398
10
-74.475878792401687
20
-14.570000000000062
10
-74.475878792401687
20
-12.393283588278665
42
0.36670111045012049
10
-77.435185234483853
20
-9.8857319427798274
10
-80.205985255268388
20
-9.8857319427798291
42
-0.41421356237309098
10
-83.205985255268402
20
-6.8857319427798274
10
-83.205985255268402
20
6.8942680572202004
42
-0.41421356237309109
10
-80.205985255268388
20
9.894268057220204
10
-77.433764284506751
20
9.8942680572202004
42
0.36666984574088268
10
-74.474512146245345
20
12.401493481785046
10
-74.474512146245345
20
22.724918474267145
42
-0.41421356271585957
10
-71.47451214273454
20
25.724918474267145
10
-59.624999994996557
20
25.724918460400016
42
-0.41421356208281573
10
-56.624999998507377
20
22.724918459862433
10
-56.624999999999524
20
14.397857166247308
42
0.41421356237309509
10
-53.624999999999531
20
11.397857166247308
10
-27.746076900894273
20
11.397857166247336
42
-0.19916822401944817
10
-26.330471834704436
20
10.810677854295776
10
-26.001888918728156
20
10.481447369171747
42
0.19916822401944842
10
-24.586283852538322
20
9.8942680572201898
10
-23.245985255268309
20
9.8942680572201915
42
-0.41421356237309348
10
-20.245985255268305
20
6.8942680572201915
10
-20.245985255268316
20
-6.8857319427798362
42
-0.41421356237309653
10
-23.245985255268316
20
-9.8857319427798362
10
-24.235989541646003
20
-9.8857319427798362
42
0.1986565357888804
0
ELLIPSE
5
101
100
AcDbEntity
8
0
100
AcDbEllipse
10
-67.499999999999986
20
15.002258571978839
30
-8.8817841970012523e-15
11
0.99999999999999645
21
3.6587243225167452e-10
31
0.0
40
0.99999995477714132
41
0
42
6.2831853071795862
0
ELLIPSE
5
102
100
AcDbEntity
8
0
100
AcDbEllipse
10
-67.499999999999972
20
20.002258345864551
30
-8.8817841970012523e-15
11
0.99999999999999645
21
-5.3684024924440314e-11
31
0.0
40
0.99999995477714132
41
0
42
6.2831853071795862
0
CIRCLE
5
103
100
AcDbEntity
8
0
100
AcDbCircle
10
-37.37999999999996
20
-12.340000000000103
30
-1.1102230246251563e-15
40
0.16000000000000014
210
0
220
0
230
1
0
CIRCLE
5
104
100
AcDbEntity
8
0
100
AcDbCircle
10
-37.379999999999967
20
-14.880000000000098
30
1.2325951644078309e-31
40
0.16000000000000014
210
0
220
0
230
1
0
CIRCLE
5
105
100
AcDbEntity
8
0
100
AcDbCircle
10
-55.159999999999982
20
-14.880000000000051
30
1.2325951644078309e-31
40
0.16000000000000014
210
0
220
0
230
1
0
CIRCLE
5
106
100
AcDbEntity
8
0
100
AcDbCircle
10
-55.159999999999975
20
-12.340000000000053
30
1.2325951644078309e-31
40
0.16000000000000014
210
0
220
0
230
1
0
ENDSEC
0
SECTION
2
OBJECTS
0
DICTIONARY
5
C
100
AcDbDictionary
3
ACAD_GROUP
350
D
3
ACAD_MLINESTYLE
350
17
0
DICTIONARY
5
D
100
AcDbDictionary
0
DICTIONARY
5
1A
330
C
100
AcDbDictionary
0
DICTIONARY
5
17
100
AcDbDictionary
0
ENDSEC
0
EOF
