0
SECTION
2
HEADER
9
$INSUNITS
70
4
9
$ACADVER
1
AC1014
9
$HANDSEED
5
FFFF
0
ENDSEC
0
SECTION
2
TABLES
0
TABLE
2
VPORT
5
8
100
AcDbSymbolTable
0
ENDTAB
0
TABLE
2
LTYPE
5
5
100
AcDbSymbolTable
0
LTYPE
5
14
100
AcDbSymbolTableRecord
100
AcDbLinetypeTableRecord
2
BYBLOCK
70
0
0
LTYPE
5
15
100
AcDbSymbolTableRecord
100
AcDbLinetypeTableRecord
2
BYLAYER
70
0
0
LTYPE
5
16
100
AcDbSymbolTableRecord
100
AcDbLinetypeTableRecord
2
DASHED
70
0
3
Dashed __ __ __ __ __ __ __ __ __ __ __ __ __ _
72
65
73
2
40
0.75
49
0.5
74
0
49
-0.25
74
0
0
ENDTAB
0
TABLE
2
LAYER
5
2
100
AcDbSymbolTable
70
2
0
LAYER
5
50
100
AcDbSymbolTableRecord
100
AcDbLayerTableRecord
2
0
70
0
62
7
6
CONTINUOUS
0
ENDTAB
0
TABLE
2
STYLE
5
3
100
AcDbSymbolTable
70
1
0
STYLE
5
11
100
AcDbSymbolTableRecord
100
AcDbTextStyleTableRecord
2
STANDARD
70
0
0
ENDTAB
0
TABLE
2
VIEW
5
6
100
AcDbSymbolTable
70
0
0
ENDTAB
0
TABLE
2
UCS
5
7
100
AcDbSymbolTable
70
0
0
ENDTAB
0
TABLE
2
APPID
5
9
100
AcDbSymbolTable
70
2
0
APPID
5
12
100
AcDbSymbolTableRecord
100
AcDbRegAppTableRecord
2
ACAD
70
0
0
ENDTAB
0
TABLE
2
DIMSTYLE
5
A
100
AcDbSymbolTable
70
1
0
ENDTAB
0
TABLE
2
BLOCK_RECORD
5
1
100
AcDbSymbolTable
70
1
0
BLOCK_RECORD
5
1F
100
AcDbSymbolTableRecord
100
AcDbBlockTableRecord
2
*MODEL_SPACE
0
BLOCK_RECORD
5
1B
100
AcDbSymbolTableRecord
100
AcDbBlockTableRecord
2
*PAPER_SPACE
0
ENDTAB
0
ENDSEC
0
SECTION
2
BLOCKS
0
BLOCK
5
20
100
AcDbEntity
100
AcDbBlockBegin
2
*MODEL_SPACE
0
ENDBLK
5
21
100
AcDbEntity
100
AcDbBlockEnd
0
BLOCK
5
1C
100
AcDbEntity
100
AcDbBlockBegin
2
*PAPER_SPACE
0
ENDBLK
5
1D
100
AcDbEntity
100
AcDbBlockEnd
0
ENDSEC
0
SECTION
2
ENTITIES
0
POINT
5
100
100
AcDbEntity
8
0
100
AcDbPoint
10
0
20
0
30
0
0
POINT
5
101
100
AcDbEntity
8
0
100
AcDbPoint
10
67.056207981042832
20
-19.717735511652158
30
0
0
CIRCLE
5
102
100
AcDbEntity
8
0
100
AcDbCircle
10
-40.487929240105736
20
58.265598769773703
30
-8.8817841970012523e-15
40
1.6500000000000001
210
3.9910325973036305e-17
220
2.1465574826086729e-16
230
1
0
CIRCLE
5
103
100
AcDbEntity
8
0
100
AcDbCircle
10
-58.165598769769403
20
40.587929240110014
30
-4.4408920985006262e-15
40
1.6500000000000001
210
3.9910325973036305e-17
220
2.1465574826086729e-16
230
1
0
CIRCLE
5
104
100
AcDbEntity
8
0
100
AcDbCircle
10
-58.26559876977371
20
-40.487929240105728
30
-8.8817841970012523e-15
40
1.6500000000000001
210
-2.1465574826086729e-16
220
3.9910325973036354e-17
230
1
0
CIRCLE
5
105
100
AcDbEntity
8
0
100
AcDbCircle
10
-40.587929240110022
20
-58.165598769769396
30
-4.4408920985006262e-15
40
1.6500000000000001
210
-2.1465574826086729e-16
220
3.9910325973036354e-17
230
1
0
CIRCLE
5
106
100
AcDbEntity
8
0
100
AcDbCircle
10
40.487929240105728
20
-58.26559876977371
30
-8.8817841970012523e-15
40
1.6500000000000001
210
-3.991032597303633e-17
220
-2.1465574826086729e-16
230
1
0
CIRCLE
5
107
100
AcDbEntity
8
0
100
AcDbCircle
10
58.165598769769396
20
-40.587929240110022
30
-4.4408920985006262e-15
40
1.6500000000000001
210
-3.991032597303633e-17
220
-2.1465574826086729e-16
230
1
0
CIRCLE
5
108
100
AcDbEntity
8
0
100
AcDbCircle
10
58.26559876977371
20
40.487929240105728
30
-8.8817841970012523e-15
40
1.6500000000000001
210
2.1465574826086729e-16
220
-3.9910325973036354e-17
230
1
0
CIRCLE
5
109
100
AcDbEntity
8
0
100
AcDbCircle
10
40.587929240110022
20
58.165598769769396
30
-4.4408920985006262e-15
40
1.6500000000000001
210
2.1465574826086729e-16
220
-3.9910325973036354e-17
230
1
0
LWPOLYLINE
5
110
100
AcDbEntity
8
0
100
AcDbPolyline
90
68
70
1
43
0.0
10
-74.125501346468866
20
31.69909447527602
10
-76.218884960326207
20
33.792478089133361
42
0.53724988260905415
10
-81.121514367929151
20
32.795577547191726
42
0.19449224892875966
10
-81.121514367929166
20
-32.79557754719167
42
0.53724988260905382
10
-76.218884960326221
20
-33.792478089133326
10
-74.125501346468894
20
-31.699094475275995
42
-0.41421356237309293
10
-69.882860659349589
20
-31.699094475275992
10
-62.025020212058529
20
-39.556934922567059
42
-0.14747682478235727
10
-61.205969662695949
20
-41.08309225311622
42
0.30151134457776718
10
-58.860761782784209
20
-43.42830013302796
42
-0.14747682478235591
10
-57.334604452235055
20
-44.247350682390554
10
-44.347350682394833
20
-57.234604452230769
42
-0.14747682478235521
10
-43.528300133032253
20
-58.760761782779902
42
0.30151134457776457
10
-41.183092253120535
20
-61.105969662691628
42
-0.14747682478236407
10
-39.656934922571409
20
-61.925020212054207
10
-33.663715301164757
20
-67.918239833460845
42
0.19891236737966489
10
-31.542394957605122
20
-68.7969194899012
10
-30.335000000000001
20
-68.7969194899012
42
0.24140328522986565
10
-27.899148836485441
20
-67.548098837999149
42
-0.33683963584716126
10
-24.428615434872771
20
-66.483353352909219
42
0.17790502246415116
10
24.428615434872771
20
-66.483353352909219
42
-0.33683963584715571
10
27.899148836485452
20
-67.548098837999163
42
0.24140328522986393
10
30.335000000000001
20
-68.7969194899012
10
31.542394957605119
20
-68.7969194899012
42
0.19891236737965881
10
33.663715301164757
20
-67.918239833460845
10
39.556934922567081
20
-62.025020212058521
42
-0.14747682478235771
10
41.083092253116227
20
-61.205969662695942
42
0.30151134457776613
10
43.428300133027953
20
-58.860761782784209
42
-0.14747682478234966
10
44.247350682390554
20
-57.334604452235055
10
57.234604452230769
20
-44.347350682394833
42
-0.14747682478235521
10
58.760761782779902
20
-43.528300133032253
42
0.30151134457776457
10
61.105969662691628
20
-41.183092253120535
42
-0.14747682478235591
10
61.925020212054207
20
-39.656934922571395
10
69.882860659349561
20
-31.699094475276031
42
-0.41421356237309626
10
74.125501346468866
20
-31.699094475276027
10
76.218884960326193
20
-33.792478089133354
42
0.5372498826090546
10
81.121514367929137
20
-32.795577547191733
42
0.19449224892875974
10
81.121514367929137
20
32.795577547191677
42
0.53724988260905471
10
76.218884960326221
20
33.792478089133326
10
74.125501346468894
20
31.699094475275995
42
-0.41421356237309293
10
69.882860659349589
20
31.699094475275992
10
62.025020212058529
20
39.556934922567059
42
-0.14747682478235727
10
61.205969662695949
20
41.08309225311622
42
0.30151134457776718
10
58.860761782784209
20
43.42830013302796
42
-0.14747682478235591
10
57.334604452235055
20
44.247350682390554
10
44.34735068239484
20
57.234604452230769
42
-0.14747682478235638
10
43.528300133032261
20
58.760761782779909
42
0.30151134457776402
10
41.183092253120535
20
61.105969662691635
42
-0.1474768247823475
10
39.656934922571395
20
61.925020212054214
10
33.663715301164757
20
67.918239833460845
42
0.19891236737966489
10
31.542394957605122
20
68.7969194899012
10
30.335000000000001
20
68.7969194899012
42
0.24140328522986565
10
27.899148836485441
20
67.548098837999149
42
-0.33683963584715332
10
24.428615434872771
20
66.483353352909205
42
0.17790502246415041
10
-24.428615434872569
20
66.483353352909262
42
-0.33683963584716331
10
-27.899148836485246
20
67.548098837999248
42
0.24140328522986879
10
-30.335000000000001
20
68.7969194899012
10
-31.542394957605119
20
68.7969194899012
42
0.19891236737965881
10
-33.663715301164757
20
67.918239833460845
10
-39.556934922567088
20
62.025020212058514
42
-0.14747682478235047
10
-41.083092253116234
20
61.205969662695935
42
0.3015113445777669
10
-43.42830013302796
20
58.860761782784188
42
-0.14747682478235727
10
-44.247350682390554
20
57.334604452235055
10
-57.234604452230769
20
44.347350682394833
42
-0.14747682478235544
10
-58.760761782779909
20
43.528300133032246
42
0.30151134457776457
10
-61.105969662691635
20
41.183092253120527
42
-0.1474768247823475
10
-61.925020212054214
20
39.656934922571388
10
-69.882860659349575
20
31.69909447527602
42
-0.41421356237309381
0
ARC
5
111
100
AcDbEntity
8
0
100
AcDbCircle
10
0
20
96.835000000000022
30
0
40
21.335000000000033
210
0
220
0
230
1
100
AcDbArc
50
211.77707516735362
51
328.22292483264636
0
ARC
5
112
100
AcDbEntity
8
0
100
AcDbCircle
10
-67.056207981042832
20
19.717735511652151
30
0
40
3.9999999999999991
210
0
220
-0
230
1
100
AcDbArc
50
76.100000000000065
51
166.10000000000002
0
LINE
5
113
100
AcDbEntity
8
0
100
AcDbLine
10
-70.938053013258568
20
20.682772923209527
30
0
11
-70.939073907355592
21
20.678647681561205
31
0
0
LINE
5
114
100
AcDbEntity
8
0
100
AcDbLine
10
-74.004096306277305
20
19.38153063850309
30
0
11
-73.360858547804241
21
19.222023082067071
31
0
0
ARC
5
115
100
AcDbEntity
8
0
100
AcDbCircle
10
0
20
0
30
0
40
78.500000000000014
210
0
220
0
230
1
100
AcDbArc
50
166.82193674168749
51
193.17806325831242
0
LINE
5
116
100
AcDbEntity
8
0
100
AcDbLine
10
-73.359482925015996
20
-19.221681960566283
30
0
11
-74.004096306277319
21
-19.381530638503094
31
0
0
ARC
5
117
100
AcDbEntity
8
0
100
AcDbCircle
10
-67.054492575335729
20
-19.718770172495454
30
0
40
4.0000000000000018
210
0
220
0
230
1
100
AcDbArc
50
193.92704902784635
51
283.92704902784652
0
LINE
5
118
100
AcDbEntity
8
0
100
AcDbLine
10
-65.5264543205206
20
-23.461002873538376
30
0
11
-66.091747432557185
21
-23.601182024689436
31
0
0
ARC
5
119
100
AcDbEntity
8
0
100
AcDbCircle
10
0
20
-8.8817841970012523e-15
30
0
40
67.829326730618348
210
0
220
0
230
1
100
AcDbArc
50
201.3322535931685
51
338.66869039916998
0
LINE
5
120
100
AcDbEntity
8
0
100
AcDbLine
10
65.525956346319504
20
-23.45970416493725
30
0
11
66.095295811133781
21
-23.600601437964922
31
0
0
ARC
5
121
100
AcDbEntity
8
0
100
AcDbCircle
10
67.056207981042832
20
-19.717735511652158
30
0
40
3.9999999999999991
210
0
220
0
230
1
100
AcDbArc
50
256.10000000000008
51
346.09999999999997
0
LINE
5
122
100
AcDbEntity
8
0
100
AcDbLine
10
74.006052892844224
20
-19.377314939710047
30
0
11
73.360962835000564
21
-19.217671290139599
31
0
0
ARC
5
123
100
AcDbEntity
8
0
100
AcDbCircle
10
0
20
0
30
0
40
78.500000000000028
210
0
220
0
230
1
100
AcDbArc
50
-13.174645836896367
51
13.17806325831245
0
LINE
5
124
100
AcDbEntity
8
0
100
AcDbLine
10
73.359482925015996
20
19.221681960566251
30
0
11
74.004096306277361
21
19.381530638503065
31
0
0
ARC
5
125
100
AcDbEntity
8
0
100
AcDbCircle
10
67.054492575335729
20
19.718770172495447
30
0
40
4.0000000000000018
210
0
220
-0
230
1
100
AcDbArc
50
13.927049027846346
51
103.92704902784648
0
LINE
5
126
100
AcDbEntity
8
0
100
AcDbLine
10
65.526454320520585
20
23.461002873538362
30
0
11
66.091747432557185
21
23.601182024689429
31
0
0
ARC
5
127
100
AcDbEntity
8
0
100
AcDbCircle
10
0
20
-8.8817841970012523e-15
30
0
40
67.829326730618334
210
0
220
-0
230
1
100
AcDbArc
50
21.332253593168517
51
158.66869039917
0
LINE
5
128
100
AcDbEntity
8
0
100
AcDbLine
10
-65.525956346319489
20
23.459704164937243
30
0
11
-66.095295811133781
21
23.600601437964915
31
0
0
CIRCLE
5
129
100
AcDbEntity
8
0
100
AcDbCircle
10
-73.609400598331604
20
22.374517747207999
30
0
40
1.6500000000000008
210
0
220
0
230
1
0
CIRCLE
5
130
100
AcDbEntity
8
0
100
AcDbCircle
10
-65.657029380251061
20
26.568415875486458
30
0
40
1.6500000000000004
210
0
220
0
230
1
0
CIRCLE
5
131
100
AcDbEntity
8
0
100
AcDbCircle
10
-73.609400598331604
20
-22.374517747207999
30
0
40
1.6500000000000008
210
0
220
0
230
1
0
CIRCLE
5
132
100
AcDbEntity
8
0
100
AcDbCircle
10
-65.657029380251061
20
-26.568415875486458
30
0
40
1.6500000000000004
210
0
220
0
230
1
0
CIRCLE
5
133
100
AcDbEntity
8
0
100
AcDbCircle
10
73.609400598331604
20
-22.37451774720801
30
0
40
1.6500000000000008
210
0
220
0
230
1
0
CIRCLE
5
134
100
AcDbEntity
8
0
100
AcDbCircle
10
65.657029380251061
20
-26.568415875486465
30
0
40
1.6500000000000004
210
0
220
0
230
1
0
CIRCLE
5
135
100
AcDbEntity
8
0
100
AcDbCircle
10
73.609400598331604
20
22.374517747207992
30
0
40
1.6500000000000008
210
0
220
0
230
1
0
CIRCLE
5
136
100
AcDbEntity
8
0
100
AcDbCircle
10
65.657029380251061
20
26.568415875486448
30
0
40
1.6500000000000004
210
0
220
0
230
1
0
LWPOLYLINE
5
137
100
AcDbEntity
8
0
100
AcDbPolyline
90
4
70
1
43
0.0
10
18.13695747361329
20
85.5996540507048
10
0
20
85.5996540507048
10
0
20
96.835000000000022
10
18.13695747361329
20
96.835000000000022
0
CIRCLE
5
138
100
AcDbEntity
8
0
100
AcDbCircle
10
30.335000000000001
20
65.7969194899012
30
0
40
1.6000000000000003
210
0
220
0
230
1
0
CIRCLE
5
139
100
AcDbEntity
8
0
100
AcDbCircle
10
-30.335000000000001
20
65.7969194899012
30
0
40
1.6000000000000003
210
0
220
0
230
1
0
CIRCLE
5
140
100
AcDbEntity
8
0
100
AcDbCircle
10
-30.335000000000001
20
-65.7969194899012
30
0
40
1.6000000000000003
210
0
220
0
230
1
0
CIRCLE
5
141
100
AcDbEntity
8
0
100
AcDbCircle
10
30.335000000000001
20
-65.7969194899012
30
0
40
1.6000000000000003
210
0
220
0
230
1
0
CIRCLE
5
142
100
AcDbEntity
8
0
100
AcDbCircle
10
-81.5
20
4.4408920985006262e-15
30
0
40
1.6000000000000003
210
0
220
0
230
1
0
CIRCLE
5
143
100
AcDbEntity
8
0
100
AcDbCircle
10
81.499999951708176
20
0.0027535105386111702
30
0
40
1.6000000000000003
210
0
220
0
230
1
0
ARC
5
144
100
AcDbEntity
8
0
100
AcDbCircle
10
-74.485468877666577
20
17.440324712406085
30
0
40
2.0000000000000155
210
0
220
-0
230
1
100
AcDbArc
50
76.07295097215362
51
166.82193674168681
0
ARC
5
145
100
AcDbEntity
8
0
100
AcDbCircle
10
-72.879485976414955
20
21.163229008164066
30
0
40
2.0000000000000049
210
0
220
0
230
1
100
AcDbArc
50
256.07295097215314
51
346.09999999999968
0
ARC
5
146
100
AcDbEntity
8
0
100
AcDbCircle
10
-65.045500261364978
20
25.401137128093612
30
0
40
1.9999999999999842
210
0
220
0
230
1
100
AcDbArc
50
256.10000000000036
51
338.66869039916986
0
ARC
5
147
100
AcDbEntity
8
0
100
AcDbCircle
10
-74.485468877666605
20
-17.440324712406113
30
0
40
1.9999999999999951
210
0
220
0
230
1
100
AcDbArc
50
193.1780632583112
51
283.92704902784692
0
ARC
5
148
100
AcDbEntity
8
0
100
AcDbCircle
10
-72.87811035362671
20
-21.162887886663277
30
0
40
1.9999999999999984
210
0
220
-0
230
1
100
AcDbArc
50
13.927049027846531
51
103.92704902784683
0
ARC
5
149
100
AcDbEntity
8
0
100
AcDbCircle
10
-65.045081749131342
20
-25.402208799635378
30
0
40
2.0000000000000107
210
0
220
-0
230
1
100
AcDbArc
50
21.332253593169284
51
103.92704902784601
0
ARC
5
150
100
AcDbEntity
8
0
100
AcDbCircle
10
65.045500261364978
20
-25.40113712809362
30
0
40
1.9999999999999867
210
0
220
-0
230
1
100
AcDbArc
50
76.09999999999998
51
158.66869039917142
0
ARC
5
151
100
AcDbEntity
8
0
100
AcDbCircle
10
72.880506750046038
20
-21.159104253295983
30
0
40
1.9999999999999973
210
0
220
-0
230
1
100
AcDbArc
50
76.10000000000008
51
166.10000000000031
0
ARC
5
152
100
AcDbEntity
8
0
100
AcDbCircle
10
74.486508977798735
20
-17.435881976553645
30
0
40
2.0000000000000191
210
0
220
0
230
1
100
AcDbArc
50
256.10000000000059
51
346.82535416310316
0
ARC
5
153
100
AcDbEntity
8
0
100
AcDbCircle
10
65.045081749131313
20
25.40220879963535
30
0
40
1.9999999999999993
210
0
220
0
230
1
100
AcDbArc
50
201.33225359316847
51
283.92704902784652
0
ARC
5
154
100
AcDbEntity
8
0
100
AcDbCircle
10
72.878110353626724
20
21.16288788666326
30
0
40
2.0000000000000169
210
0
220
0
230
1
100
AcDbArc
50
193.92704902784652
51
283.92704902784635
0
ARC
5
155
100
AcDbEntity
8
0
100
AcDbCircle
10
74.485468877666619
20
17.440324712406088
30
0
40
1.999999999999982
210
0
220
-0
230
1
100
AcDbArc
50
13.178063258311921
51
103.92704902784617
0
ENDSEC
0
SECTION
2
OBJECTS
0
DICTIONARY
5
C
100
AcDbDictionary
3
ACAD_GROUP
350
D
3
ACAD_MLINESTYLE
350
17
0
DICTIONARY
5
D
100
AcDbDictionary
0
DICTIONARY
5
1A
330
C
100
AcDbDictionary
0
DICTIONARY
5
17
100
AcDbDictionary
0
ENDSEC
0
EOF
