0
SECTION
2
HEADER
9
$INSUNITS
70
4
9
$ACADVER
1
AC1014
9
$HANDSEED
5
FFFF
0
ENDSEC
0
SECTION
2
TABLES
0
TABLE
2
VPORT
5
8
100
AcDbSymbolTable
0
ENDTAB
0
TABLE
2
LTYPE
5
5
100
AcDbSymbolTable
0
LTYPE
5
14
100
AcDbSymbolTableRecord
100
AcDbLinetypeTableRecord
2
BYBLOCK
70
0
0
LTYPE
5
15
100
AcDbSymbolTableRecord
100
AcDbLinetypeTableRecord
2
BYLAYER
70
0
0
LTYPE
5
16
100
AcDbSymbolTableRecord
100
AcDbLinetypeTableRecord
2
DASHED
70
0
3
Dashed __ __ __ __ __ __ __ __ __ __ __ __ __ _
72
65
73
2
40
0.75
49
0.5
74
0
49
-0.25
74
0
0
ENDTAB
0
TABLE
2
LAYER
5
2
100
AcDbSymbolTable
70
2
0
LAYER
5
50
100
AcDbSymbolTableRecord
100
AcDbLayerTableRecord
2
0
70
0
62
7
6
CONTINUOUS
0
ENDTAB
0
TABLE
2
STYLE
5
3
100
AcDbSymbolTable
70
1
0
STYLE
5
11
100
AcDbSymbolTableRecord
100
AcDbTextStyleTableRecord
2
STANDARD
70
0
0
ENDTAB
0
TABLE
2
VIEW
5
6
100
AcDbSymbolTable
70
0
0
ENDTAB
0
TABLE
2
UCS
5
7
100
AcDbSymbolTable
70
0
0
ENDTAB
0
TABLE
2
APPID
5
9
100
AcDbSymbolTable
70
2
0
APPID
5
12
100
AcDbSymbolTableRecord
100
AcDbRegAppTableRecord
2
ACAD
70
0
0
ENDTAB
0
TABLE
2
DIMSTYLE
5
A
100
AcDbSymbolTable
70
1
0
ENDTAB
0
TABLE
2
BLOCK_RECORD
5
1
100
AcDbSymbolTable
70
1
0
BLOCK_RECORD
5
1F
100
AcDbSymbolTableRecord
100
AcDbBlockTableRecord
2
*MODEL_SPACE
0
BLOCK_RECORD
5
1B
100
AcDbSymbolTableRecord
100
AcDbBlockTableRecord
2
*PAPER_SPACE
0
ENDTAB
0
ENDSEC
0
SECTION
2
BLOCKS
0
BLOCK
5
20
100
AcDbEntity
100
AcDbBlockBegin
2
*MODEL_SPACE
0
ENDBLK
5
21
100
AcDbEntity
100
AcDbBlockEnd
0
BLOCK
5
1C
100
AcDbEntity
100
AcDbBlockBegin
2
*PAPER_SPACE
0
ENDBLK
5
1D
100
AcDbEntity
100
AcDbBlockEnd
0
ENDSEC
0
SECTION
2
ENTITIES
0
LWPOLYLINE
5
100
100
AcDbEntity
8
0
100
AcDbPolyline
90
23
70
1
43
0.0
10
-24.335000000000022
20
64.301167884849818
10
-24.335000000000008
20
78.962999999999951
10
-21.335000000000001
20
78.962999999999951
10
-21.335000000000012
20
68.139205308784497
42
0.49771938269717708
10
-18.789039706644811
20
66.215165974966325
42
-0.13913221731749892
10
18.789039706644814
20
66.215165974966325
42
0.49771938269717542
10
21.335000000000019
20
68.139205308784497
10
21.335000000000012
20
78.962999999999994
10
24.335000000000008
20
78.962999999999994
10
24.335000000000022
20
64.301167884849761
42
0.083423640585771425
10
24.499727272727263
20
63.320745240280935
42
-0.10860049318522216
10
24.62456463738279
20
62.25468385367266
42
0.32346215692402919
10
26.388504818181922
20
59.215609578945134
42
-0.00045450871791874741
10
26.496117184330554
20
59.167536525526323
42
-0.29562716787658005
10
28.269999999999989
20
56.429537867694421
10
28.269999999999985
20
49.730000000000061
42
-0.41421356237309809
10
25.269999999999992
20
46.730000000000054
10
24.72999999999999
20
46.730000000000054
42
-0.41421356237309892
10
21.729999999999997
20
49.730000000000061
10
21.72999999999999
20
57.851626661553361
42
0.32520992821690881
10
19.654054702841002
20
60.705768022130549
42
0.16484296593651054
10
-21.302373314376894
20
60.147161434218305
42
-0.62838032508409636
10
-24.499727272727277
20
63.320745240280971
42
0.083423640585770814
0
LINE
5
101
100
AcDbEntity
8
0
100
AcDbLine
10
0
20
-82.963486249924642
30
0
11
24.335000000000004
21
-82.963486249924642
31
0
0
CIRCLE
5
102
100
AcDbEntity
8
0
100
AcDbCircle
10
0
20
-96.835000000000022
30
0
40
21.335000000000001
210
0
220
0
230
1
0
LINE
5
103
100
AcDbEntity
8
0
100
AcDbLine
10
0
20
-96.835000000000022
30
0
11
0
21
-75.500000000000028
31
0
0
CIRCLE
5
104
100
AcDbEntity
8
0
100
AcDbCircle
10
22.136999999999993
20
62.503726369806927
30
0
40
0.99999999999999645
210
0
220
0
230
1
0
CIRCLE
5
105
100
AcDbEntity
8
0
100
AcDbCircle
10
-22.136999999999993
20
62.503726369806927
30
0
40
0.99999999999999645
210
0
220
0
230
1
0
CIRCLE
5
106
100
AcDbEntity
8
0
100
AcDbCircle
10
24.999999999999993
20
55.08000000000002
30
0
40
0.79999999999999793
210
0
220
-0
230
1
0
CIRCLE
5
107
100
AcDbEntity
8
0
100
AcDbCircle
10
24.999999999999993
20
50.000000000000057
30
0
40
0.80000000000000071
210
0
220
-0
230
1
0
LWPOLYLINE
5
108
100
AcDbEntity
8
0
100
AcDbPolyline
90
4
70
1
43
0.0
10
26.269999999999989
20
48.730000000000054
10
23.729999999999993
20
48.730000000000054
10
23.729999999999993
20
56.349999999999994
10
26.269999999999989
20
56.349999999999994
0
ENDSEC
0
SECTION
2
OBJECTS
0
DICTIONARY
5
C
100
AcDbDictionary
3
ACAD_GROUP
350
D
3
ACAD_MLINESTYLE
350
17
0
DICTIONARY
5
D
100
AcDbDictionary
0
DICTIONARY
5
1A
330
C
100
AcDbDictionary
0
DICTIONARY
5
17
100
AcDbDictionary
0
ENDSEC
0
EOF
