0
SECTION
2
HEADER
9
$INSUNITS
70
4
9
$ACADVER
1
AC1014
9
$HANDSEED
5
FFFF
0
ENDSEC
0
SECTION
2
TABLES
0
TABLE
2
VPORT
5
8
100
AcDbSymbolTable
0
ENDTAB
0
TABLE
2
LTYPE
5
5
100
AcDbSymbolTable
0
LTYPE
5
14
100
AcDbSymbolTableRecord
100
AcDbLinetypeTableRecord
2
BYBLOCK
70
0
0
LTYPE
5
15
100
AcDbSymbolTableRecord
100
AcDbLinetypeTableRecord
2
BYLAYER
70
0
0
LTYPE
5
16
100
AcDbSymbolTableRecord
100
AcDbLinetypeTableRecord
2
DASHED
70
0
3
Dashed __ __ __ __ __ __ __ __ __ __ __ __ __ _
72
65
73
2
40
0.75
49
0.5
74
0
49
-0.25
74
0
0
ENDTAB
0
TABLE
2
LAYER
5
2
100
AcDbSymbolTable
70
2
0
LAYER
5
50
100
AcDbSymbolTableRecord
100
AcDbLayerTableRecord
2
0
70
0
62
7
6
CONTINUOUS
0
ENDTAB
0
TABLE
2
STYLE
5
3
100
AcDbSymbolTable
70
1
0
STYLE
5
11
100
AcDbSymbolTableRecord
100
AcDbTextStyleTableRecord
2
STANDARD
70
0
0
ENDTAB
0
TABLE
2
VIEW
5
6
100
AcDbSymbolTable
70
0
0
ENDTAB
0
TABLE
2
UCS
5
7
100
AcDbSymbolTable
70
0
0
ENDTAB
0
TABLE
2
APPID
5
9
100
AcDbSymbolTable
70
2
0
APPID
5
12
100
AcDbSymbolTableRecord
100
AcDbRegAppTableRecord
2
ACAD
70
0
0
ENDTAB
0
TABLE
2
DIMSTYLE
5
A
100
AcDbSymbolTable
70
1
0
ENDTAB
0
TABLE
2
BLOCK_RECORD
5
1
100
AcDbSymbolTable
70
1
0
BLOCK_RECORD
5
1F
100
AcDbSymbolTableRecord
100
AcDbBlockTableRecord
2
*MODEL_SPACE
0
BLOCK_RECORD
5
1B
100
AcDbSymbolTableRecord
100
AcDbBlockTableRecord
2
*PAPER_SPACE
0
ENDTAB
0
ENDSEC
0
SECTION
2
BLOCKS
0
BLOCK
5
20
100
AcDbEntity
100
AcDbBlockBegin
2
*MODEL_SPACE
0
ENDBLK
5
21
100
AcDbEntity
100
AcDbBlockEnd
0
BLOCK
5
1C
100
AcDbEntity
100
AcDbBlockBegin
2
*PAPER_SPACE
0
ENDBLK
5
1D
100
AcDbEntity
100
AcDbBlockEnd
0
ENDSEC
0
SECTION
2
ENTITIES
0
CIRCLE
5
100
100
AcDbEntity
8
0
100
AcDbCircle
10
67.054492575335729
20
19.718770172495454
30
0
40
1.6500000000000004
210
-0
220
0
230
1
0
CIRCLE
5
101
100
AcDbEntity
8
0
100
AcDbCircle
10
67.056207981042832
20
-19.717735511652151
30
0
40
1.6500000000000004
210
-0
220
0
230
1
0
CIRCLE
5
102
100
AcDbEntity
8
0
100
AcDbCircle
10
-67.056207981042832
20
19.717735511652158
30
0
40
1.6500000000000004
210
-0
220
0
230
1
0
CIRCLE
5
103
100
AcDbEntity
8
0
100
AcDbCircle
10
-67.054492575335729
20
-19.718770172495447
30
0
40
1.6500000000000004
210
-0
220
0
230
1
0
LWPOLYLINE
5
104
100
AcDbEntity
8
0
100
AcDbPolyline
90
32
70
1
43
0.0
10
72.629566247662098
20
18.010392711823133
10
73.25480786124561
20
18.165437655393553
42
-0.42199469181658161
10
75.689456735486118
20
16.654012702258051
42
-0.10871513651892324
10
75.689456735486118
20
-16.654012702258076
42
-0.42199469181657678
10
73.254807861245581
20
-18.165437655393561
10
72.630483545842452
20
-18.010620179799556
42
0.41435184243946233
10
70.207678011296807
20
-19.471370020942022
10
69.968357425777413
20
-20.438419639083946
42
-0.4142135623730947
10
66.335523853611036
20
-22.629884956386725
10
64.908385325268569
20
-22.276703876726668
42
0.38035879815381568
10
62.555822325990462
20
-23.514421200336947
42
-0.69241613361891696
10
-62.55557342695927
20
-23.515083340104262
42
0.38049087337869192
10
-64.909045463875515
20
-22.277612869397725
10
-66.332433718251821
20
-22.630579061640933
42
-0.41421356237309509
10
-69.966301464481219
20
-20.440829029579351
10
-70.206987750175855
20
-19.470226066530842
42
0.41421356237309603
10
-72.629566247662098
20
-18.010392711823123
10
-73.254807861245638
20
-18.165437655393543
42
-0.42199469181658228
10
-75.689456735486161
20
-16.654012702258065
42
-0.10870145863188359
10
-75.690357149704525
20
16.649919956269326
42
-0.42187158148321452
10
-73.256601525128687
20
18.161677565647707
10
-72.630474396105924
20
18.006726766426112
42
0.4142135624144459
10
-70.208585347720913
20
19.467703644560128
10
-69.968357425777413
20
20.438419639083953
42
-0.4142135623730947
10
-66.335523853611036
20
22.629884956386732
10
-64.90838532526854
20
22.276703876726671
42
0.38035879815380497
10
-62.555822325990448
20
23.514421200336926
42
-0.69241613361891707
10
62.555573426959235
20
23.515083340104272
42
0.38049087337869875
10
64.909045463875486
20
22.277612869397728
10
66.332433718251821
20
22.630579061640944
42
-0.41421356237309509
10
69.966301464481219
20
20.440829029579358
10
70.206987750175855
20
19.470226066530859
42
0.41421356237309304
0
CIRCLE
5
105
100
AcDbEntity
8
0
100
AcDbCircle
10
-6.5
20
-31.87867973094616
30
0
40
1.5999999999999996
210
0
220
0
230
1
0
CIRCLE
5
106
100
AcDbEntity
8
0
100
AcDbCircle
10
6.5
20
-31.87867973094616
30
0
40
1.6000000000000003
210
0
220
0
230
1
0
LWPOLYLINE
5
107
100
AcDbEntity
8
0
100
AcDbPolyline
90
14
70
1
43
0.0
10
45.079390260296123
20
2.1000000521540936
10
45.079390260296123
20
1.1000000521540931
10
45.079390260296123
20
-5.0999999478459053
10
45.079390260296123
20
-26.099999947845902
42
-0.41421356237309176
10
43.079390260296137
20
-28.099999947845905
10
39.079390260296123
20
-28.099999947845905
42
-0.4142135623730957
10
37.079390260296123
20
-26.099999947845905
10
37.079390260296123
20
-5.0999999478459053
10
37.079390260296123
20
1.1000000521540931
10
37.079390260296123
20
2.100000052154094
42
-0.41421356237309692
10
39.079390260296137
20
4.1000000521540949
10
40.47018435034132
20
4.100000052154094
10
41.688596170250946
20
4.100000052154094
10
43.079390260296123
20
4.100000052154094
42
-0.41421356237309226
0
ENDSEC
0
SECTION
2
OBJECTS
0
DICTIONARY
5
C
100
AcDbDictionary
3
ACAD_GROUP
350
D
3
ACAD_MLINESTYLE
350
17
0
DICTIONARY
5
D
100
AcDbDictionary
0
DICTIONARY
5
1A
330
C
100
AcDbDictionary
0
DICTIONARY
5
17
100
AcDbDictionary
0
ENDSEC
0
EOF
