0
SECTION
2
HEADER
9
$INSUNITS
70
4
9
$ACADVER
1
AC1014
9
$HANDSEED
5
FFFF
0
ENDSEC
0
SECTION
2
TABLES
0
TABLE
2
VPORT
5
8
100
AcDbSymbolTable
0
ENDTAB
0
TABLE
2
LTYPE
5
5
100
AcDbSymbolTable
0
LTYPE
5
14
100
AcDbSymbolTableRecord
100
AcDbLinetypeTableRecord
2
BYBLOCK
70
0
0
LTYPE
5
15
100
AcDbSymbolTableRecord
100
AcDbLinetypeTableRecord
2
BYLAYER
70
0
0
LTYPE
5
16
100
AcDbSymbolTableRecord
100
AcDbLinetypeTableRecord
2
DASHED
70
0
3
Dashed __ __ __ __ __ __ __ __ __ __ __ __ __ _
72
65
73
2
40
0.75
49
0.5
74
0
49
-0.25
74
0
0
ENDTAB
0
TABLE
2
LAYER
5
2
100
AcDbSymbolTable
70
2
0
LAYER
5
50
100
AcDbSymbolTableRecord
100
AcDbLayerTableRecord
2
0
70
0
62
7
6
CONTINUOUS
0
ENDTAB
0
TABLE
2
STYLE
5
3
100
AcDbSymbolTable
70
1
0
STYLE
5
11
100
AcDbSymbolTableRecord
100
AcDbTextStyleTableRecord
2
STANDARD
70
0
0
ENDTAB
0
TABLE
2
VIEW
5
6
100
AcDbSymbolTable
70
0
0
ENDTAB
0
TABLE
2
UCS
5
7
100
AcDbSymbolTable
70
0
0
ENDTAB
0
TABLE
2
APPID
5
9
100
AcDbSymbolTable
70
2
0
APPID
5
12
100
AcDbSymbolTableRecord
100
AcDbRegAppTableRecord
2
ACAD
70
0
0
ENDTAB
0
TABLE
2
DIMSTYLE
5
A
100
AcDbSymbolTable
70
1
0
ENDTAB
0
TABLE
2
BLOCK_RECORD
5
1
100
AcDbSymbolTable
70
1
0
BLOCK_RECORD
5
1F
100
AcDbSymbolTableRecord
100
AcDbBlockTableRecord
2
*MODEL_SPACE
0
BLOCK_RECORD
5
1B
100
AcDbSymbolTableRecord
100
AcDbBlockTableRecord
2
*PAPER_SPACE
0
ENDTAB
0
ENDSEC
0
SECTION
2
BLOCKS
0
BLOCK
5
20
100
AcDbEntity
100
AcDbBlockBegin
2
*MODEL_SPACE
0
ENDBLK
5
21
100
AcDbEntity
100
AcDbBlockEnd
0
BLOCK
5
1C
100
AcDbEntity
100
AcDbBlockBegin
2
*PAPER_SPACE
0
ENDBLK
5
1D
100
AcDbEntity
100
AcDbBlockEnd
0
ENDSEC
0
SECTION
2
ENTITIES
0
POINT
5
100
100
AcDbEntity
8
0
100
AcDbPoint
10
0
20
0
30
0
0
LWPOLYLINE
5
101
100
AcDbEntity
8
0
100
AcDbPolyline
90
22
70
1
43
0.0
10
-26.355220573718672
20
-10.762324343495088
10
-32.29799277114963
20
-16.693407599284797
42
-0.19865653578887885
10
-34.417223803222299
20
-17.57000000000005
10
-79.161450856418611
20
-17.570000000000068
42
-0.36185275324669924
10
-82.111892547163876
20
-15.113041277908362
42
-0.024842144300485626
10
-83.205985255268402
20
-6.894268057220212
10
-83.205985255268402
20
6.8942680572202804
42
-0.050931785390196618
10
-80.094520969239937
20
23.57190329720386
42
-0.33265954086080585
10
-77.216567400937294
20
25.724918480986901
10
-69.624999994996571
20
25.724918472102722
42
-0.41421356208281446
10
-66.624999998507377
20
22.724918471565132
10
-66.624999999999531
20
14.397857166784878
42
0.41421356242558116
10
-63.624999999999531
20
11.397857166247299
10
-27.746076900894273
20
11.397857166247336
42
-0.19916822401944817
10
-26.330471834704436
20
10.810677854295776
10
-26.001888918728156
20
10.481447369171747
42
0.19916822401944842
10
-24.586283852538322
20
9.8942680572201898
10
-23.245985255268309
20
9.8942680572201915
42
-0.41421356237309348
10
-20.245985255268305
20
6.8942680572201915
10
-20.245985255268316
20
-6.8857319427798362
42
-0.41421356237309653
10
-23.245985255268316
20
-9.8857319427798362
10
-24.235989541646003
20
-9.8857319427798362
42
0.1986565357888804
0
CIRCLE
5
102
100
AcDbEntity
8
0
100
AcDbCircle
10
-37.37999999999996
20
-12.340000000000103
30
-1.1102230246251563e-15
40
0.16000000000000014
210
0
220
0
230
1
0
CIRCLE
5
103
100
AcDbEntity
8
0
100
AcDbCircle
10
-37.379999999999967
20
-14.880000000000098
30
1.2325951644078309e-31
40
0.16000000000000014
210
0
220
0
230
1
0
CIRCLE
5
104
100
AcDbEntity
8
0
100
AcDbCircle
10
-55.159999999999982
20
-14.880000000000051
30
1.2325951644078309e-31
40
0.16000000000000014
210
0
220
0
230
1
0
CIRCLE
5
105
100
AcDbEntity
8
0
100
AcDbCircle
10
-55.159999999999975
20
-12.340000000000053
30
1.2325951644078309e-31
40
0.16000000000000014
210
0
220
0
230
1
0
CIRCLE
5
106
100
AcDbEntity
8
0
100
AcDbCircle
10
-22.515986298349624
20
-7.615732203550154
30
0
40
0.80000000000000071
210
0
220
0
230
1
0
CIRCLE
5
107
100
AcDbEntity
8
0
100
AcDbCircle
10
-80.935986298349718
20
7.6242683179905253
30
-3.3896367021215351e-31
40
0.80000000000000737
210
0
220
0
230
1
0
ENDSEC
0
SECTION
2
OBJECTS
0
DICTIONARY
5
C
100
AcDbDictionary
3
ACAD_GROUP
350
D
3
ACAD_MLINESTYLE
350
17
0
DICTIONARY
5
D
100
AcDbDictionary
0
DICTIONARY
5
1A
330
C
100
AcDbDictionary
0
DICTIONARY
5
17
100
AcDbDictionary
0
ENDSEC
0
EOF
