0
SECTION
2
HEADER
9
$INSUNITS
70
4
9
$ACADVER
1
AC1014
9
$HANDSEED
5
FFFF
0
ENDSEC
0
SECTION
2
TABLES
0
TABLE
2
VPORT
5
8
100
AcDbSymbolTable
0
ENDTAB
0
TABLE
2
LTYPE
5
5
100
AcDbSymbolTable
0
LTYPE
5
14
100
AcDbSymbolTableRecord
100
AcDbLinetypeTableRecord
2
BYBLOCK
70
0
0
LTYPE
5
15
100
AcDbSymbolTableRecord
100
AcDbLinetypeTableRecord
2
BYLAYER
70
0
0
LTYPE
5
16
100
AcDbSymbolTableRecord
100
AcDbLinetypeTableRecord
2
DASHED
70
0
3
Dashed __ __ __ __ __ __ __ __ __ __ __ __ __ _
72
65
73
2
40
0.75
49
0.5
74
0
49
-0.25
74
0
0
ENDTAB
0
TABLE
2
LAYER
5
2
100
AcDbSymbolTable
70
2
0
LAYER
5
50
100
AcDbSymbolTableRecord
100
AcDbLayerTableRecord
2
0
70
0
62
7
6
CONTINUOUS
0
ENDTAB
0
TABLE
2
STYLE
5
3
100
AcDbSymbolTable
70
1
0
STYLE
5
11
100
AcDbSymbolTableRecord
100
AcDbTextStyleTableRecord
2
STANDARD
70
0
0
ENDTAB
0
TABLE
2
VIEW
5
6
100
AcDbSymbolTable
70
0
0
ENDTAB
0
TABLE
2
UCS
5
7
100
AcDbSymbolTable
70
0
0
ENDTAB
0
TABLE
2
APPID
5
9
100
AcDbSymbolTable
70
2
0
APPID
5
12
100
AcDbSymbolTableRecord
100
AcDbRegAppTableRecord
2
ACAD
70
0
0
ENDTAB
0
TABLE
2
DIMSTYLE
5
A
100
AcDbSymbolTable
70
1
0
ENDTAB
0
TABLE
2
BLOCK_RECORD
5
1
100
AcDbSymbolTable
70
1
0
BLOCK_RECORD
5
1F
100
AcDbSymbolTableRecord
100
AcDbBlockTableRecord
2
*MODEL_SPACE
0
BLOCK_RECORD
5
1B
100
AcDbSymbolTableRecord
100
AcDbBlockTableRecord
2
*PAPER_SPACE
0
ENDTAB
0
ENDSEC
0
SECTION
2
BLOCKS
0
BLOCK
5
20
100
AcDbEntity
100
AcDbBlockBegin
2
*MODEL_SPACE
0
ENDBLK
5
21
100
AcDbEntity
100
AcDbBlockEnd
0
BLOCK
5
1C
100
AcDbEntity
100
AcDbBlockBegin
2
*PAPER_SPACE
0
ENDBLK
5
1D
100
AcDbEntity
100
AcDbBlockEnd
0
ENDSEC
0
SECTION
2
ENTITIES
0
LWPOLYLINE
5
100
100
AcDbEntity
8
0
100
AcDbPolyline
90
24
70
1
43
0.0
10
28.878679929349286
20
44.435028880039923
10
34.806245377635257
20
50.362594537871949
42
0.48281057860257892
10
34.27081929495364
20
55.030469280189685
42
0.043375543391311652
10
24.262744311485697
20
60.117891204039545
42
-0.30583413618240329
10
23.636999999999993
20
61.045216756159554
10
23.636999999999993
20
62.878654106681864
42
0.31626121518866512
10
22.975728535920268
20
63.819538254148114
42
0.0039647810229524651
10
21.960765045355252
20
64.175870569488026
42
0.51443097439165031
10
20.637
20
63.229733055483791
10
20.637000000000004
20
62.832224923254962
42
-0.50598896411690253
10
19.338698301118033
20
61.877753291175665
42
0.15262523844596296
10
-19.338698301118022
20
61.877753291175665
42
-0.5059889641169002
10
-20.637
20
62.832224923254962
10
-20.637
20
63.229733055483777
42
0.51443097439165519
10
-21.960765045355259
20
64.175870569488012
42
0.0039647810229507157
10
-22.975728535920261
20
63.819538254148121
42
0.31626121518866335
10
-23.636999999999993
20
62.878654106681857
10
-23.636999999999993
20
61.045216756159547
42
-0.30583413618240562
10
-24.262744311485701
20
60.117891204039545
42
0.043375543315239184
10
-34.270819278239841
20
55.030469290598361
42
0.48281058023437745
10
-34.806245351110391
20
50.362594537214449
10
-28.878679656440337
20
44.435028842544412
42
0.19891236737966372
10
-26.757359312880698
20
43.556349186104057
10
26.757359548294119
20
43.556349186104057
42
0.19891237197338252
0
CIRCLE
5
101
100
AcDbEntity
8
0
100
AcDbCircle
10
-81.499999951708176
20
-0.0027535105386108628
30
0
40
1.6000000000000014
210
-2.4651903288156619e-32
220
-0
230
1
0
CIRCLE
5
102
100
AcDbEntity
8
0
100
AcDbCircle
10
14.007277926994403
20
51.465810504102443
30
1.1102230246251565e-15
40
0.99999999999999645
210
0
220
0
230
1
0
CIRCLE
5
103
100
AcDbEntity
8
0
100
AcDbCircle
10
9.0072779269944405
20
51.465810504102443
30
5.5511151231257827e-16
40
0.99999999999999645
210
0
220
0
230
1
0
LWPOLYLINE
5
104
100
AcDbEntity
8
0
100
AcDbPolyline
90
4
70
1
43
0.0
10
-0.10640432066952171
20
50.451404320669582
10
-0.74640432066954254
20
50.451404320669582
10
-0.74640432066954254
20
49.811404320669581
10
-0.10640432066952171
20
49.811404320669581
0
LWPOLYLINE
5
105
100
AcDbEntity
8
0
100
AcDbPolyline
90
4
70
1
43
0.0
10
-15.346404320669485
20
50.451404320669681
10
-15.986404320669454
20
50.451404320669681
10
-15.986404320669454
20
49.811404320669681
10
-15.346404320669485
20
49.811404320669681
0
CIRCLE
5
106
100
AcDbEntity
8
0
100
AcDbCircle
10
-22.136999999999993
20
62.503726369806927
30
0
40
0.99999999999999756
210
0
220
0
230
1
0
CIRCLE
5
107
100
AcDbEntity
8
0
100
AcDbCircle
10
22.136999999999993
20
62.503726369806927
30
0
40
0.99999999999999756
210
0
220
0
230
1
0
ENDSEC
0
SECTION
2
OBJECTS
0
DICTIONARY
5
C
100
AcDbDictionary
3
ACAD_GROUP
350
D
3
ACAD_MLINESTYLE
350
17
0
DICTIONARY
5
D
100
AcDbDictionary
0
DICTIONARY
5
1A
330
C
100
AcDbDictionary
0
DICTIONARY
5
17
100
AcDbDictionary
0
ENDSEC
0
EOF
