0
SECTION
2
HEADER
9
$INSUNITS
70
4
9
$ACADVER
1
AC1014
9
$HANDSEED
5
FFFF
0
ENDSEC
0
SECTION
2
TABLES
0
TABLE
2
VPORT
5
8
100
AcDbSymbolTable
0
ENDTAB
0
TABLE
2
LTYPE
5
5
100
AcDbSymbolTable
0
LTYPE
5
14
100
AcDbSymbolTableRecord
100
AcDbLinetypeTableRecord
2
BYBLOCK
70
0
0
LTYPE
5
15
100
AcDbSymbolTableRecord
100
AcDbLinetypeTableRecord
2
BYLAYER
70
0
0
LTYPE
5
16
100
AcDbSymbolTableRecord
100
AcDbLinetypeTableRecord
2
DASHED
70
0
3
Dashed __ __ __ __ __ __ __ __ __ __ __ __ __ _
72
65
73
2
40
0.75
49
0.5
74
0
49
-0.25
74
0
0
ENDTAB
0
TABLE
2
LAYER
5
2
100
AcDbSymbolTable
70
2
0
LAYER
5
50
100
AcDbSymbolTableRecord
100
AcDbLayerTableRecord
2
0
70
0
62
7
6
CONTINUOUS
0
ENDTAB
0
TABLE
2
STYLE
5
3
100
AcDbSymbolTable
70
1
0
STYLE
5
11
100
AcDbSymbolTableRecord
100
AcDbTextStyleTableRecord
2
STANDARD
70
0
0
ENDTAB
0
TABLE
2
VIEW
5
6
100
AcDbSymbolTable
70
0
0
ENDTAB
0
TABLE
2
UCS
5
7
100
AcDbSymbolTable
70
0
0
ENDTAB
0
TABLE
2
APPID
5
9
100
AcDbSymbolTable
70
2
0
APPID
5
12
100
AcDbSymbolTableRecord
100
AcDbRegAppTableRecord
2
ACAD
70
0
0
ENDTAB
0
TABLE
2
DIMSTYLE
5
A
100
AcDbSymbolTable
70
1
0
ENDTAB
0
TABLE
2
BLOCK_RECORD
5
1
100
AcDbSymbolTable
70
1
0
BLOCK_RECORD
5
1F
100
AcDbSymbolTableRecord
100
AcDbBlockTableRecord
2
*MODEL_SPACE
0
BLOCK_RECORD
5
1B
100
AcDbSymbolTableRecord
100
AcDbBlockTableRecord
2
*PAPER_SPACE
0
ENDTAB
0
ENDSEC
0
SECTION
2
BLOCKS
0
BLOCK
5
20
100
AcDbEntity
100
AcDbBlockBegin
2
*MODEL_SPACE
0
ENDBLK
5
21
100
AcDbEntity
100
AcDbBlockEnd
0
BLOCK
5
1C
100
AcDbEntity
100
AcDbBlockBegin
2
*PAPER_SPACE
0
ENDBLK
5
1D
100
AcDbEntity
100
AcDbBlockEnd
0
ENDSEC
0
SECTION
2
ENTITIES
0
POINT
5
100
100
AcDbEntity
8
0
100
AcDbPoint
10
0
20
0
30
0
0
CIRCLE
5
101
100
AcDbEntity
8
0
100
AcDbCircle
10
0
20
0
30
0
40
25
210
0
220
0
230
1
0
CIRCLE
5
102
100
AcDbEntity
8
0
100
AcDbCircle
10
0
20
0
30
0
40
27
210
0
220
0
230
1
0
CIRCLE
5
103
100
AcDbEntity
8
0
100
AcDbCircle
10
-26.16295090390226
20
-26.162950903902264
30
0
40
1.5999999999999996
210
0
220
0
230
1
0
LWPOLYLINE
5
104
100
AcDbEntity
8
0
100
AcDbPolyline
90
44
70
1
43
0.0
10
-27.937981630410821
20
-23.695340943291541
10
-28.284271247461902
20
-24.041630560342622
42
0.99999999999999989
10
-24.041630560342618
20
-28.284271247461909
10
-23.695340943291534
20
-27.937981630410832
42
-0.36727250104047504
10
-19.824775686240123
20
-27.622061273378268
42
0.3217155557047997
10
19.824775686240098
20
-27.622061273378272
42
-0.3672725010404792
10
23.695340943291537
20
-27.937981630410825
10
24.041630560342618
20
-28.284271247461909
42
0.99999999999999989
10
28.284271247461902
20
-24.041630560342622
10
27.937981630410821
20
-23.695340943291541
42
-0.36727250104047493
10
27.622061273378264
20
-19.824775686240127
42
0.038957540529488056
10
30.362970869136007
20
-15.299999999999965
42
-0.2832368967192177
10
33.042056534059881
20
-13.64999999999994
10
53.067857978595612
20
-13.650000000000603
42
0.35732469787274029
10
56.009211078428606
20
-11.240289710315581
42
0.099352740090729752
10
56.009211078428827
20
11.240289710314412
42
0.35732469787272386
10
53.067857978596066
20
13.649999999999503
10
33.04205653405959
20
13.650000000000162
42
-0.28323689671919633
10
30.362970869135925
20
15.300000000000152
42
0.038957540529486093
10
27.622061273378279
20
19.824775686240102
42
-0.36727250104047904
10
27.937981630410825
20
23.695340943291537
10
28.284271247461909
20
24.041630560342618
42
0.66817863791929888
10
26.162950903902264
20
29.162950903902257
10
25.25
20
29.162950903902257
42
-0.41421356237309587
10
22.25
20
32.162950903902257
10
22.25
20
48
42
0.41421356237309509
10
19.25
20
51
10
-19.25
20
51
42
0.41421356237309692
10
-22.25
20
48
10
-22.25
20
32.162950903902264
42
-0.41421356237309681
10
-25.25
20
29.162950903902264
10
-26.16295090390226
20
29.162950903902264
42
0.66817863791929888
10
-28.284271247461902
20
24.041630560342622
10
-27.937981630410821
20
23.695340943291541
42
-0.36727250104047493
10
-27.622061273378264
20
19.824775686240127
42
0.087432525062656877
10
-32.73467278048291
20
9.1891891891891948
42
-0.33614692652371403
10
-35.623026261113765
20
6.9999999999999973
10
-51.25
20
7.0000000000000009
42
0.41421356237309387
10
-54.25
20
4
10
-54.25
20
-4
42
0.41421356237309387
10
-51.25
20
-7.0000000000000036
10
-35.623026261113772
20
-6.9999999999999929
42
-0.33614692652371475
10
-32.73467278048291
20
-9.1891891891891913
42
0.08743252506265671
10
-27.622061273378272
20
-19.824775686240105
42
-0.36727250104047904
0
CIRCLE
5
105
100
AcDbEntity
8
0
100
AcDbCircle
10
26.16295090390226
20
-26.162950903902264
30
0
40
1.5999999999999996
210
0
220
0
230
1
0
CIRCLE
5
106
100
AcDbEntity
8
0
100
AcDbCircle
10
26.162950903902264
20
26.16295090390226
30
0
40
1.5999999999999996
210
0
220
0
230
1
0
CIRCLE
5
107
100
AcDbEntity
8
0
100
AcDbCircle
10
-26.16295090390226
20
26.162950903902264
30
0
40
1.5999999999999996
210
0
220
0
230
1
0
LWPOLYLINE
5
108
100
AcDbEntity
8
0
100
AcDbPolyline
90
8
70
1
43
0.0
10
8.4999999999999982
20
8.8500000000001258
10
-8.499999999999984
20
8.8500000000001382
42
0.41421356237309509
10
-11.499999999999984
20
5.8500000000001418
10
-11.499999999999995
20
-5.8499999999998442
42
0.41421356237309509
10
-8.4999999999999964
20
-8.8499999999998451
10
8.4999999999999858
20
-8.8499999999998558
42
0.4142135623730952
10
11.499999999999986
20
-5.8499999999998593
10
11.499999999999993
20
5.8500000000001284
42
0.41421356237309509
0
LWPOLYLINE
5
109
100
AcDbEntity
8
0
100
AcDbPolyline
90
8
70
1
43
0.0
10
-8.4999999999999982
20
-9.8499999999998469
10
8.499999999999984
20
-9.8499999999998558
42
0.41421356237309531
10
12.499999999999982
20
-5.8499999999998593
10
12.499999999999993
20
5.8500000000001258
42
0.4142135623730952
10
8.4999999999999982
20
9.8500000000001258
10
-8.4999999999999822
20
9.8500000000001382
42
0.41421356237309515
10
-12.499999999999984
20
5.8500000000001426
10
-12.499999999999996
20
-5.8499999999998433
42
0.41421356237309509
0
CIRCLE
5
110
100
AcDbEntity
8
0
100
AcDbCircle
10
8.0000000000000071
20
19.350000000000112
30
-1.9984014443252818e-14
40
1.6000000000000012
210
0
220
0
230
1
0
CIRCLE
5
111
100
AcDbEntity
8
0
100
AcDbCircle
10
-7.9999999999999805
20
19.350000000000122
30
-1.9984014443252818e-14
40
1.5999999999999992
210
0
220
0
230
1
0
CIRCLE
5
112
100
AcDbEntity
8
0
100
AcDbCircle
10
8.0000000000000071
20
19.350000000000112
30
-1.9984014443252818e-14
40
3
210
0
220
0
230
1
0
CIRCLE
5
113
100
AcDbEntity
8
0
100
AcDbCircle
10
-7.9999999999999805
20
19.350000000000122
30
-1.9984014443252818e-14
40
3.0000000000000018
210
0
220
0
230
1
0
CIRCLE
5
114
100
AcDbEntity
8
0
100
AcDbCircle
10
35.279999999999433
20
-3.8099999998499761
30
0
40
0.49999999999999994
210
0
220
0
230
1
0
CIRCLE
5
115
100
AcDbEntity
8
0
100
AcDbCircle
10
35.279999999999681
20
3.810000000150052
30
0
40
0.49999999999999989
210
0
220
0
230
1
0
CIRCLE
5
116
100
AcDbEntity
8
0
100
AcDbCircle
10
0
20
44
30
0
40
3.0000007003545726
210
0
220
0
230
1
0
CIRCLE
5
117
100
AcDbEntity
8
0
100
AcDbCircle
10
-15
20
44
30
0
40
3.000000700354581
210
0
220
0
230
1
0
CIRCLE
5
118
100
AcDbEntity
8
0
100
AcDbCircle
10
15
20
44
30
0
40
3.000000700354581
210
0
220
0
230
1
0
CIRCLE
5
119
100
AcDbEntity
8
0
100
AcDbCircle
10
-47
20
0
30
0
40
3.0000000000000009
210
0
220
0
230
1
0
ENDSEC
0
SECTION
2
OBJECTS
0
DICTIONARY
5
C
100
AcDbDictionary
3
ACAD_GROUP
350
D
3
ACAD_MLINESTYLE
350
17
0
DICTIONARY
5
D
100
AcDbDictionary
0
DICTIONARY
5
1A
330
C
100
AcDbDictionary
0
DICTIONARY
5
17
100
AcDbDictionary
0
ENDSEC
0
EOF
