0
SECTION
2
HEADER
9
$INSUNITS
70
4
9
$ACADVER
1
AC1014
9
$HANDSEED
5
FFFF
0
ENDSEC
0
SECTION
2
TABLES
0
TABLE
2
VPORT
5
8
100
AcDbSymbolTable
0
ENDTAB
0
TABLE
2
LTYPE
5
5
100
AcDbSymbolTable
0
LTYPE
5
14
100
AcDbSymbolTableRecord
100
AcDbLinetypeTableRecord
2
BYBLOCK
70
0
0
LTYPE
5
15
100
AcDbSymbolTableRecord
100
AcDbLinetypeTableRecord
2
BYLAYER
70
0
0
LTYPE
5
16
100
AcDbSymbolTableRecord
100
AcDbLinetypeTableRecord
2
DASHED
70
0
3
Dashed __ __ __ __ __ __ __ __ __ __ __ __ __ _
72
65
73
2
40
0.75
49
0.5
74
0
49
-0.25
74
0
0
ENDTAB
0
TABLE
2
LAYER
5
2
100
AcDbSymbolTable
70
2
0
LAYER
5
50
100
AcDbSymbolTableRecord
100
AcDbLayerTableRecord
2
0
70
0
62
7
6
CONTINUOUS
0
ENDTAB
0
TABLE
2
STYLE
5
3
100
AcDbSymbolTable
70
1
0
STYLE
5
11
100
AcDbSymbolTableRecord
100
AcDbTextStyleTableRecord
2
STANDARD
70
0
0
ENDTAB
0
TABLE
2
VIEW
5
6
100
AcDbSymbolTable
70
0
0
ENDTAB
0
TABLE
2
UCS
5
7
100
AcDbSymbolTable
70
0
0
ENDTAB
0
TABLE
2
APPID
5
9
100
AcDbSymbolTable
70
2
0
APPID
5
12
100
AcDbSymbolTableRecord
100
AcDbRegAppTableRecord
2
ACAD
70
0
0
ENDTAB
0
TABLE
2
DIMSTYLE
5
A
100
AcDbSymbolTable
70
1
0
ENDTAB
0
TABLE
2
BLOCK_RECORD
5
1
100
AcDbSymbolTable
70
1
0
BLOCK_RECORD
5
1F
100
AcDbSymbolTableRecord
100
AcDbBlockTableRecord
2
*MODEL_SPACE
0
BLOCK_RECORD
5
1B
100
AcDbSymbolTableRecord
100
AcDbBlockTableRecord
2
*PAPER_SPACE
0
ENDTAB
0
ENDSEC
0
SECTION
2
BLOCKS
0
BLOCK
5
20
100
AcDbEntity
100
AcDbBlockBegin
2
*MODEL_SPACE
0
ENDBLK
5
21
100
AcDbEntity
100
AcDbBlockEnd
0
BLOCK
5
1C
100
AcDbEntity
100
AcDbBlockBegin
2
*PAPER_SPACE
0
ENDBLK
5
1D
100
AcDbEntity
100
AcDbBlockEnd
0
ENDSEC
0
SECTION
2
ENTITIES
0
CIRCLE
5
100
100
AcDbEntity
8
0
100
AcDbCircle
10
-81.499999951544623
20
-0.0027593484231024376
30
0
40
1.6000000000000003
210
0
220
0
230
1
0
CIRCLE
5
101
100
AcDbEntity
8
0
100
AcDbCircle
10
81.500000061458366
20
7.1161497815405277e-06
30
0
40
1.6000000000000016
210
0
220
0
230
1
0
ARC
5
102
100
AcDbEntity
8
0
100
AcDbCircle
10
-81.499999951544623
20
-0.0027593484231024376
30
0
40
3.0000082805283701
210
0
220
0
230
1
100
AcDbArc
50
90.000967866245972
51
270.0009705962176
0
ARC
5
103
100
AcDbEntity
8
0
100
AcDbCircle
10
81.500000061458337
20
7.1161497815405785e-06
30
0
40
3.0000000033364271
210
0
220
0
230
1
100
AcDbArc
50
-89.999033311057659
51
90.010814495734039
0
CIRCLE
5
104
100
AcDbEntity
8
0
100
AcDbCircle
10
0
20
0
30
0
40
20
210
0
220
0
230
1
0
LINE
5
105
100
AcDbEntity
8
0
100
AcDbLine
10
-67.735343919352914
20
2.9974870257667319
30
0
11
-81.500050629042633
21
2.9972489316772339
31
0
0
LINE
5
106
100
AcDbEntity
8
0
100
AcDbLine
10
81.50005067717305
20
-2.9999928867596539
30
0
11
67.734298103648527
21
-3.0002261333790115
31
0
0
CIRCLE
5
107
100
AcDbEntity
8
0
100
AcDbCircle
10
-81.499999951708176
20
-0.0027535105386108628
30
0
40
1.6000000000000014
210
-2.4651903288156619e-32
220
-0
230
1
0
CIRCLE
5
108
100
AcDbEntity
8
0
100
AcDbCircle
10
81.5
20
-4.1337263256808754e-15
30
0
40
1.6000000000000014
210
-2.4651903288156619e-32
220
-0
230
1
0
CIRCLE
5
109
100
AcDbEntity
8
0
100
AcDbCircle
10
20.007277926994377
20
50.46581050410245
30
5.5511151231257827e-16
40
0.34999999999999742
210
-1.1339875512552134e-29
220
-4.1020767071492597e-29
230
1
0
CIRCLE
5
110
100
AcDbEntity
8
0
100
AcDbCircle
10
9.007277926994453
20
50.46581050410245
30
5.5511151231257827e-16
40
0.34999999999999742
210
-1.1339875512552134e-29
220
-4.1020767071492597e-29
230
1
0
LWPOLYLINE
5
111
100
AcDbEntity
8
0
100
AcDbPolyline
90
10
70
1
43
0.0
10
6.3122024685109608
20
-29.190000002856834
42
0.063899460105774908
10
7.5746429679394334
20
-29.028000001461617
42
0.087046916607739194
10
17.002679196149153
20
-24.716571358421781
42
-0.36162149504092417
10
20.824267462295531
20
-25.066908149604782
10
37.248719026108368
20
-41.491359713977488
42
-0.44601649992836639
10
37.009223611934317
20
-45.94907363201159
42
-0.14365113759140927
10
6.3214285700988606
20
-58.660374537086923
42
-0.44601649992905634
10
2.9999999987377608
20
-55.677643628368543
10
2.9999999991464366
20
-32.190000002777495
42
-0.41421356239345392
10
5.9999999994071711
20
-29.190000002829702
0
LWPOLYLINE
5
112
100
AcDbEntity
8
0
100
AcDbPolyline
90
10
70
1
43
0.0
10
-7.5746429593634614
20
-29.028000002627223
42
0.06389945961220414
10
-6.3122024694759515
20
-29.190000001759596
10
-6.0000000004876171
20
-29.190000001786732
42
-0.41421356234953288
10
-3.0000000007483569
20
-32.190000001806119
10
-3.0000000009001808
20
-55.677643628247317
42
-0.44601649993350961
10
-6.3214285723768349
20
-58.660374536882294
42
-0.14365113758322751
10
-37.009223612267363
20
-45.9490736317955
42
-0.4460164999339517
10
-37.248719026373045
20
-41.491359713721266
10
-20.824267471864633
20
-25.066908159483429
42
-0.36162149472391852
10
-17.00267920848103
20
-24.716571366490385
42
0.087046916783141984
0
LWPOLYLINE
5
113
100
AcDbEntity
8
0
100
AcDbPolyline
90
6
70
1
43
0.0
10
-52.085267590749631
20
-17.570000000000125
10
-29.05528137423871
20
-17.570000000000125
42
-0.66817863791929766
10
-26.933961030679061
20
-22.691320343559774
10
-41.491359713618706
20
-37.248719026499415
42
-0.44601649993062276
10
-45.949073631670032
20
-37.009223612382975
42
-0.075624113062700629
10
-54.875549783111225
20
-21.67196428571442
42
-0.5291963400694436
0
LWPOLYLINE
5
114
100
AcDbEntity
8
0
100
AcDbPolyline
90
7
70
1
43
0.0
10
-32.443701117902243
20
-9.0223569119576759
10
-58.306552691614627
20
-9.0212670125779475
42
-0.0761552802753485
10
-58.333234945058585
20
8.8477256087497071
42
-0.37078259456104984
10
-55.367156998604642
20
11.397857166247318
10
-31.914127353996477
20
11.397857166247318
42
-0.49174972691219643
10
-29.012890376630835
20
7.6344280594100713
42
0.11067659854568121
10
-29.496282209544397
20
-5.4773748836116942
42
-0.46908484858040211
0
LINE
5
115
100
AcDbEntity
8
0
100
AcDbLine
10
-67.734932554978855
20
-3.0025344477676965
30
0
11
-81.49994913110524
21
-3.0027676285210232
31
0
0
LWPOLYLINE
5
116
100
AcDbEntity
8
0
100
AcDbPolyline
90
10
70
1
43
0.0
10
54.699137025261578
20
8.9996718933944599
10
40.07939057095907
20
8.9996710267846591
42
-0.41421358598993752
10
37.07939039312906
20
11.999671090853496
10
37.079390503108712
20
17.149428824266153
42
0.41421356862820286
10
34.079390503108712
20
20.149428888334985
10
31.634708687924935
20
20.149428888334981
42
-0.66817858380012807
10
29.513388026889864
20
25.270748914419158
10
41.491422787456301
20
37.24878726023627
42
-0.44601901394373789
10
45.949152525096018
20
37.009272916670767
42
-0.1160399047746771
10
57.629457913091443
20
12.642492593240114
42
-0.47897438865258024
0
LINE
5
117
100
AcDbEntity
8
0
100
AcDbLine
10
81.500464644882769
20
3.000007083513252
30
0
11
67.73450680286615
21
2.9997738371550673
31
0
0
LWPOLYLINE
5
118
100
AcDbEntity
8
0
100
AcDbPolyline
90
10
70
1
43
0.0
10
55.999969772009408
20
2.9995750105961534
10
40.079339305724623
20
2.9993052560960205
42
0.4142085934297941
10
37.07939013684603
20
-0.00069467940454259747
10
37.079389751367977
20
-18.050571175733829
42
-0.41421355611798855
10
34.079389751367984
20
-21.050571111665018
10
32.53584469745396
20
-21.050571111665018
42
0.66817862249357729
10
30.414524263403511
20
-26.171891364733849
10
41.491288788188783
20
-37.248656834539474
42
0.44601646719511928
10
45.949002510931663
20
-37.009161865749945
42
0.17115145416094146
10
59.000020602870393
20
-0.00046451879714997176
42
0.41422238443665832
0
ARC
5
119
100
AcDbEntity
8
0
100
AcDbCircle
10
67.734348935584833
20
-6.0002261329483346
30
0
40
2.9999999999999707
210
0
220
0
230
1
100
AcDbArc
50
90.000970818471643
51
174.93745021307615
0
ARC
5
120
100
AcDbEntity
8
0
100
AcDbCircle
10
67.734455971744737
20
5.9997738367244278
30
0
40
3.0000000000000067
210
0
220
0
230
1
100
AcDbArc
50
185.06163697407541
51
270.00097080290834
0
LINE
5
121
100
AcDbEntity
8
0
100
AcDbLine
10
-3.000004121390738
20
50.056349475155464
30
4.8957363913837077e-30
11
-3.0000047610796305
21
55.677628591705066
31
1.792166866083663e-30
0
LINE
5
122
100
AcDbEntity
8
0
100
AcDbLine
10
-26.757359312880695
20
43.05634918610405
30
0
11
26.757359548294119
21
43.056349186104057
31
0
0
ARC
5
123
100
AcDbEntity
8
0
100
AcDbCircle
10
-6.0000047610796496
20
55.67762825031182
30
2.7355441633419506e-30
40
3.0000000000000382
210
3.1445899086278778e-31
220
9.51014484394046e-31
230
1
100
AcDbArc
50
6.502146373618259e-06
51
96.15030563211478
0
LWPOLYLINE
5
124
100
AcDbEntity
8
0
100
AcDbPolyline
90
6
70
1
43
0.0
10
-32.972911491327579
20
28.729188874768109
10
-41.492240372874186
20
37.248422763447223
42
0.4460190967074929
10
-45.949969258871583
20
37.008882255004551
42
0.04576137485590806
10
-51.915239658887991
20
28.03326083657479
42
0.56789509444104802
10
-49.27550045579865
20
23.607856704521964
10
-35.094220008134762
20
23.607856704521957
42
0.66818065398967874
0
ARC
5
125
100
AcDbEntity
8
0
100
AcDbCircle
10
-67.734881734679732
20
-6.0025344473372737
30
0
40
2.9999999999999845
210
0
220
-0
230
1
100
AcDbArc
50
5.064502358318836
51
90.000970596217812
0
ARC
5
126
100
AcDbEntity
8
0
100
AcDbCircle
10
-67.735395811651358
20
5.9974870253179349
30
0
40
3.0000000000000044
210
0
220
0
230
1
100
AcDbArc
50
270.00099106989677
51
354.94029739937224
0
CIRCLE
5
127
100
AcDbEntity
8
0
100
AcDbCircle
10
13.999999999999964
20
30.549999999999976
30
0
40
0.94999999999999307
210
0
220
0
230
1
0
CIRCLE
5
128
100
AcDbEntity
8
0
100
AcDbCircle
10
8.9999999999999893
20
30.549999999999976
30
0
40
0.94999999999999307
210
0
220
0
230
1
0
ELLIPSE
5
129
100
AcDbEntity
8
0
100
AcDbEllipse
10
-39.999999999999517
20
15.002258571978821
30
-4.4408920985006262e-15
11
-0.99999999999999178
21
-4.0399303711989454e-10
31
0.0
40
0.99999995477714132
41
0
42
6.2831853071795862
0
ELLIPSE
5
130
100
AcDbEntity
8
0
100
AcDbEllipse
10
-39.999999999999531
20
20.00225834586454
30
-4.4408920985006262e-15
11
-0.99999999999999178
21
-3.5928216814470805e-10
31
0.0
40
0.99999995477714132
41
0
42
6.2831853071795862
0
CIRCLE
5
131
100
AcDbEntity
8
0
100
AcDbCircle
10
-55.159999999999982
20
-14.880000000000051
30
1.2325951644078309e-31
40
0.16000000000000014
210
0
220
0
230
1
0
CIRCLE
5
132
100
AcDbEntity
8
0
100
AcDbCircle
10
-55.159999999999975
20
-12.340000000000053
30
1.2325951644078309e-31
40
0.16000000000000014
210
0
220
0
230
1
0
CIRCLE
5
133
100
AcDbEntity
8
0
100
AcDbCircle
10
-37.379999999999967
20
-14.880000000000098
30
1.2325951644078309e-31
40
0.15999999999999792
210
0
220
0
230
1
0
CIRCLE
5
134
100
AcDbEntity
8
0
100
AcDbCircle
10
-37.37999999999996
20
-12.340000000000103
30
-1.1102230246251563e-15
40
0.16000000000000014
210
0
220
0
230
1
0
CIRCLE
5
135
100
AcDbEntity
8
0
100
AcDbCircle
10
-40.587929240110029
20
-58.165598769769396
30
-4.4408920985006262e-15
40
1.6500000000000001
210
-2.1465574826086729e-16
220
3.9910325973036336e-17
230
1
0
CIRCLE
5
136
100
AcDbEntity
8
0
100
AcDbCircle
10
-58.265598769773717
20
-40.487929240105714
30
-8.8817841970012523e-15
40
1.6500000000000001
210
-2.1465574826086729e-16
220
3.9910325973036336e-17
230
1
0
CIRCLE
5
137
100
AcDbEntity
8
0
100
AcDbCircle
10
58.165543011174492
20
-40.587247669109736
30
-4.4408920985006262e-15
40
1.6500000000000001
210
-3.9910325973036385e-17
220
-2.1465574826086729e-16
230
1
0
CIRCLE
5
138
100
AcDbEntity
8
0
100
AcDbCircle
10
40.48787348151081
20
-58.264917198773425
30
-8.8817841970012523e-15
40
1.6500000000000001
210
-3.9910325973036385e-17
220
-2.1465574826086729e-16
230
1
0
CIRCLE
5
139
100
AcDbEntity
8
0
100
AcDbCircle
10
40.587191910514839
20
58.166224582174799
30
-4.4408920985006262e-15
40
1.6500000000000001
210
2.1465574826086729e-16
220
-3.991032597303636e-17
230
1
0
CIRCLE
5
140
100
AcDbEntity
8
0
100
AcDbCircle
10
58.264861440178528
20
40.488555052511117
30
-8.8817841970012523e-15
40
1.6500000000000001
210
2.1465574826086729e-16
220
-3.991032597303636e-17
230
1
0
CIRCLE
5
141
100
AcDbEntity
8
0
100
AcDbCircle
10
-58.166280340769696
20
40.587873481515146
30
-4.4408920985006262e-15
40
1.6500000000000001
210
3.9910325973036385e-17
220
2.1465574826086729e-16
230
1
0
CIRCLE
5
142
100
AcDbEntity
8
0
100
AcDbCircle
10
-40.488610811106014
20
58.265543011178835
30
-8.8817841970012523e-15
40
1.6500000000000001
210
3.9910325973036385e-17
220
2.1465574826086729e-16
230
1
0
LINE
5
143
100
AcDbEntity
8
0
100
AcDbLine
10
-38.46660889655039
20
-60.286919113329034
30
-4.4408920985006262e-15
11
-33.738056747478986
21
-55.558366964257615
31
0
0
LINE
5
144
100
AcDbEntity
8
0
100
AcDbLine
10
-42.709249583669681
20
-56.044278426209758
30
-4.4408920985006262e-15
11
-38.808209824304704
21
-52.143238666844766
31
0
0
ARC
5
145
100
AcDbEntity
8
0
100
AcDbCircle
10
-40.587929240110029
20
-58.165598769769396
30
-4.4408920985006262e-15
40
3.0000000000000004
210
0
220
0
230
1
100
AcDbArc
50
135.0000000000002
51
315
0
LINE
5
146
100
AcDbEntity
8
0
100
AcDbLine
10
-56.144278426214072
20
-42.60924958366536
30
-8.8817841970012523e-15
11
-52.228565320732507
21
-38.693536478183773
31
0
0
LINE
5
147
100
AcDbEntity
8
0
100
AcDbLine
10
-60.38691911333337
20
-38.366608896546076
30
-8.8817841970012523e-15
11
-55.633979796475842
21
-33.613669579688526
31
0
0
ARC
5
148
100
AcDbEntity
8
0
100
AcDbCircle
10
-0.00036866479760198028
20
0.0003129062027059512
30
0
40
64.999988508557394
210
0
220
0
230
1
100
AcDbArc
50
185.06450235831832
51
211.14048823203487
0
ARC
5
149
100
AcDbEntity
8
0
100
AcDbCircle
10
-58.265598769773717
20
-40.487929240105714
30
-8.8817841970012523e-15
40
3.0000000000000036
210
0
220
0
230
1
100
AcDbArc
50
135.0000000000002
51
315
0
ARC
5
150
100
AcDbEntity
8
0
100
AcDbCircle
10
-0.00036866479760198028
20
0.0003129062027059512
30
0
40
64.999988508557408
210
0
220
0
230
1
100
AcDbArc
50
216.53331513190366
51
233.34153136386678
0
LINE
5
151
100
AcDbEntity
8
0
100
AcDbLine
10
56.044222667614854
20
-42.708568012669382
30
-4.4408920985006262e-15
11
52.143182908249855
21
-38.807528253304405
31
0
0
ARC
5
152
100
AcDbEntity
8
0
100
AcDbCircle
10
58.165543011174492
20
-40.587247669109736
30
-4.4408920985006262e-15
40
3.0000000000000004
210
0
220
0
230
1
100
AcDbArc
50
-134.99999999999991
51
45.000000000000092
0
LINE
5
153
100
AcDbEntity
8
0
100
AcDbLine
10
60.28686335473413
20
-38.465927325550091
30
-4.4408920985006262e-15
11
55.558311205662712
21
-33.737375176478686
31
0
0
LINE
5
154
100
AcDbEntity
8
0
100
AcDbLine
10
38.366553137951165
20
-60.38623754233307
30
-8.8817841970012523e-15
11
33.613613821093615
21
-55.633298225475549
31
0
0
ARC
5
155
100
AcDbEntity
8
0
100
AcDbCircle
10
40.48787348151081
20
-58.264917198773425
30
-8.8817841970012523e-15
40
3.0000000000000067
210
0
220
0
230
1
100
AcDbArc
50
-135
51
45.000000000000092
0
LINE
5
156
100
AcDbEntity
8
0
100
AcDbLine
10
42.609193825070449
20
-56.143596855213779
30
-8.8817841970012523e-15
11
38.693480719588862
21
-52.227883749732207
31
0
0
LINE
5
157
100
AcDbEntity
8
0
100
AcDbLine
10
42.708512254074485
20
56.04490423861516
30
-4.4408920985006262e-15
11
42.184925000528381
21
55.521316985069049
31
-3.8448472897886348e-15
0
ARC
5
158
100
AcDbEntity
8
0
100
AcDbCircle
10
40.587191910514839
20
58.166224582174799
30
-4.4408920985006262e-15
40
3.0000000000000004
210
0
220
0
230
1
100
AcDbArc
50
-44.999999999999901
51
135.00000000000011
0
LINE
5
159
100
AcDbEntity
8
0
100
AcDbLine
10
60.386181783738174
20
38.367234708951479
30
-8.8817841970012523e-15
11
55.633242466880645
21
33.614295392093929
31
0
0
ARC
5
160
100
AcDbEntity
8
0
100
AcDbCircle
10
58.264861440178528
20
40.488555052511117
30
-8.8817841970012523e-15
40
3.0000000000000004
210
0
220
0
230
1
100
AcDbArc
50
-44.999999999999901
51
135.00000000000011
0
LINE
5
161
100
AcDbEntity
8
0
100
AcDbLine
10
56.143541096618883
20
42.609875396070755
30
-8.8817841970012523e-15
11
52.22782799113731
21
38.694162290589176
31
0
0
LINE
5
162
100
AcDbEntity
8
0
100
AcDbLine
10
-56.044959997210057
20
42.709193825074792
30
-4.4408920985006262e-15
11
-52.143920237845059
21
38.808154065709822
31
0
0
ARC
5
163
100
AcDbEntity
8
0
100
AcDbCircle
10
-58.166280340769696
20
40.587873481515146
30
-4.4408920985006262e-15
40
3.0000000000000004
210
0
220
-0
230
1
100
AcDbArc
50
45.000000000000092
51
225
0
LINE
5
164
100
AcDbEntity
8
0
100
AcDbLine
10
-60.287600684329334
20
38.466553137955508
30
-4.4408920985006262e-15
11
-55.559048535257915
21
33.738000988884103
31
0
0
LINE
5
165
100
AcDbEntity
8
0
100
AcDbLine
10
-38.367290467546368
20
60.38686335473848
30
-8.8817841970012523e-15
11
-36.184925007550746
21
58.204497894742872
31
-4.8036132458337197e-15
0
ARC
5
166
100
AcDbEntity
8
0
100
AcDbCircle
10
-40.488610811106014
20
58.265543011178835
30
-8.8817841970012523e-15
40
3.0000000000000036
210
0
220
-0
230
1
100
AcDbArc
50
45
51
225.00000000000011
0
LINE
5
167
100
AcDbEntity
8
0
100
AcDbLine
10
-42.609931154665652
20
56.144222667619189
30
-8.8817841970012523e-15
11
-42.184925007550746
21
55.719216520504276
31
-7.9177674829602626e-15
0
ARC
5
168
100
AcDbEntity
8
0
100
AcDbCircle
10
-0.00036866479760192759
20
0.00031290620270595142
30
0
40
65
210
4.641804643686499e-62
220
-5.4783050326702733e-62
230
1
100
AcDbArc
50
130.46573449074401
51
143.34152987864726
0
ARC
5
169
100
AcDbEntity
8
0
100
AcDbCircle
10
-0.00036866479760192759
20
0.00031290620270595142
30
0
40
65
210
4.6418046436865016e-62
220
-5.4783050326702724e-62
230
1
100
AcDbArc
50
148.73202193524128
51
174.94029739937218
0
ARC
5
170
100
AcDbEntity
8
0
100
AcDbCircle
10
-0.00036866479760192759
20
0.00031290620270595142
30
0
40
64.999999999999986
210
0
220
-0
230
1
100
AcDbArc
50
5.0616369740753573
51
31.140490731213497
0
ARC
5
171
100
AcDbEntity
8
0
100
AcDbCircle
10
-0.00036866479760192759
20
0.00031290620270595142
30
0
40
65
210
0
220
-0
230
1
100
AcDbArc
50
36.533316639732128
51
49.533411171919361
0
ARC
5
172
100
AcDbEntity
8
0
100
AcDbCircle
10
-0.00036866479760198028
20
0.0003129062027059512
30
0
40
64.999988508557408
210
0
220
0
230
1
100
AcDbArc
50
328.73202441052234
51
354.93745021307524
0
ARC
5
173
100
AcDbEntity
8
0
100
AcDbCircle
10
-0.00036866479760198028
20
0.0003129062027059512
30
0
40
64.999988508557408
210
0
220
0
230
1
100
AcDbArc
50
238.73202441052231
51
301.14048823203484
0
ARC
5
174
100
AcDbEntity
8
0
100
AcDbCircle
10
-0.00036866479760198028
20
0.0003129062027059512
30
0
40
64.999988508557408
210
0
220
0
230
1
100
AcDbArc
50
306.53331513190363
51
323.34153136386675
0
ARC
5
175
100
AcDbEntity
8
0
100
AcDbCircle
10
26.757359548294104
20
46.5563491861041
30
0
40
3.5000000000000409
210
0
220
0
230
1
100
AcDbArc
50
270.00000000000023
51
315.00000101273429
0
LINE
5
176
100
AcDbEntity
8
0
100
AcDbLine
10
29.2322333261918
20
44.081475495695905
30
0
11
35.159798774477778
21
50.009041153527924
31
0
0
ARC
5
177
100
AcDbEntity
8
0
100
AcDbCircle
10
32.684925023491111
20
52.483914870847073
30
0
40
3.4999999999999929
210
0
220
0
230
1
100
AcDbArc
50
-44.999999610281797
51
0
0
ARC
5
178
100
AcDbEntity
8
0
100
AcDbCircle
10
-32.684925007550731
20
52.483914880774087
30
0
40
3.5000000000000142
210
0
220
0
230
1
100
AcDbArc
50
180
51
224.99999999999989
0
LINE
5
179
100
AcDbEntity
8
0
100
AcDbLine
10
-35.159798741703653
20
50.009041146621172
30
0
11
-29.23223304703361
21
44.081475451951135
31
0
0
ARC
5
180
100
AcDbEntity
8
0
100
AcDbCircle
10
-26.75735931288073
20
46.556349186103965
30
0
40
3.4999999999999147
210
0
220
0
230
1
100
AcDbArc
50
224.99999999999943
51
270.00000000000063
0
LINE
5
181
100
AcDbEntity
8
0
100
AcDbLine
10
36.184925023491104
20
52.483914897307038
30
0
11
36.18492498173967
21
58.006598340518913
31
-2.2987062141015656e-15
0
LINE
5
182
100
AcDbEntity
8
0
100
AcDbLine
10
42.18492504641759
20
49.451308796058242
30
0
11
42.184925000528381
21
55.521316985069049
31
-3.8448472897886348e-15
0
LINE
5
183
100
AcDbEntity
8
0
100
AcDbLine
10
38.465871566955194
20
60.287544925734437
30
-4.4408920985006262e-15
11
36.18492498173967
21
58.006598340518913
31
-2.2987062141015656e-15
0
LINE
5
184
100
AcDbEntity
8
0
100
AcDbLine
10
-36.184925007550746
20
52.483914880774087
30
0
11
-36.184925007550746
21
58.204497894742872
31
-4.8036132458337197e-15
0
LINE
5
185
100
AcDbEntity
8
0
100
AcDbLine
10
-42.184925007550746
20
49.451937815452006
30
4.6672355513770933e-60
11
-42.184925007550746
21
55.719216520504276
31
-7.9177674829602626e-15
0
ELLIPSE
5
186
100
AcDbEntity
8
0
100
AcDbEllipse
10
35.000000000000014
20
15.000000000000004
30
0
11
-0.82499999999999996
21
-6.8864941924363468e-21
31
0.0
40
0.99999995477714143
41
0
42
6.2831853071795862
0
ELLIPSE
5
187
100
AcDbEntity
8
0
100
AcDbEllipse
10
35.000000000000014
20
10.000000226114292
30
0
11
0.82499999999999996
21
6.8864941924363468e-21
31
0.0
40
0.99999995477714143
41
0
42
6.2831853071795862
0
ELLIPSE
5
188
100
AcDbEntity
8
0
100
AcDbEllipse
10
28.400000000000031
20
1.9999997738857505
30
-2.2204460492503131e-15
11
-0.82500000000000173
21
2.54743453797775e-15
31
0.0
40
0.99999995477714143
41
0
42
6.2831853071795862
0
ELLIPSE
5
189
100
AcDbEntity
8
0
100
AcDbEllipse
10
28.400000000000013
20
-2.999999999999972
30
0
11
0.82500000000000173
21
-2.54743453797775e-15
31
0.0
40
0.99999995477714143
41
0
42
6.2831853071795862
0
ELLIPSE
5
190
100
AcDbEntity
8
0
100
AcDbEllipse
10
28.400000000000013
20
-3.0018044516470939
30
2.2204460492503131e-15
11
-0.82500000000000173
21
2.59795121615807e-15
31
0.0
40
0.99999995477714143
41
3.1415926535897927
42
6.2831853071795862
0
SPLINE
5
191
100
AcDbEntity
8
0
100
AcDbSpline
70
0
71
3
72
65
73
61
74
0
42
0.000000001
43
0.0000000001
44
0.0000000001
40
0
40
0
40
0
40
0
40
0.050375171909679703
40
0.050375171909679703
40
0.050375171909679703
40
0.100785718896012
40
0.100785718896012
40
0.100785718896012
40
0.15141471131464901
40
0.15141471131464901
40
0.15141471131464901
40
0.20194361544958001
40
0.20194361544958001
40
0.20194361544958001
40
0.22707057245927301
40
0.22707057245927301
40
0.22707057245927301
40
0.25223097076252599
40
0.25223097076252599
40
0.25223097076252599
40
0.30274587652715101
40
0.30274587652715101
40
0.30274587652715101
40
0.35335223596964399
40
0.35335223596964399
40
0.35335223596964399
40
0.40379934661892303
40
0.40379934661892303
40
0.40379934661892303
40
0.45412646110212201
40
0.45412646110212201
40
0.45412646110212201
40
0.50471941147311095
40
0.50471941147311095
40
0.50471941147311095
40
0.55533690149649395
40
0.55533690149649395
40
0.55533690149649395
40
0.60575807779371504
40
0.60575807779371504
40
0.60575807779371504
40
0.65607560726988801
40
0.65607560726988801
40
0.65607560726988801
40
0.68133119774530604
40
0.68133119774530604
40
0.68133119774530604
40
0.70659306006195399
40
0.70659306006195399
40
0.70659306006195399
40
0.731817759404646
40
0.731817759404646
40
0.731817759404646
40
0.75697155103523195
40
0.75697155103523195
40
0.75697155103523195
40
0.78209986847831403
40
0.78209986847831403
40
0.78209986847831403
40
0.80731484071731896
40
0.80731484071731896
40
0.80731484071731896
40
0.80731484071731896
10
29.225000000000016
20
-3.001804451647097
30
2.2204460492503131e-15
10
29.225000000000016
20
-3.0186620921416356
30
0
10
29.224481085170755
20
-3.0354592422386122
30
2.2204460492503131e-15
10
29.223467680542843
20
-3.0520628073622564
30
0
10
29.222452998577751
20
-3.0686873003073338
30
0
10
29.220933181837204
20
-3.0852690695367984
30
0
10
29.218933203091613
20
-3.1016683730489709
30
-2.2204460492503131e-15
10
29.216933272930326
20
-3.1180672781825485
30
2.2204460492503131e-15
10
29.214454047816044
20
-3.1342763236447739
30
0
10
29.211551111724514
20
-3.1501546516552263
30
0
10
29.208648157101482
20
-3.1660330810283206
30
0
10
29.205323024370244
20
-3.1815745306590344
30
0
10
29.201655866314702
20
-3.1966588453416684
30
0
10
29.199821362016337
20
-3.2042048086473756
30
0
10
29.197906348897874
20
-3.2116192214210733
30
0
10
29.195908714743215
20
-3.218939969872074
30
0
10
29.193910436713484
20
-3.2262630779380701
30
2.2204460492503131e-15
10
29.191828335778297
20
-3.2334949293795372
30
0
10
29.189671217801141
20
-3.2406258036667106
30
2.2204460492503131e-15
10
29.185356935639554
20
-3.2548877049904164
30
0
10
29.180742032164723
20
-3.2687443677515042
30
2.2204460492503131e-15
10
29.175907673432473
20
-3.2821217304110921
30
0
10
29.171073339053347
20
-3.2954990256821097
30
0
10
29.166020406519646
20
-3.3083951409080696
30
0
10
29.160841251676214
20
-3.3207457084703291
30
0
10
29.155662064677053
20
-3.3330963527133233
30
-2.2204460492503131e-15
10
29.150357502151884
20
-3.344900098187122
30
-2.2204460492503131e-15
10
29.145026068677442
20
-3.3561062517995062
30
0
10
29.139703019531833
20
-3.3672947823697634
30
0
10
29.134323267692444
20
-3.3779524353295982
30
0
10
29.128953265651383
20
-3.3880811616733735
30
0
10
29.123586036596674
20
-3.3982046576988441
30
0
10
29.118241170324836
20
-3.4077739912737077
30
-2.2204460492503131e-15
10
29.113028210289784
20
-3.416726819280504
30
0
10
29.107815260266221
20
-3.4256796300933852
30
0
10
29.102734957956603
20
-3.434015308363048
30
0
10
29.097900048356244
20
-3.4416806449484465
30
0
10
29.093065104139313
20
-3.44934603641549
30
0
10
29.088476356367515
20
-3.4563405570098755
30
0
10
29.084243113311892
20
-3.4626205401234884
30
0
10
29.080015480456204
20
-3.4688922005491745
30
0
10
29.076122992236883
20
-3.4744805717334022
30
0
10
29.072663843265211
20
-3.479347292443125
30
0
10
29.070935535266763
20
-3.4817788709607549
30
2.2204460492503131e-15
10
29.069318552813765
20
-3.4840257191518105
30
-2.2204460492503131e-15
10
29.067827828699322
20
-3.4860785750052399
30
0
10
29.066337105800532
20
-3.4881314291845995
30
2.2204460492503131e-15
10
29.064972726886676
20
-3.4899902166099812
30
0
10
29.063747339356773
20
-3.4916477786560178
30
0
10
29.062521949060542
20
-3.4933053444440283
30
-2.2204460492503131e-15
10
29.061435623593773
20
-3.4947616232939955
30
0
10
29.060498081678613
20
-3.4960118235041966
30
0
10
29.059560534096015
20
-3.4972620312718798
30
0
10
29.058771818989975
20
-3.4983061232281014
30
0
10
29.058138308439752
20
-3.4991417375068119
30
0
10
29.057505237243216
20
-3.4999767722683934
30
-2.2204460492503131e-15
10
29.057025291207275
20
-3.5006060848717175
30
0
10
29.056703848747553
20
-3.5010262875958769
30
0
10
29.056382484130673
20
-3.5014463885606824
30
-2.2204460492503131e-15
10
29.056251020200929
20
-3.5016146572983349
30
0
10
29.056220237420341
20
-3.5016540580650717
30
-2.2204460492503131e-15
0
LINE
5
192
100
AcDbEntity
8
0
100
AcDbLine
10
29.056220237420341
20
-3.5016540580650717
30
-2.2204460492503127e-15
11
29.056220237420341
21
-3.5010525741826992
31
-2.429979401826692e-15
0
ELLIPSE
5
193
100
AcDbEntity
8
0
100
AcDbEllipse
10
28.400000000000013
20
-3.0010525967941253
30
0
11
-0.82500000000000173
21
8.8364449703209835e-10
31
0.0
40
0.99999995477714143
41
0.65109858604220372
42
2.4904940696897553
0
LINE
5
194
100
AcDbEntity
8
0
100
AcDbLine
10
27.743779762579678
20
-3.501052574182697
30
1.9030127800576343e-17
11
27.743779762579681
21
-3.501654058065069
31
2.0953335257637896e-16
0
SPLINE
5
195
100
AcDbEntity
8
0
100
AcDbSpline
70
0
71
3
72
71
73
67
74
0
42
0.000000001
43
0.0000000001
44
0.0000000001
40
0
40
0
40
0
40
0
40
0.025263215428691699
40
0.025263215428691699
40
0.025263215428691699
40
0.050521221853652903
40
0.050521221853652903
40
0.050521221853652903
40
0.10084045700667101
40
0.10084045700667101
40
0.10084045700667101
40
0.151228549910847
40
0.151228549910847
40
0.151228549910847
40
0.20169258525001599
40
0.20169258525001599
40
0.20169258525001599
40
0.226847536057002
40
0.226847536057002
40
0.226847536057002
40
0.25197528462697699
40
0.25197528462697699
40
0.25197528462697699
40
0.30242606206529399
40
0.30242606206529399
40
0.30242606206529399
40
0.35298342008413902
40
0.35298342008413902
40
0.35298342008413902
40
0.40342204957416
40
0.40342204957416
40
0.40342204957416
40
0.42854337465079501
40
0.42854337465079501
40
0.42854337465079501
40
0.45374094578010499
40
0.45374094578010499
40
0.45374094578010499
40
0.50434050924337304
40
0.50434050924337304
40
0.50434050924337304
40
0.55497727438509303
40
0.55497727438509303
40
0.55497727438509303
40
0.60541302982052303
40
0.60541302982052303
40
0.60541302982052303
40
0.65575516037168302
40
0.65575516037168302
40
0.65575516037168302
40
0.68105635571045897
40
0.68105635571045897
40
0.68105635571045897
40
0.706393321488202
40
0.706393321488202
40
0.706393321488202
40
0.73172113652218995
40
0.73172113652218995
40
0.73172113652218995
40
0.75699842351033697
40
0.75699842351033697
40
0.75699842351033697
40
0.78218997593623196
40
0.78218997593623196
40
0.78218997593623196
40
0.80731482956602396
40
0.80731482956602396
40
0.80731482956602396
40
0.80731482956602396
10
27.743779762579681
20
-3.5016540580650695
30
-2.2204460492503131e-15
10
27.743748977823731
20
-3.5016146588417123
30
0
10
27.743617470644431
20
-3.5014463521401966
30
0
10
27.743294268670617
20
-3.5010238265831544
30
-2.2204460492503131e-15
10
27.742971133337573
20
-3.5006013881463431
30
0
10
27.742487122784731
20
-3.4999671835779438
30
0
10
27.741846229401716
20
-3.4991213411445736
30
0
10
27.740569435647473
20
-3.4974362459873736
30
2.2204460492503131e-15
10
27.738674343635012
20
-3.4949237665027773
30
-2.2204460492503131e-15
10
27.736235517315645
20
-3.4916245882814216
30
0
10
27.733793353662254
20
-3.4883208954049412
30
0
10
27.730795174853647
20
-3.4842133871715593
30
0
10
27.727340975650698
20
-3.47935407203581
30
0
10
27.72388157044999
20
-3.4744874331812521
30
0
10
27.719968274271771
20
-3.4688696048300978
30
2.2204460492503131e-15
10
27.715718267480117
20
-3.462563243447137
30
0
10
27.713599754542038
20
-3.4594196936043002
30
0
10
27.71139426710155
20
-3.4561004461598239
30
0
10
27.709122135074331
20
-3.4526212220836556
30
0
10
27.706852460101171
20
-3.4491457603952029
30
0
10
27.704507797513131
20
-3.4454977680110148
30
-2.2204460492503131e-15
10
27.702106991221864
20
-3.4416918051706973
30
0
10
27.697286720773203
20
-3.4340503014497985
30
0
10
27.692225018526852
20
-3.4257457521491403
30
0
10
27.687029563101074
20
-3.4168260243102648
30
0
10
27.681823131934511
20
-3.4078874529605567
30
0
10
27.676483564381851
20
-3.3983322338572304
30
0
10
27.67110574819425
20
-3.3881924511113155
30
-2.2204460492503131e-15
10
27.665740561230749
20
-3.3780764805568437
30
0
10
27.660337737812203
20
-3.3673785489700898
30
0
10
27.654995763036506
20
-3.3561521363727236
30
0
10
27.65233515377237
20
-3.350560740191773
30
0
10
27.649690740951279
20
-3.3448412871009219
30
0
10
27.647063137635207
20
-3.338975828578727
30
2.2204460492503131e-15
10
27.644427559246949
20
-3.3330925677289076
30
0
10
27.641812685983403
20
-3.3270705111480385
30
0
10
27.63923380004297
20
-3.3209246231158369
30
0
10
27.634055106345169
20
-3.3085829870935517
30
0
10
27.629000253283262
20
-3.2956927055483116
30
0
10
27.624159590017324
20
-3.2823077881946809
30
0
10
27.61931536781163
20
-3.2689130300171905
30
0
10
27.614686328591912
20
-3.2550252968235434
30
0
10
27.610347508776968
20
-3.2406877014920159
30
0
10
27.60602591251282
20
-3.2264070212461666
30
0
10
27.601995449404694
20
-3.2116811186862755
30
0
10
27.598334137538231
20
-3.1966177230938926
30
0
10
27.59467962223696
20
-3.1815822899788588
30
0
10
27.591375405972244
20
-3.1661465177375709
30
0
10
27.588479551325293
20
-3.1503222760126186
30
0
10
27.587024138467452
20
-3.1423692508508387
30
0
10
27.585677704328312
20
-3.1343552723950334
30
0
10
27.584444115488232
20
-3.1262729992951783
30
-2.2204460492503131e-15
10
27.58320878261932
20
-3.1181792996025188
30
0
10
27.582086344413792
20
-3.1100172827752011
30
0
10
27.581082733524038
20
-3.1017989624829361
30
0
10
27.580079485100182
20
-3.0935836103338858
30
0
10
27.579195102297362
20
-3.0853122297200901
30
0
10
27.578433996169327
20
-3.0769978270883365
30
-2.2204460492503131e-15
10
27.577674408419611
20
-3.0687000113795677
30
-2.2204460492503131e-15
10
27.577038120838239
20
-3.0603595600380977
30
-2.2204460492503131e-15
10
27.576527891844616
20
-3.0519902149791416
30
0
10
27.576019393426723
20
-3.0436492567536026
30
0
10
27.575636959550902
20
-3.0352798034309942
30
0
10
27.575381891118308
20
-3.0269035562956832
30
-2.2204460492503131e-15
10
27.575127498021523
20
-3.0185494866582214
30
-2.2204460492503131e-15
10
27.574999999999662
20
-3.0101980058501394
30
0
10
27.57500000000001
20
-3.0018044516128812
30
0
0
ELLIPSE
5
196
100
AcDbEntity
8
0
100
AcDbEllipse
10
35.000000000000007
20
-11.000000000000012
30
-4.4408920985006262e-15
11
-0.82499999999999996
21
-6.8864941924160147e-21
31
0.0
40
0.99999995477714143
41
0
42
6.2831853071795862
0
ELLIPSE
5
197
100
AcDbEntity
8
0
100
AcDbEllipse
10
35.000000000000007
20
-10.998195548352889
30
-4.4408920985006262e-15
11
0.82499999999999996
21
-5.0509791686127256e-17
31
0.0
40
0.99999995477714143
41
3.1415926535897931
42
6.2831853071795862
0
SPLINE
5
198
100
AcDbEntity
8
0
100
AcDbSpline
70
0
71
3
72
65
73
61
74
0
42
0.000000001
43
0.0000000001
44
0.0000000001
40
0
40
0
40
0
40
0
40
0.050375171909679703
40
0.050375171909679703
40
0.050375171909679703
40
0.100785718896012
40
0.100785718896012
40
0.100785718896012
40
0.15141471131464901
40
0.15141471131464901
40
0.15141471131464901
40
0.20194361544958001
40
0.20194361544958001
40
0.20194361544958001
40
0.22707057245927301
40
0.22707057245927301
40
0.22707057245927301
40
0.25223097076252599
40
0.25223097076252599
40
0.25223097076252599
40
0.30274587652715101
40
0.30274587652715101
40
0.30274587652715101
40
0.35335223596964399
40
0.35335223596964399
40
0.35335223596964399
40
0.40379934661892303
40
0.40379934661892303
40
0.40379934661892303
40
0.45412646110212201
40
0.45412646110212201
40
0.45412646110212201
40
0.50471941147311095
40
0.50471941147311095
40
0.50471941147311095
40
0.55533690149649395
40
0.55533690149649395
40
0.55533690149649395
40
0.60575807779371504
40
0.60575807779371504
40
0.60575807779371504
40
0.65607560726988801
40
0.65607560726988801
40
0.65607560726988801
40
0.68133119774530604
40
0.68133119774530604
40
0.68133119774530604
40
0.70659306006195399
40
0.70659306006195399
40
0.70659306006195399
40
0.731817759404646
40
0.731817759404646
40
0.731817759404646
40
0.75697155103523195
40
0.75697155103523195
40
0.75697155103523195
40
0.78209986847831403
40
0.78209986847831403
40
0.78209986847831403
40
0.80731484071731896
40
0.80731484071731896
40
0.80731484071731896
40
0.80731484071731896
10
34.175000000000011
20
-10.998195548352889
30
-4.4408920985006262e-15
10
34.175000000000011
20
-10.98133790785835
30
-2.2204460492503131e-15
10
34.175518914829269
20
-10.964540757761373
30
-4.4408920985006262e-15
10
34.176532319457181
20
-10.947937192637731
30
-4.4408920985006262e-15
10
34.177547001422269
20
-10.931312699692652
30
-2.2204460492503131e-15
10
34.179066818162816
20
-10.91473093046319
30
-2.2204460492503131e-15
10
34.181066796908411
20
-10.898331626951014
30
-2.2204460492503131e-15
10
34.183066727069694
20
-10.881932721817439
30
-4.4408920985006262e-15
10
34.185545952183972
20
-10.865723676355213
30
-2.2204460492503131e-15
10
34.188448888275509
20
-10.849845348344759
30
-4.4408920985006262e-15
10
34.191351842898541
20
-10.833966918971667
30
-4.4408920985006262e-15
10
34.194676975629775
20
-10.818425469340953
30
-4.4408920985006262e-15
10
34.198344133685318
20
-10.80334115465832
30
-4.4408920985006262e-15
10
34.200178637983683
20
-10.79579519135261
30
-2.2204460492503131e-15
10
34.202093651102146
20
-10.788380778578915
30
-4.4408920985006262e-15
10
34.204091285256808
20
-10.781060030127914
30
-4.4408920985006262e-15
10
34.20608956328654
20
-10.773736922061916
30
-4.4408920985006262e-15
10
34.208171664221723
20
-10.76650507062045
30
-4.4408920985006262e-15
10
34.210328782198879
20
-10.759374196333273
30
-4.4408920985006262e-15
10
34.214643064360466
20
-10.745112295009569
30
-2.2204460492503131e-15
10
34.219257967835297
20
-10.731255632248482
30
-4.4408920985006262e-15
10
34.224092326567551
20
-10.717878269588894
30
-2.2204460492503131e-15
10
34.228926660946676
20
-10.704500974317877
30
-4.4408920985006262e-15
10
34.233979593480377
20
-10.691604859091917
30
-4.4408920985006262e-15
10
34.23915874832381
20
-10.679254291529659
30
-4.4408920985006262e-15
10
34.244337935322967
20
-10.666903647286663
30
-2.2204460492503131e-15
10
34.249642497848136
20
-10.655099901812864
30
-2.2204460492503131e-15
10
34.254973931322581
20
-10.64389374820048
30
-4.4408920985006262e-15
10
34.26029698046819
20
-10.632705217630223
30
-4.4408920985006262e-15
10
34.265676732307575
20
-10.622047564670387
30
-4.4408920985006262e-15
10
34.271046734348637
20
-10.611918838326613
30
-4.4408920985006262e-15
10
34.27641396340335
20
-10.601795342301141
30
-4.4408920985006262e-15
10
34.281758829675184
20
-10.592226008726279
30
-4.4408920985006262e-15
10
34.286971789710236
20
-10.58327318071948
30
-4.4408920985006262e-15
10
34.292184739733798
20
-10.5743203699066
30
-4.4408920985006262e-15
10
34.297265042043421
20
-10.565984691636938
30
-2.2204460492503131e-15
10
34.302099951643775
20
-10.558319355051539
30
-2.2204460492503131e-15
10
34.306934895860707
20
-10.550653963584494
30
-4.4408920985006262e-15
10
34.311523643632505
20
-10.543659442990112
30
-4.4408920985006262e-15
10
34.315756886688128
20
-10.537379459876499
30
-4.4408920985006262e-15
10
34.319984519543816
20
-10.531107799450812
30
-4.4408920985006262e-15
10
34.323877007763137
20
-10.525519428266584
30
-2.2204460492503131e-15
10
34.327336156734809
20
-10.520652707556861
30
-6.6613381477509392e-15
10
34.329064464733257
20
-10.518221129039231
30
-4.4408920985006262e-15
10
34.330681447186258
20
-10.515974280848177
30
-2.2204460492503131e-15
10
34.332172171300698
20
-10.513921424994745
30
-2.2204460492503131e-15
10
34.333662894199492
20
-10.511868570815386
30
-4.4408920985006262e-15
10
34.335027273113347
20
-10.510009783390007
30
-2.2204460492503131e-15
10
34.336252660643247
20
-10.508352221343969
30
-2.2204460492503131e-15
10
34.337478050939481
20
-10.506694655555959
30
-2.2204460492503131e-15
10
34.338564376406246
20
-10.505238376705993
30
-4.4408920985006262e-15
10
34.339501918321403
20
-10.503988176495792
30
-4.4408920985006262e-15
10
34.340439465904005
20
-10.502737968728105
30
-2.2204460492503131e-15
10
34.341228181010045
20
-10.501693876771885
30
-4.4408920985006262e-15
10
34.341861691560268
20
-10.500858262493175
30
-4.4408920985006262e-15
10
34.342494762756807
20
-10.500023227731594
30
-2.2204460492503131e-15
10
34.342974708792745
20
-10.499393915128268
30
-2.2204460492503131e-15
10
34.343296151252467
20
-10.498973712404108
30
-4.4408920985006262e-15
10
34.343617515869347
20
-10.498553611439302
30
-2.2204460492503131e-15
10
34.343748979799088
20
-10.498385342701653
30
-2.2204460492503131e-15
10
34.343779762579679
20
-10.498345941934915
30
-4.4408920985006262e-15
0
LINE
5
199
100
AcDbEntity
8
0
100
AcDbLine
10
34.343779762579679
20
-10.498345941934915
30
-4.4408920985006254e-15
11
34.343779762579679
21
-10.498947425817288
31
-4.6504922210960504e-15
0
ELLIPSE
5
200
100
AcDbEntity
8
0
100
AcDbEllipse
10
35.000000000000007
20
-10.998947403205857
30
-4.4408920985006262e-15
11
0.82499999999999996
21
-8.8368080739828669e-10
31
0.0
40
0.99999995477714143
41
0.65109858604225412
42
2.4904940696898108
0
LINE
5
201
100
AcDbEntity
8
0
100
AcDbLine
10
35.656220237420342
20
-10.498947425817285
30
-4.4219002581667222e-15
11
35.656220237420335
21
-10.498345941934913
31
-4.2312919759052019e-15
0
SPLINE
5
202
100
AcDbEntity
8
0
100
AcDbSpline
70
0
71
3
72
71
73
67
74
0
42
0.000000001
43
0.0000000001
44
0.0000000001
40
0
40
0
40
0
40
0
40
0.025263215428691699
40
0.025263215428691699
40
0.025263215428691699
40
0.050521221853652903
40
0.050521221853652903
40
0.050521221853652903
40
0.10084045700667101
40
0.10084045700667101
40
0.10084045700667101
40
0.151228549910847
40
0.151228549910847
40
0.151228549910847
40
0.20169258525001599
40
0.20169258525001599
40
0.20169258525001599
40
0.226847536057002
40
0.226847536057002
40
0.226847536057002
40
0.25197528462697699
40
0.25197528462697699
40
0.25197528462697699
40
0.30242606206529399
40
0.30242606206529399
40
0.30242606206529399
40
0.35298342008413902
40
0.35298342008413902
40
0.35298342008413902
40
0.40342204957416
40
0.40342204957416
40
0.40342204957416
40
0.42854337465079501
40
0.42854337465079501
40
0.42854337465079501
40
0.45374094578010499
40
0.45374094578010499
40
0.45374094578010499
40
0.50434050924337304
40
0.50434050924337304
40
0.50434050924337304
40
0.55497727438509303
40
0.55497727438509303
40
0.55497727438509303
40
0.60541302982052303
40
0.60541302982052303
40
0.60541302982052303
40
0.65575516037168302
40
0.65575516037168302
40
0.65575516037168302
40
0.68105635571045897
40
0.68105635571045897
40
0.68105635571045897
40
0.706393321488202
40
0.706393321488202
40
0.706393321488202
40
0.73172113652218995
40
0.73172113652218995
40
0.73172113652218995
40
0.75699842351033697
40
0.75699842351033697
40
0.75699842351033697
40
0.78218997593623196
40
0.78218997593623196
40
0.78218997593623196
40
0.80731482956602396
40
0.80731482956602396
40
0.80731482956602396
40
0.80731482956602396
10
35.656220237420335
20
-10.498345941934915
30
-4.4408920985006262e-15
10
35.656251022176285
20
-10.498385341158269
30
-2.2204460492503131e-15
10
35.656382529355582
20
-10.498553647859785
30
-2.2204460492503131e-15
10
35.656705731329403
20
-10.498976173416828
30
-4.4408920985006262e-15
10
35.657028866662451
20
-10.499398611853639
30
-4.4408920985006262e-15
10
35.657512877215289
20
-10.500032816422038
30
-2.2204460492503131e-15
10
35.658153770598304
20
-10.500878658855409
30
-4.4408920985006262e-15
10
35.659430564352547
20
-10.502563754012609
30
-4.4408920985006262e-15
10
35.661325656365008
20
-10.505076233497203
30
-2.2204460492503131e-15
10
35.663764482684371
20
-10.508375411718561
30
-2.2204460492503131e-15
10
35.66620664633777
20
-10.511679104595043
30
-4.4408920985006262e-15
10
35.669204825146366
20
-10.515786612828421
30
-2.2204460492503131e-15
10
35.672659024349322
20
-10.52064592796417
30
-4.4408920985006262e-15
10
35.676118429550023
20
-10.52551256681873
30
-2.2204460492503131e-15
10
35.680031725728242
20
-10.531130395169885
30
-4.4408920985006262e-15
10
35.684281732519906
20
-10.537436756552845
30
-2.2204460492503131e-15
10
35.686400245457975
20
-10.540580306395682
30
-4.4408920985006262e-15
10
35.688605732898466
20
-10.543899553840157
30
-2.2204460492503131e-15
10
35.690877864925682
20
-10.547378777916325
30
-4.4408920985006262e-15
10
35.693147539898845
20
-10.550854239604778
30
-4.4408920985006262e-15
10
35.695492202486889
20
-10.554502231988966
30
-2.2204460492503131e-15
10
35.697893008778159
20
-10.558308194829284
30
-4.4408920985006262e-15
10
35.70271327922682
20
-10.565949698550183
30
-4.4408920985006262e-15
10
35.707774981473165
20
-10.574254247850842
30
-2.2204460492503131e-15
10
35.712970436898949
20
-10.583173975689718
30
-4.4408920985006262e-15
10
35.718176868065505
20
-10.592112547039424
30
-2.2204460492503131e-15
10
35.723516435618166
20
-10.60166776614275
30
-4.4408920985006262e-15
10
35.728894251805762
20
-10.611807548888667
30
-4.4408920985006262e-15
10
35.734259438769264
20
-10.621923519443136
30
-4.4408920985006262e-15
10
35.739662262187821
20
-10.632621451029891
30
-2.2204460492503131e-15
10
35.74500423696351
20
-10.643847863627256
30
-2.2204460492503131e-15
10
35.747664846227643
20
-10.649439259808208
30
-4.4408920985006262e-15
10
35.750309259048734
20
-10.655158712899059
30
-4.4408920985006262e-15
10
35.752936862364805
20
-10.661024171421253
30
-2.2204460492503131e-15
10
35.755572440753063
20
-10.666907432271078
30
-4.4408920985006262e-15
10
35.758187314016617
20
-10.672929488851944
30
-4.4408920985006262e-15
10
35.760766199957047
20
-10.679075376884146
30
-2.2204460492503131e-15
10
35.765944893654847
20
-10.691417012906431
30
-4.4408920985006262e-15
10
35.770999746716761
20
-10.70430729445167
30
-6.6613381477509392e-15
10
35.775840409982692
20
-10.7176922118053
30
-4.4408920985006262e-15
10
35.78068463218839
20
-10.73108696998279
30
-4.4408920985006262e-15
10
35.785313671408105
20
-10.744974703176439
30
-4.4408920985006262e-15
10
35.789652491223052
20
-10.759312298507966
30
-2.2204460492503131e-15
10
35.793974087487193
20
-10.773592978753815
30
-4.4408920985006262e-15
10
35.79800455059533
20
-10.788318881313705
30
-2.2204460492503131e-15
10
35.801665862461789
20
-10.803382276906088
30
-2.2204460492503131e-15
10
35.80532037776306
20
-10.818417710021123
30
-4.4408920985006262e-15
10
35.808624594027776
20
-10.833853482262409
30
-2.2204460492503131e-15
10
35.811520448674727
20
-10.849677723987362
30
-4.4408920985006262e-15
10
35.812975861532564
20
-10.857630749149143
30
-4.4408920985006262e-15
10
35.814322295671708
20
-10.865644727604948
30
-4.4408920985006262e-15
10
35.815555884511781
20
-10.873727000704802
30
-4.4408920985006262e-15
10
35.816791217380697
20
-10.881820700397462
30
-2.2204460492503131e-15
10
35.817913655586231
20
-10.889982717224779
30
-4.4408920985006262e-15
10
35.818917266475985
20
-10.898201037517046
30
-2.2204460492503131e-15
10
35.819920514899842
20
-10.906416389666095
30
-4.4408920985006262e-15
10
35.820804897702658
20
-10.91468777027989
30
-4.4408920985006262e-15
10
35.821566003830696
20
-10.923002172911644
30
-2.2204460492503131e-15
10
35.822325591580409
20
-10.931299988620413
30
-4.4408920985006262e-15
10
35.822961879161774
20
-10.939640439961881
30
-4.4408920985006262e-15
10
35.8234721081554
20
-10.94800978502084
30
-2.2204460492503131e-15
10
35.823980606573301
20
-10.956350743246377
30
-4.4408920985006262e-15
10
35.824363040449121
20
-10.964720196568987
30
-4.4408920985006262e-15
10
35.824618108881708
20
-10.973096443704298
30
-4.4408920985006262e-15
10
35.824872501978497
20
-10.981450513341757
30
-4.4408920985006262e-15
10
35.825000000000358
20
-10.989801994149841
30
-2.2204460492503131e-15
10
35.825000000000003
20
-10.998195548387102
30
-4.4408920985006262e-15
0
ELLIPSE
5
203
100
AcDbEntity
8
0
100
AcDbEllipse
10
35.000000000000007
20
-15.999999773885722
30
-4.4408920985006262e-15
11
-0.99999999999999978
21
-8.3472656877769857e-21
31
0.0
40
0.99999995477714132
41
0
42
6.2831853071795862
0
ELLIPSE
5
204
100
AcDbEntity
8
0
100
AcDbEllipse
10
35.000000000000007
20
-15.998195322238601
30
-4.4408920985006262e-15
11
-0.99999999999999978
21
-8.3472656877769857e-21
31
0.0
40
0.99999995477714132
41
3.1415926535897913
42
6.283185307179588
0
SPLINE
5
205
100
AcDbEntity
8
0
100
AcDbSpline
70
0
71
3
72
68
73
64
74
0
42
0.000000001
43
0.0000000001
44
0.0000000001
40
0
40
0
40
0
40
0
40
0.025062304367066499
40
0.025062304367066499
40
0.025062304367066499
40
0.0500868621212779
40
0.0500868621212779
40
0.0500868621212779
40
0.099880808817862099
40
0.099880808817862099
40
0.099880808817862099
40
0.14975665352968701
40
0.14975665352968701
40
0.14975665352968701
40
0.199817040039934
40
0.199817040039934
40
0.199817040039934
40
0.24978661622339199
40
0.24978661622339199
40
0.24978661622339199
40
0.27464437175131001
40
0.27464437175131001
40
0.27464437175131001
40
0.29953396039733898
40
0.29953396039733898
40
0.29953396039733898
40
0.34952920823230499
40
0.34952920823230499
40
0.34952920823230499
40
0.39963331495162402
40
0.39963331495162402
40
0.39963331495162402
40
0.44961596349941002
40
0.44961596349941002
40
0.44961596349941002
40
0.47449310615760998
40
0.47449310615760998
40
0.47449310615760998
40
0.49936303427148099
40
0.49936303427148099
40
0.49936303427148099
40
0.54936268624053897
40
0.54936268624053897
40
0.54936268624053897
40
0.59946741084078004
40
0.59946741084078004
40
0.59946741084078004
40
0.64941084938086602
40
0.64941084938086602
40
0.64941084938086602
40
0.67426289146507001
40
0.67426289146507001
40
0.67426289146507001
40
0.69916667843292302
40
0.69916667843292302
40
0.69916667843292302
40
0.74921323563421105
40
0.74921323563421105
40
0.74921323563421105
40
0.77427612599232898
40
0.77427612599232898
40
0.77427612599232898
40
0.79931108593116196
40
0.79931108593116196
40
0.79931108593116196
40
0.79931108593116196
10
34.133974596215566
20
-16.498345670597764
30
-4.4408920985006262e-15
10
34.133950014403858
20
-16.498302130564085
30
-4.4408920985006262e-15
10
34.133853443773809
20
-16.49813108180112
30
-4.4408920985006262e-15
10
34.13361224960699
20
-16.497710007034488
30
-6.6613381477509392e-15
10
34.133371418705366
20
-16.497289566453205
30
-4.4408920985006262e-15
10
34.133010566656246
20
-16.496661093673847
30
-4.4408920985006262e-15
10
34.132532021975649
20
-16.49582365272374
30
-4.4408920985006262e-15
10
34.13157981220828
20
-16.494157309987909
30
-4.4408920985006262e-15
10
34.130163985236507
20
-16.491675829645303
30
-6.6613381477509392e-15
10
34.128333179106122
20
-16.488414816491812
30
-4.4408920985006262e-15
10
34.126499361778635
20
-16.485148439824826
30
-4.4408920985006262e-15
10
34.12423751227054
20
-16.481078893634361
30
-4.4408920985006262e-15
10
34.121611207997255
20
-16.476248290691831
30
-4.4408920985006262e-15
10
34.118975186336399
20
-16.471399814404812
30
-2.2204460492503131e-15
10
34.115975906045726
20
-16.465788192917824
30
-4.4408920985006262e-15
10
34.112687143412181
20
-16.459455538323208
30
-4.4408920985006262e-15
10
34.109404346645675
20
-16.453134371263413
30
-4.4408920985006262e-15
10
34.105833451882944
20
-16.446095505896885
30
-2.2204460492503131e-15
10
34.102064997884625
20
-16.438402407863713
30
-2.2204460492503131e-15
10
34.10019035104223
20
-16.434575416226668
30
-4.4408920985006262e-15
10
34.098264125579739
20
-16.430581875795795
30
-2.2204460492503131e-15
10
34.096298021519516
20
-16.42643005829698
30
-4.4408920985006262e-15
10
34.094329399644565
20
-16.422272923934514
30
-4.4408920985006262e-15
10
34.092316040204835
20
-16.417947005031827
30
-4.4408920985006262e-15
10
34.090273630881747
20
-16.413470197236482
30
-4.4408920985006262e-15
10
34.086171081750038
20
-16.404477717753558
30
-4.4408920985006262e-15
10
34.081934675199889
20
-16.394838174850747
30
-6.6613381477509392e-15
10
34.077649056808788
20
-16.384603351156684
30
-4.4408920985006262e-15
10
34.073354106978066
20
-16.374346242314786
30
-4.4408920985006262e-15
10
34.069010679827855
20
-16.363492963729673
30
-4.4408920985006262e-15
10
34.064694546146654
20
-16.352080795510503
30
-4.4408920985006262e-15
10
34.060388875274576
20
-16.340696291711996
30
-4.4408920985006262e-15
10
34.056111216738437
20
-16.328756038000478
30
-6.6613381477509392e-15
10
34.051940742093812
20
-16.316323427942905
30
-4.4408920985006262e-15
10
34.049865031908354
20
-16.310135524280291
30
-4.4408920985006262e-15
10
34.04781129152245
20
-16.303811455097581
30
-4.4408920985006262e-15
10
34.045795356073498
20
-16.297379830725035
30
-4.4408920985006262e-15
10
34.043780005259848
20
-16.290950071568272
30
-2.2204460492503131e-15
10
34.041793160664923
20
-16.284383425729693
30
-4.4408920985006262e-15
10
34.039850618942197
20
-16.27770832305173
30
-2.2204460492503131e-15
10
34.035945243356601
20
-16.264288388372876
30
-4.4408920985006262e-15
10
34.032198866446329
20
-16.250365411308664
30
-4.4408920985006262e-15
10
34.028686634906933
20
-16.236016575930947
30
-4.4408920985006262e-15
10
34.025167022527974
20
-16.221637586945587
30
-4.4408920985006262e-15
10
34.021882602918566
20
-16.206834523088304
30
-4.4408920985006262e-15
10
34.018891973637331
20
-16.191667722067383
30
-4.4408920985006262e-15
10
34.015910971129173
20
-16.176549742661614
30
-2.2204460492503131e-15
10
34.013224640318768
20
-16.161073148648796
30
-4.4408920985006262e-15
10
34.010884208889244
20
-16.14534120207426
30
-4.4408920985006262e-15
10
34.00971960144367
20
-16.137512926533656
30
-4.4408920985006262e-15
10
34.008639462734628
20
-16.129610823091959
30
-4.4408920985006262e-15
10
34.007649672946421
20
-16.121653722424227
30
-2.2204460492503131e-15
10
34.006657822299097
20
-16.113680054134129
30
-4.4408920985006262e-15
10
34.005754091951168
20
-16.105630433962919
30
-4.4408920985006262e-15
10
34.004946759389021
20
-16.097541402945673
30
-4.4408920985006262e-15
10
34.003324346889897
20
-16.081285716449873
30
-4.4408920985006262e-15
10
34.00208166494081
20
-16.064795614484353
30
-4.4408920985006262e-15
10
34.001250906517505
20
-16.048198557234503
30
-4.4408920985006262e-15
10
34.000834869762095
20
-16.039886892069458
30
-2.2204460492503131e-15
10
34.000521815027078
20
-16.031556352602006
30
-4.4408920985006262e-15
10
34.000312980097746
20
-16.023212748715739
30
-2.2204460492503131e-15
10
34.000104377896847
20
-16.014878443052922
30
-2.2204460492503131e-15
10
34.000000000000007
20
-16.006531310187643
30
-2.2204460492503131e-15
10
34.000000000000007
20
-15.998195322238601
30
-4.4408920985006262e-15
0
LINE
5
206
100
AcDbEntity
8
0
100
AcDbLine
10
34.133974596215566
20
-16.498345670597764
30
-4.4408920985006262e-15
11
34.133974596215566
21
-16.498947154480138
31
-4.6504922210960504e-15
0
ELLIPSE
5
207
100
AcDbEntity
8
0
100
AcDbEllipse
10
35.000000000000007
20
-15.998947177091569
30
-4.4408920985006262e-15
11
-0.99999999999999978
21
4.4388848770663575e-10
31
0.0
40
0.99999995477714143
41
0.52359877604218585
42
2.6179938784353838
0
LINE
5
208
100
AcDbEntity
8
0
100
AcDbLine
10
35.866025403784448
20
-16.498947154480138
30
-4.5443929046108691e-15
11
35.866025403784448
21
-16.498345670597764
31
-4.2312919759052019e-15
0
SPLINE
5
209
100
AcDbEntity
8
0
100
AcDbSpline
70
0
71
3
72
68
73
64
74
0
42
0.000000001
43
0.0000000001
44
0.0000000001
40
0
40
0
40
0
40
0
40
0.0500916979689882
40
0.0500916979689882
40
0.0500916979689882
40
0.100150617214791
40
0.100150617214791
40
0.100150617214791
40
0.12506707008981
40
0.12506707008981
40
0.12506707008981
40
0.14991317939200999
40
0.14991317939200999
40
0.14991317939200999
40
0.19982742389866601
40
0.19982742389866601
40
0.19982742389866601
40
0.24990171649368401
40
0.24990171649368401
40
0.24990171649368401
40
0.29987137661963398
40
0.29987137661963398
40
0.29987137661963398
40
0.32473007764269501
40
0.32473007764269501
40
0.32473007764269501
40
0.34961685400400599
40
0.34961685400400599
40
0.34961685400400599
40
0.39961549244319899
40
0.39961549244319899
40
0.39961549244319899
40
0.44973051707296702
40
0.44973051707296702
40
0.44973051707296702
40
0.49973117792944
40
0.49973117792944
40
0.49973117792944
40
0.52462139051501899
40
0.52462139051501899
40
0.52462139051501899
40
0.54947952385321996
40
0.54947952385321996
40
0.54947952385321996
40
0.59946608922404798
40
0.59946608922404798
40
0.59946608922404798
40
0.649562837090779
40
0.649562837090779
40
0.649562837090779
40
0.69948651837831999
40
0.69948651837831999
40
0.69948651837831999
40
0.72433285230234201
40
0.72433285230234201
40
0.72433285230234201
40
0.74924960785197103
40
0.74924960785197103
40
0.74924960785197103
40
0.77425573814444304
40
0.77425573814444304
40
0.77425573814444304
40
0.79931108927943995
40
0.79931108927943995
40
0.79931108927943995
40
0.79931108927943995
10
36.000000000000007
20
-15.998195322238601
30
-4.4408920985006262e-15
10
36.000000000000007
20
-16.014863094353327
30
-4.4408920985006262e-15
10
35.999581015265868
20
-16.031576212779942
30
-4.4408920985006262e-15
10
35.998749581311905
20
-16.048188811563254
30
-4.4408920985006262e-15
10
35.997918691427017
20
-16.064790539487742
30
-4.4408920985006262e-15
10
35.996675837714399
20
-16.081284858826695
30
-2.2204460492503131e-15
10
35.995052775721362
20
-16.097546059263607
30
-4.4408920985006262e-15
10
35.994244908746367
20
-16.105639950232128
30
-4.4408920985006262e-15
10
35.993340633826925
20
-16.113693676877944
30
-2.2204460492503131e-15
10
35.992347441715744
20
-16.121676915317892
30
-4.4408920985006262e-15
10
35.991357053562325
20
-16.129637615657515
30
-4.4408920985006262e-15
10
35.990278327586879
20
-16.137527516758059
30
-4.4408920985006262e-15
10
35.989113909859853
20
-16.145353848980271
30
-4.4408920985006262e-15
10
35.98677466911888
20
-16.161076449866329
30
-4.4408920985006262e-15
10
35.984089947438669
20
-16.176543889404886
30
-4.4408920985006262e-15
10
35.981110895019143
20
-16.19165317166614
30
-4.4408920985006262e-15
10
35.978122290383617
20
-16.20681090125473
30
-4.4408920985006262e-15
10
35.974840230207846
20
-16.221605383212548
30
-2.2204460492503131e-15
10
35.971323206675791
20
-16.235976367585486
30
-2.2204460492503131e-15
10
35.967813532121355
20
-16.250317323145239
30
-4.4408920985006262e-15
10
35.964069936305933
20
-16.264233007319227
30
-4.4408920985006262e-15
10
35.960167349943561
20
-16.277646572926091
30
-4.4408920985006262e-15
10
35.958225907329094
20
-16.284319498381933
30
-4.4408920985006262e-15
10
35.956241575917545
20
-16.290879574005903
30
-4.4408920985006262e-15
10
35.954226693075768
20
-16.29730947638172
30
-2.2204460492503131e-15
10
35.952209534631677
20
-16.303746640668923
30
-4.4408920985006262e-15
10
35.950155187667136
20
-16.310073978684962
30
-2.2204460492503131e-15
10
35.948078777926966
20
-16.316265229348975
30
-4.4408920985006262e-15
10
35.943907178586684
20
-16.328703726763919
30
-4.4408920985006262e-15
10
35.939628303587725
20
-16.340649322254503
30
-4.4408920985006262e-15
10
35.935321314237235
20
-16.352038856442221
30
-4.4408920985006262e-15
10
35.931004299132063
20
-16.363454903041831
30
-4.4408920985006262e-15
10
35.926659890574449
20
-16.374311851307414
30
-6.6613381477509392e-15
10
35.922363902079901
20
-16.384572401277001
30
-6.6613381477509392e-15
10
35.918077717141436
20
-16.394809536408033
30
-2.2204460492503131e-15
10
35.913840687717709
20
-16.404451281623285
30
-4.4408920985006262e-15
10
35.909737576556033
20
-16.413445629715241
30
-4.4408920985006262e-15
10
35.907695057370745
20
-16.417922995258866
30
-4.4408920985006262e-15
10
35.905681516411377
20
-16.422249602319287
30
-4.4408920985006262e-15
10
35.903712739407972
20
-16.426407333638995
30
-4.4408920985006262e-15
10
35.901746499823005
20
-16.430559706350735
30
-4.4408920985006262e-15
10
35.899820277680234
20
-16.4345534686706
30
-4.4408920985006262e-15
10
35.897945623608898
20
-16.438380725424491
30
-4.4408920985006262e-15
10
35.894175931129993
20
-16.446076855190807
30
-2.2204460492503131e-15
10
35.890603295821876
20
-16.453119376150976
30
-6.6613381477509392e-15
10
35.887318998279298
20
-16.459443712617084
30
-4.4408920985006262e-15
10
35.884027461349547
20
-16.465781989452402
30
-4.4408920985006262e-15
10
35.881025670131905
20
-16.471398211433964
30
-4.4408920985006262e-15
10
35.87838776794819
20
-16.476250174669996
30
-4.4408920985006262e-15
10
35.875758978785306
20
-16.481085376085847
30
-4.4408920985006262e-15
10
35.873495309451854
20
-16.485158920542119
30
-4.4408920985006262e-15
10
35.871657519428368
20
-16.488431383164787
30
-4.4408920985006262e-15
10
35.870742876448766
20
-16.490060043090892
30
-4.4408920985006262e-15
10
35.869933770688533
20
-16.491491204482703
30
-6.6613381477509392e-15
10
35.869234064025278
20
-16.492724020746763
30
-4.4408920985006262e-15
10
35.868532374192966
20
-16.493960331165166
30
-4.4408920985006262e-15
10
35.867940783309095
20
-16.49499653018513
30
-4.4408920985006262e-15
10
35.86746557947248
20
-16.49582784827475
30
-4.4408920985006262e-15
10
35.866988671111343
20
-16.496662148247001
30
-4.4408920985006262e-15
10
35.866628190627658
20
-16.49729021616297
30
-4.4408920985006262e-15
10
35.866387604973667
20
-16.497710260815051
30
-4.4408920985006262e-15
10
35.866146545762653
20
-16.498131132262458
30
-4.4408920985006262e-15
10
35.866049988370087
20
-16.498302132130302
30
-4.4408920985006262e-15
10
35.866025403784448
20
-16.498345670597764
30
-4.4408920985006262e-15
0
CIRCLE
5
210
100
AcDbEntity
8
0
100
AcDbCircle
10
-5.0789999999999722
20
-25.758000000000028
30
-2.7755575615628628e-16
40
0.29999999999999805
210
0
220
0
230
1
0
CIRCLE
5
211
100
AcDbEntity
8
0
100
AcDbCircle
10
-5.0789999999999722
20
-23.218000000000046
30
-1.3877787807814728e-16
40
0.29999999999999977
210
0
220
0
230
1
0
CIRCLE
5
212
100
AcDbEntity
8
0
100
AcDbCircle
10
5.0809999999999693
20
-25.758000000000038
30
-4.1633363423443099e-16
40
0.30000000000000016
210
0
220
0
230
1
0
CIRCLE
5
213
100
AcDbEntity
8
0
100
AcDbCircle
10
5.0809999999999693
20
-23.21800000000005
30
-1.387778780781473e-16
40
0.30000000000000088
210
0
220
0
230
1
0
CIRCLE
5
214
100
AcDbEntity
8
0
100
AcDbCircle
10
-18.205726574801261
20
33.524726574801242
30
5.5511151231257827e-16
40
0.79999999999999849
210
0
220
0
230
1
0
CIRCLE
5
215
100
AcDbEntity
8
0
100
AcDbCircle
10
-0.42572657480126813
20
30.984726574801236
30
0
40
0.8000000000000006
210
0
220
0
230
1
0
ENDSEC
0
SECTION
2
OBJECTS
0
DICTIONARY
5
C
100
AcDbDictionary
3
ACAD_GROUP
350
D
3
ACAD_MLINESTYLE
350
17
0
DICTIONARY
5
D
100
AcDbDictionary
0
DICTIONARY
5
1A
330
C
100
AcDbDictionary
0
DICTIONARY
5
17
100
AcDbDictionary
0
ENDSEC
0
EOF
