0
SECTION
2
HEADER
9
$INSUNITS
70
4
9
$ACADVER
1
AC1014
9
$HANDSEED
5
FFFF
0
ENDSEC
0
SECTION
2
TABLES
0
TABLE
2
VPORT
5
8
100
AcDbSymbolTable
0
ENDTAB
0
TABLE
2
LTYPE
5
5
100
AcDbSymbolTable
0
LTYPE
5
14
100
AcDbSymbolTableRecord
100
AcDbLinetypeTableRecord
2
BYBLOCK
70
0
0
LTYPE
5
15
100
AcDbSymbolTableRecord
100
AcDbLinetypeTableRecord
2
BYLAYER
70
0
0
LTYPE
5
16
100
AcDbSymbolTableRecord
100
AcDbLinetypeTableRecord
2
DASHED
70
0
3
Dashed __ __ __ __ __ __ __ __ __ __ __ __ __ _
72
65
73
2
40
0.75
49
0.5
74
0
49
-0.25
74
0
0
ENDTAB
0
TABLE
2
LAYER
5
2
100
AcDbSymbolTable
70
2
0
LAYER
5
50
100
AcDbSymbolTableRecord
100
AcDbLayerTableRecord
2
0
70
0
62
7
6
CONTINUOUS
0
ENDTAB
0
TABLE
2
STYLE
5
3
100
AcDbSymbolTable
70
1
0
STYLE
5
11
100
AcDbSymbolTableRecord
100
AcDbTextStyleTableRecord
2
STANDARD
70
0
0
ENDTAB
0
TABLE
2
VIEW
5
6
100
AcDbSymbolTable
70
0
0
ENDTAB
0
TABLE
2
UCS
5
7
100
AcDbSymbolTable
70
0
0
ENDTAB
0
TABLE
2
APPID
5
9
100
AcDbSymbolTable
70
2
0
APPID
5
12
100
AcDbSymbolTableRecord
100
AcDbRegAppTableRecord
2
ACAD
70
0
0
ENDTAB
0
TABLE
2
DIMSTYLE
5
A
100
AcDbSymbolTable
70
1
0
ENDTAB
0
TABLE
2
BLOCK_RECORD
5
1
100
AcDbSymbolTable
70
1
0
BLOCK_RECORD
5
1F
100
AcDbSymbolTableRecord
100
AcDbBlockTableRecord
2
*MODEL_SPACE
0
BLOCK_RECORD
5
1B
100
AcDbSymbolTableRecord
100
AcDbBlockTableRecord
2
*PAPER_SPACE
0
ENDTAB
0
ENDSEC
0
SECTION
2
BLOCKS
0
BLOCK
5
20
100
AcDbEntity
100
AcDbBlockBegin
2
*MODEL_SPACE
0
ENDBLK
5
21
100
AcDbEntity
100
AcDbBlockEnd
0
BLOCK
5
1C
100
AcDbEntity
100
AcDbBlockBegin
2
*PAPER_SPACE
0
ENDBLK
5
1D
100
AcDbEntity
100
AcDbBlockEnd
0
ENDSEC
0
SECTION
2
ENTITIES
0
CIRCLE
5
100
100
AcDbEntity
8
0
100
AcDbCircle
10
2.9994288883348652
20
-26.798496204392279
30
8.3266726846886819e-16
40
0.65000000000000047
210
1.6479873021774155e-16
220
4.9099242226656516e-17
230
1
0
CIRCLE
5
101
100
AcDbEntity
8
0
100
AcDbCircle
10
-2.0005711116651419
20
-26.798496204392279
30
1.6653345369377358e-15
40
0.65000000000000047
210
1.6479873021774155e-16
220
4.9099242226656516e-17
230
1
0
CIRCLE
5
102
100
AcDbEntity
8
0
100
AcDbCircle
10
11.000571111664929
20
-26.798496204392301
30
-3.3306690738754696e-15
40
0.64999999999999936
210
1.6479873021774587e-16
220
-4.9099242226643013e-17
230
1
0
CIRCLE
5
103
100
AcDbEntity
8
0
100
AcDbCircle
10
16.000571111664929
20
-26.798496204392308
30
-4.163336342344337e-15
40
0.64999999999999936
210
1.6479873021774587e-16
220
-4.9099242226643013e-17
230
1
0
CIRCLE
5
104
100
AcDbEntity
8
0
100
AcDbCircle
10
-14.999428888335075
20
-26.798496204392293
30
8.3266726846886741e-16
40
0.64999999999999936
210
1.6479873021774587e-16
220
-4.909924222664321e-17
230
1
0
CIRCLE
5
105
100
AcDbEntity
8
0
100
AcDbCircle
10
-9.9994288883350784
20
-26.798496204392297
30
2.7755575615628914e-16
40
0.64999999999999936
210
1.6479873021774587e-16
220
-4.909924222664321e-17
230
1
0
LWPOLYLINE
5
106
100
AcDbEntity
8
0
100
AcDbPolyline
90
10
70
1
43
0.0
10
20.15057111166491
20
-18.998496204392282
10
-19.149428888335088
20
-18.998496204392282
10
-19.149428888335088
20
-53.151503795607695
10
-24.350000000000115
20
-53.151503795607695
10
-24.350000000000112
20
-65.360467743167575
10
15.950571111664903
20
-65.360467743167575
10
15.950571111664916
20
-55.301503795607701
10
29.050571111664915
20
-55.301503795607715
10
29.050571111664915
20
-43.392584653361524
10
20.15057111166491
20
-43.392584653361524
0
CIRCLE
5
107
100
AcDbEntity
8
0
100
AcDbCircle
10
-23.080000000000126
20
-55.330467743167588
30
5.9769355263694646e-15
40
0.49999999999999822
210
0
220
0
230
1
0
CIRCLE
5
108
100
AcDbEntity
8
0
100
AcDbCircle
10
-18.000000000000121
20
-55.330467743167588
30
6.3929981100607769e-15
40
0.49999999999999867
210
0
220
0
230
1
0
CIRCLE
5
109
100
AcDbEntity
8
0
100
AcDbCircle
10
-9
20
-57.57635182264422
30
-1.3877787807814457e-15
40
1.5000000000000036
210
0
220
0
230
1
0
CIRCLE
5
110
100
AcDbEntity
8
0
100
AcDbCircle
10
-1.1670822152467815e-13
20
-57.000000000000036
30
-2.7755575615628914e-16
40
3.0000000000000004
210
7.8886090522101286e-31
220
1.7749370367472766e-30
230
1
0
CIRCLE
5
111
100
AcDbEntity
8
0
100
AcDbCircle
10
8.9999999999998934
20
-57.000000000000036
30
-2.7755575615628914e-16
40
3.0000000000000004
210
7.8886090522101286e-31
220
1.7749370367472766e-30
230
1
0
CIRCLE
5
112
100
AcDbEntity
8
0
100
AcDbCircle
10
-9.0000000000001261
20
-57.000000000000036
30
-2.7755575615628914e-16
40
3.0000000000000004
210
7.8886090522101286e-31
220
1.7749370367472766e-30
230
1
0
LWPOLYLINE
5
113
100
AcDbEntity
8
0
100
AcDbPolyline
90
4
70
1
43
0.0
10
-6.4279875998815461
20
-49.50000079597848
10
-6.4279875998815497
20
-37.500000795978465
10
5.907378925779561
20
-37.500000795978458
10
5.9073789257795646
20
-49.50000079597848
0
LWPOLYLINE
5
114
100
AcDbEntity
8
0
100
AcDbPolyline
90
4
70
1
43
0.0
10
-10.592620999714645
20
-51.00000079597848
10
10.407379000285378
20
-51.000000795978472
10
10.407379000285372
20
-36.000000795978465
10
-10.592620999714651
20
-36.000000795978465
0
CIRCLE
5
115
100
AcDbEntity
8
0
100
AcDbCircle
10
24.900571111664934
20
-47.401503795607709
30
3.2696127123163972e-15
40
0.65000000000000169
210
-2.203098814490124e-16
220
-4.9099242226652282e-17
230
1
0
CIRCLE
5
116
100
AcDbEntity
8
0
100
AcDbCircle
10
19.900571111664917
20
-47.401503795607709
30
1.9859173400938202e-15
40
0.65000000000000169
210
-2.203098814490124e-16
220
-4.9099242226652282e-17
230
1
0
ENDSEC
0
SECTION
2
OBJECTS
0
DICTIONARY
5
C
100
AcDbDictionary
3
ACAD_GROUP
350
D
3
ACAD_MLINESTYLE
350
17
0
DICTIONARY
5
D
100
AcDbDictionary
0
DICTIONARY
5
1A
330
C
100
AcDbDictionary
0
DICTIONARY
5
17
100
AcDbDictionary
0
ENDSEC
0
EOF
